%TF.GenerationSoftware,KiCad,Pcbnew,7.0.11+dfsg-1build4*%
%TF.CreationDate,2025-02-10T19:25:52-07:00*%
%TF.ProjectId,rfid-v2,72666964-2d76-4322-9e6b-696361645f70,rev?*%
%TF.SameCoordinates,Original*%
%TF.FileFunction,Copper,L2,Bot*%
%TF.FilePolarity,Positive*%
%FSLAX46Y46*%
G04 Gerber Fmt 4.6, Leading zero omitted, Abs format (unit mm)*
G04 Created by KiCad (PCBNEW 7.0.11+dfsg-1build4) date 2025-02-10 19:25:52*
%MOMM*%
%LPD*%
G01*
G04 APERTURE LIST*
%TA.AperFunction,ComponentPad*%
%ADD10R,1.700000X1.700000*%
%TD*%
%TA.AperFunction,ComponentPad*%
%ADD11O,1.700000X1.700000*%
%TD*%
%TA.AperFunction,ComponentPad*%
%ADD12C,1.600000*%
%TD*%
%TA.AperFunction,ComponentPad*%
%ADD13O,1.600000X1.600000*%
%TD*%
%TA.AperFunction,ComponentPad*%
%ADD14R,2.600000X2.600000*%
%TD*%
%TA.AperFunction,ComponentPad*%
%ADD15C,2.600000*%
%TD*%
%TA.AperFunction,ComponentPad*%
%ADD16R,2.200000X2.200000*%
%TD*%
%TA.AperFunction,ComponentPad*%
%ADD17O,2.200000X2.200000*%
%TD*%
%TA.AperFunction,ComponentPad*%
%ADD18C,1.700000*%
%TD*%
%TA.AperFunction,ComponentPad*%
%ADD19R,1.500000X1.050000*%
%TD*%
%TA.AperFunction,ComponentPad*%
%ADD20O,1.500000X1.050000*%
%TD*%
%TA.AperFunction,ComponentPad*%
%ADD21R,2.000000X2.000000*%
%TD*%
%TA.AperFunction,ComponentPad*%
%ADD22C,2.000000*%
%TD*%
%TA.AperFunction,Conductor*%
%ADD23C,0.500000*%
%TD*%
G04 APERTURE END LIST*
D10*
%TO.P,J3,1,Pin_1*%
%TO.N,Net-(J3-Pin_1)*%
X110495000Y-91948000D03*
D11*
%TO.P,J3,2,Pin_2*%
%TO.N,Net-(J3-Pin_2)*%
X107955000Y-91948000D03*
%TD*%
D12*
%TO.P,R1,1*%
%TO.N,/RELAY*%
X176276000Y-84836000D03*
D13*
%TO.P,R1,2*%
%TO.N,Net-(Q1-B)*%
X186436000Y-84836000D03*
%TD*%
D14*
%TO.P,J1,1,Pin_1*%
%TO.N,/V5*%
X124460000Y-88646000D03*
D15*
%TO.P,J1,2,Pin_2*%
%TO.N,/GND*%
X129540000Y-88646000D03*
%TD*%
D16*
%TO.P,D1,1,K*%
%TO.N,/V5*%
X171196000Y-88646000D03*
D17*
%TO.P,D1,2,A*%
%TO.N,Net-(D1-A)*%
X181356000Y-88646000D03*
%TD*%
D10*
%TO.P,U1,1,3V3*%
%TO.N,unconnected-(U1-3V3-Pad1)*%
X173736000Y-52578000D03*
D18*
%TO.P,U1,2,GND*%
%TO.N,unconnected-(U1-GND-Pad2)*%
X171196000Y-52578000D03*
%TO.P,U1,3,D15*%
%TO.N,unconnected-(U1-D15-Pad3)*%
X168656000Y-52578000D03*
%TO.P,U1,4,D2*%
%TO.N,unconnected-(U1-D2-Pad4)*%
X166116000Y-52578000D03*
%TO.P,U1,5,D4*%
%TO.N,unconnected-(U1-D4-Pad5)*%
X163576000Y-52578000D03*
%TO.P,U1,6,D16*%
%TO.N,unconnected-(U1-D16-Pad6)*%
X161036000Y-52578000D03*
%TO.P,U1,7,D17*%
%TO.N,unconnected-(U1-D17-Pad7)*%
X158496000Y-52578000D03*
%TO.P,U1,8,D5*%
%TO.N,unconnected-(U1-D5-Pad8)*%
X155956000Y-52578000D03*
%TO.P,U1,9,D18*%
%TO.N,unconnected-(U1-D18-Pad9)*%
X153416000Y-52578000D03*
%TO.P,U1,10,D19*%
%TO.N,unconnected-(U1-D19-Pad10)*%
X150876000Y-52578000D03*
%TO.P,U1,11,D21*%
%TO.N,unconnected-(U1-D21-Pad11)*%
X148336000Y-52578000D03*
%TO.P,U1,12,D3*%
%TO.N,unconnected-(U1-D3-Pad12)*%
X145796000Y-52578000D03*
%TO.P,U1,13,D1*%
%TO.N,unconnected-(U1-D1-Pad13)*%
X143256000Y-52578000D03*
%TO.P,U1,14,D22*%
%TO.N,unconnected-(U1-D22-Pad14)*%
X140716000Y-52578000D03*
%TO.P,U1,15,D23*%
%TO.N,unconnected-(U1-D23-Pad15)*%
X138176000Y-52578000D03*
%TO.P,U1,16,ENABLE*%
%TO.N,unconnected-(U1-ENABLE-Pad16)*%
X138176000Y-80518000D03*
%TO.P,U1,17,D36*%
%TO.N,unconnected-(U1-D36-Pad17)*%
X140716000Y-80518000D03*
%TO.P,U1,18,D39*%
%TO.N,unconnected-(U1-D39-Pad18)*%
X143256000Y-80518000D03*
%TO.P,U1,19,D34*%
%TO.N,unconnected-(U1-D34-Pad19)*%
X145796000Y-80518000D03*
%TO.P,U1,20,D35*%
%TO.N,unconnected-(U1-D35-Pad20)*%
X148336000Y-80518000D03*
%TO.P,U1,21,D32*%
%TO.N,unconnected-(U1-D32-Pad21)*%
X150876000Y-80518000D03*
%TO.P,U1,22,D33*%
%TO.N,unconnected-(U1-D33-Pad22)*%
X153416000Y-80518000D03*
%TO.P,U1,23,D25*%
%TO.N,unconnected-(U1-D25-Pad23)*%
X155956000Y-80518000D03*
%TO.P,U1,24,D26*%
%TO.N,unconnected-(U1-D26-Pad24)*%
X158496000Y-80518000D03*
%TO.P,U1,25,D27*%
%TO.N,unconnected-(U1-D27-Pad25)*%
X161036000Y-80518000D03*
%TO.P,U1,26,D14*%
%TO.N,/RELAY*%
X163576000Y-80518000D03*
%TO.P,U1,27,D12*%
%TO.N,unconnected-(U1-D12-Pad27)*%
X166116000Y-80518000D03*
%TO.P,U1,28,D13*%
%TO.N,/RFID_TX*%
X168656000Y-80518000D03*
%TO.P,U1,29,GND*%
%TO.N,/GND*%
X171196000Y-80518000D03*
%TO.P,U1,30,VIN*%
%TO.N,/V5*%
X173736000Y-80518000D03*
%TD*%
D12*
%TO.P,R4,1*%
%TO.N,/RFID_TX*%
X121412000Y-70104000D03*
D13*
%TO.P,R4,2*%
%TO.N,/GND*%
X121412000Y-80264000D03*
%TD*%
D19*
%TO.P,Q1,1,E*%
%TO.N,/GND*%
X186288000Y-92202000D03*
D20*
%TO.P,Q1,2,B*%
%TO.N,Net-(Q1-B)*%
X186288000Y-90932000D03*
%TO.P,Q1,3,C*%
%TO.N,Net-(D1-A)*%
X186288000Y-89662000D03*
%TD*%
D12*
%TO.P,R2,1*%
%TO.N,Net-(Q1-B)*%
X181356000Y-92964000D03*
D13*
%TO.P,R2,2*%
%TO.N,/GND*%
X171196000Y-92964000D03*
%TD*%
D14*
%TO.P,J2,1,Pin_1*%
%TO.N,/NC*%
X137414000Y-88646000D03*
D15*
%TO.P,J2,2,Pin_2*%
%TO.N,/COM*%
X142494000Y-88646000D03*
%TO.P,J2,3,Pin_3*%
%TO.N,/NO*%
X147574000Y-88646000D03*
%TD*%
D10*
%TO.P,U2,1,TX*%
%TO.N,Net-(U2-TX)*%
X102108000Y-53340000D03*
D18*
%TO.P,U2,2,RX*%
%TO.N,unconnected-(U2-RX-Pad2)*%
X102108000Y-55880000D03*
%TO.P,U2,3,NC*%
%TO.N,unconnected-(U2-NC-Pad3)*%
X102108000Y-58420000D03*
%TO.P,U2,4,GND*%
%TO.N,/GND*%
X102108000Y-60960000D03*
%TO.P,U2,5,5V*%
%TO.N,/V5*%
X102108000Y-63500000D03*
%TO.P,U2,6,LED*%
%TO.N,unconnected-(U2-LED-Pad6)*%
X117348000Y-53340000D03*
%TO.P,U2,7,5V*%
%TO.N,unconnected-(U2-5V-Pad7)*%
X117348000Y-55880000D03*
%TO.P,U2,8,GND*%
%TO.N,unconnected-(U2-GND-Pad8)*%
X117348000Y-58420000D03*
%TO.P,U2,9,ANT1*%
%TO.N,Net-(J3-Pin_2)*%
X117348000Y-83820000D03*
%TO.P,U2,10,ANT2*%
%TO.N,Net-(J3-Pin_1)*%
X117348000Y-86360000D03*
%TD*%
D21*
%TO.P,K1,1*%
%TO.N,/V5*%
X167132000Y-87884000D03*
D22*
%TO.P,K1,3*%
%TO.N,/NC*%
X162052000Y-87884000D03*
%TO.P,K1,4*%
%TO.N,/COM*%
X159512000Y-87884000D03*
%TO.P,K1,5*%
%TO.N,/NO*%
X156972000Y-87884000D03*
%TO.P,K1,8*%
%TO.N,unconnected-(K1-Pad8)*%
X156972000Y-92964000D03*
%TO.P,K1,9*%
%TO.N,unconnected-(K1-Pad9)*%
X159512000Y-92964000D03*
%TO.P,K1,10*%
%TO.N,unconnected-(K1-Pad10)*%
X162052000Y-92964000D03*
%TO.P,K1,12*%
%TO.N,Net-(D1-A)*%
X167132000Y-92964000D03*
%TD*%
D12*
%TO.P,R3,1*%
%TO.N,Net-(U2-TX)*%
X121412000Y-54610000D03*
D13*
%TO.P,R3,2*%
%TO.N,/RFID_TX*%
X121412000Y-64770000D03*
%TD*%
D23*
%TO.N,/V5*%
X124460000Y-88646000D02*
X119126000Y-83312000D01*
X173736000Y-80518000D02*
X171196000Y-83058000D01*
X169545000Y-88646000D02*
X168783000Y-87884000D01*
X171196000Y-77978000D02*
X170942000Y-77978000D01*
X171196000Y-88646000D02*
X169545000Y-88646000D01*
X168783000Y-87884000D02*
X167132000Y-87884000D01*
X119126000Y-80518000D02*
X102108000Y-63500000D01*
X173736000Y-80518000D02*
X171196000Y-77978000D01*
X119126000Y-83312000D02*
X119126000Y-80518000D01*
X170942000Y-77978000D02*
X135128000Y-77978000D01*
X135128000Y-77978000D02*
X124460000Y-88646000D01*
X171196000Y-83058000D02*
X171196000Y-88646000D01*
%TO.N,/GND*%
X169418000Y-82296000D02*
X169164000Y-82296000D01*
X171196000Y-92964000D02*
X168656000Y-90424000D01*
X135890000Y-82296000D02*
X163068000Y-82296000D01*
X185425000Y-92207000D02*
X186288000Y-92207000D01*
X129540000Y-88646000D02*
X135890000Y-82296000D01*
X168656000Y-90424000D02*
X166172000Y-90424000D01*
X171196000Y-92964000D02*
X177800000Y-92964000D01*
X163068000Y-82296000D02*
X169164000Y-82296000D01*
X171196000Y-80518000D02*
X169418000Y-82296000D01*
X166172000Y-90424000D02*
X164846000Y-89098000D01*
X177800000Y-92964000D02*
X179350000Y-91414000D01*
X164846000Y-84074000D02*
X163068000Y-82296000D01*
X179350000Y-91414000D02*
X184632000Y-91414000D01*
X184632000Y-91414000D02*
X185425000Y-92207000D01*
X164846000Y-89098000D02*
X164846000Y-84074000D01*
%TD*%
M02*
