M48
; DRILL file {KiCad 7.0.11+dfsg-1build4} date Mon 10 Feb 2025 07:26:54 PM MST
; FORMAT={-:-/ absolute / metric / decimal}
; #@! TF.CreationDate,2025-02-10T19:26:54-07:00
; #@! TF.GenerationSoftware,Kicad,Pcbnew,7.0.11+dfsg-1build4
; #@! TF.FileFunction,Plated,1,2,PTH
FMAT,2
METRIC
; #@! TA.AperFunction,Plated,PTH,ComponentDrill
T1C0.750
; #@! TA.AperFunction,Plated,PTH,ComponentDrill
T2C0.800
; #@! TA.AperFunction,Plated,PTH,ComponentDrill
T3C1.000
; #@! TA.AperFunction,Plated,PTH,ComponentDrill
T4C1.100
; #@! TA.AperFunction,Plated,PTH,ComponentDrill
T5C1.300
%
G90
G05
T1
X186.288Y-89.662
X186.288Y-90.932
X186.288Y-92.202
T2
X121.412Y-54.61
X121.412Y-64.77
X121.412Y-70.104
X121.412Y-80.264
X171.196Y-92.964
X176.276Y-84.836
X181.356Y-92.964
X186.436Y-84.836
T3
X102.108Y-53.34
X102.108Y-55.88
X102.108Y-58.42
X102.108Y-60.96
X102.108Y-63.5
X107.955Y-91.948
X110.495Y-91.948
X117.348Y-53.34
X117.348Y-55.88
X117.348Y-58.42
X117.348Y-83.82
X117.348Y-86.36
X138.176Y-52.578
X138.176Y-80.518
X140.716Y-52.578
X140.716Y-80.518
X143.256Y-52.578
X143.256Y-80.518
X145.796Y-52.578
X145.796Y-80.518
X148.336Y-52.578
X148.336Y-80.518
X150.876Y-52.578
X150.876Y-80.518
X153.416Y-52.578
X153.416Y-80.518
X155.956Y-52.578
X155.956Y-80.518
X156.972Y-87.884
X156.972Y-92.964
X158.496Y-52.578
X158.496Y-80.518
X159.512Y-87.884
X159.512Y-92.964
X161.036Y-52.578
X161.036Y-80.518
X162.052Y-87.884
X162.052Y-92.964
X163.576Y-52.578
X163.576Y-80.518
X166.116Y-52.578
X166.116Y-80.518
X167.132Y-87.884
X167.132Y-92.964
X168.656Y-52.578
X168.656Y-80.518
X171.196Y-52.578
X171.196Y-80.518
X173.736Y-52.578
X173.736Y-80.518
T4
X171.196Y-88.646
X181.356Y-88.646
T5
X124.46Y-88.646
X129.54Y-88.646
X137.414Y-88.646
X142.494Y-88.646
X147.574Y-88.646
M30
