%TF.GenerationSoftware,KiCad,Pcbnew,7.0.11+dfsg-1build4*%
%TF.CreationDate,2025-02-10T19:27:04-07:00*%
%TF.ProjectId,rfid-v2,72666964-2d76-4322-9e6b-696361645f70,rev?*%
%TF.SameCoordinates,Original*%
%TF.FileFunction,Drillmap*%
%TF.FilePolarity,Positive*%
%FSLAX45Y45*%
G04 Gerber Fmt 4.5, Leading zero omitted, Abs format (unit mm)*
G04 Created by KiCad (PCBNEW 7.0.11+dfsg-1build4) date 2025-02-10 19:27:04*
%MOMM*%
%LPD*%
G01*
G04 APERTURE LIST*
%ADD10C,0.200000*%
%ADD11C,0.100000*%
%ADD12C,0.110000*%
%ADD13C,0.130000*%
G04 APERTURE END LIST*
D10*
X10000000Y-5000000D02*
X19000000Y-5000000D01*
X19000000Y-9500000D01*
X10000000Y-9500000D01*
X10000000Y-5000000D01*
D11*
X18591300Y-8928700D02*
X18666300Y-9003700D01*
X18666300Y-8928700D02*
X18591300Y-9003700D01*
X18591300Y-9055700D02*
X18666300Y-9130700D01*
X18666300Y-9055700D02*
X18591300Y-9130700D01*
X18591300Y-9182700D02*
X18666300Y-9257700D01*
X18666300Y-9182700D02*
X18591300Y-9257700D01*
X12181200Y-5461000D02*
G75*
G03*
X12101200Y-5461000I-40000J0D01*
G01*
X12101200Y-5461000D02*
G75*
G03*
X12181200Y-5461000I40000J0D01*
G01*
X12181200Y-6477000D02*
G75*
G03*
X12101200Y-6477000I-40000J0D01*
G01*
X12101200Y-6477000D02*
G75*
G03*
X12181200Y-6477000I40000J0D01*
G01*
X12181200Y-7010400D02*
G75*
G03*
X12101200Y-7010400I-40000J0D01*
G01*
X12101200Y-7010400D02*
G75*
G03*
X12181200Y-7010400I40000J0D01*
G01*
X12181200Y-8026400D02*
G75*
G03*
X12101200Y-8026400I-40000J0D01*
G01*
X12101200Y-8026400D02*
G75*
G03*
X12181200Y-8026400I40000J0D01*
G01*
X17159600Y-9296400D02*
G75*
G03*
X17079600Y-9296400I-40000J0D01*
G01*
X17079600Y-9296400D02*
G75*
G03*
X17159600Y-9296400I40000J0D01*
G01*
X17667600Y-8483600D02*
G75*
G03*
X17587600Y-8483600I-40000J0D01*
G01*
X17587600Y-8483600D02*
G75*
G03*
X17667600Y-8483600I40000J0D01*
G01*
X18175600Y-9296400D02*
G75*
G03*
X18095600Y-9296400I-40000J0D01*
G01*
X18095600Y-9296400D02*
G75*
G03*
X18175600Y-9296400I40000J0D01*
G01*
X18683600Y-8483600D02*
G75*
G03*
X18603600Y-8483600I-40000J0D01*
G01*
X18603600Y-8483600D02*
G75*
G03*
X18683600Y-8483600I40000J0D01*
G01*
X10210800Y-5284000D02*
X10210800Y-5384000D01*
X10160800Y-5334000D02*
X10260800Y-5334000D01*
X10210800Y-5538000D02*
X10210800Y-5638000D01*
X10160800Y-5588000D02*
X10260800Y-5588000D01*
X10210800Y-5792000D02*
X10210800Y-5892000D01*
X10160800Y-5842000D02*
X10260800Y-5842000D01*
X10210800Y-6046000D02*
X10210800Y-6146000D01*
X10160800Y-6096000D02*
X10260800Y-6096000D01*
X10210800Y-6300000D02*
X10210800Y-6400000D01*
X10160800Y-6350000D02*
X10260800Y-6350000D01*
X10795500Y-9144800D02*
X10795500Y-9244800D01*
X10745500Y-9194800D02*
X10845500Y-9194800D01*
X11049500Y-9144800D02*
X11049500Y-9244800D01*
X10999500Y-9194800D02*
X11099500Y-9194800D01*
X11734800Y-5284000D02*
X11734800Y-5384000D01*
X11684800Y-5334000D02*
X11784800Y-5334000D01*
X11734800Y-5538000D02*
X11734800Y-5638000D01*
X11684800Y-5588000D02*
X11784800Y-5588000D01*
X11734800Y-5792000D02*
X11734800Y-5892000D01*
X11684800Y-5842000D02*
X11784800Y-5842000D01*
X11734800Y-8332000D02*
X11734800Y-8432000D01*
X11684800Y-8382000D02*
X11784800Y-8382000D01*
X11734800Y-8586000D02*
X11734800Y-8686000D01*
X11684800Y-8636000D02*
X11784800Y-8636000D01*
X13817600Y-5207800D02*
X13817600Y-5307800D01*
X13767600Y-5257800D02*
X13867600Y-5257800D01*
X13817600Y-8001800D02*
X13817600Y-8101800D01*
X13767600Y-8051800D02*
X13867600Y-8051800D01*
X14071600Y-5207800D02*
X14071600Y-5307800D01*
X14021600Y-5257800D02*
X14121600Y-5257800D01*
X14071600Y-8001800D02*
X14071600Y-8101800D01*
X14021600Y-8051800D02*
X14121600Y-8051800D01*
X14325600Y-5207800D02*
X14325600Y-5307800D01*
X14275600Y-5257800D02*
X14375600Y-5257800D01*
X14325600Y-8001800D02*
X14325600Y-8101800D01*
X14275600Y-8051800D02*
X14375600Y-8051800D01*
X14579600Y-5207800D02*
X14579600Y-5307800D01*
X14529600Y-5257800D02*
X14629600Y-5257800D01*
X14579600Y-8001800D02*
X14579600Y-8101800D01*
X14529600Y-8051800D02*
X14629600Y-8051800D01*
X14833600Y-5207800D02*
X14833600Y-5307800D01*
X14783600Y-5257800D02*
X14883600Y-5257800D01*
X14833600Y-8001800D02*
X14833600Y-8101800D01*
X14783600Y-8051800D02*
X14883600Y-8051800D01*
X15087600Y-5207800D02*
X15087600Y-5307800D01*
X15037600Y-5257800D02*
X15137600Y-5257800D01*
X15087600Y-8001800D02*
X15087600Y-8101800D01*
X15037600Y-8051800D02*
X15137600Y-8051800D01*
X15341600Y-5207800D02*
X15341600Y-5307800D01*
X15291600Y-5257800D02*
X15391600Y-5257800D01*
X15341600Y-8001800D02*
X15341600Y-8101800D01*
X15291600Y-8051800D02*
X15391600Y-8051800D01*
X15595600Y-5207800D02*
X15595600Y-5307800D01*
X15545600Y-5257800D02*
X15645600Y-5257800D01*
X15595600Y-8001800D02*
X15595600Y-8101800D01*
X15545600Y-8051800D02*
X15645600Y-8051800D01*
X15697200Y-8738400D02*
X15697200Y-8838400D01*
X15647200Y-8788400D02*
X15747200Y-8788400D01*
X15697200Y-9246400D02*
X15697200Y-9346400D01*
X15647200Y-9296400D02*
X15747200Y-9296400D01*
X15849600Y-5207800D02*
X15849600Y-5307800D01*
X15799600Y-5257800D02*
X15899600Y-5257800D01*
X15849600Y-8001800D02*
X15849600Y-8101800D01*
X15799600Y-8051800D02*
X15899600Y-8051800D01*
X15951200Y-8738400D02*
X15951200Y-8838400D01*
X15901200Y-8788400D02*
X16001200Y-8788400D01*
X15951200Y-9246400D02*
X15951200Y-9346400D01*
X15901200Y-9296400D02*
X16001200Y-9296400D01*
X16103600Y-5207800D02*
X16103600Y-5307800D01*
X16053600Y-5257800D02*
X16153600Y-5257800D01*
X16103600Y-8001800D02*
X16103600Y-8101800D01*
X16053600Y-8051800D02*
X16153600Y-8051800D01*
X16205200Y-8738400D02*
X16205200Y-8838400D01*
X16155200Y-8788400D02*
X16255200Y-8788400D01*
X16205200Y-9246400D02*
X16205200Y-9346400D01*
X16155200Y-9296400D02*
X16255200Y-9296400D01*
X16357600Y-5207800D02*
X16357600Y-5307800D01*
X16307600Y-5257800D02*
X16407600Y-5257800D01*
X16357600Y-8001800D02*
X16357600Y-8101800D01*
X16307600Y-8051800D02*
X16407600Y-8051800D01*
X16611600Y-5207800D02*
X16611600Y-5307800D01*
X16561600Y-5257800D02*
X16661600Y-5257800D01*
X16611600Y-8001800D02*
X16611600Y-8101800D01*
X16561600Y-8051800D02*
X16661600Y-8051800D01*
X16713200Y-8738400D02*
X16713200Y-8838400D01*
X16663200Y-8788400D02*
X16763200Y-8788400D01*
X16713200Y-9246400D02*
X16713200Y-9346400D01*
X16663200Y-9296400D02*
X16763200Y-9296400D01*
X16865600Y-5207800D02*
X16865600Y-5307800D01*
X16815600Y-5257800D02*
X16915600Y-5257800D01*
X16865600Y-8001800D02*
X16865600Y-8101800D01*
X16815600Y-8051800D02*
X16915600Y-8051800D01*
X17119600Y-5207800D02*
X17119600Y-5307800D01*
X17069600Y-5257800D02*
X17169600Y-5257800D01*
X17119600Y-8001800D02*
X17119600Y-8101800D01*
X17069600Y-8051800D02*
X17169600Y-8051800D01*
X17373600Y-5207800D02*
X17373600Y-5307800D01*
X17323600Y-5257800D02*
X17423600Y-5257800D01*
X17373600Y-8001800D02*
X17373600Y-8101800D01*
X17323600Y-8051800D02*
X17423600Y-8051800D01*
D12*
X17158491Y-8903491D02*
X17158491Y-8825709D01*
X17080709Y-8825709D01*
X17080709Y-8903491D01*
X17158491Y-8903491D01*
X18174491Y-8903491D02*
X18174491Y-8825709D01*
X18096709Y-8825709D01*
X18096709Y-8903491D01*
X18174491Y-8903491D01*
D13*
X12446000Y-8929600D02*
X12511000Y-8864600D01*
X12446000Y-8799600D01*
X12381000Y-8864600D01*
X12446000Y-8929600D01*
X12954000Y-8929600D02*
X13019000Y-8864600D01*
X12954000Y-8799600D01*
X12889000Y-8864600D01*
X12954000Y-8929600D01*
X13741400Y-8929600D02*
X13806400Y-8864600D01*
X13741400Y-8799600D01*
X13676400Y-8864600D01*
X13741400Y-8929600D01*
X14249400Y-8929600D02*
X14314400Y-8864600D01*
X14249400Y-8799600D01*
X14184400Y-8864600D01*
X14249400Y-8929600D01*
X14757400Y-8929600D02*
X14822400Y-8864600D01*
X14757400Y-8799600D01*
X14692400Y-8864600D01*
X14757400Y-8929600D01*
D10*
X10250777Y-9821484D02*
X10250777Y-9621484D01*
X10250777Y-9621484D02*
X10298396Y-9621484D01*
X10298396Y-9621484D02*
X10326967Y-9631008D01*
X10326967Y-9631008D02*
X10346015Y-9650055D01*
X10346015Y-9650055D02*
X10355539Y-9669103D01*
X10355539Y-9669103D02*
X10365063Y-9707198D01*
X10365063Y-9707198D02*
X10365063Y-9735770D01*
X10365063Y-9735770D02*
X10355539Y-9773865D01*
X10355539Y-9773865D02*
X10346015Y-9792912D01*
X10346015Y-9792912D02*
X10326967Y-9811960D01*
X10326967Y-9811960D02*
X10298396Y-9821484D01*
X10298396Y-9821484D02*
X10250777Y-9821484D01*
X10450777Y-9821484D02*
X10450777Y-9688150D01*
X10450777Y-9726246D02*
X10460301Y-9707198D01*
X10460301Y-9707198D02*
X10469824Y-9697674D01*
X10469824Y-9697674D02*
X10488872Y-9688150D01*
X10488872Y-9688150D02*
X10507920Y-9688150D01*
X10574586Y-9821484D02*
X10574586Y-9688150D01*
X10574586Y-9621484D02*
X10565063Y-9631008D01*
X10565063Y-9631008D02*
X10574586Y-9640531D01*
X10574586Y-9640531D02*
X10584110Y-9631008D01*
X10584110Y-9631008D02*
X10574586Y-9621484D01*
X10574586Y-9621484D02*
X10574586Y-9640531D01*
X10698396Y-9821484D02*
X10679348Y-9811960D01*
X10679348Y-9811960D02*
X10669824Y-9792912D01*
X10669824Y-9792912D02*
X10669824Y-9621484D01*
X10803158Y-9821484D02*
X10784110Y-9811960D01*
X10784110Y-9811960D02*
X10774586Y-9792912D01*
X10774586Y-9792912D02*
X10774586Y-9621484D01*
X11031729Y-9821484D02*
X11031729Y-9621484D01*
X11031729Y-9621484D02*
X11098396Y-9764341D01*
X11098396Y-9764341D02*
X11165063Y-9621484D01*
X11165063Y-9621484D02*
X11165063Y-9821484D01*
X11346015Y-9821484D02*
X11346015Y-9716722D01*
X11346015Y-9716722D02*
X11336491Y-9697674D01*
X11336491Y-9697674D02*
X11317443Y-9688150D01*
X11317443Y-9688150D02*
X11279348Y-9688150D01*
X11279348Y-9688150D02*
X11260301Y-9697674D01*
X11346015Y-9811960D02*
X11326967Y-9821484D01*
X11326967Y-9821484D02*
X11279348Y-9821484D01*
X11279348Y-9821484D02*
X11260301Y-9811960D01*
X11260301Y-9811960D02*
X11250777Y-9792912D01*
X11250777Y-9792912D02*
X11250777Y-9773865D01*
X11250777Y-9773865D02*
X11260301Y-9754817D01*
X11260301Y-9754817D02*
X11279348Y-9745293D01*
X11279348Y-9745293D02*
X11326967Y-9745293D01*
X11326967Y-9745293D02*
X11346015Y-9735770D01*
X11441253Y-9688150D02*
X11441253Y-9888150D01*
X11441253Y-9697674D02*
X11460301Y-9688150D01*
X11460301Y-9688150D02*
X11498396Y-9688150D01*
X11498396Y-9688150D02*
X11517443Y-9697674D01*
X11517443Y-9697674D02*
X11526967Y-9707198D01*
X11526967Y-9707198D02*
X11536491Y-9726246D01*
X11536491Y-9726246D02*
X11536491Y-9783389D01*
X11536491Y-9783389D02*
X11526967Y-9802436D01*
X11526967Y-9802436D02*
X11517443Y-9811960D01*
X11517443Y-9811960D02*
X11498396Y-9821484D01*
X11498396Y-9821484D02*
X11460301Y-9821484D01*
X11460301Y-9821484D02*
X11441253Y-9811960D01*
X11622205Y-9802436D02*
X11631729Y-9811960D01*
X11631729Y-9811960D02*
X11622205Y-9821484D01*
X11622205Y-9821484D02*
X11612682Y-9811960D01*
X11612682Y-9811960D02*
X11622205Y-9802436D01*
X11622205Y-9802436D02*
X11622205Y-9821484D01*
X11622205Y-9697674D02*
X11631729Y-9707198D01*
X11631729Y-9707198D02*
X11622205Y-9716722D01*
X11622205Y-9716722D02*
X11612682Y-9707198D01*
X11612682Y-9707198D02*
X11622205Y-9697674D01*
X11622205Y-9697674D02*
X11622205Y-9716722D01*
D11*
X9915000Y-10112500D02*
X9990000Y-10187500D01*
X9990000Y-10112500D02*
X9915000Y-10187500D01*
D10*
X10288872Y-10041484D02*
X10307920Y-10041484D01*
X10307920Y-10041484D02*
X10326967Y-10051008D01*
X10326967Y-10051008D02*
X10336491Y-10060531D01*
X10336491Y-10060531D02*
X10346015Y-10079579D01*
X10346015Y-10079579D02*
X10355539Y-10117674D01*
X10355539Y-10117674D02*
X10355539Y-10165293D01*
X10355539Y-10165293D02*
X10346015Y-10203389D01*
X10346015Y-10203389D02*
X10336491Y-10222436D01*
X10336491Y-10222436D02*
X10326967Y-10231960D01*
X10326967Y-10231960D02*
X10307920Y-10241484D01*
X10307920Y-10241484D02*
X10288872Y-10241484D01*
X10288872Y-10241484D02*
X10269824Y-10231960D01*
X10269824Y-10231960D02*
X10260301Y-10222436D01*
X10260301Y-10222436D02*
X10250777Y-10203389D01*
X10250777Y-10203389D02*
X10241253Y-10165293D01*
X10241253Y-10165293D02*
X10241253Y-10117674D01*
X10241253Y-10117674D02*
X10250777Y-10079579D01*
X10250777Y-10079579D02*
X10260301Y-10060531D01*
X10260301Y-10060531D02*
X10269824Y-10051008D01*
X10269824Y-10051008D02*
X10288872Y-10041484D01*
X10441253Y-10222436D02*
X10450777Y-10231960D01*
X10450777Y-10231960D02*
X10441253Y-10241484D01*
X10441253Y-10241484D02*
X10431729Y-10231960D01*
X10431729Y-10231960D02*
X10441253Y-10222436D01*
X10441253Y-10222436D02*
X10441253Y-10241484D01*
X10517444Y-10041484D02*
X10650777Y-10041484D01*
X10650777Y-10041484D02*
X10565063Y-10241484D01*
X10822205Y-10041484D02*
X10726967Y-10041484D01*
X10726967Y-10041484D02*
X10717444Y-10136722D01*
X10717444Y-10136722D02*
X10726967Y-10127198D01*
X10726967Y-10127198D02*
X10746015Y-10117674D01*
X10746015Y-10117674D02*
X10793634Y-10117674D01*
X10793634Y-10117674D02*
X10812682Y-10127198D01*
X10812682Y-10127198D02*
X10822205Y-10136722D01*
X10822205Y-10136722D02*
X10831729Y-10155770D01*
X10831729Y-10155770D02*
X10831729Y-10203389D01*
X10831729Y-10203389D02*
X10822205Y-10222436D01*
X10822205Y-10222436D02*
X10812682Y-10231960D01*
X10812682Y-10231960D02*
X10793634Y-10241484D01*
X10793634Y-10241484D02*
X10746015Y-10241484D01*
X10746015Y-10241484D02*
X10726967Y-10231960D01*
X10726967Y-10231960D02*
X10717444Y-10222436D01*
X10955539Y-10041484D02*
X10974586Y-10041484D01*
X10974586Y-10041484D02*
X10993634Y-10051008D01*
X10993634Y-10051008D02*
X11003158Y-10060531D01*
X11003158Y-10060531D02*
X11012682Y-10079579D01*
X11012682Y-10079579D02*
X11022205Y-10117674D01*
X11022205Y-10117674D02*
X11022205Y-10165293D01*
X11022205Y-10165293D02*
X11012682Y-10203389D01*
X11012682Y-10203389D02*
X11003158Y-10222436D01*
X11003158Y-10222436D02*
X10993634Y-10231960D01*
X10993634Y-10231960D02*
X10974586Y-10241484D01*
X10974586Y-10241484D02*
X10955539Y-10241484D01*
X10955539Y-10241484D02*
X10936491Y-10231960D01*
X10936491Y-10231960D02*
X10926967Y-10222436D01*
X10926967Y-10222436D02*
X10917444Y-10203389D01*
X10917444Y-10203389D02*
X10907920Y-10165293D01*
X10907920Y-10165293D02*
X10907920Y-10117674D01*
X10907920Y-10117674D02*
X10917444Y-10079579D01*
X10917444Y-10079579D02*
X10926967Y-10060531D01*
X10926967Y-10060531D02*
X10936491Y-10051008D01*
X10936491Y-10051008D02*
X10955539Y-10041484D01*
X11107920Y-10241484D02*
X11107920Y-10108150D01*
X11107920Y-10127198D02*
X11117444Y-10117674D01*
X11117444Y-10117674D02*
X11136491Y-10108150D01*
X11136491Y-10108150D02*
X11165063Y-10108150D01*
X11165063Y-10108150D02*
X11184110Y-10117674D01*
X11184110Y-10117674D02*
X11193634Y-10136722D01*
X11193634Y-10136722D02*
X11193634Y-10241484D01*
X11193634Y-10136722D02*
X11203158Y-10117674D01*
X11203158Y-10117674D02*
X11222205Y-10108150D01*
X11222205Y-10108150D02*
X11250777Y-10108150D01*
X11250777Y-10108150D02*
X11269824Y-10117674D01*
X11269824Y-10117674D02*
X11279348Y-10136722D01*
X11279348Y-10136722D02*
X11279348Y-10241484D01*
X11374586Y-10241484D02*
X11374586Y-10108150D01*
X11374586Y-10127198D02*
X11384110Y-10117674D01*
X11384110Y-10117674D02*
X11403158Y-10108150D01*
X11403158Y-10108150D02*
X11431729Y-10108150D01*
X11431729Y-10108150D02*
X11450777Y-10117674D01*
X11450777Y-10117674D02*
X11460301Y-10136722D01*
X11460301Y-10136722D02*
X11460301Y-10241484D01*
X11460301Y-10136722D02*
X11469824Y-10117674D01*
X11469824Y-10117674D02*
X11488872Y-10108150D01*
X11488872Y-10108150D02*
X11517443Y-10108150D01*
X11517443Y-10108150D02*
X11536491Y-10117674D01*
X11536491Y-10117674D02*
X11546015Y-10136722D01*
X11546015Y-10136722D02*
X11546015Y-10241484D01*
X11936491Y-10031960D02*
X11765063Y-10289103D01*
X12193634Y-10041484D02*
X12212682Y-10041484D01*
X12212682Y-10041484D02*
X12231729Y-10051008D01*
X12231729Y-10051008D02*
X12241253Y-10060531D01*
X12241253Y-10060531D02*
X12250777Y-10079579D01*
X12250777Y-10079579D02*
X12260301Y-10117674D01*
X12260301Y-10117674D02*
X12260301Y-10165293D01*
X12260301Y-10165293D02*
X12250777Y-10203389D01*
X12250777Y-10203389D02*
X12241253Y-10222436D01*
X12241253Y-10222436D02*
X12231729Y-10231960D01*
X12231729Y-10231960D02*
X12212682Y-10241484D01*
X12212682Y-10241484D02*
X12193634Y-10241484D01*
X12193634Y-10241484D02*
X12174586Y-10231960D01*
X12174586Y-10231960D02*
X12165063Y-10222436D01*
X12165063Y-10222436D02*
X12155539Y-10203389D01*
X12155539Y-10203389D02*
X12146015Y-10165293D01*
X12146015Y-10165293D02*
X12146015Y-10117674D01*
X12146015Y-10117674D02*
X12155539Y-10079579D01*
X12155539Y-10079579D02*
X12165063Y-10060531D01*
X12165063Y-10060531D02*
X12174586Y-10051008D01*
X12174586Y-10051008D02*
X12193634Y-10041484D01*
X12346015Y-10222436D02*
X12355539Y-10231960D01*
X12355539Y-10231960D02*
X12346015Y-10241484D01*
X12346015Y-10241484D02*
X12336491Y-10231960D01*
X12336491Y-10231960D02*
X12346015Y-10222436D01*
X12346015Y-10222436D02*
X12346015Y-10241484D01*
X12479348Y-10041484D02*
X12498396Y-10041484D01*
X12498396Y-10041484D02*
X12517444Y-10051008D01*
X12517444Y-10051008D02*
X12526967Y-10060531D01*
X12526967Y-10060531D02*
X12536491Y-10079579D01*
X12536491Y-10079579D02*
X12546015Y-10117674D01*
X12546015Y-10117674D02*
X12546015Y-10165293D01*
X12546015Y-10165293D02*
X12536491Y-10203389D01*
X12536491Y-10203389D02*
X12526967Y-10222436D01*
X12526967Y-10222436D02*
X12517444Y-10231960D01*
X12517444Y-10231960D02*
X12498396Y-10241484D01*
X12498396Y-10241484D02*
X12479348Y-10241484D01*
X12479348Y-10241484D02*
X12460301Y-10231960D01*
X12460301Y-10231960D02*
X12450777Y-10222436D01*
X12450777Y-10222436D02*
X12441253Y-10203389D01*
X12441253Y-10203389D02*
X12431729Y-10165293D01*
X12431729Y-10165293D02*
X12431729Y-10117674D01*
X12431729Y-10117674D02*
X12441253Y-10079579D01*
X12441253Y-10079579D02*
X12450777Y-10060531D01*
X12450777Y-10060531D02*
X12460301Y-10051008D01*
X12460301Y-10051008D02*
X12479348Y-10041484D01*
X12622206Y-10060531D02*
X12631729Y-10051008D01*
X12631729Y-10051008D02*
X12650777Y-10041484D01*
X12650777Y-10041484D02*
X12698396Y-10041484D01*
X12698396Y-10041484D02*
X12717444Y-10051008D01*
X12717444Y-10051008D02*
X12726967Y-10060531D01*
X12726967Y-10060531D02*
X12736491Y-10079579D01*
X12736491Y-10079579D02*
X12736491Y-10098627D01*
X12736491Y-10098627D02*
X12726967Y-10127198D01*
X12726967Y-10127198D02*
X12612682Y-10241484D01*
X12612682Y-10241484D02*
X12736491Y-10241484D01*
X12831729Y-10241484D02*
X12869825Y-10241484D01*
X12869825Y-10241484D02*
X12888872Y-10231960D01*
X12888872Y-10231960D02*
X12898396Y-10222436D01*
X12898396Y-10222436D02*
X12917444Y-10193865D01*
X12917444Y-10193865D02*
X12926967Y-10155770D01*
X12926967Y-10155770D02*
X12926967Y-10079579D01*
X12926967Y-10079579D02*
X12917444Y-10060531D01*
X12917444Y-10060531D02*
X12907920Y-10051008D01*
X12907920Y-10051008D02*
X12888872Y-10041484D01*
X12888872Y-10041484D02*
X12850777Y-10041484D01*
X12850777Y-10041484D02*
X12831729Y-10051008D01*
X12831729Y-10051008D02*
X12822206Y-10060531D01*
X12822206Y-10060531D02*
X12812682Y-10079579D01*
X12812682Y-10079579D02*
X12812682Y-10127198D01*
X12812682Y-10127198D02*
X12822206Y-10146246D01*
X12822206Y-10146246D02*
X12831729Y-10155770D01*
X12831729Y-10155770D02*
X12850777Y-10165293D01*
X12850777Y-10165293D02*
X12888872Y-10165293D01*
X12888872Y-10165293D02*
X12907920Y-10155770D01*
X12907920Y-10155770D02*
X12917444Y-10146246D01*
X12917444Y-10146246D02*
X12926967Y-10127198D01*
X13107920Y-10041484D02*
X13012682Y-10041484D01*
X13012682Y-10041484D02*
X13003158Y-10136722D01*
X13003158Y-10136722D02*
X13012682Y-10127198D01*
X13012682Y-10127198D02*
X13031729Y-10117674D01*
X13031729Y-10117674D02*
X13079348Y-10117674D01*
X13079348Y-10117674D02*
X13098396Y-10127198D01*
X13098396Y-10127198D02*
X13107920Y-10136722D01*
X13107920Y-10136722D02*
X13117444Y-10155770D01*
X13117444Y-10155770D02*
X13117444Y-10203389D01*
X13117444Y-10203389D02*
X13107920Y-10222436D01*
X13107920Y-10222436D02*
X13098396Y-10231960D01*
X13098396Y-10231960D02*
X13079348Y-10241484D01*
X13079348Y-10241484D02*
X13031729Y-10241484D01*
X13031729Y-10241484D02*
X13012682Y-10231960D01*
X13012682Y-10231960D02*
X13003158Y-10222436D01*
X13193634Y-10041484D02*
X13193634Y-10079579D01*
X13269825Y-10041484D02*
X13269825Y-10079579D01*
X13565063Y-10317674D02*
X13555539Y-10308150D01*
X13555539Y-10308150D02*
X13536491Y-10279579D01*
X13536491Y-10279579D02*
X13526968Y-10260531D01*
X13526968Y-10260531D02*
X13517444Y-10231960D01*
X13517444Y-10231960D02*
X13507920Y-10184341D01*
X13507920Y-10184341D02*
X13507920Y-10146246D01*
X13507920Y-10146246D02*
X13517444Y-10098627D01*
X13517444Y-10098627D02*
X13526968Y-10070055D01*
X13526968Y-10070055D02*
X13536491Y-10051008D01*
X13536491Y-10051008D02*
X13555539Y-10022436D01*
X13555539Y-10022436D02*
X13565063Y-10012912D01*
X13622206Y-10041484D02*
X13746015Y-10041484D01*
X13746015Y-10041484D02*
X13679348Y-10117674D01*
X13679348Y-10117674D02*
X13707920Y-10117674D01*
X13707920Y-10117674D02*
X13726968Y-10127198D01*
X13726968Y-10127198D02*
X13736491Y-10136722D01*
X13736491Y-10136722D02*
X13746015Y-10155770D01*
X13746015Y-10155770D02*
X13746015Y-10203389D01*
X13746015Y-10203389D02*
X13736491Y-10222436D01*
X13736491Y-10222436D02*
X13726968Y-10231960D01*
X13726968Y-10231960D02*
X13707920Y-10241484D01*
X13707920Y-10241484D02*
X13650777Y-10241484D01*
X13650777Y-10241484D02*
X13631729Y-10231960D01*
X13631729Y-10231960D02*
X13622206Y-10222436D01*
X13984110Y-10241484D02*
X13984110Y-10041484D01*
X14069825Y-10241484D02*
X14069825Y-10136722D01*
X14069825Y-10136722D02*
X14060301Y-10117674D01*
X14060301Y-10117674D02*
X14041253Y-10108150D01*
X14041253Y-10108150D02*
X14012682Y-10108150D01*
X14012682Y-10108150D02*
X13993634Y-10117674D01*
X13993634Y-10117674D02*
X13984110Y-10127198D01*
X14193634Y-10241484D02*
X14174587Y-10231960D01*
X14174587Y-10231960D02*
X14165063Y-10222436D01*
X14165063Y-10222436D02*
X14155539Y-10203389D01*
X14155539Y-10203389D02*
X14155539Y-10146246D01*
X14155539Y-10146246D02*
X14165063Y-10127198D01*
X14165063Y-10127198D02*
X14174587Y-10117674D01*
X14174587Y-10117674D02*
X14193634Y-10108150D01*
X14193634Y-10108150D02*
X14222206Y-10108150D01*
X14222206Y-10108150D02*
X14241253Y-10117674D01*
X14241253Y-10117674D02*
X14250777Y-10127198D01*
X14250777Y-10127198D02*
X14260301Y-10146246D01*
X14260301Y-10146246D02*
X14260301Y-10203389D01*
X14260301Y-10203389D02*
X14250777Y-10222436D01*
X14250777Y-10222436D02*
X14241253Y-10231960D01*
X14241253Y-10231960D02*
X14222206Y-10241484D01*
X14222206Y-10241484D02*
X14193634Y-10241484D01*
X14374587Y-10241484D02*
X14355539Y-10231960D01*
X14355539Y-10231960D02*
X14346015Y-10212912D01*
X14346015Y-10212912D02*
X14346015Y-10041484D01*
X14526968Y-10231960D02*
X14507920Y-10241484D01*
X14507920Y-10241484D02*
X14469825Y-10241484D01*
X14469825Y-10241484D02*
X14450777Y-10231960D01*
X14450777Y-10231960D02*
X14441253Y-10212912D01*
X14441253Y-10212912D02*
X14441253Y-10136722D01*
X14441253Y-10136722D02*
X14450777Y-10117674D01*
X14450777Y-10117674D02*
X14469825Y-10108150D01*
X14469825Y-10108150D02*
X14507920Y-10108150D01*
X14507920Y-10108150D02*
X14526968Y-10117674D01*
X14526968Y-10117674D02*
X14536491Y-10136722D01*
X14536491Y-10136722D02*
X14536491Y-10155770D01*
X14536491Y-10155770D02*
X14441253Y-10174817D01*
X14612682Y-10231960D02*
X14631730Y-10241484D01*
X14631730Y-10241484D02*
X14669825Y-10241484D01*
X14669825Y-10241484D02*
X14688872Y-10231960D01*
X14688872Y-10231960D02*
X14698396Y-10212912D01*
X14698396Y-10212912D02*
X14698396Y-10203389D01*
X14698396Y-10203389D02*
X14688872Y-10184341D01*
X14688872Y-10184341D02*
X14669825Y-10174817D01*
X14669825Y-10174817D02*
X14641253Y-10174817D01*
X14641253Y-10174817D02*
X14622206Y-10165293D01*
X14622206Y-10165293D02*
X14612682Y-10146246D01*
X14612682Y-10146246D02*
X14612682Y-10136722D01*
X14612682Y-10136722D02*
X14622206Y-10117674D01*
X14622206Y-10117674D02*
X14641253Y-10108150D01*
X14641253Y-10108150D02*
X14669825Y-10108150D01*
X14669825Y-10108150D02*
X14688872Y-10117674D01*
X14765063Y-10317674D02*
X14774587Y-10308150D01*
X14774587Y-10308150D02*
X14793634Y-10279579D01*
X14793634Y-10279579D02*
X14803158Y-10260531D01*
X14803158Y-10260531D02*
X14812682Y-10231960D01*
X14812682Y-10231960D02*
X14822206Y-10184341D01*
X14822206Y-10184341D02*
X14822206Y-10146246D01*
X14822206Y-10146246D02*
X14812682Y-10098627D01*
X14812682Y-10098627D02*
X14803158Y-10070055D01*
X14803158Y-10070055D02*
X14793634Y-10051008D01*
X14793634Y-10051008D02*
X14774587Y-10022436D01*
X14774587Y-10022436D02*
X14765063Y-10012912D01*
D11*
X9990000Y-10414000D02*
G75*
G03*
X9910000Y-10414000I-40000J0D01*
G01*
X9910000Y-10414000D02*
G75*
G03*
X9990000Y-10414000I40000J0D01*
G01*
D10*
X10288872Y-10305484D02*
X10307920Y-10305484D01*
X10307920Y-10305484D02*
X10326967Y-10315008D01*
X10326967Y-10315008D02*
X10336491Y-10324531D01*
X10336491Y-10324531D02*
X10346015Y-10343579D01*
X10346015Y-10343579D02*
X10355539Y-10381674D01*
X10355539Y-10381674D02*
X10355539Y-10429293D01*
X10355539Y-10429293D02*
X10346015Y-10467389D01*
X10346015Y-10467389D02*
X10336491Y-10486436D01*
X10336491Y-10486436D02*
X10326967Y-10495960D01*
X10326967Y-10495960D02*
X10307920Y-10505484D01*
X10307920Y-10505484D02*
X10288872Y-10505484D01*
X10288872Y-10505484D02*
X10269824Y-10495960D01*
X10269824Y-10495960D02*
X10260301Y-10486436D01*
X10260301Y-10486436D02*
X10250777Y-10467389D01*
X10250777Y-10467389D02*
X10241253Y-10429293D01*
X10241253Y-10429293D02*
X10241253Y-10381674D01*
X10241253Y-10381674D02*
X10250777Y-10343579D01*
X10250777Y-10343579D02*
X10260301Y-10324531D01*
X10260301Y-10324531D02*
X10269824Y-10315008D01*
X10269824Y-10315008D02*
X10288872Y-10305484D01*
X10441253Y-10486436D02*
X10450777Y-10495960D01*
X10450777Y-10495960D02*
X10441253Y-10505484D01*
X10441253Y-10505484D02*
X10431729Y-10495960D01*
X10431729Y-10495960D02*
X10441253Y-10486436D01*
X10441253Y-10486436D02*
X10441253Y-10505484D01*
X10565063Y-10391198D02*
X10546015Y-10381674D01*
X10546015Y-10381674D02*
X10536491Y-10372150D01*
X10536491Y-10372150D02*
X10526967Y-10353103D01*
X10526967Y-10353103D02*
X10526967Y-10343579D01*
X10526967Y-10343579D02*
X10536491Y-10324531D01*
X10536491Y-10324531D02*
X10546015Y-10315008D01*
X10546015Y-10315008D02*
X10565063Y-10305484D01*
X10565063Y-10305484D02*
X10603158Y-10305484D01*
X10603158Y-10305484D02*
X10622205Y-10315008D01*
X10622205Y-10315008D02*
X10631729Y-10324531D01*
X10631729Y-10324531D02*
X10641253Y-10343579D01*
X10641253Y-10343579D02*
X10641253Y-10353103D01*
X10641253Y-10353103D02*
X10631729Y-10372150D01*
X10631729Y-10372150D02*
X10622205Y-10381674D01*
X10622205Y-10381674D02*
X10603158Y-10391198D01*
X10603158Y-10391198D02*
X10565063Y-10391198D01*
X10565063Y-10391198D02*
X10546015Y-10400722D01*
X10546015Y-10400722D02*
X10536491Y-10410246D01*
X10536491Y-10410246D02*
X10526967Y-10429293D01*
X10526967Y-10429293D02*
X10526967Y-10467389D01*
X10526967Y-10467389D02*
X10536491Y-10486436D01*
X10536491Y-10486436D02*
X10546015Y-10495960D01*
X10546015Y-10495960D02*
X10565063Y-10505484D01*
X10565063Y-10505484D02*
X10603158Y-10505484D01*
X10603158Y-10505484D02*
X10622205Y-10495960D01*
X10622205Y-10495960D02*
X10631729Y-10486436D01*
X10631729Y-10486436D02*
X10641253Y-10467389D01*
X10641253Y-10467389D02*
X10641253Y-10429293D01*
X10641253Y-10429293D02*
X10631729Y-10410246D01*
X10631729Y-10410246D02*
X10622205Y-10400722D01*
X10622205Y-10400722D02*
X10603158Y-10391198D01*
X10765063Y-10305484D02*
X10784110Y-10305484D01*
X10784110Y-10305484D02*
X10803158Y-10315008D01*
X10803158Y-10315008D02*
X10812682Y-10324531D01*
X10812682Y-10324531D02*
X10822205Y-10343579D01*
X10822205Y-10343579D02*
X10831729Y-10381674D01*
X10831729Y-10381674D02*
X10831729Y-10429293D01*
X10831729Y-10429293D02*
X10822205Y-10467389D01*
X10822205Y-10467389D02*
X10812682Y-10486436D01*
X10812682Y-10486436D02*
X10803158Y-10495960D01*
X10803158Y-10495960D02*
X10784110Y-10505484D01*
X10784110Y-10505484D02*
X10765063Y-10505484D01*
X10765063Y-10505484D02*
X10746015Y-10495960D01*
X10746015Y-10495960D02*
X10736491Y-10486436D01*
X10736491Y-10486436D02*
X10726967Y-10467389D01*
X10726967Y-10467389D02*
X10717444Y-10429293D01*
X10717444Y-10429293D02*
X10717444Y-10381674D01*
X10717444Y-10381674D02*
X10726967Y-10343579D01*
X10726967Y-10343579D02*
X10736491Y-10324531D01*
X10736491Y-10324531D02*
X10746015Y-10315008D01*
X10746015Y-10315008D02*
X10765063Y-10305484D01*
X10955539Y-10305484D02*
X10974586Y-10305484D01*
X10974586Y-10305484D02*
X10993634Y-10315008D01*
X10993634Y-10315008D02*
X11003158Y-10324531D01*
X11003158Y-10324531D02*
X11012682Y-10343579D01*
X11012682Y-10343579D02*
X11022205Y-10381674D01*
X11022205Y-10381674D02*
X11022205Y-10429293D01*
X11022205Y-10429293D02*
X11012682Y-10467389D01*
X11012682Y-10467389D02*
X11003158Y-10486436D01*
X11003158Y-10486436D02*
X10993634Y-10495960D01*
X10993634Y-10495960D02*
X10974586Y-10505484D01*
X10974586Y-10505484D02*
X10955539Y-10505484D01*
X10955539Y-10505484D02*
X10936491Y-10495960D01*
X10936491Y-10495960D02*
X10926967Y-10486436D01*
X10926967Y-10486436D02*
X10917444Y-10467389D01*
X10917444Y-10467389D02*
X10907920Y-10429293D01*
X10907920Y-10429293D02*
X10907920Y-10381674D01*
X10907920Y-10381674D02*
X10917444Y-10343579D01*
X10917444Y-10343579D02*
X10926967Y-10324531D01*
X10926967Y-10324531D02*
X10936491Y-10315008D01*
X10936491Y-10315008D02*
X10955539Y-10305484D01*
X11107920Y-10505484D02*
X11107920Y-10372150D01*
X11107920Y-10391198D02*
X11117444Y-10381674D01*
X11117444Y-10381674D02*
X11136491Y-10372150D01*
X11136491Y-10372150D02*
X11165063Y-10372150D01*
X11165063Y-10372150D02*
X11184110Y-10381674D01*
X11184110Y-10381674D02*
X11193634Y-10400722D01*
X11193634Y-10400722D02*
X11193634Y-10505484D01*
X11193634Y-10400722D02*
X11203158Y-10381674D01*
X11203158Y-10381674D02*
X11222205Y-10372150D01*
X11222205Y-10372150D02*
X11250777Y-10372150D01*
X11250777Y-10372150D02*
X11269824Y-10381674D01*
X11269824Y-10381674D02*
X11279348Y-10400722D01*
X11279348Y-10400722D02*
X11279348Y-10505484D01*
X11374586Y-10505484D02*
X11374586Y-10372150D01*
X11374586Y-10391198D02*
X11384110Y-10381674D01*
X11384110Y-10381674D02*
X11403158Y-10372150D01*
X11403158Y-10372150D02*
X11431729Y-10372150D01*
X11431729Y-10372150D02*
X11450777Y-10381674D01*
X11450777Y-10381674D02*
X11460301Y-10400722D01*
X11460301Y-10400722D02*
X11460301Y-10505484D01*
X11460301Y-10400722D02*
X11469824Y-10381674D01*
X11469824Y-10381674D02*
X11488872Y-10372150D01*
X11488872Y-10372150D02*
X11517443Y-10372150D01*
X11517443Y-10372150D02*
X11536491Y-10381674D01*
X11536491Y-10381674D02*
X11546015Y-10400722D01*
X11546015Y-10400722D02*
X11546015Y-10505484D01*
X11936491Y-10295960D02*
X11765063Y-10553103D01*
X12193634Y-10305484D02*
X12212682Y-10305484D01*
X12212682Y-10305484D02*
X12231729Y-10315008D01*
X12231729Y-10315008D02*
X12241253Y-10324531D01*
X12241253Y-10324531D02*
X12250777Y-10343579D01*
X12250777Y-10343579D02*
X12260301Y-10381674D01*
X12260301Y-10381674D02*
X12260301Y-10429293D01*
X12260301Y-10429293D02*
X12250777Y-10467389D01*
X12250777Y-10467389D02*
X12241253Y-10486436D01*
X12241253Y-10486436D02*
X12231729Y-10495960D01*
X12231729Y-10495960D02*
X12212682Y-10505484D01*
X12212682Y-10505484D02*
X12193634Y-10505484D01*
X12193634Y-10505484D02*
X12174586Y-10495960D01*
X12174586Y-10495960D02*
X12165063Y-10486436D01*
X12165063Y-10486436D02*
X12155539Y-10467389D01*
X12155539Y-10467389D02*
X12146015Y-10429293D01*
X12146015Y-10429293D02*
X12146015Y-10381674D01*
X12146015Y-10381674D02*
X12155539Y-10343579D01*
X12155539Y-10343579D02*
X12165063Y-10324531D01*
X12165063Y-10324531D02*
X12174586Y-10315008D01*
X12174586Y-10315008D02*
X12193634Y-10305484D01*
X12346015Y-10486436D02*
X12355539Y-10495960D01*
X12355539Y-10495960D02*
X12346015Y-10505484D01*
X12346015Y-10505484D02*
X12336491Y-10495960D01*
X12336491Y-10495960D02*
X12346015Y-10486436D01*
X12346015Y-10486436D02*
X12346015Y-10505484D01*
X12479348Y-10305484D02*
X12498396Y-10305484D01*
X12498396Y-10305484D02*
X12517444Y-10315008D01*
X12517444Y-10315008D02*
X12526967Y-10324531D01*
X12526967Y-10324531D02*
X12536491Y-10343579D01*
X12536491Y-10343579D02*
X12546015Y-10381674D01*
X12546015Y-10381674D02*
X12546015Y-10429293D01*
X12546015Y-10429293D02*
X12536491Y-10467389D01*
X12536491Y-10467389D02*
X12526967Y-10486436D01*
X12526967Y-10486436D02*
X12517444Y-10495960D01*
X12517444Y-10495960D02*
X12498396Y-10505484D01*
X12498396Y-10505484D02*
X12479348Y-10505484D01*
X12479348Y-10505484D02*
X12460301Y-10495960D01*
X12460301Y-10495960D02*
X12450777Y-10486436D01*
X12450777Y-10486436D02*
X12441253Y-10467389D01*
X12441253Y-10467389D02*
X12431729Y-10429293D01*
X12431729Y-10429293D02*
X12431729Y-10381674D01*
X12431729Y-10381674D02*
X12441253Y-10343579D01*
X12441253Y-10343579D02*
X12450777Y-10324531D01*
X12450777Y-10324531D02*
X12460301Y-10315008D01*
X12460301Y-10315008D02*
X12479348Y-10305484D01*
X12612682Y-10305484D02*
X12736491Y-10305484D01*
X12736491Y-10305484D02*
X12669825Y-10381674D01*
X12669825Y-10381674D02*
X12698396Y-10381674D01*
X12698396Y-10381674D02*
X12717444Y-10391198D01*
X12717444Y-10391198D02*
X12726967Y-10400722D01*
X12726967Y-10400722D02*
X12736491Y-10419770D01*
X12736491Y-10419770D02*
X12736491Y-10467389D01*
X12736491Y-10467389D02*
X12726967Y-10486436D01*
X12726967Y-10486436D02*
X12717444Y-10495960D01*
X12717444Y-10495960D02*
X12698396Y-10505484D01*
X12698396Y-10505484D02*
X12641253Y-10505484D01*
X12641253Y-10505484D02*
X12622206Y-10495960D01*
X12622206Y-10495960D02*
X12612682Y-10486436D01*
X12926967Y-10505484D02*
X12812682Y-10505484D01*
X12869825Y-10505484D02*
X12869825Y-10305484D01*
X12869825Y-10305484D02*
X12850777Y-10334055D01*
X12850777Y-10334055D02*
X12831729Y-10353103D01*
X12831729Y-10353103D02*
X12812682Y-10362627D01*
X13107920Y-10305484D02*
X13012682Y-10305484D01*
X13012682Y-10305484D02*
X13003158Y-10400722D01*
X13003158Y-10400722D02*
X13012682Y-10391198D01*
X13012682Y-10391198D02*
X13031729Y-10381674D01*
X13031729Y-10381674D02*
X13079348Y-10381674D01*
X13079348Y-10381674D02*
X13098396Y-10391198D01*
X13098396Y-10391198D02*
X13107920Y-10400722D01*
X13107920Y-10400722D02*
X13117444Y-10419770D01*
X13117444Y-10419770D02*
X13117444Y-10467389D01*
X13117444Y-10467389D02*
X13107920Y-10486436D01*
X13107920Y-10486436D02*
X13098396Y-10495960D01*
X13098396Y-10495960D02*
X13079348Y-10505484D01*
X13079348Y-10505484D02*
X13031729Y-10505484D01*
X13031729Y-10505484D02*
X13012682Y-10495960D01*
X13012682Y-10495960D02*
X13003158Y-10486436D01*
X13193634Y-10305484D02*
X13193634Y-10343579D01*
X13269825Y-10305484D02*
X13269825Y-10343579D01*
X13565063Y-10581674D02*
X13555539Y-10572150D01*
X13555539Y-10572150D02*
X13536491Y-10543579D01*
X13536491Y-10543579D02*
X13526968Y-10524531D01*
X13526968Y-10524531D02*
X13517444Y-10495960D01*
X13517444Y-10495960D02*
X13507920Y-10448341D01*
X13507920Y-10448341D02*
X13507920Y-10410246D01*
X13507920Y-10410246D02*
X13517444Y-10362627D01*
X13517444Y-10362627D02*
X13526968Y-10334055D01*
X13526968Y-10334055D02*
X13536491Y-10315008D01*
X13536491Y-10315008D02*
X13555539Y-10286436D01*
X13555539Y-10286436D02*
X13565063Y-10276912D01*
X13669825Y-10391198D02*
X13650777Y-10381674D01*
X13650777Y-10381674D02*
X13641253Y-10372150D01*
X13641253Y-10372150D02*
X13631729Y-10353103D01*
X13631729Y-10353103D02*
X13631729Y-10343579D01*
X13631729Y-10343579D02*
X13641253Y-10324531D01*
X13641253Y-10324531D02*
X13650777Y-10315008D01*
X13650777Y-10315008D02*
X13669825Y-10305484D01*
X13669825Y-10305484D02*
X13707920Y-10305484D01*
X13707920Y-10305484D02*
X13726968Y-10315008D01*
X13726968Y-10315008D02*
X13736491Y-10324531D01*
X13736491Y-10324531D02*
X13746015Y-10343579D01*
X13746015Y-10343579D02*
X13746015Y-10353103D01*
X13746015Y-10353103D02*
X13736491Y-10372150D01*
X13736491Y-10372150D02*
X13726968Y-10381674D01*
X13726968Y-10381674D02*
X13707920Y-10391198D01*
X13707920Y-10391198D02*
X13669825Y-10391198D01*
X13669825Y-10391198D02*
X13650777Y-10400722D01*
X13650777Y-10400722D02*
X13641253Y-10410246D01*
X13641253Y-10410246D02*
X13631729Y-10429293D01*
X13631729Y-10429293D02*
X13631729Y-10467389D01*
X13631729Y-10467389D02*
X13641253Y-10486436D01*
X13641253Y-10486436D02*
X13650777Y-10495960D01*
X13650777Y-10495960D02*
X13669825Y-10505484D01*
X13669825Y-10505484D02*
X13707920Y-10505484D01*
X13707920Y-10505484D02*
X13726968Y-10495960D01*
X13726968Y-10495960D02*
X13736491Y-10486436D01*
X13736491Y-10486436D02*
X13746015Y-10467389D01*
X13746015Y-10467389D02*
X13746015Y-10429293D01*
X13746015Y-10429293D02*
X13736491Y-10410246D01*
X13736491Y-10410246D02*
X13726968Y-10400722D01*
X13726968Y-10400722D02*
X13707920Y-10391198D01*
X13984110Y-10505484D02*
X13984110Y-10305484D01*
X14069825Y-10505484D02*
X14069825Y-10400722D01*
X14069825Y-10400722D02*
X14060301Y-10381674D01*
X14060301Y-10381674D02*
X14041253Y-10372150D01*
X14041253Y-10372150D02*
X14012682Y-10372150D01*
X14012682Y-10372150D02*
X13993634Y-10381674D01*
X13993634Y-10381674D02*
X13984110Y-10391198D01*
X14193634Y-10505484D02*
X14174587Y-10495960D01*
X14174587Y-10495960D02*
X14165063Y-10486436D01*
X14165063Y-10486436D02*
X14155539Y-10467389D01*
X14155539Y-10467389D02*
X14155539Y-10410246D01*
X14155539Y-10410246D02*
X14165063Y-10391198D01*
X14165063Y-10391198D02*
X14174587Y-10381674D01*
X14174587Y-10381674D02*
X14193634Y-10372150D01*
X14193634Y-10372150D02*
X14222206Y-10372150D01*
X14222206Y-10372150D02*
X14241253Y-10381674D01*
X14241253Y-10381674D02*
X14250777Y-10391198D01*
X14250777Y-10391198D02*
X14260301Y-10410246D01*
X14260301Y-10410246D02*
X14260301Y-10467389D01*
X14260301Y-10467389D02*
X14250777Y-10486436D01*
X14250777Y-10486436D02*
X14241253Y-10495960D01*
X14241253Y-10495960D02*
X14222206Y-10505484D01*
X14222206Y-10505484D02*
X14193634Y-10505484D01*
X14374587Y-10505484D02*
X14355539Y-10495960D01*
X14355539Y-10495960D02*
X14346015Y-10476912D01*
X14346015Y-10476912D02*
X14346015Y-10305484D01*
X14526968Y-10495960D02*
X14507920Y-10505484D01*
X14507920Y-10505484D02*
X14469825Y-10505484D01*
X14469825Y-10505484D02*
X14450777Y-10495960D01*
X14450777Y-10495960D02*
X14441253Y-10476912D01*
X14441253Y-10476912D02*
X14441253Y-10400722D01*
X14441253Y-10400722D02*
X14450777Y-10381674D01*
X14450777Y-10381674D02*
X14469825Y-10372150D01*
X14469825Y-10372150D02*
X14507920Y-10372150D01*
X14507920Y-10372150D02*
X14526968Y-10381674D01*
X14526968Y-10381674D02*
X14536491Y-10400722D01*
X14536491Y-10400722D02*
X14536491Y-10419770D01*
X14536491Y-10419770D02*
X14441253Y-10438817D01*
X14612682Y-10495960D02*
X14631730Y-10505484D01*
X14631730Y-10505484D02*
X14669825Y-10505484D01*
X14669825Y-10505484D02*
X14688872Y-10495960D01*
X14688872Y-10495960D02*
X14698396Y-10476912D01*
X14698396Y-10476912D02*
X14698396Y-10467389D01*
X14698396Y-10467389D02*
X14688872Y-10448341D01*
X14688872Y-10448341D02*
X14669825Y-10438817D01*
X14669825Y-10438817D02*
X14641253Y-10438817D01*
X14641253Y-10438817D02*
X14622206Y-10429293D01*
X14622206Y-10429293D02*
X14612682Y-10410246D01*
X14612682Y-10410246D02*
X14612682Y-10400722D01*
X14612682Y-10400722D02*
X14622206Y-10381674D01*
X14622206Y-10381674D02*
X14641253Y-10372150D01*
X14641253Y-10372150D02*
X14669825Y-10372150D01*
X14669825Y-10372150D02*
X14688872Y-10381674D01*
X14765063Y-10581674D02*
X14774587Y-10572150D01*
X14774587Y-10572150D02*
X14793634Y-10543579D01*
X14793634Y-10543579D02*
X14803158Y-10524531D01*
X14803158Y-10524531D02*
X14812682Y-10495960D01*
X14812682Y-10495960D02*
X14822206Y-10448341D01*
X14822206Y-10448341D02*
X14822206Y-10410246D01*
X14822206Y-10410246D02*
X14812682Y-10362627D01*
X14812682Y-10362627D02*
X14803158Y-10334055D01*
X14803158Y-10334055D02*
X14793634Y-10315008D01*
X14793634Y-10315008D02*
X14774587Y-10286436D01*
X14774587Y-10286436D02*
X14765063Y-10276912D01*
D11*
X9940000Y-10628000D02*
X9940000Y-10728000D01*
X9890000Y-10678000D02*
X9990000Y-10678000D01*
D10*
X10355539Y-10769484D02*
X10241253Y-10769484D01*
X10298396Y-10769484D02*
X10298396Y-10569484D01*
X10298396Y-10569484D02*
X10279348Y-10598055D01*
X10279348Y-10598055D02*
X10260301Y-10617103D01*
X10260301Y-10617103D02*
X10241253Y-10626627D01*
X10441253Y-10750436D02*
X10450777Y-10759960D01*
X10450777Y-10759960D02*
X10441253Y-10769484D01*
X10441253Y-10769484D02*
X10431729Y-10759960D01*
X10431729Y-10759960D02*
X10441253Y-10750436D01*
X10441253Y-10750436D02*
X10441253Y-10769484D01*
X10574586Y-10569484D02*
X10593634Y-10569484D01*
X10593634Y-10569484D02*
X10612682Y-10579008D01*
X10612682Y-10579008D02*
X10622205Y-10588531D01*
X10622205Y-10588531D02*
X10631729Y-10607579D01*
X10631729Y-10607579D02*
X10641253Y-10645674D01*
X10641253Y-10645674D02*
X10641253Y-10693293D01*
X10641253Y-10693293D02*
X10631729Y-10731389D01*
X10631729Y-10731389D02*
X10622205Y-10750436D01*
X10622205Y-10750436D02*
X10612682Y-10759960D01*
X10612682Y-10759960D02*
X10593634Y-10769484D01*
X10593634Y-10769484D02*
X10574586Y-10769484D01*
X10574586Y-10769484D02*
X10555539Y-10759960D01*
X10555539Y-10759960D02*
X10546015Y-10750436D01*
X10546015Y-10750436D02*
X10536491Y-10731389D01*
X10536491Y-10731389D02*
X10526967Y-10693293D01*
X10526967Y-10693293D02*
X10526967Y-10645674D01*
X10526967Y-10645674D02*
X10536491Y-10607579D01*
X10536491Y-10607579D02*
X10546015Y-10588531D01*
X10546015Y-10588531D02*
X10555539Y-10579008D01*
X10555539Y-10579008D02*
X10574586Y-10569484D01*
X10765063Y-10569484D02*
X10784110Y-10569484D01*
X10784110Y-10569484D02*
X10803158Y-10579008D01*
X10803158Y-10579008D02*
X10812682Y-10588531D01*
X10812682Y-10588531D02*
X10822205Y-10607579D01*
X10822205Y-10607579D02*
X10831729Y-10645674D01*
X10831729Y-10645674D02*
X10831729Y-10693293D01*
X10831729Y-10693293D02*
X10822205Y-10731389D01*
X10822205Y-10731389D02*
X10812682Y-10750436D01*
X10812682Y-10750436D02*
X10803158Y-10759960D01*
X10803158Y-10759960D02*
X10784110Y-10769484D01*
X10784110Y-10769484D02*
X10765063Y-10769484D01*
X10765063Y-10769484D02*
X10746015Y-10759960D01*
X10746015Y-10759960D02*
X10736491Y-10750436D01*
X10736491Y-10750436D02*
X10726967Y-10731389D01*
X10726967Y-10731389D02*
X10717444Y-10693293D01*
X10717444Y-10693293D02*
X10717444Y-10645674D01*
X10717444Y-10645674D02*
X10726967Y-10607579D01*
X10726967Y-10607579D02*
X10736491Y-10588531D01*
X10736491Y-10588531D02*
X10746015Y-10579008D01*
X10746015Y-10579008D02*
X10765063Y-10569484D01*
X10955539Y-10569484D02*
X10974586Y-10569484D01*
X10974586Y-10569484D02*
X10993634Y-10579008D01*
X10993634Y-10579008D02*
X11003158Y-10588531D01*
X11003158Y-10588531D02*
X11012682Y-10607579D01*
X11012682Y-10607579D02*
X11022205Y-10645674D01*
X11022205Y-10645674D02*
X11022205Y-10693293D01*
X11022205Y-10693293D02*
X11012682Y-10731389D01*
X11012682Y-10731389D02*
X11003158Y-10750436D01*
X11003158Y-10750436D02*
X10993634Y-10759960D01*
X10993634Y-10759960D02*
X10974586Y-10769484D01*
X10974586Y-10769484D02*
X10955539Y-10769484D01*
X10955539Y-10769484D02*
X10936491Y-10759960D01*
X10936491Y-10759960D02*
X10926967Y-10750436D01*
X10926967Y-10750436D02*
X10917444Y-10731389D01*
X10917444Y-10731389D02*
X10907920Y-10693293D01*
X10907920Y-10693293D02*
X10907920Y-10645674D01*
X10907920Y-10645674D02*
X10917444Y-10607579D01*
X10917444Y-10607579D02*
X10926967Y-10588531D01*
X10926967Y-10588531D02*
X10936491Y-10579008D01*
X10936491Y-10579008D02*
X10955539Y-10569484D01*
X11107920Y-10769484D02*
X11107920Y-10636150D01*
X11107920Y-10655198D02*
X11117444Y-10645674D01*
X11117444Y-10645674D02*
X11136491Y-10636150D01*
X11136491Y-10636150D02*
X11165063Y-10636150D01*
X11165063Y-10636150D02*
X11184110Y-10645674D01*
X11184110Y-10645674D02*
X11193634Y-10664722D01*
X11193634Y-10664722D02*
X11193634Y-10769484D01*
X11193634Y-10664722D02*
X11203158Y-10645674D01*
X11203158Y-10645674D02*
X11222205Y-10636150D01*
X11222205Y-10636150D02*
X11250777Y-10636150D01*
X11250777Y-10636150D02*
X11269824Y-10645674D01*
X11269824Y-10645674D02*
X11279348Y-10664722D01*
X11279348Y-10664722D02*
X11279348Y-10769484D01*
X11374586Y-10769484D02*
X11374586Y-10636150D01*
X11374586Y-10655198D02*
X11384110Y-10645674D01*
X11384110Y-10645674D02*
X11403158Y-10636150D01*
X11403158Y-10636150D02*
X11431729Y-10636150D01*
X11431729Y-10636150D02*
X11450777Y-10645674D01*
X11450777Y-10645674D02*
X11460301Y-10664722D01*
X11460301Y-10664722D02*
X11460301Y-10769484D01*
X11460301Y-10664722D02*
X11469824Y-10645674D01*
X11469824Y-10645674D02*
X11488872Y-10636150D01*
X11488872Y-10636150D02*
X11517443Y-10636150D01*
X11517443Y-10636150D02*
X11536491Y-10645674D01*
X11536491Y-10645674D02*
X11546015Y-10664722D01*
X11546015Y-10664722D02*
X11546015Y-10769484D01*
X11936491Y-10559960D02*
X11765063Y-10817103D01*
X12193634Y-10569484D02*
X12212682Y-10569484D01*
X12212682Y-10569484D02*
X12231729Y-10579008D01*
X12231729Y-10579008D02*
X12241253Y-10588531D01*
X12241253Y-10588531D02*
X12250777Y-10607579D01*
X12250777Y-10607579D02*
X12260301Y-10645674D01*
X12260301Y-10645674D02*
X12260301Y-10693293D01*
X12260301Y-10693293D02*
X12250777Y-10731389D01*
X12250777Y-10731389D02*
X12241253Y-10750436D01*
X12241253Y-10750436D02*
X12231729Y-10759960D01*
X12231729Y-10759960D02*
X12212682Y-10769484D01*
X12212682Y-10769484D02*
X12193634Y-10769484D01*
X12193634Y-10769484D02*
X12174586Y-10759960D01*
X12174586Y-10759960D02*
X12165063Y-10750436D01*
X12165063Y-10750436D02*
X12155539Y-10731389D01*
X12155539Y-10731389D02*
X12146015Y-10693293D01*
X12146015Y-10693293D02*
X12146015Y-10645674D01*
X12146015Y-10645674D02*
X12155539Y-10607579D01*
X12155539Y-10607579D02*
X12165063Y-10588531D01*
X12165063Y-10588531D02*
X12174586Y-10579008D01*
X12174586Y-10579008D02*
X12193634Y-10569484D01*
X12346015Y-10750436D02*
X12355539Y-10759960D01*
X12355539Y-10759960D02*
X12346015Y-10769484D01*
X12346015Y-10769484D02*
X12336491Y-10759960D01*
X12336491Y-10759960D02*
X12346015Y-10750436D01*
X12346015Y-10750436D02*
X12346015Y-10769484D01*
X12479348Y-10569484D02*
X12498396Y-10569484D01*
X12498396Y-10569484D02*
X12517444Y-10579008D01*
X12517444Y-10579008D02*
X12526967Y-10588531D01*
X12526967Y-10588531D02*
X12536491Y-10607579D01*
X12536491Y-10607579D02*
X12546015Y-10645674D01*
X12546015Y-10645674D02*
X12546015Y-10693293D01*
X12546015Y-10693293D02*
X12536491Y-10731389D01*
X12536491Y-10731389D02*
X12526967Y-10750436D01*
X12526967Y-10750436D02*
X12517444Y-10759960D01*
X12517444Y-10759960D02*
X12498396Y-10769484D01*
X12498396Y-10769484D02*
X12479348Y-10769484D01*
X12479348Y-10769484D02*
X12460301Y-10759960D01*
X12460301Y-10759960D02*
X12450777Y-10750436D01*
X12450777Y-10750436D02*
X12441253Y-10731389D01*
X12441253Y-10731389D02*
X12431729Y-10693293D01*
X12431729Y-10693293D02*
X12431729Y-10645674D01*
X12431729Y-10645674D02*
X12441253Y-10607579D01*
X12441253Y-10607579D02*
X12450777Y-10588531D01*
X12450777Y-10588531D02*
X12460301Y-10579008D01*
X12460301Y-10579008D02*
X12479348Y-10569484D01*
X12612682Y-10569484D02*
X12736491Y-10569484D01*
X12736491Y-10569484D02*
X12669825Y-10645674D01*
X12669825Y-10645674D02*
X12698396Y-10645674D01*
X12698396Y-10645674D02*
X12717444Y-10655198D01*
X12717444Y-10655198D02*
X12726967Y-10664722D01*
X12726967Y-10664722D02*
X12736491Y-10683770D01*
X12736491Y-10683770D02*
X12736491Y-10731389D01*
X12736491Y-10731389D02*
X12726967Y-10750436D01*
X12726967Y-10750436D02*
X12717444Y-10759960D01*
X12717444Y-10759960D02*
X12698396Y-10769484D01*
X12698396Y-10769484D02*
X12641253Y-10769484D01*
X12641253Y-10769484D02*
X12622206Y-10759960D01*
X12622206Y-10759960D02*
X12612682Y-10750436D01*
X12831729Y-10769484D02*
X12869825Y-10769484D01*
X12869825Y-10769484D02*
X12888872Y-10759960D01*
X12888872Y-10759960D02*
X12898396Y-10750436D01*
X12898396Y-10750436D02*
X12917444Y-10721865D01*
X12917444Y-10721865D02*
X12926967Y-10683770D01*
X12926967Y-10683770D02*
X12926967Y-10607579D01*
X12926967Y-10607579D02*
X12917444Y-10588531D01*
X12917444Y-10588531D02*
X12907920Y-10579008D01*
X12907920Y-10579008D02*
X12888872Y-10569484D01*
X12888872Y-10569484D02*
X12850777Y-10569484D01*
X12850777Y-10569484D02*
X12831729Y-10579008D01*
X12831729Y-10579008D02*
X12822206Y-10588531D01*
X12822206Y-10588531D02*
X12812682Y-10607579D01*
X12812682Y-10607579D02*
X12812682Y-10655198D01*
X12812682Y-10655198D02*
X12822206Y-10674246D01*
X12822206Y-10674246D02*
X12831729Y-10683770D01*
X12831729Y-10683770D02*
X12850777Y-10693293D01*
X12850777Y-10693293D02*
X12888872Y-10693293D01*
X12888872Y-10693293D02*
X12907920Y-10683770D01*
X12907920Y-10683770D02*
X12917444Y-10674246D01*
X12917444Y-10674246D02*
X12926967Y-10655198D01*
X13098396Y-10636150D02*
X13098396Y-10769484D01*
X13050777Y-10559960D02*
X13003158Y-10702817D01*
X13003158Y-10702817D02*
X13126967Y-10702817D01*
X13193634Y-10569484D02*
X13193634Y-10607579D01*
X13269825Y-10569484D02*
X13269825Y-10607579D01*
X13565063Y-10845674D02*
X13555539Y-10836150D01*
X13555539Y-10836150D02*
X13536491Y-10807579D01*
X13536491Y-10807579D02*
X13526968Y-10788531D01*
X13526968Y-10788531D02*
X13517444Y-10759960D01*
X13517444Y-10759960D02*
X13507920Y-10712341D01*
X13507920Y-10712341D02*
X13507920Y-10674246D01*
X13507920Y-10674246D02*
X13517444Y-10626627D01*
X13517444Y-10626627D02*
X13526968Y-10598055D01*
X13526968Y-10598055D02*
X13536491Y-10579008D01*
X13536491Y-10579008D02*
X13555539Y-10550436D01*
X13555539Y-10550436D02*
X13565063Y-10540912D01*
X13736491Y-10569484D02*
X13641253Y-10569484D01*
X13641253Y-10569484D02*
X13631729Y-10664722D01*
X13631729Y-10664722D02*
X13641253Y-10655198D01*
X13641253Y-10655198D02*
X13660301Y-10645674D01*
X13660301Y-10645674D02*
X13707920Y-10645674D01*
X13707920Y-10645674D02*
X13726968Y-10655198D01*
X13726968Y-10655198D02*
X13736491Y-10664722D01*
X13736491Y-10664722D02*
X13746015Y-10683770D01*
X13746015Y-10683770D02*
X13746015Y-10731389D01*
X13746015Y-10731389D02*
X13736491Y-10750436D01*
X13736491Y-10750436D02*
X13726968Y-10759960D01*
X13726968Y-10759960D02*
X13707920Y-10769484D01*
X13707920Y-10769484D02*
X13660301Y-10769484D01*
X13660301Y-10769484D02*
X13641253Y-10759960D01*
X13641253Y-10759960D02*
X13631729Y-10750436D01*
X13869825Y-10569484D02*
X13888872Y-10569484D01*
X13888872Y-10569484D02*
X13907920Y-10579008D01*
X13907920Y-10579008D02*
X13917444Y-10588531D01*
X13917444Y-10588531D02*
X13926968Y-10607579D01*
X13926968Y-10607579D02*
X13936491Y-10645674D01*
X13936491Y-10645674D02*
X13936491Y-10693293D01*
X13936491Y-10693293D02*
X13926968Y-10731389D01*
X13926968Y-10731389D02*
X13917444Y-10750436D01*
X13917444Y-10750436D02*
X13907920Y-10759960D01*
X13907920Y-10759960D02*
X13888872Y-10769484D01*
X13888872Y-10769484D02*
X13869825Y-10769484D01*
X13869825Y-10769484D02*
X13850777Y-10759960D01*
X13850777Y-10759960D02*
X13841253Y-10750436D01*
X13841253Y-10750436D02*
X13831729Y-10731389D01*
X13831729Y-10731389D02*
X13822206Y-10693293D01*
X13822206Y-10693293D02*
X13822206Y-10645674D01*
X13822206Y-10645674D02*
X13831729Y-10607579D01*
X13831729Y-10607579D02*
X13841253Y-10588531D01*
X13841253Y-10588531D02*
X13850777Y-10579008D01*
X13850777Y-10579008D02*
X13869825Y-10569484D01*
X14174587Y-10769484D02*
X14174587Y-10569484D01*
X14260301Y-10769484D02*
X14260301Y-10664722D01*
X14260301Y-10664722D02*
X14250777Y-10645674D01*
X14250777Y-10645674D02*
X14231730Y-10636150D01*
X14231730Y-10636150D02*
X14203158Y-10636150D01*
X14203158Y-10636150D02*
X14184110Y-10645674D01*
X14184110Y-10645674D02*
X14174587Y-10655198D01*
X14384110Y-10769484D02*
X14365063Y-10759960D01*
X14365063Y-10759960D02*
X14355539Y-10750436D01*
X14355539Y-10750436D02*
X14346015Y-10731389D01*
X14346015Y-10731389D02*
X14346015Y-10674246D01*
X14346015Y-10674246D02*
X14355539Y-10655198D01*
X14355539Y-10655198D02*
X14365063Y-10645674D01*
X14365063Y-10645674D02*
X14384110Y-10636150D01*
X14384110Y-10636150D02*
X14412682Y-10636150D01*
X14412682Y-10636150D02*
X14431730Y-10645674D01*
X14431730Y-10645674D02*
X14441253Y-10655198D01*
X14441253Y-10655198D02*
X14450777Y-10674246D01*
X14450777Y-10674246D02*
X14450777Y-10731389D01*
X14450777Y-10731389D02*
X14441253Y-10750436D01*
X14441253Y-10750436D02*
X14431730Y-10759960D01*
X14431730Y-10759960D02*
X14412682Y-10769484D01*
X14412682Y-10769484D02*
X14384110Y-10769484D01*
X14565063Y-10769484D02*
X14546015Y-10759960D01*
X14546015Y-10759960D02*
X14536491Y-10740912D01*
X14536491Y-10740912D02*
X14536491Y-10569484D01*
X14717444Y-10759960D02*
X14698396Y-10769484D01*
X14698396Y-10769484D02*
X14660301Y-10769484D01*
X14660301Y-10769484D02*
X14641253Y-10759960D01*
X14641253Y-10759960D02*
X14631730Y-10740912D01*
X14631730Y-10740912D02*
X14631730Y-10664722D01*
X14631730Y-10664722D02*
X14641253Y-10645674D01*
X14641253Y-10645674D02*
X14660301Y-10636150D01*
X14660301Y-10636150D02*
X14698396Y-10636150D01*
X14698396Y-10636150D02*
X14717444Y-10645674D01*
X14717444Y-10645674D02*
X14726968Y-10664722D01*
X14726968Y-10664722D02*
X14726968Y-10683770D01*
X14726968Y-10683770D02*
X14631730Y-10702817D01*
X14803158Y-10759960D02*
X14822206Y-10769484D01*
X14822206Y-10769484D02*
X14860301Y-10769484D01*
X14860301Y-10769484D02*
X14879349Y-10759960D01*
X14879349Y-10759960D02*
X14888872Y-10740912D01*
X14888872Y-10740912D02*
X14888872Y-10731389D01*
X14888872Y-10731389D02*
X14879349Y-10712341D01*
X14879349Y-10712341D02*
X14860301Y-10702817D01*
X14860301Y-10702817D02*
X14831730Y-10702817D01*
X14831730Y-10702817D02*
X14812682Y-10693293D01*
X14812682Y-10693293D02*
X14803158Y-10674246D01*
X14803158Y-10674246D02*
X14803158Y-10664722D01*
X14803158Y-10664722D02*
X14812682Y-10645674D01*
X14812682Y-10645674D02*
X14831730Y-10636150D01*
X14831730Y-10636150D02*
X14860301Y-10636150D01*
X14860301Y-10636150D02*
X14879349Y-10645674D01*
X14955539Y-10845674D02*
X14965063Y-10836150D01*
X14965063Y-10836150D02*
X14984111Y-10807579D01*
X14984111Y-10807579D02*
X14993634Y-10788531D01*
X14993634Y-10788531D02*
X15003158Y-10759960D01*
X15003158Y-10759960D02*
X15012682Y-10712341D01*
X15012682Y-10712341D02*
X15012682Y-10674246D01*
X15012682Y-10674246D02*
X15003158Y-10626627D01*
X15003158Y-10626627D02*
X14993634Y-10598055D01*
X14993634Y-10598055D02*
X14984111Y-10579008D01*
X14984111Y-10579008D02*
X14965063Y-10550436D01*
X14965063Y-10550436D02*
X14955539Y-10540912D01*
D12*
X9973891Y-10980891D02*
X9973891Y-10903109D01*
X9896109Y-10903109D01*
X9896109Y-10980891D01*
X9973891Y-10980891D01*
D10*
X10355539Y-11033484D02*
X10241253Y-11033484D01*
X10298396Y-11033484D02*
X10298396Y-10833484D01*
X10298396Y-10833484D02*
X10279348Y-10862055D01*
X10279348Y-10862055D02*
X10260301Y-10881103D01*
X10260301Y-10881103D02*
X10241253Y-10890627D01*
X10441253Y-11014436D02*
X10450777Y-11023960D01*
X10450777Y-11023960D02*
X10441253Y-11033484D01*
X10441253Y-11033484D02*
X10431729Y-11023960D01*
X10431729Y-11023960D02*
X10441253Y-11014436D01*
X10441253Y-11014436D02*
X10441253Y-11033484D01*
X10641253Y-11033484D02*
X10526967Y-11033484D01*
X10584110Y-11033484D02*
X10584110Y-10833484D01*
X10584110Y-10833484D02*
X10565063Y-10862055D01*
X10565063Y-10862055D02*
X10546015Y-10881103D01*
X10546015Y-10881103D02*
X10526967Y-10890627D01*
X10765063Y-10833484D02*
X10784110Y-10833484D01*
X10784110Y-10833484D02*
X10803158Y-10843008D01*
X10803158Y-10843008D02*
X10812682Y-10852531D01*
X10812682Y-10852531D02*
X10822205Y-10871579D01*
X10822205Y-10871579D02*
X10831729Y-10909674D01*
X10831729Y-10909674D02*
X10831729Y-10957293D01*
X10831729Y-10957293D02*
X10822205Y-10995389D01*
X10822205Y-10995389D02*
X10812682Y-11014436D01*
X10812682Y-11014436D02*
X10803158Y-11023960D01*
X10803158Y-11023960D02*
X10784110Y-11033484D01*
X10784110Y-11033484D02*
X10765063Y-11033484D01*
X10765063Y-11033484D02*
X10746015Y-11023960D01*
X10746015Y-11023960D02*
X10736491Y-11014436D01*
X10736491Y-11014436D02*
X10726967Y-10995389D01*
X10726967Y-10995389D02*
X10717444Y-10957293D01*
X10717444Y-10957293D02*
X10717444Y-10909674D01*
X10717444Y-10909674D02*
X10726967Y-10871579D01*
X10726967Y-10871579D02*
X10736491Y-10852531D01*
X10736491Y-10852531D02*
X10746015Y-10843008D01*
X10746015Y-10843008D02*
X10765063Y-10833484D01*
X10955539Y-10833484D02*
X10974586Y-10833484D01*
X10974586Y-10833484D02*
X10993634Y-10843008D01*
X10993634Y-10843008D02*
X11003158Y-10852531D01*
X11003158Y-10852531D02*
X11012682Y-10871579D01*
X11012682Y-10871579D02*
X11022205Y-10909674D01*
X11022205Y-10909674D02*
X11022205Y-10957293D01*
X11022205Y-10957293D02*
X11012682Y-10995389D01*
X11012682Y-10995389D02*
X11003158Y-11014436D01*
X11003158Y-11014436D02*
X10993634Y-11023960D01*
X10993634Y-11023960D02*
X10974586Y-11033484D01*
X10974586Y-11033484D02*
X10955539Y-11033484D01*
X10955539Y-11033484D02*
X10936491Y-11023960D01*
X10936491Y-11023960D02*
X10926967Y-11014436D01*
X10926967Y-11014436D02*
X10917444Y-10995389D01*
X10917444Y-10995389D02*
X10907920Y-10957293D01*
X10907920Y-10957293D02*
X10907920Y-10909674D01*
X10907920Y-10909674D02*
X10917444Y-10871579D01*
X10917444Y-10871579D02*
X10926967Y-10852531D01*
X10926967Y-10852531D02*
X10936491Y-10843008D01*
X10936491Y-10843008D02*
X10955539Y-10833484D01*
X11107920Y-11033484D02*
X11107920Y-10900150D01*
X11107920Y-10919198D02*
X11117444Y-10909674D01*
X11117444Y-10909674D02*
X11136491Y-10900150D01*
X11136491Y-10900150D02*
X11165063Y-10900150D01*
X11165063Y-10900150D02*
X11184110Y-10909674D01*
X11184110Y-10909674D02*
X11193634Y-10928722D01*
X11193634Y-10928722D02*
X11193634Y-11033484D01*
X11193634Y-10928722D02*
X11203158Y-10909674D01*
X11203158Y-10909674D02*
X11222205Y-10900150D01*
X11222205Y-10900150D02*
X11250777Y-10900150D01*
X11250777Y-10900150D02*
X11269824Y-10909674D01*
X11269824Y-10909674D02*
X11279348Y-10928722D01*
X11279348Y-10928722D02*
X11279348Y-11033484D01*
X11374586Y-11033484D02*
X11374586Y-10900150D01*
X11374586Y-10919198D02*
X11384110Y-10909674D01*
X11384110Y-10909674D02*
X11403158Y-10900150D01*
X11403158Y-10900150D02*
X11431729Y-10900150D01*
X11431729Y-10900150D02*
X11450777Y-10909674D01*
X11450777Y-10909674D02*
X11460301Y-10928722D01*
X11460301Y-10928722D02*
X11460301Y-11033484D01*
X11460301Y-10928722D02*
X11469824Y-10909674D01*
X11469824Y-10909674D02*
X11488872Y-10900150D01*
X11488872Y-10900150D02*
X11517443Y-10900150D01*
X11517443Y-10900150D02*
X11536491Y-10909674D01*
X11536491Y-10909674D02*
X11546015Y-10928722D01*
X11546015Y-10928722D02*
X11546015Y-11033484D01*
X11936491Y-10823960D02*
X11765063Y-11081103D01*
X12193634Y-10833484D02*
X12212682Y-10833484D01*
X12212682Y-10833484D02*
X12231729Y-10843008D01*
X12231729Y-10843008D02*
X12241253Y-10852531D01*
X12241253Y-10852531D02*
X12250777Y-10871579D01*
X12250777Y-10871579D02*
X12260301Y-10909674D01*
X12260301Y-10909674D02*
X12260301Y-10957293D01*
X12260301Y-10957293D02*
X12250777Y-10995389D01*
X12250777Y-10995389D02*
X12241253Y-11014436D01*
X12241253Y-11014436D02*
X12231729Y-11023960D01*
X12231729Y-11023960D02*
X12212682Y-11033484D01*
X12212682Y-11033484D02*
X12193634Y-11033484D01*
X12193634Y-11033484D02*
X12174586Y-11023960D01*
X12174586Y-11023960D02*
X12165063Y-11014436D01*
X12165063Y-11014436D02*
X12155539Y-10995389D01*
X12155539Y-10995389D02*
X12146015Y-10957293D01*
X12146015Y-10957293D02*
X12146015Y-10909674D01*
X12146015Y-10909674D02*
X12155539Y-10871579D01*
X12155539Y-10871579D02*
X12165063Y-10852531D01*
X12165063Y-10852531D02*
X12174586Y-10843008D01*
X12174586Y-10843008D02*
X12193634Y-10833484D01*
X12346015Y-11014436D02*
X12355539Y-11023960D01*
X12355539Y-11023960D02*
X12346015Y-11033484D01*
X12346015Y-11033484D02*
X12336491Y-11023960D01*
X12336491Y-11023960D02*
X12346015Y-11014436D01*
X12346015Y-11014436D02*
X12346015Y-11033484D01*
X12479348Y-10833484D02*
X12498396Y-10833484D01*
X12498396Y-10833484D02*
X12517444Y-10843008D01*
X12517444Y-10843008D02*
X12526967Y-10852531D01*
X12526967Y-10852531D02*
X12536491Y-10871579D01*
X12536491Y-10871579D02*
X12546015Y-10909674D01*
X12546015Y-10909674D02*
X12546015Y-10957293D01*
X12546015Y-10957293D02*
X12536491Y-10995389D01*
X12536491Y-10995389D02*
X12526967Y-11014436D01*
X12526967Y-11014436D02*
X12517444Y-11023960D01*
X12517444Y-11023960D02*
X12498396Y-11033484D01*
X12498396Y-11033484D02*
X12479348Y-11033484D01*
X12479348Y-11033484D02*
X12460301Y-11023960D01*
X12460301Y-11023960D02*
X12450777Y-11014436D01*
X12450777Y-11014436D02*
X12441253Y-10995389D01*
X12441253Y-10995389D02*
X12431729Y-10957293D01*
X12431729Y-10957293D02*
X12431729Y-10909674D01*
X12431729Y-10909674D02*
X12441253Y-10871579D01*
X12441253Y-10871579D02*
X12450777Y-10852531D01*
X12450777Y-10852531D02*
X12460301Y-10843008D01*
X12460301Y-10843008D02*
X12479348Y-10833484D01*
X12717444Y-10900150D02*
X12717444Y-11033484D01*
X12669825Y-10823960D02*
X12622206Y-10966817D01*
X12622206Y-10966817D02*
X12746015Y-10966817D01*
X12803158Y-10833484D02*
X12926967Y-10833484D01*
X12926967Y-10833484D02*
X12860301Y-10909674D01*
X12860301Y-10909674D02*
X12888872Y-10909674D01*
X12888872Y-10909674D02*
X12907920Y-10919198D01*
X12907920Y-10919198D02*
X12917444Y-10928722D01*
X12917444Y-10928722D02*
X12926967Y-10947770D01*
X12926967Y-10947770D02*
X12926967Y-10995389D01*
X12926967Y-10995389D02*
X12917444Y-11014436D01*
X12917444Y-11014436D02*
X12907920Y-11023960D01*
X12907920Y-11023960D02*
X12888872Y-11033484D01*
X12888872Y-11033484D02*
X12831729Y-11033484D01*
X12831729Y-11033484D02*
X12812682Y-11023960D01*
X12812682Y-11023960D02*
X12803158Y-11014436D01*
X12993634Y-10833484D02*
X13117444Y-10833484D01*
X13117444Y-10833484D02*
X13050777Y-10909674D01*
X13050777Y-10909674D02*
X13079348Y-10909674D01*
X13079348Y-10909674D02*
X13098396Y-10919198D01*
X13098396Y-10919198D02*
X13107920Y-10928722D01*
X13107920Y-10928722D02*
X13117444Y-10947770D01*
X13117444Y-10947770D02*
X13117444Y-10995389D01*
X13117444Y-10995389D02*
X13107920Y-11014436D01*
X13107920Y-11014436D02*
X13098396Y-11023960D01*
X13098396Y-11023960D02*
X13079348Y-11033484D01*
X13079348Y-11033484D02*
X13022206Y-11033484D01*
X13022206Y-11033484D02*
X13003158Y-11023960D01*
X13003158Y-11023960D02*
X12993634Y-11014436D01*
X13193634Y-10833484D02*
X13193634Y-10871579D01*
X13269825Y-10833484D02*
X13269825Y-10871579D01*
X13565063Y-11109674D02*
X13555539Y-11100150D01*
X13555539Y-11100150D02*
X13536491Y-11071579D01*
X13536491Y-11071579D02*
X13526968Y-11052531D01*
X13526968Y-11052531D02*
X13517444Y-11023960D01*
X13517444Y-11023960D02*
X13507920Y-10976341D01*
X13507920Y-10976341D02*
X13507920Y-10938246D01*
X13507920Y-10938246D02*
X13517444Y-10890627D01*
X13517444Y-10890627D02*
X13526968Y-10862055D01*
X13526968Y-10862055D02*
X13536491Y-10843008D01*
X13536491Y-10843008D02*
X13555539Y-10814436D01*
X13555539Y-10814436D02*
X13565063Y-10804912D01*
X13631729Y-10852531D02*
X13641253Y-10843008D01*
X13641253Y-10843008D02*
X13660301Y-10833484D01*
X13660301Y-10833484D02*
X13707920Y-10833484D01*
X13707920Y-10833484D02*
X13726968Y-10843008D01*
X13726968Y-10843008D02*
X13736491Y-10852531D01*
X13736491Y-10852531D02*
X13746015Y-10871579D01*
X13746015Y-10871579D02*
X13746015Y-10890627D01*
X13746015Y-10890627D02*
X13736491Y-10919198D01*
X13736491Y-10919198D02*
X13622206Y-11033484D01*
X13622206Y-11033484D02*
X13746015Y-11033484D01*
X13984110Y-11033484D02*
X13984110Y-10833484D01*
X14069825Y-11033484D02*
X14069825Y-10928722D01*
X14069825Y-10928722D02*
X14060301Y-10909674D01*
X14060301Y-10909674D02*
X14041253Y-10900150D01*
X14041253Y-10900150D02*
X14012682Y-10900150D01*
X14012682Y-10900150D02*
X13993634Y-10909674D01*
X13993634Y-10909674D02*
X13984110Y-10919198D01*
X14193634Y-11033484D02*
X14174587Y-11023960D01*
X14174587Y-11023960D02*
X14165063Y-11014436D01*
X14165063Y-11014436D02*
X14155539Y-10995389D01*
X14155539Y-10995389D02*
X14155539Y-10938246D01*
X14155539Y-10938246D02*
X14165063Y-10919198D01*
X14165063Y-10919198D02*
X14174587Y-10909674D01*
X14174587Y-10909674D02*
X14193634Y-10900150D01*
X14193634Y-10900150D02*
X14222206Y-10900150D01*
X14222206Y-10900150D02*
X14241253Y-10909674D01*
X14241253Y-10909674D02*
X14250777Y-10919198D01*
X14250777Y-10919198D02*
X14260301Y-10938246D01*
X14260301Y-10938246D02*
X14260301Y-10995389D01*
X14260301Y-10995389D02*
X14250777Y-11014436D01*
X14250777Y-11014436D02*
X14241253Y-11023960D01*
X14241253Y-11023960D02*
X14222206Y-11033484D01*
X14222206Y-11033484D02*
X14193634Y-11033484D01*
X14374587Y-11033484D02*
X14355539Y-11023960D01*
X14355539Y-11023960D02*
X14346015Y-11004912D01*
X14346015Y-11004912D02*
X14346015Y-10833484D01*
X14526968Y-11023960D02*
X14507920Y-11033484D01*
X14507920Y-11033484D02*
X14469825Y-11033484D01*
X14469825Y-11033484D02*
X14450777Y-11023960D01*
X14450777Y-11023960D02*
X14441253Y-11004912D01*
X14441253Y-11004912D02*
X14441253Y-10928722D01*
X14441253Y-10928722D02*
X14450777Y-10909674D01*
X14450777Y-10909674D02*
X14469825Y-10900150D01*
X14469825Y-10900150D02*
X14507920Y-10900150D01*
X14507920Y-10900150D02*
X14526968Y-10909674D01*
X14526968Y-10909674D02*
X14536491Y-10928722D01*
X14536491Y-10928722D02*
X14536491Y-10947770D01*
X14536491Y-10947770D02*
X14441253Y-10966817D01*
X14612682Y-11023960D02*
X14631730Y-11033484D01*
X14631730Y-11033484D02*
X14669825Y-11033484D01*
X14669825Y-11033484D02*
X14688872Y-11023960D01*
X14688872Y-11023960D02*
X14698396Y-11004912D01*
X14698396Y-11004912D02*
X14698396Y-10995389D01*
X14698396Y-10995389D02*
X14688872Y-10976341D01*
X14688872Y-10976341D02*
X14669825Y-10966817D01*
X14669825Y-10966817D02*
X14641253Y-10966817D01*
X14641253Y-10966817D02*
X14622206Y-10957293D01*
X14622206Y-10957293D02*
X14612682Y-10938246D01*
X14612682Y-10938246D02*
X14612682Y-10928722D01*
X14612682Y-10928722D02*
X14622206Y-10909674D01*
X14622206Y-10909674D02*
X14641253Y-10900150D01*
X14641253Y-10900150D02*
X14669825Y-10900150D01*
X14669825Y-10900150D02*
X14688872Y-10909674D01*
X14765063Y-11109674D02*
X14774587Y-11100150D01*
X14774587Y-11100150D02*
X14793634Y-11071579D01*
X14793634Y-11071579D02*
X14803158Y-11052531D01*
X14803158Y-11052531D02*
X14812682Y-11023960D01*
X14812682Y-11023960D02*
X14822206Y-10976341D01*
X14822206Y-10976341D02*
X14822206Y-10938246D01*
X14822206Y-10938246D02*
X14812682Y-10890627D01*
X14812682Y-10890627D02*
X14803158Y-10862055D01*
X14803158Y-10862055D02*
X14793634Y-10843008D01*
X14793634Y-10843008D02*
X14774587Y-10814436D01*
X14774587Y-10814436D02*
X14765063Y-10804912D01*
D13*
X9925000Y-11271000D02*
X9990000Y-11206000D01*
X9925000Y-11141000D01*
X9860000Y-11206000D01*
X9925000Y-11271000D01*
D10*
X10355539Y-11297484D02*
X10241253Y-11297484D01*
X10298396Y-11297484D02*
X10298396Y-11097484D01*
X10298396Y-11097484D02*
X10279348Y-11126055D01*
X10279348Y-11126055D02*
X10260301Y-11145103D01*
X10260301Y-11145103D02*
X10241253Y-11154627D01*
X10441253Y-11278436D02*
X10450777Y-11287960D01*
X10450777Y-11287960D02*
X10441253Y-11297484D01*
X10441253Y-11297484D02*
X10431729Y-11287960D01*
X10431729Y-11287960D02*
X10441253Y-11278436D01*
X10441253Y-11278436D02*
X10441253Y-11297484D01*
X10517444Y-11097484D02*
X10641253Y-11097484D01*
X10641253Y-11097484D02*
X10574586Y-11173674D01*
X10574586Y-11173674D02*
X10603158Y-11173674D01*
X10603158Y-11173674D02*
X10622205Y-11183198D01*
X10622205Y-11183198D02*
X10631729Y-11192722D01*
X10631729Y-11192722D02*
X10641253Y-11211769D01*
X10641253Y-11211769D02*
X10641253Y-11259388D01*
X10641253Y-11259388D02*
X10631729Y-11278436D01*
X10631729Y-11278436D02*
X10622205Y-11287960D01*
X10622205Y-11287960D02*
X10603158Y-11297484D01*
X10603158Y-11297484D02*
X10546015Y-11297484D01*
X10546015Y-11297484D02*
X10526967Y-11287960D01*
X10526967Y-11287960D02*
X10517444Y-11278436D01*
X10765063Y-11097484D02*
X10784110Y-11097484D01*
X10784110Y-11097484D02*
X10803158Y-11107008D01*
X10803158Y-11107008D02*
X10812682Y-11116531D01*
X10812682Y-11116531D02*
X10822205Y-11135579D01*
X10822205Y-11135579D02*
X10831729Y-11173674D01*
X10831729Y-11173674D02*
X10831729Y-11221293D01*
X10831729Y-11221293D02*
X10822205Y-11259388D01*
X10822205Y-11259388D02*
X10812682Y-11278436D01*
X10812682Y-11278436D02*
X10803158Y-11287960D01*
X10803158Y-11287960D02*
X10784110Y-11297484D01*
X10784110Y-11297484D02*
X10765063Y-11297484D01*
X10765063Y-11297484D02*
X10746015Y-11287960D01*
X10746015Y-11287960D02*
X10736491Y-11278436D01*
X10736491Y-11278436D02*
X10726967Y-11259388D01*
X10726967Y-11259388D02*
X10717444Y-11221293D01*
X10717444Y-11221293D02*
X10717444Y-11173674D01*
X10717444Y-11173674D02*
X10726967Y-11135579D01*
X10726967Y-11135579D02*
X10736491Y-11116531D01*
X10736491Y-11116531D02*
X10746015Y-11107008D01*
X10746015Y-11107008D02*
X10765063Y-11097484D01*
X10955539Y-11097484D02*
X10974586Y-11097484D01*
X10974586Y-11097484D02*
X10993634Y-11107008D01*
X10993634Y-11107008D02*
X11003158Y-11116531D01*
X11003158Y-11116531D02*
X11012682Y-11135579D01*
X11012682Y-11135579D02*
X11022205Y-11173674D01*
X11022205Y-11173674D02*
X11022205Y-11221293D01*
X11022205Y-11221293D02*
X11012682Y-11259388D01*
X11012682Y-11259388D02*
X11003158Y-11278436D01*
X11003158Y-11278436D02*
X10993634Y-11287960D01*
X10993634Y-11287960D02*
X10974586Y-11297484D01*
X10974586Y-11297484D02*
X10955539Y-11297484D01*
X10955539Y-11297484D02*
X10936491Y-11287960D01*
X10936491Y-11287960D02*
X10926967Y-11278436D01*
X10926967Y-11278436D02*
X10917444Y-11259388D01*
X10917444Y-11259388D02*
X10907920Y-11221293D01*
X10907920Y-11221293D02*
X10907920Y-11173674D01*
X10907920Y-11173674D02*
X10917444Y-11135579D01*
X10917444Y-11135579D02*
X10926967Y-11116531D01*
X10926967Y-11116531D02*
X10936491Y-11107008D01*
X10936491Y-11107008D02*
X10955539Y-11097484D01*
X11107920Y-11297484D02*
X11107920Y-11164150D01*
X11107920Y-11183198D02*
X11117444Y-11173674D01*
X11117444Y-11173674D02*
X11136491Y-11164150D01*
X11136491Y-11164150D02*
X11165063Y-11164150D01*
X11165063Y-11164150D02*
X11184110Y-11173674D01*
X11184110Y-11173674D02*
X11193634Y-11192722D01*
X11193634Y-11192722D02*
X11193634Y-11297484D01*
X11193634Y-11192722D02*
X11203158Y-11173674D01*
X11203158Y-11173674D02*
X11222205Y-11164150D01*
X11222205Y-11164150D02*
X11250777Y-11164150D01*
X11250777Y-11164150D02*
X11269824Y-11173674D01*
X11269824Y-11173674D02*
X11279348Y-11192722D01*
X11279348Y-11192722D02*
X11279348Y-11297484D01*
X11374586Y-11297484D02*
X11374586Y-11164150D01*
X11374586Y-11183198D02*
X11384110Y-11173674D01*
X11384110Y-11173674D02*
X11403158Y-11164150D01*
X11403158Y-11164150D02*
X11431729Y-11164150D01*
X11431729Y-11164150D02*
X11450777Y-11173674D01*
X11450777Y-11173674D02*
X11460301Y-11192722D01*
X11460301Y-11192722D02*
X11460301Y-11297484D01*
X11460301Y-11192722D02*
X11469824Y-11173674D01*
X11469824Y-11173674D02*
X11488872Y-11164150D01*
X11488872Y-11164150D02*
X11517443Y-11164150D01*
X11517443Y-11164150D02*
X11536491Y-11173674D01*
X11536491Y-11173674D02*
X11546015Y-11192722D01*
X11546015Y-11192722D02*
X11546015Y-11297484D01*
X11936491Y-11087960D02*
X11765063Y-11345103D01*
X12193634Y-11097484D02*
X12212682Y-11097484D01*
X12212682Y-11097484D02*
X12231729Y-11107008D01*
X12231729Y-11107008D02*
X12241253Y-11116531D01*
X12241253Y-11116531D02*
X12250777Y-11135579D01*
X12250777Y-11135579D02*
X12260301Y-11173674D01*
X12260301Y-11173674D02*
X12260301Y-11221293D01*
X12260301Y-11221293D02*
X12250777Y-11259388D01*
X12250777Y-11259388D02*
X12241253Y-11278436D01*
X12241253Y-11278436D02*
X12231729Y-11287960D01*
X12231729Y-11287960D02*
X12212682Y-11297484D01*
X12212682Y-11297484D02*
X12193634Y-11297484D01*
X12193634Y-11297484D02*
X12174586Y-11287960D01*
X12174586Y-11287960D02*
X12165063Y-11278436D01*
X12165063Y-11278436D02*
X12155539Y-11259388D01*
X12155539Y-11259388D02*
X12146015Y-11221293D01*
X12146015Y-11221293D02*
X12146015Y-11173674D01*
X12146015Y-11173674D02*
X12155539Y-11135579D01*
X12155539Y-11135579D02*
X12165063Y-11116531D01*
X12165063Y-11116531D02*
X12174586Y-11107008D01*
X12174586Y-11107008D02*
X12193634Y-11097484D01*
X12346015Y-11278436D02*
X12355539Y-11287960D01*
X12355539Y-11287960D02*
X12346015Y-11297484D01*
X12346015Y-11297484D02*
X12336491Y-11287960D01*
X12336491Y-11287960D02*
X12346015Y-11278436D01*
X12346015Y-11278436D02*
X12346015Y-11297484D01*
X12479348Y-11097484D02*
X12498396Y-11097484D01*
X12498396Y-11097484D02*
X12517444Y-11107008D01*
X12517444Y-11107008D02*
X12526967Y-11116531D01*
X12526967Y-11116531D02*
X12536491Y-11135579D01*
X12536491Y-11135579D02*
X12546015Y-11173674D01*
X12546015Y-11173674D02*
X12546015Y-11221293D01*
X12546015Y-11221293D02*
X12536491Y-11259388D01*
X12536491Y-11259388D02*
X12526967Y-11278436D01*
X12526967Y-11278436D02*
X12517444Y-11287960D01*
X12517444Y-11287960D02*
X12498396Y-11297484D01*
X12498396Y-11297484D02*
X12479348Y-11297484D01*
X12479348Y-11297484D02*
X12460301Y-11287960D01*
X12460301Y-11287960D02*
X12450777Y-11278436D01*
X12450777Y-11278436D02*
X12441253Y-11259388D01*
X12441253Y-11259388D02*
X12431729Y-11221293D01*
X12431729Y-11221293D02*
X12431729Y-11173674D01*
X12431729Y-11173674D02*
X12441253Y-11135579D01*
X12441253Y-11135579D02*
X12450777Y-11116531D01*
X12450777Y-11116531D02*
X12460301Y-11107008D01*
X12460301Y-11107008D02*
X12479348Y-11097484D01*
X12726967Y-11097484D02*
X12631729Y-11097484D01*
X12631729Y-11097484D02*
X12622206Y-11192722D01*
X12622206Y-11192722D02*
X12631729Y-11183198D01*
X12631729Y-11183198D02*
X12650777Y-11173674D01*
X12650777Y-11173674D02*
X12698396Y-11173674D01*
X12698396Y-11173674D02*
X12717444Y-11183198D01*
X12717444Y-11183198D02*
X12726967Y-11192722D01*
X12726967Y-11192722D02*
X12736491Y-11211769D01*
X12736491Y-11211769D02*
X12736491Y-11259388D01*
X12736491Y-11259388D02*
X12726967Y-11278436D01*
X12726967Y-11278436D02*
X12717444Y-11287960D01*
X12717444Y-11287960D02*
X12698396Y-11297484D01*
X12698396Y-11297484D02*
X12650777Y-11297484D01*
X12650777Y-11297484D02*
X12631729Y-11287960D01*
X12631729Y-11287960D02*
X12622206Y-11278436D01*
X12926967Y-11297484D02*
X12812682Y-11297484D01*
X12869825Y-11297484D02*
X12869825Y-11097484D01*
X12869825Y-11097484D02*
X12850777Y-11126055D01*
X12850777Y-11126055D02*
X12831729Y-11145103D01*
X12831729Y-11145103D02*
X12812682Y-11154627D01*
X13003158Y-11116531D02*
X13012682Y-11107008D01*
X13012682Y-11107008D02*
X13031729Y-11097484D01*
X13031729Y-11097484D02*
X13079348Y-11097484D01*
X13079348Y-11097484D02*
X13098396Y-11107008D01*
X13098396Y-11107008D02*
X13107920Y-11116531D01*
X13107920Y-11116531D02*
X13117444Y-11135579D01*
X13117444Y-11135579D02*
X13117444Y-11154627D01*
X13117444Y-11154627D02*
X13107920Y-11183198D01*
X13107920Y-11183198D02*
X12993634Y-11297484D01*
X12993634Y-11297484D02*
X13117444Y-11297484D01*
X13193634Y-11097484D02*
X13193634Y-11135579D01*
X13269825Y-11097484D02*
X13269825Y-11135579D01*
X13565063Y-11373674D02*
X13555539Y-11364150D01*
X13555539Y-11364150D02*
X13536491Y-11335579D01*
X13536491Y-11335579D02*
X13526968Y-11316531D01*
X13526968Y-11316531D02*
X13517444Y-11287960D01*
X13517444Y-11287960D02*
X13507920Y-11240341D01*
X13507920Y-11240341D02*
X13507920Y-11202246D01*
X13507920Y-11202246D02*
X13517444Y-11154627D01*
X13517444Y-11154627D02*
X13526968Y-11126055D01*
X13526968Y-11126055D02*
X13536491Y-11107008D01*
X13536491Y-11107008D02*
X13555539Y-11078436D01*
X13555539Y-11078436D02*
X13565063Y-11068912D01*
X13736491Y-11097484D02*
X13641253Y-11097484D01*
X13641253Y-11097484D02*
X13631729Y-11192722D01*
X13631729Y-11192722D02*
X13641253Y-11183198D01*
X13641253Y-11183198D02*
X13660301Y-11173674D01*
X13660301Y-11173674D02*
X13707920Y-11173674D01*
X13707920Y-11173674D02*
X13726968Y-11183198D01*
X13726968Y-11183198D02*
X13736491Y-11192722D01*
X13736491Y-11192722D02*
X13746015Y-11211769D01*
X13746015Y-11211769D02*
X13746015Y-11259388D01*
X13746015Y-11259388D02*
X13736491Y-11278436D01*
X13736491Y-11278436D02*
X13726968Y-11287960D01*
X13726968Y-11287960D02*
X13707920Y-11297484D01*
X13707920Y-11297484D02*
X13660301Y-11297484D01*
X13660301Y-11297484D02*
X13641253Y-11287960D01*
X13641253Y-11287960D02*
X13631729Y-11278436D01*
X13984110Y-11297484D02*
X13984110Y-11097484D01*
X14069825Y-11297484D02*
X14069825Y-11192722D01*
X14069825Y-11192722D02*
X14060301Y-11173674D01*
X14060301Y-11173674D02*
X14041253Y-11164150D01*
X14041253Y-11164150D02*
X14012682Y-11164150D01*
X14012682Y-11164150D02*
X13993634Y-11173674D01*
X13993634Y-11173674D02*
X13984110Y-11183198D01*
X14193634Y-11297484D02*
X14174587Y-11287960D01*
X14174587Y-11287960D02*
X14165063Y-11278436D01*
X14165063Y-11278436D02*
X14155539Y-11259388D01*
X14155539Y-11259388D02*
X14155539Y-11202246D01*
X14155539Y-11202246D02*
X14165063Y-11183198D01*
X14165063Y-11183198D02*
X14174587Y-11173674D01*
X14174587Y-11173674D02*
X14193634Y-11164150D01*
X14193634Y-11164150D02*
X14222206Y-11164150D01*
X14222206Y-11164150D02*
X14241253Y-11173674D01*
X14241253Y-11173674D02*
X14250777Y-11183198D01*
X14250777Y-11183198D02*
X14260301Y-11202246D01*
X14260301Y-11202246D02*
X14260301Y-11259388D01*
X14260301Y-11259388D02*
X14250777Y-11278436D01*
X14250777Y-11278436D02*
X14241253Y-11287960D01*
X14241253Y-11287960D02*
X14222206Y-11297484D01*
X14222206Y-11297484D02*
X14193634Y-11297484D01*
X14374587Y-11297484D02*
X14355539Y-11287960D01*
X14355539Y-11287960D02*
X14346015Y-11268912D01*
X14346015Y-11268912D02*
X14346015Y-11097484D01*
X14526968Y-11287960D02*
X14507920Y-11297484D01*
X14507920Y-11297484D02*
X14469825Y-11297484D01*
X14469825Y-11297484D02*
X14450777Y-11287960D01*
X14450777Y-11287960D02*
X14441253Y-11268912D01*
X14441253Y-11268912D02*
X14441253Y-11192722D01*
X14441253Y-11192722D02*
X14450777Y-11173674D01*
X14450777Y-11173674D02*
X14469825Y-11164150D01*
X14469825Y-11164150D02*
X14507920Y-11164150D01*
X14507920Y-11164150D02*
X14526968Y-11173674D01*
X14526968Y-11173674D02*
X14536491Y-11192722D01*
X14536491Y-11192722D02*
X14536491Y-11211769D01*
X14536491Y-11211769D02*
X14441253Y-11230817D01*
X14612682Y-11287960D02*
X14631730Y-11297484D01*
X14631730Y-11297484D02*
X14669825Y-11297484D01*
X14669825Y-11297484D02*
X14688872Y-11287960D01*
X14688872Y-11287960D02*
X14698396Y-11268912D01*
X14698396Y-11268912D02*
X14698396Y-11259388D01*
X14698396Y-11259388D02*
X14688872Y-11240341D01*
X14688872Y-11240341D02*
X14669825Y-11230817D01*
X14669825Y-11230817D02*
X14641253Y-11230817D01*
X14641253Y-11230817D02*
X14622206Y-11221293D01*
X14622206Y-11221293D02*
X14612682Y-11202246D01*
X14612682Y-11202246D02*
X14612682Y-11192722D01*
X14612682Y-11192722D02*
X14622206Y-11173674D01*
X14622206Y-11173674D02*
X14641253Y-11164150D01*
X14641253Y-11164150D02*
X14669825Y-11164150D01*
X14669825Y-11164150D02*
X14688872Y-11173674D01*
X14765063Y-11373674D02*
X14774587Y-11364150D01*
X14774587Y-11364150D02*
X14793634Y-11335579D01*
X14793634Y-11335579D02*
X14803158Y-11316531D01*
X14803158Y-11316531D02*
X14812682Y-11287960D01*
X14812682Y-11287960D02*
X14822206Y-11240341D01*
X14822206Y-11240341D02*
X14822206Y-11202246D01*
X14822206Y-11202246D02*
X14812682Y-11154627D01*
X14812682Y-11154627D02*
X14803158Y-11126055D01*
X14803158Y-11126055D02*
X14793634Y-11107008D01*
X14793634Y-11107008D02*
X14774587Y-11078436D01*
X14774587Y-11078436D02*
X14765063Y-11068912D01*
M02*
