%TF.GenerationSoftware,KiCad,Pcbnew,7.0.11+dfsg-1build4*%
%TF.CreationDate,2025-02-10T19:27:04-07:00*%
%TF.ProjectId,rfid-v2,72666964-2d76-4322-9e6b-696361645f70,rev?*%
%TF.SameCoordinates,Original*%
%TF.FileFunction,Drillmap*%
%TF.FilePolarity,Positive*%
%FSLAX45Y45*%
G04 Gerber Fmt 4.5, Leading zero omitted, Abs format (unit mm)*
G04 Created by KiCad (PCBNEW 7.0.11+dfsg-1build4) date 2025-02-10 19:27:04*
%MOMM*%
%LPD*%
G01*
G04 APERTURE LIST*
%ADD10C,0.200000*%
G04 APERTURE END LIST*
D10*
X10000000Y-5000000D02*
X19000000Y-5000000D01*
X19000000Y-9500000D01*
X10000000Y-9500000D01*
X10000000Y-5000000D01*
X10250777Y-9821484D02*
X10250777Y-9621484D01*
X10250777Y-9621484D02*
X10298396Y-9621484D01*
X10298396Y-9621484D02*
X10326967Y-9631008D01*
X10326967Y-9631008D02*
X10346015Y-9650055D01*
X10346015Y-9650055D02*
X10355539Y-9669103D01*
X10355539Y-9669103D02*
X10365063Y-9707198D01*
X10365063Y-9707198D02*
X10365063Y-9735770D01*
X10365063Y-9735770D02*
X10355539Y-9773865D01*
X10355539Y-9773865D02*
X10346015Y-9792912D01*
X10346015Y-9792912D02*
X10326967Y-9811960D01*
X10326967Y-9811960D02*
X10298396Y-9821484D01*
X10298396Y-9821484D02*
X10250777Y-9821484D01*
X10450777Y-9821484D02*
X10450777Y-9688150D01*
X10450777Y-9726246D02*
X10460301Y-9707198D01*
X10460301Y-9707198D02*
X10469824Y-9697674D01*
X10469824Y-9697674D02*
X10488872Y-9688150D01*
X10488872Y-9688150D02*
X10507920Y-9688150D01*
X10574586Y-9821484D02*
X10574586Y-9688150D01*
X10574586Y-9621484D02*
X10565063Y-9631008D01*
X10565063Y-9631008D02*
X10574586Y-9640531D01*
X10574586Y-9640531D02*
X10584110Y-9631008D01*
X10584110Y-9631008D02*
X10574586Y-9621484D01*
X10574586Y-9621484D02*
X10574586Y-9640531D01*
X10698396Y-9821484D02*
X10679348Y-9811960D01*
X10679348Y-9811960D02*
X10669824Y-9792912D01*
X10669824Y-9792912D02*
X10669824Y-9621484D01*
X10803158Y-9821484D02*
X10784110Y-9811960D01*
X10784110Y-9811960D02*
X10774586Y-9792912D01*
X10774586Y-9792912D02*
X10774586Y-9621484D01*
X11031729Y-9821484D02*
X11031729Y-9621484D01*
X11031729Y-9621484D02*
X11098396Y-9764341D01*
X11098396Y-9764341D02*
X11165063Y-9621484D01*
X11165063Y-9621484D02*
X11165063Y-9821484D01*
X11346015Y-9821484D02*
X11346015Y-9716722D01*
X11346015Y-9716722D02*
X11336491Y-9697674D01*
X11336491Y-9697674D02*
X11317443Y-9688150D01*
X11317443Y-9688150D02*
X11279348Y-9688150D01*
X11279348Y-9688150D02*
X11260301Y-9697674D01*
X11346015Y-9811960D02*
X11326967Y-9821484D01*
X11326967Y-9821484D02*
X11279348Y-9821484D01*
X11279348Y-9821484D02*
X11260301Y-9811960D01*
X11260301Y-9811960D02*
X11250777Y-9792912D01*
X11250777Y-9792912D02*
X11250777Y-9773865D01*
X11250777Y-9773865D02*
X11260301Y-9754817D01*
X11260301Y-9754817D02*
X11279348Y-9745293D01*
X11279348Y-9745293D02*
X11326967Y-9745293D01*
X11326967Y-9745293D02*
X11346015Y-9735770D01*
X11441253Y-9688150D02*
X11441253Y-9888150D01*
X11441253Y-9697674D02*
X11460301Y-9688150D01*
X11460301Y-9688150D02*
X11498396Y-9688150D01*
X11498396Y-9688150D02*
X11517443Y-9697674D01*
X11517443Y-9697674D02*
X11526967Y-9707198D01*
X11526967Y-9707198D02*
X11536491Y-9726246D01*
X11536491Y-9726246D02*
X11536491Y-9783389D01*
X11536491Y-9783389D02*
X11526967Y-9802436D01*
X11526967Y-9802436D02*
X11517443Y-9811960D01*
X11517443Y-9811960D02*
X11498396Y-9821484D01*
X11498396Y-9821484D02*
X11460301Y-9821484D01*
X11460301Y-9821484D02*
X11441253Y-9811960D01*
X11622205Y-9802436D02*
X11631729Y-9811960D01*
X11631729Y-9811960D02*
X11622205Y-9821484D01*
X11622205Y-9821484D02*
X11612682Y-9811960D01*
X11612682Y-9811960D02*
X11622205Y-9802436D01*
X11622205Y-9802436D02*
X11622205Y-9821484D01*
X11622205Y-9697674D02*
X11631729Y-9707198D01*
X11631729Y-9707198D02*
X11622205Y-9716722D01*
X11622205Y-9716722D02*
X11612682Y-9707198D01*
X11612682Y-9707198D02*
X11622205Y-9697674D01*
X11622205Y-9697674D02*
X11622205Y-9716722D01*
M02*
