%TF.GenerationSoftware,KiCad,Pcbnew,7.0.11+dfsg-1build4*%
%TF.CreationDate,2025-02-10T19:25:52-07:00*%
%TF.ProjectId,rfid-v2,72666964-2d76-4322-9e6b-696361645f70,rev?*%
%TF.SameCoordinates,Original*%
%TF.FileFunction,Legend,Bot*%
%TF.FilePolarity,Positive*%
%FSLAX46Y46*%
G04 Gerber Fmt 4.6, Leading zero omitted, Abs format (unit mm)*
G04 Created by KiCad (PCBNEW 7.0.11+dfsg-1build4) date 2025-02-10 19:25:52*
%MOMM*%
%LPD*%
G01*
G04 APERTURE LIST*
%ADD10C,0.150000*%
%ADD11C,0.010000*%
G04 APERTURE END LIST*
D10*
X176812458Y-59913819D02*
X177479125Y-59913819D01*
X177479125Y-60961438D02*
X177479125Y-58961438D01*
X177479125Y-58961438D02*
X176526744Y-58961438D01*
X174621982Y-60770961D02*
X174717220Y-60866200D01*
X174717220Y-60866200D02*
X175002934Y-60961438D01*
X175002934Y-60961438D02*
X175193410Y-60961438D01*
X175193410Y-60961438D02*
X175479125Y-60866200D01*
X175479125Y-60866200D02*
X175669601Y-60675723D01*
X175669601Y-60675723D02*
X175764839Y-60485247D01*
X175764839Y-60485247D02*
X175860077Y-60104295D01*
X175860077Y-60104295D02*
X175860077Y-59818580D01*
X175860077Y-59818580D02*
X175764839Y-59437628D01*
X175764839Y-59437628D02*
X175669601Y-59247152D01*
X175669601Y-59247152D02*
X175479125Y-59056676D01*
X175479125Y-59056676D02*
X175193410Y-58961438D01*
X175193410Y-58961438D02*
X175002934Y-58961438D01*
X175002934Y-58961438D02*
X174717220Y-59056676D01*
X174717220Y-59056676D02*
X174621982Y-59151914D01*
X172621982Y-60770961D02*
X172717220Y-60866200D01*
X172717220Y-60866200D02*
X173002934Y-60961438D01*
X173002934Y-60961438D02*
X173193410Y-60961438D01*
X173193410Y-60961438D02*
X173479125Y-60866200D01*
X173479125Y-60866200D02*
X173669601Y-60675723D01*
X173669601Y-60675723D02*
X173764839Y-60485247D01*
X173764839Y-60485247D02*
X173860077Y-60104295D01*
X173860077Y-60104295D02*
X173860077Y-59818580D01*
X173860077Y-59818580D02*
X173764839Y-59437628D01*
X173764839Y-59437628D02*
X173669601Y-59247152D01*
X173669601Y-59247152D02*
X173479125Y-59056676D01*
X173479125Y-59056676D02*
X173193410Y-58961438D01*
X173193410Y-58961438D02*
X173002934Y-58961438D01*
X173002934Y-58961438D02*
X172717220Y-59056676D01*
X172717220Y-59056676D02*
X172621982Y-59151914D01*
X171764839Y-60961438D02*
X171764839Y-58961438D01*
X171764839Y-59913819D02*
X170621982Y-59913819D01*
X170621982Y-60961438D02*
X170621982Y-58961438D01*
X167002934Y-60961438D02*
X167669601Y-60009057D01*
X168145791Y-60961438D02*
X168145791Y-58961438D01*
X168145791Y-58961438D02*
X167383886Y-58961438D01*
X167383886Y-58961438D02*
X167193410Y-59056676D01*
X167193410Y-59056676D02*
X167098172Y-59151914D01*
X167098172Y-59151914D02*
X167002934Y-59342390D01*
X167002934Y-59342390D02*
X167002934Y-59628104D01*
X167002934Y-59628104D02*
X167098172Y-59818580D01*
X167098172Y-59818580D02*
X167193410Y-59913819D01*
X167193410Y-59913819D02*
X167383886Y-60009057D01*
X167383886Y-60009057D02*
X168145791Y-60009057D01*
X165479124Y-59913819D02*
X166145791Y-59913819D01*
X166145791Y-60961438D02*
X166145791Y-58961438D01*
X166145791Y-58961438D02*
X165193410Y-58961438D01*
X164431505Y-60961438D02*
X164431505Y-58961438D01*
X163479124Y-60961438D02*
X163479124Y-58961438D01*
X163479124Y-58961438D02*
X163002934Y-58961438D01*
X163002934Y-58961438D02*
X162717219Y-59056676D01*
X162717219Y-59056676D02*
X162526743Y-59247152D01*
X162526743Y-59247152D02*
X162431505Y-59437628D01*
X162431505Y-59437628D02*
X162336267Y-59818580D01*
X162336267Y-59818580D02*
X162336267Y-60104295D01*
X162336267Y-60104295D02*
X162431505Y-60485247D01*
X162431505Y-60485247D02*
X162526743Y-60675723D01*
X162526743Y-60675723D02*
X162717219Y-60866200D01*
X162717219Y-60866200D02*
X163002934Y-60961438D01*
X163002934Y-60961438D02*
X163479124Y-60961438D01*
X160145790Y-59628104D02*
X159669600Y-60961438D01*
X159669600Y-60961438D02*
X159193409Y-59628104D01*
X158526742Y-59151914D02*
X158431504Y-59056676D01*
X158431504Y-59056676D02*
X158241028Y-58961438D01*
X158241028Y-58961438D02*
X157764837Y-58961438D01*
X157764837Y-58961438D02*
X157574361Y-59056676D01*
X157574361Y-59056676D02*
X157479123Y-59151914D01*
X157479123Y-59151914D02*
X157383885Y-59342390D01*
X157383885Y-59342390D02*
X157383885Y-59532866D01*
X157383885Y-59532866D02*
X157479123Y-59818580D01*
X157479123Y-59818580D02*
X158621980Y-60961438D01*
X158621980Y-60961438D02*
X157383885Y-60961438D01*
X155098170Y-59151914D02*
X155002932Y-59056676D01*
X155002932Y-59056676D02*
X154812456Y-58961438D01*
X154812456Y-58961438D02*
X154336265Y-58961438D01*
X154336265Y-58961438D02*
X154145789Y-59056676D01*
X154145789Y-59056676D02*
X154050551Y-59151914D01*
X154050551Y-59151914D02*
X153955313Y-59342390D01*
X153955313Y-59342390D02*
X153955313Y-59532866D01*
X153955313Y-59532866D02*
X154050551Y-59818580D01*
X154050551Y-59818580D02*
X155193408Y-60961438D01*
X155193408Y-60961438D02*
X153955313Y-60961438D01*
X152717218Y-58961438D02*
X152526741Y-58961438D01*
X152526741Y-58961438D02*
X152336265Y-59056676D01*
X152336265Y-59056676D02*
X152241027Y-59151914D01*
X152241027Y-59151914D02*
X152145789Y-59342390D01*
X152145789Y-59342390D02*
X152050551Y-59723342D01*
X152050551Y-59723342D02*
X152050551Y-60199533D01*
X152050551Y-60199533D02*
X152145789Y-60580485D01*
X152145789Y-60580485D02*
X152241027Y-60770961D01*
X152241027Y-60770961D02*
X152336265Y-60866200D01*
X152336265Y-60866200D02*
X152526741Y-60961438D01*
X152526741Y-60961438D02*
X152717218Y-60961438D01*
X152717218Y-60961438D02*
X152907694Y-60866200D01*
X152907694Y-60866200D02*
X153002932Y-60770961D01*
X153002932Y-60770961D02*
X153098170Y-60580485D01*
X153098170Y-60580485D02*
X153193408Y-60199533D01*
X153193408Y-60199533D02*
X153193408Y-59723342D01*
X153193408Y-59723342D02*
X153098170Y-59342390D01*
X153098170Y-59342390D02*
X153002932Y-59151914D01*
X153002932Y-59151914D02*
X152907694Y-59056676D01*
X152907694Y-59056676D02*
X152717218Y-58961438D01*
X151288646Y-59151914D02*
X151193408Y-59056676D01*
X151193408Y-59056676D02*
X151002932Y-58961438D01*
X151002932Y-58961438D02*
X150526741Y-58961438D01*
X150526741Y-58961438D02*
X150336265Y-59056676D01*
X150336265Y-59056676D02*
X150241027Y-59151914D01*
X150241027Y-59151914D02*
X150145789Y-59342390D01*
X150145789Y-59342390D02*
X150145789Y-59532866D01*
X150145789Y-59532866D02*
X150241027Y-59818580D01*
X150241027Y-59818580D02*
X151383884Y-60961438D01*
X151383884Y-60961438D02*
X150145789Y-60961438D01*
X148336265Y-58961438D02*
X149288646Y-58961438D01*
X149288646Y-58961438D02*
X149383884Y-59913819D01*
X149383884Y-59913819D02*
X149288646Y-59818580D01*
X149288646Y-59818580D02*
X149098170Y-59723342D01*
X149098170Y-59723342D02*
X148621979Y-59723342D01*
X148621979Y-59723342D02*
X148431503Y-59818580D01*
X148431503Y-59818580D02*
X148336265Y-59913819D01*
X148336265Y-59913819D02*
X148241027Y-60104295D01*
X148241027Y-60104295D02*
X148241027Y-60580485D01*
X148241027Y-60580485D02*
X148336265Y-60770961D01*
X148336265Y-60770961D02*
X148431503Y-60866200D01*
X148431503Y-60866200D02*
X148621979Y-60961438D01*
X148621979Y-60961438D02*
X149098170Y-60961438D01*
X149098170Y-60961438D02*
X149288646Y-60866200D01*
X149288646Y-60866200D02*
X149383884Y-60770961D01*
X145955313Y-58866200D02*
X147669598Y-61437628D01*
X144907694Y-58961438D02*
X144717217Y-58961438D01*
X144717217Y-58961438D02*
X144526741Y-59056676D01*
X144526741Y-59056676D02*
X144431503Y-59151914D01*
X144431503Y-59151914D02*
X144336265Y-59342390D01*
X144336265Y-59342390D02*
X144241027Y-59723342D01*
X144241027Y-59723342D02*
X144241027Y-60199533D01*
X144241027Y-60199533D02*
X144336265Y-60580485D01*
X144336265Y-60580485D02*
X144431503Y-60770961D01*
X144431503Y-60770961D02*
X144526741Y-60866200D01*
X144526741Y-60866200D02*
X144717217Y-60961438D01*
X144717217Y-60961438D02*
X144907694Y-60961438D01*
X144907694Y-60961438D02*
X145098170Y-60866200D01*
X145098170Y-60866200D02*
X145193408Y-60770961D01*
X145193408Y-60770961D02*
X145288646Y-60580485D01*
X145288646Y-60580485D02*
X145383884Y-60199533D01*
X145383884Y-60199533D02*
X145383884Y-59723342D01*
X145383884Y-59723342D02*
X145288646Y-59342390D01*
X145288646Y-59342390D02*
X145193408Y-59151914D01*
X145193408Y-59151914D02*
X145098170Y-59056676D01*
X145098170Y-59056676D02*
X144907694Y-58961438D01*
X142336265Y-60961438D02*
X143479122Y-60961438D01*
X142907694Y-60961438D02*
X142907694Y-58961438D01*
X142907694Y-58961438D02*
X143098170Y-59247152D01*
X143098170Y-59247152D02*
X143288646Y-59437628D01*
X143288646Y-59437628D02*
X143479122Y-59532866D01*
X140050551Y-58866200D02*
X141764836Y-61437628D01*
X138336265Y-60961438D02*
X139479122Y-60961438D01*
X138907694Y-60961438D02*
X138907694Y-58961438D01*
X138907694Y-58961438D02*
X139098170Y-59247152D01*
X139098170Y-59247152D02*
X139288646Y-59437628D01*
X139288646Y-59437628D02*
X139479122Y-59532866D01*
X137193408Y-59818580D02*
X137383884Y-59723342D01*
X137383884Y-59723342D02*
X137479122Y-59628104D01*
X137479122Y-59628104D02*
X137574360Y-59437628D01*
X137574360Y-59437628D02*
X137574360Y-59342390D01*
X137574360Y-59342390D02*
X137479122Y-59151914D01*
X137479122Y-59151914D02*
X137383884Y-59056676D01*
X137383884Y-59056676D02*
X137193408Y-58961438D01*
X137193408Y-58961438D02*
X136812455Y-58961438D01*
X136812455Y-58961438D02*
X136621979Y-59056676D01*
X136621979Y-59056676D02*
X136526741Y-59151914D01*
X136526741Y-59151914D02*
X136431503Y-59342390D01*
X136431503Y-59342390D02*
X136431503Y-59437628D01*
X136431503Y-59437628D02*
X136526741Y-59628104D01*
X136526741Y-59628104D02*
X136621979Y-59723342D01*
X136621979Y-59723342D02*
X136812455Y-59818580D01*
X136812455Y-59818580D02*
X137193408Y-59818580D01*
X137193408Y-59818580D02*
X137383884Y-59913819D01*
X137383884Y-59913819D02*
X137479122Y-60009057D01*
X137479122Y-60009057D02*
X137574360Y-60199533D01*
X137574360Y-60199533D02*
X137574360Y-60580485D01*
X137574360Y-60580485D02*
X137479122Y-60770961D01*
X137479122Y-60770961D02*
X137383884Y-60866200D01*
X137383884Y-60866200D02*
X137193408Y-60961438D01*
X137193408Y-60961438D02*
X136812455Y-60961438D01*
X136812455Y-60961438D02*
X136621979Y-60866200D01*
X136621979Y-60866200D02*
X136526741Y-60770961D01*
X136526741Y-60770961D02*
X136431503Y-60580485D01*
X136431503Y-60580485D02*
X136431503Y-60199533D01*
X136431503Y-60199533D02*
X136526741Y-60009057D01*
X136526741Y-60009057D02*
X136621979Y-59913819D01*
X136621979Y-59913819D02*
X136812455Y-59818580D01*
%TO.C,REF\u002A\u002A*%
D11*
X145310829Y-69261097D02*
X145370753Y-69283355D01*
X145395673Y-69300080D01*
X145420910Y-69324043D01*
X145438912Y-69354526D01*
X145450858Y-69396023D01*
X145457930Y-69453032D01*
X145461308Y-69530047D01*
X145462171Y-69631565D01*
X145462002Y-69684027D01*
X145461153Y-69755715D01*
X145459711Y-69812925D01*
X145457814Y-69850809D01*
X145455597Y-69864514D01*
X145441172Y-69859981D01*
X145412054Y-69847670D01*
X145411181Y-69847272D01*
X145396060Y-69839356D01*
X145385891Y-69828495D01*
X145379691Y-69809471D01*
X145376478Y-69777069D01*
X145375270Y-69726071D01*
X145375086Y-69651261D01*
X145374714Y-69603804D01*
X145370750Y-69514615D01*
X145361673Y-69449287D01*
X145346524Y-69404393D01*
X145324345Y-69376507D01*
X145294175Y-69362203D01*
X145289990Y-69361206D01*
X145233480Y-69360427D01*
X145189410Y-69385744D01*
X145158972Y-69436502D01*
X145153544Y-69451175D01*
X145141171Y-69483649D01*
X145134905Y-69498572D01*
X145122036Y-69496516D01*
X145093933Y-69485357D01*
X145067721Y-69466927D01*
X145055771Y-69432098D01*
X145059336Y-69407151D01*
X145081235Y-69356547D01*
X145116644Y-69309128D01*
X145158052Y-69276334D01*
X145175400Y-69268752D01*
X145241089Y-69256076D01*
X145310829Y-69261097D01*
G36*
X145310829Y-69261097D02*
G01*
X145370753Y-69283355D01*
X145395673Y-69300080D01*
X145420910Y-69324043D01*
X145438912Y-69354526D01*
X145450858Y-69396023D01*
X145457930Y-69453032D01*
X145461308Y-69530047D01*
X145462171Y-69631565D01*
X145462002Y-69684027D01*
X145461153Y-69755715D01*
X145459711Y-69812925D01*
X145457814Y-69850809D01*
X145455597Y-69864514D01*
X145441172Y-69859981D01*
X145412054Y-69847670D01*
X145411181Y-69847272D01*
X145396060Y-69839356D01*
X145385891Y-69828495D01*
X145379691Y-69809471D01*
X145376478Y-69777069D01*
X145375270Y-69726071D01*
X145375086Y-69651261D01*
X145374714Y-69603804D01*
X145370750Y-69514615D01*
X145361673Y-69449287D01*
X145346524Y-69404393D01*
X145324345Y-69376507D01*
X145294175Y-69362203D01*
X145289990Y-69361206D01*
X145233480Y-69360427D01*
X145189410Y-69385744D01*
X145158972Y-69436502D01*
X145153544Y-69451175D01*
X145141171Y-69483649D01*
X145134905Y-69498572D01*
X145122036Y-69496516D01*
X145093933Y-69485357D01*
X145067721Y-69466927D01*
X145055771Y-69432098D01*
X145059336Y-69407151D01*
X145081235Y-69356547D01*
X145116644Y-69309128D01*
X145158052Y-69276334D01*
X145175400Y-69268752D01*
X145241089Y-69256076D01*
X145310829Y-69261097D01*
G37*
X149259020Y-69227822D02*
X149326810Y-69259680D01*
X149382366Y-69314770D01*
X149393881Y-69332016D01*
X149403432Y-69351562D01*
X149410206Y-69376198D01*
X149414819Y-69410711D01*
X149417888Y-69459889D01*
X149420029Y-69528519D01*
X149421859Y-69621389D01*
X149426404Y-69879007D01*
X149388225Y-69864491D01*
X149353268Y-69851156D01*
X149327097Y-69838323D01*
X149310013Y-69821780D01*
X149300086Y-69796465D01*
X149295386Y-69757316D01*
X149293982Y-69699268D01*
X149293943Y-69617261D01*
X149293744Y-69551895D01*
X149292559Y-69489173D01*
X149289729Y-69446334D01*
X149284609Y-69418220D01*
X149276553Y-69399675D01*
X149264914Y-69385543D01*
X149236303Y-69365600D01*
X149188239Y-69358083D01*
X149140688Y-69377079D01*
X149137550Y-69379511D01*
X149127769Y-69390748D01*
X149120553Y-69408770D01*
X149115299Y-69438026D01*
X149111402Y-69482962D01*
X149108256Y-69548028D01*
X149105257Y-69637670D01*
X149098000Y-69877697D01*
X149036314Y-69850044D01*
X148974629Y-69822391D01*
X148974629Y-69603246D01*
X148974884Y-69543711D01*
X148977086Y-69460892D01*
X148982661Y-69399227D01*
X148992941Y-69353748D01*
X149009258Y-69319484D01*
X149032943Y-69291466D01*
X149065328Y-69264723D01*
X149111907Y-69237780D01*
X149185287Y-69220191D01*
X149259020Y-69227822D01*
G36*
X149259020Y-69227822D02*
G01*
X149326810Y-69259680D01*
X149382366Y-69314770D01*
X149393881Y-69332016D01*
X149403432Y-69351562D01*
X149410206Y-69376198D01*
X149414819Y-69410711D01*
X149417888Y-69459889D01*
X149420029Y-69528519D01*
X149421859Y-69621389D01*
X149426404Y-69879007D01*
X149388225Y-69864491D01*
X149353268Y-69851156D01*
X149327097Y-69838323D01*
X149310013Y-69821780D01*
X149300086Y-69796465D01*
X149295386Y-69757316D01*
X149293982Y-69699268D01*
X149293943Y-69617261D01*
X149293744Y-69551895D01*
X149292559Y-69489173D01*
X149289729Y-69446334D01*
X149284609Y-69418220D01*
X149276553Y-69399675D01*
X149264914Y-69385543D01*
X149236303Y-69365600D01*
X149188239Y-69358083D01*
X149140688Y-69377079D01*
X149137550Y-69379511D01*
X149127769Y-69390748D01*
X149120553Y-69408770D01*
X149115299Y-69438026D01*
X149111402Y-69482962D01*
X149108256Y-69548028D01*
X149105257Y-69637670D01*
X149098000Y-69877697D01*
X149036314Y-69850044D01*
X148974629Y-69822391D01*
X148974629Y-69603246D01*
X148974884Y-69543711D01*
X148977086Y-69460892D01*
X148982661Y-69399227D01*
X148992941Y-69353748D01*
X149009258Y-69319484D01*
X149032943Y-69291466D01*
X149065328Y-69264723D01*
X149111907Y-69237780D01*
X149185287Y-69220191D01*
X149259020Y-69227822D01*
G37*
X147435691Y-69276467D02*
X147440273Y-69279003D01*
X147477704Y-69308057D01*
X147511170Y-69345410D01*
X147517007Y-69353852D01*
X147528165Y-69373553D01*
X147536136Y-69396935D01*
X147541618Y-69429067D01*
X147545307Y-69475019D01*
X147547899Y-69539859D01*
X147550092Y-69628657D01*
X147550402Y-69643669D01*
X147551400Y-69740999D01*
X147549994Y-69809934D01*
X147546164Y-69850948D01*
X147539889Y-69864514D01*
X147520898Y-69860452D01*
X147488638Y-69848144D01*
X147481041Y-69844545D01*
X147469176Y-69836398D01*
X147460994Y-69823004D01*
X147455643Y-69799608D01*
X147452269Y-69761455D01*
X147450019Y-69703790D01*
X147448040Y-69621857D01*
X147447498Y-69597907D01*
X147445403Y-69522266D01*
X147442683Y-69469328D01*
X147438515Y-69434075D01*
X147432079Y-69411487D01*
X147422550Y-69396544D01*
X147409106Y-69384227D01*
X147369305Y-69362634D01*
X147320341Y-69358476D01*
X147276529Y-69374999D01*
X147245008Y-69409210D01*
X147232914Y-69458114D01*
X147232578Y-69471407D01*
X147225972Y-69495472D01*
X147206470Y-69499144D01*
X147168283Y-69484813D01*
X147159438Y-69480217D01*
X147135534Y-69453186D01*
X147135061Y-69412994D01*
X147157836Y-69357409D01*
X147178727Y-69327117D01*
X147232142Y-69284084D01*
X147298074Y-69259755D01*
X147368574Y-69256443D01*
X147435691Y-69276467D01*
G36*
X147435691Y-69276467D02*
G01*
X147440273Y-69279003D01*
X147477704Y-69308057D01*
X147511170Y-69345410D01*
X147517007Y-69353852D01*
X147528165Y-69373553D01*
X147536136Y-69396935D01*
X147541618Y-69429067D01*
X147545307Y-69475019D01*
X147547899Y-69539859D01*
X147550092Y-69628657D01*
X147550402Y-69643669D01*
X147551400Y-69740999D01*
X147549994Y-69809934D01*
X147546164Y-69850948D01*
X147539889Y-69864514D01*
X147520898Y-69860452D01*
X147488638Y-69848144D01*
X147481041Y-69844545D01*
X147469176Y-69836398D01*
X147460994Y-69823004D01*
X147455643Y-69799608D01*
X147452269Y-69761455D01*
X147450019Y-69703790D01*
X147448040Y-69621857D01*
X147447498Y-69597907D01*
X147445403Y-69522266D01*
X147442683Y-69469328D01*
X147438515Y-69434075D01*
X147432079Y-69411487D01*
X147422550Y-69396544D01*
X147409106Y-69384227D01*
X147369305Y-69362634D01*
X147320341Y-69358476D01*
X147276529Y-69374999D01*
X147245008Y-69409210D01*
X147232914Y-69458114D01*
X147232578Y-69471407D01*
X147225972Y-69495472D01*
X147206470Y-69499144D01*
X147168283Y-69484813D01*
X147159438Y-69480217D01*
X147135534Y-69453186D01*
X147135061Y-69412994D01*
X147157836Y-69357409D01*
X147178727Y-69327117D01*
X147232142Y-69284084D01*
X147298074Y-69259755D01*
X147368574Y-69256443D01*
X147435691Y-69276467D01*
G37*
X148506543Y-69059444D02*
X148553714Y-69079342D01*
X148553714Y-69476509D01*
X148553519Y-69579498D01*
X148552998Y-69672141D01*
X148552199Y-69750700D01*
X148551172Y-69811439D01*
X148549963Y-69850623D01*
X148548623Y-69864514D01*
X148548099Y-69864468D01*
X148530287Y-69859420D01*
X148497823Y-69848580D01*
X148452114Y-69832646D01*
X148452114Y-69628173D01*
X148451824Y-69547832D01*
X148450474Y-69489562D01*
X148447369Y-69449909D01*
X148441812Y-69423618D01*
X148433107Y-69405436D01*
X148420556Y-69390107D01*
X148411999Y-69381955D01*
X148365728Y-69359375D01*
X148314728Y-69361375D01*
X148267993Y-69388073D01*
X148261189Y-69394698D01*
X148250293Y-69408456D01*
X148242836Y-69426642D01*
X148238169Y-69454177D01*
X148235642Y-69495981D01*
X148234602Y-69556973D01*
X148234400Y-69642073D01*
X148234303Y-69685234D01*
X148233674Y-69756224D01*
X148232556Y-69813076D01*
X148231063Y-69850828D01*
X148229309Y-69864514D01*
X148228785Y-69864468D01*
X148210973Y-69859420D01*
X148178509Y-69848580D01*
X148132800Y-69832646D01*
X148132823Y-69627237D01*
X148132857Y-69608951D01*
X148134778Y-69513626D01*
X148140678Y-69441543D01*
X148152001Y-69387813D01*
X148170187Y-69347549D01*
X148196679Y-69315861D01*
X148232918Y-69287861D01*
X148268263Y-69270333D01*
X148324773Y-69256785D01*
X148380356Y-69256015D01*
X148423086Y-69269195D01*
X148426298Y-69271015D01*
X148436205Y-69270820D01*
X148442975Y-69255572D01*
X148447861Y-69220613D01*
X148452114Y-69161289D01*
X148459371Y-69039547D01*
X148506543Y-69059444D01*
G36*
X148506543Y-69059444D02*
G01*
X148553714Y-69079342D01*
X148553714Y-69476509D01*
X148553519Y-69579498D01*
X148552998Y-69672141D01*
X148552199Y-69750700D01*
X148551172Y-69811439D01*
X148549963Y-69850623D01*
X148548623Y-69864514D01*
X148548099Y-69864468D01*
X148530287Y-69859420D01*
X148497823Y-69848580D01*
X148452114Y-69832646D01*
X148452114Y-69628173D01*
X148451824Y-69547832D01*
X148450474Y-69489562D01*
X148447369Y-69449909D01*
X148441812Y-69423618D01*
X148433107Y-69405436D01*
X148420556Y-69390107D01*
X148411999Y-69381955D01*
X148365728Y-69359375D01*
X148314728Y-69361375D01*
X148267993Y-69388073D01*
X148261189Y-69394698D01*
X148250293Y-69408456D01*
X148242836Y-69426642D01*
X148238169Y-69454177D01*
X148235642Y-69495981D01*
X148234602Y-69556973D01*
X148234400Y-69642073D01*
X148234303Y-69685234D01*
X148233674Y-69756224D01*
X148232556Y-69813076D01*
X148231063Y-69850828D01*
X148229309Y-69864514D01*
X148228785Y-69864468D01*
X148210973Y-69859420D01*
X148178509Y-69848580D01*
X148132800Y-69832646D01*
X148132823Y-69627237D01*
X148132857Y-69608951D01*
X148134778Y-69513626D01*
X148140678Y-69441543D01*
X148152001Y-69387813D01*
X148170187Y-69347549D01*
X148196679Y-69315861D01*
X148232918Y-69287861D01*
X148268263Y-69270333D01*
X148324773Y-69256785D01*
X148380356Y-69256015D01*
X148423086Y-69269195D01*
X148426298Y-69271015D01*
X148436205Y-69270820D01*
X148442975Y-69255572D01*
X148447861Y-69220613D01*
X148452114Y-69161289D01*
X148459371Y-69039547D01*
X148506543Y-69059444D01*
G37*
X146481941Y-69259282D02*
X146513774Y-69271758D01*
X146550743Y-69288602D01*
X146550743Y-69775196D01*
X146504812Y-69821127D01*
X146494320Y-69831427D01*
X146465255Y-69854320D01*
X146435943Y-69861735D01*
X146392326Y-69858321D01*
X146374568Y-69856114D01*
X146328767Y-69851445D01*
X146296743Y-69849585D01*
X146287244Y-69849869D01*
X146248274Y-69852948D01*
X146201160Y-69858321D01*
X146186085Y-69860168D01*
X146148110Y-69860893D01*
X146120325Y-69849429D01*
X146088674Y-69821127D01*
X146042743Y-69775196D01*
X146042743Y-69515055D01*
X146043101Y-69438180D01*
X146044216Y-69364886D01*
X146045952Y-69306850D01*
X146048167Y-69268663D01*
X146050721Y-69254914D01*
X146051256Y-69254951D01*
X146069808Y-69261793D01*
X146101153Y-69276868D01*
X146143608Y-69298822D01*
X146147604Y-69527240D01*
X146151600Y-69755657D01*
X146238686Y-69755657D01*
X146242657Y-69505286D01*
X146243916Y-69437227D01*
X146245718Y-69364482D01*
X146247671Y-69306730D01*
X146249612Y-69268648D01*
X146251377Y-69254914D01*
X146251885Y-69254962D01*
X146269482Y-69260015D01*
X146301834Y-69270849D01*
X146347543Y-69286783D01*
X146347765Y-69506706D01*
X146347988Y-69544909D01*
X146349531Y-69619146D01*
X146352292Y-69681145D01*
X146355977Y-69725308D01*
X146360292Y-69746041D01*
X146375732Y-69757131D01*
X146407241Y-69760556D01*
X146441886Y-69755657D01*
X146445857Y-69505286D01*
X146447278Y-69441663D01*
X146450225Y-69366356D01*
X146454079Y-69307286D01*
X146458542Y-69268718D01*
X146463317Y-69254914D01*
X146481941Y-69259282D01*
G36*
X146481941Y-69259282D02*
G01*
X146513774Y-69271758D01*
X146550743Y-69288602D01*
X146550743Y-69775196D01*
X146504812Y-69821127D01*
X146494320Y-69831427D01*
X146465255Y-69854320D01*
X146435943Y-69861735D01*
X146392326Y-69858321D01*
X146374568Y-69856114D01*
X146328767Y-69851445D01*
X146296743Y-69849585D01*
X146287244Y-69849869D01*
X146248274Y-69852948D01*
X146201160Y-69858321D01*
X146186085Y-69860168D01*
X146148110Y-69860893D01*
X146120325Y-69849429D01*
X146088674Y-69821127D01*
X146042743Y-69775196D01*
X146042743Y-69515055D01*
X146043101Y-69438180D01*
X146044216Y-69364886D01*
X146045952Y-69306850D01*
X146048167Y-69268663D01*
X146050721Y-69254914D01*
X146051256Y-69254951D01*
X146069808Y-69261793D01*
X146101153Y-69276868D01*
X146143608Y-69298822D01*
X146147604Y-69527240D01*
X146151600Y-69755657D01*
X146238686Y-69755657D01*
X146242657Y-69505286D01*
X146243916Y-69437227D01*
X146245718Y-69364482D01*
X146247671Y-69306730D01*
X146249612Y-69268648D01*
X146251377Y-69254914D01*
X146251885Y-69254962D01*
X146269482Y-69260015D01*
X146301834Y-69270849D01*
X146347543Y-69286783D01*
X146347765Y-69506706D01*
X146347988Y-69544909D01*
X146349531Y-69619146D01*
X146352292Y-69681145D01*
X146355977Y-69725308D01*
X146360292Y-69746041D01*
X146375732Y-69757131D01*
X146407241Y-69760556D01*
X146441886Y-69755657D01*
X146445857Y-69505286D01*
X146447278Y-69441663D01*
X146450225Y-69366356D01*
X146454079Y-69307286D01*
X146458542Y-69268718D01*
X146463317Y-69254914D01*
X146481941Y-69259282D01*
G37*
X151093714Y-69545200D02*
X151093701Y-69560935D01*
X151092914Y-69631119D01*
X151090210Y-69680022D01*
X151084606Y-69714178D01*
X151075119Y-69740124D01*
X151060768Y-69764397D01*
X151057237Y-69769433D01*
X151019878Y-69809143D01*
X150977311Y-69839092D01*
X150955452Y-69848810D01*
X150876908Y-69865020D01*
X150799231Y-69854535D01*
X150727645Y-69818707D01*
X150667374Y-69758887D01*
X150662286Y-69750873D01*
X150645730Y-69704342D01*
X150634573Y-69639552D01*
X150629160Y-69564727D01*
X150629768Y-69495513D01*
X150776248Y-69495513D01*
X150777402Y-69591399D01*
X150777866Y-69597569D01*
X150784629Y-69650478D01*
X150796671Y-69684029D01*
X150817005Y-69707016D01*
X150851097Y-69728548D01*
X150884814Y-69729680D01*
X150919543Y-69704857D01*
X150925584Y-69698325D01*
X150937417Y-69678779D01*
X150944404Y-69650386D01*
X150947727Y-69606430D01*
X150948571Y-69540192D01*
X150947125Y-69478150D01*
X150939907Y-69419042D01*
X150925006Y-69381686D01*
X150900636Y-69362152D01*
X150865008Y-69356514D01*
X150851440Y-69357635D01*
X150813430Y-69378194D01*
X150788312Y-69424299D01*
X150776248Y-69495513D01*
X150629768Y-69495513D01*
X150629833Y-69488096D01*
X150636937Y-69417882D01*
X150650815Y-69362312D01*
X150668649Y-69325301D01*
X150718855Y-69267733D01*
X150786885Y-69231962D01*
X150870158Y-69219665D01*
X150892398Y-69220331D01*
X150957891Y-69233947D01*
X151011687Y-69268249D01*
X151061057Y-69327338D01*
X151063995Y-69331722D01*
X151077287Y-69355299D01*
X151085932Y-69381949D01*
X151090904Y-69418159D01*
X151093174Y-69470413D01*
X151093678Y-69540192D01*
X151093714Y-69545200D01*
G36*
X151093714Y-69545200D02*
G01*
X151093701Y-69560935D01*
X151092914Y-69631119D01*
X151090210Y-69680022D01*
X151084606Y-69714178D01*
X151075119Y-69740124D01*
X151060768Y-69764397D01*
X151057237Y-69769433D01*
X151019878Y-69809143D01*
X150977311Y-69839092D01*
X150955452Y-69848810D01*
X150876908Y-69865020D01*
X150799231Y-69854535D01*
X150727645Y-69818707D01*
X150667374Y-69758887D01*
X150662286Y-69750873D01*
X150645730Y-69704342D01*
X150634573Y-69639552D01*
X150629160Y-69564727D01*
X150629768Y-69495513D01*
X150776248Y-69495513D01*
X150777402Y-69591399D01*
X150777866Y-69597569D01*
X150784629Y-69650478D01*
X150796671Y-69684029D01*
X150817005Y-69707016D01*
X150851097Y-69728548D01*
X150884814Y-69729680D01*
X150919543Y-69704857D01*
X150925584Y-69698325D01*
X150937417Y-69678779D01*
X150944404Y-69650386D01*
X150947727Y-69606430D01*
X150948571Y-69540192D01*
X150947125Y-69478150D01*
X150939907Y-69419042D01*
X150925006Y-69381686D01*
X150900636Y-69362152D01*
X150865008Y-69356514D01*
X150851440Y-69357635D01*
X150813430Y-69378194D01*
X150788312Y-69424299D01*
X150776248Y-69495513D01*
X150629768Y-69495513D01*
X150629833Y-69488096D01*
X150636937Y-69417882D01*
X150650815Y-69362312D01*
X150668649Y-69325301D01*
X150718855Y-69267733D01*
X150786885Y-69231962D01*
X150870158Y-69219665D01*
X150892398Y-69220331D01*
X150957891Y-69233947D01*
X151011687Y-69268249D01*
X151061057Y-69327338D01*
X151063995Y-69331722D01*
X151077287Y-69355299D01*
X151085932Y-69381949D01*
X151090904Y-69418159D01*
X151093174Y-69470413D01*
X151093678Y-69540192D01*
X151093714Y-69545200D01*
G37*
X144968590Y-69562622D02*
X144968307Y-69601305D01*
X144964762Y-69677521D01*
X144955483Y-69733294D01*
X144938375Y-69774613D01*
X144911344Y-69807467D01*
X144872292Y-69837846D01*
X144847445Y-69851660D01*
X144807615Y-69860965D01*
X144751665Y-69860230D01*
X144720385Y-69857283D01*
X144682653Y-69848283D01*
X144652494Y-69828720D01*
X144617408Y-69792267D01*
X144612720Y-69786943D01*
X144581177Y-69745969D01*
X144566128Y-69710283D01*
X144562286Y-69667966D01*
X144562286Y-69605779D01*
X144605742Y-69622182D01*
X144637424Y-69641356D01*
X144664962Y-69686347D01*
X144670711Y-69700752D01*
X144702855Y-69741546D01*
X144746611Y-69762081D01*
X144794254Y-69760235D01*
X144838057Y-69733886D01*
X144853111Y-69717455D01*
X144866763Y-69692667D01*
X144862493Y-69670144D01*
X144837916Y-69646964D01*
X144790651Y-69620202D01*
X144718314Y-69586934D01*
X144569543Y-69521816D01*
X144565595Y-69457308D01*
X144567079Y-69416220D01*
X144664010Y-69416220D01*
X144671368Y-69441657D01*
X144704848Y-69468814D01*
X144765614Y-69499714D01*
X144775669Y-69504190D01*
X144823751Y-69525017D01*
X144859726Y-69539665D01*
X144876444Y-69545200D01*
X144878977Y-69541126D01*
X144879993Y-69516247D01*
X144876369Y-69476257D01*
X144867242Y-69437152D01*
X144838773Y-69387884D01*
X144797678Y-69360122D01*
X144748590Y-69356364D01*
X144696144Y-69379109D01*
X144681609Y-69390481D01*
X144664010Y-69416220D01*
X144567079Y-69416220D01*
X144567338Y-69409064D01*
X144589281Y-69348096D01*
X144616979Y-69314497D01*
X144674405Y-69276966D01*
X144742527Y-69258006D01*
X144812947Y-69259507D01*
X144877267Y-69283355D01*
X144891426Y-69292513D01*
X144923904Y-69320849D01*
X144946116Y-69356695D01*
X144959804Y-69405384D01*
X144966715Y-69472249D01*
X144967628Y-69516247D01*
X144968590Y-69562622D01*
G36*
X144968590Y-69562622D02*
G01*
X144968307Y-69601305D01*
X144964762Y-69677521D01*
X144955483Y-69733294D01*
X144938375Y-69774613D01*
X144911344Y-69807467D01*
X144872292Y-69837846D01*
X144847445Y-69851660D01*
X144807615Y-69860965D01*
X144751665Y-69860230D01*
X144720385Y-69857283D01*
X144682653Y-69848283D01*
X144652494Y-69828720D01*
X144617408Y-69792267D01*
X144612720Y-69786943D01*
X144581177Y-69745969D01*
X144566128Y-69710283D01*
X144562286Y-69667966D01*
X144562286Y-69605779D01*
X144605742Y-69622182D01*
X144637424Y-69641356D01*
X144664962Y-69686347D01*
X144670711Y-69700752D01*
X144702855Y-69741546D01*
X144746611Y-69762081D01*
X144794254Y-69760235D01*
X144838057Y-69733886D01*
X144853111Y-69717455D01*
X144866763Y-69692667D01*
X144862493Y-69670144D01*
X144837916Y-69646964D01*
X144790651Y-69620202D01*
X144718314Y-69586934D01*
X144569543Y-69521816D01*
X144565595Y-69457308D01*
X144567079Y-69416220D01*
X144664010Y-69416220D01*
X144671368Y-69441657D01*
X144704848Y-69468814D01*
X144765614Y-69499714D01*
X144775669Y-69504190D01*
X144823751Y-69525017D01*
X144859726Y-69539665D01*
X144876444Y-69545200D01*
X144878977Y-69541126D01*
X144879993Y-69516247D01*
X144876369Y-69476257D01*
X144867242Y-69437152D01*
X144838773Y-69387884D01*
X144797678Y-69360122D01*
X144748590Y-69356364D01*
X144696144Y-69379109D01*
X144681609Y-69390481D01*
X144664010Y-69416220D01*
X144567079Y-69416220D01*
X144567338Y-69409064D01*
X144589281Y-69348096D01*
X144616979Y-69314497D01*
X144674405Y-69276966D01*
X144742527Y-69258006D01*
X144812947Y-69259507D01*
X144877267Y-69283355D01*
X144891426Y-69292513D01*
X144923904Y-69320849D01*
X144946116Y-69356695D01*
X144959804Y-69405384D01*
X144966715Y-69472249D01*
X144967628Y-69516247D01*
X144968590Y-69562622D01*
G37*
X147058698Y-69559714D02*
X147057537Y-69616313D01*
X147049345Y-69693462D01*
X147031519Y-69751276D01*
X147001975Y-69795422D01*
X146958625Y-69831568D01*
X146917332Y-69852463D01*
X146847987Y-69864090D01*
X146778736Y-69851377D01*
X146716145Y-69815945D01*
X146666779Y-69759418D01*
X146660818Y-69748995D01*
X146652945Y-69730733D01*
X146647106Y-69707429D01*
X146642999Y-69675085D01*
X146640325Y-69629704D01*
X146638781Y-69567287D01*
X146638734Y-69561748D01*
X146739429Y-69561748D01*
X146739772Y-69614577D01*
X146741942Y-69662362D01*
X146747307Y-69693209D01*
X146757217Y-69713935D01*
X146773021Y-69731356D01*
X146776724Y-69734705D01*
X146824299Y-69759419D01*
X146874635Y-69756890D01*
X146921517Y-69727288D01*
X146935477Y-69711953D01*
X146947160Y-69691622D01*
X146953686Y-69663514D01*
X146956524Y-69620550D01*
X146957143Y-69555647D01*
X146956837Y-69506122D01*
X146954722Y-69457782D01*
X146949390Y-69426587D01*
X146939460Y-69405647D01*
X146923550Y-69388073D01*
X146914204Y-69380159D01*
X146865776Y-69358843D01*
X146815040Y-69362198D01*
X146770987Y-69390107D01*
X146761504Y-69401173D01*
X146749939Y-69422009D01*
X146743252Y-69451106D01*
X146740173Y-69495381D01*
X146739429Y-69561748D01*
X146638734Y-69561748D01*
X146638067Y-69483837D01*
X146637883Y-69375358D01*
X146637829Y-69038601D01*
X146685000Y-69058362D01*
X146697472Y-69063770D01*
X146717324Y-69075985D01*
X146728687Y-69094482D01*
X146734933Y-69126829D01*
X146739429Y-69180593D01*
X146743535Y-69228866D01*
X146748963Y-69260557D01*
X146756739Y-69272383D01*
X146768457Y-69269212D01*
X146798318Y-69258067D01*
X146851684Y-69255304D01*
X146909093Y-69265625D01*
X146958625Y-69287861D01*
X146985876Y-69308443D01*
X147020865Y-69348600D01*
X147043274Y-69400086D01*
X147055190Y-69468568D01*
X147058542Y-69555647D01*
X147058698Y-69559714D01*
G36*
X147058698Y-69559714D02*
G01*
X147057537Y-69616313D01*
X147049345Y-69693462D01*
X147031519Y-69751276D01*
X147001975Y-69795422D01*
X146958625Y-69831568D01*
X146917332Y-69852463D01*
X146847987Y-69864090D01*
X146778736Y-69851377D01*
X146716145Y-69815945D01*
X146666779Y-69759418D01*
X146660818Y-69748995D01*
X146652945Y-69730733D01*
X146647106Y-69707429D01*
X146642999Y-69675085D01*
X146640325Y-69629704D01*
X146638781Y-69567287D01*
X146638734Y-69561748D01*
X146739429Y-69561748D01*
X146739772Y-69614577D01*
X146741942Y-69662362D01*
X146747307Y-69693209D01*
X146757217Y-69713935D01*
X146773021Y-69731356D01*
X146776724Y-69734705D01*
X146824299Y-69759419D01*
X146874635Y-69756890D01*
X146921517Y-69727288D01*
X146935477Y-69711953D01*
X146947160Y-69691622D01*
X146953686Y-69663514D01*
X146956524Y-69620550D01*
X146957143Y-69555647D01*
X146956837Y-69506122D01*
X146954722Y-69457782D01*
X146949390Y-69426587D01*
X146939460Y-69405647D01*
X146923550Y-69388073D01*
X146914204Y-69380159D01*
X146865776Y-69358843D01*
X146815040Y-69362198D01*
X146770987Y-69390107D01*
X146761504Y-69401173D01*
X146749939Y-69422009D01*
X146743252Y-69451106D01*
X146740173Y-69495381D01*
X146739429Y-69561748D01*
X146638734Y-69561748D01*
X146638067Y-69483837D01*
X146637883Y-69375358D01*
X146637829Y-69038601D01*
X146685000Y-69058362D01*
X146697472Y-69063770D01*
X146717324Y-69075985D01*
X146728687Y-69094482D01*
X146734933Y-69126829D01*
X146739429Y-69180593D01*
X146743535Y-69228866D01*
X146748963Y-69260557D01*
X146756739Y-69272383D01*
X146768457Y-69269212D01*
X146798318Y-69258067D01*
X146851684Y-69255304D01*
X146909093Y-69265625D01*
X146958625Y-69287861D01*
X146985876Y-69308443D01*
X147020865Y-69348600D01*
X147043274Y-69400086D01*
X147055190Y-69468568D01*
X147058542Y-69555647D01*
X147058698Y-69559714D01*
G37*
X149990299Y-69504055D02*
X149985684Y-69614078D01*
X149983078Y-69637387D01*
X149963660Y-69720352D01*
X149928573Y-69783448D01*
X149875212Y-69831808D01*
X149872196Y-69833804D01*
X149804362Y-69862185D01*
X149733535Y-69864711D01*
X149665289Y-69843097D01*
X149605196Y-69799062D01*
X149558829Y-69734322D01*
X149558050Y-69732761D01*
X149542643Y-69692558D01*
X149531357Y-69646866D01*
X149525370Y-69603972D01*
X149525861Y-69572160D01*
X149534007Y-69559714D01*
X149541244Y-69560471D01*
X149575851Y-69574235D01*
X149615078Y-69599546D01*
X149648448Y-69628845D01*
X149665483Y-69654572D01*
X149683192Y-69689471D01*
X149719485Y-69721212D01*
X149761630Y-69733886D01*
X149777077Y-69730221D01*
X149807569Y-69711774D01*
X149834128Y-69686166D01*
X149845486Y-69662934D01*
X149845482Y-69662848D01*
X149832596Y-69652179D01*
X149798241Y-69632933D01*
X149747593Y-69607813D01*
X149685829Y-69579524D01*
X149685489Y-69579374D01*
X149618388Y-69549498D01*
X149573411Y-69527973D01*
X149546145Y-69511437D01*
X149532178Y-69496531D01*
X149527097Y-69479893D01*
X149526490Y-69458162D01*
X149530712Y-69417013D01*
X149674000Y-69417013D01*
X149688791Y-69429949D01*
X149725644Y-69449333D01*
X149726725Y-69449881D01*
X149770205Y-69470587D01*
X149809102Y-69487105D01*
X149833778Y-69494093D01*
X149843676Y-69484753D01*
X149845486Y-69452748D01*
X149837966Y-69412915D01*
X149811897Y-69376717D01*
X149774154Y-69357950D01*
X149732077Y-69359845D01*
X149693005Y-69385632D01*
X149677647Y-69403451D01*
X149674000Y-69417013D01*
X149530712Y-69417013D01*
X149531833Y-69406086D01*
X149558251Y-69335335D01*
X149602473Y-69279735D01*
X149659697Y-69241239D01*
X149725120Y-69221797D01*
X149793937Y-69223359D01*
X149861347Y-69247878D01*
X149922544Y-69297302D01*
X149956450Y-69346212D01*
X149980806Y-69416027D01*
X149984767Y-69452748D01*
X149990299Y-69504055D01*
G36*
X149990299Y-69504055D02*
G01*
X149985684Y-69614078D01*
X149983078Y-69637387D01*
X149963660Y-69720352D01*
X149928573Y-69783448D01*
X149875212Y-69831808D01*
X149872196Y-69833804D01*
X149804362Y-69862185D01*
X149733535Y-69864711D01*
X149665289Y-69843097D01*
X149605196Y-69799062D01*
X149558829Y-69734322D01*
X149558050Y-69732761D01*
X149542643Y-69692558D01*
X149531357Y-69646866D01*
X149525370Y-69603972D01*
X149525861Y-69572160D01*
X149534007Y-69559714D01*
X149541244Y-69560471D01*
X149575851Y-69574235D01*
X149615078Y-69599546D01*
X149648448Y-69628845D01*
X149665483Y-69654572D01*
X149683192Y-69689471D01*
X149719485Y-69721212D01*
X149761630Y-69733886D01*
X149777077Y-69730221D01*
X149807569Y-69711774D01*
X149834128Y-69686166D01*
X149845486Y-69662934D01*
X149845482Y-69662848D01*
X149832596Y-69652179D01*
X149798241Y-69632933D01*
X149747593Y-69607813D01*
X149685829Y-69579524D01*
X149685489Y-69579374D01*
X149618388Y-69549498D01*
X149573411Y-69527973D01*
X149546145Y-69511437D01*
X149532178Y-69496531D01*
X149527097Y-69479893D01*
X149526490Y-69458162D01*
X149530712Y-69417013D01*
X149674000Y-69417013D01*
X149688791Y-69429949D01*
X149725644Y-69449333D01*
X149726725Y-69449881D01*
X149770205Y-69470587D01*
X149809102Y-69487105D01*
X149833778Y-69494093D01*
X149843676Y-69484753D01*
X149845486Y-69452748D01*
X149837966Y-69412915D01*
X149811897Y-69376717D01*
X149774154Y-69357950D01*
X149732077Y-69359845D01*
X149693005Y-69385632D01*
X149677647Y-69403451D01*
X149674000Y-69417013D01*
X149530712Y-69417013D01*
X149531833Y-69406086D01*
X149558251Y-69335335D01*
X149602473Y-69279735D01*
X149659697Y-69241239D01*
X149725120Y-69221797D01*
X149793937Y-69223359D01*
X149861347Y-69247878D01*
X149922544Y-69297302D01*
X149956450Y-69346212D01*
X149980806Y-69416027D01*
X149984767Y-69452748D01*
X149990299Y-69504055D01*
G37*
X147917483Y-69270569D02*
X147967376Y-69299661D01*
X147989325Y-69322327D01*
X148031504Y-69390082D01*
X148045714Y-69463950D01*
X148045714Y-69514770D01*
X147998999Y-69495128D01*
X147966692Y-69475308D01*
X147941231Y-69434160D01*
X147938616Y-69425675D01*
X147910478Y-69382451D01*
X147868067Y-69359103D01*
X147819370Y-69358100D01*
X147772373Y-69381914D01*
X147765357Y-69388056D01*
X147741893Y-69414745D01*
X147738019Y-69438014D01*
X147755768Y-69460862D01*
X147797179Y-69486287D01*
X147864286Y-69517288D01*
X147868824Y-69519252D01*
X147943322Y-69553990D01*
X147994203Y-69584763D01*
X148025525Y-69615488D01*
X148041343Y-69650082D01*
X148045714Y-69692462D01*
X148039986Y-69739446D01*
X148011062Y-69799585D01*
X147960178Y-69842788D01*
X147923374Y-69855759D01*
X147871434Y-69862856D01*
X147820999Y-69861340D01*
X147784983Y-69850632D01*
X147781158Y-69847966D01*
X147770998Y-69829337D01*
X147778048Y-69796505D01*
X147790297Y-69770735D01*
X147809939Y-69760006D01*
X147847191Y-69760539D01*
X147898908Y-69757462D01*
X147932701Y-69736212D01*
X147944114Y-69696877D01*
X147944104Y-69695747D01*
X147937187Y-69672913D01*
X147913659Y-69651963D01*
X147867914Y-69627815D01*
X147805704Y-69598741D01*
X147764499Y-69582925D01*
X147740712Y-69583944D01*
X147729597Y-69604837D01*
X147726408Y-69648641D01*
X147726400Y-69718393D01*
X147726044Y-69761452D01*
X147724413Y-69814626D01*
X147721761Y-69851022D01*
X147718422Y-69864514D01*
X147717530Y-69864423D01*
X147698237Y-69857110D01*
X147666284Y-69841678D01*
X147622124Y-69818842D01*
X147627371Y-69613078D01*
X147627736Y-69599432D01*
X147631904Y-69503651D01*
X147639268Y-69431462D01*
X147651330Y-69378058D01*
X147669593Y-69338633D01*
X147695560Y-69308380D01*
X147730733Y-69282493D01*
X147731384Y-69282087D01*
X147788256Y-69260968D01*
X147854033Y-69257400D01*
X147917483Y-69270569D01*
G36*
X147917483Y-69270569D02*
G01*
X147967376Y-69299661D01*
X147989325Y-69322327D01*
X148031504Y-69390082D01*
X148045714Y-69463950D01*
X148045714Y-69514770D01*
X147998999Y-69495128D01*
X147966692Y-69475308D01*
X147941231Y-69434160D01*
X147938616Y-69425675D01*
X147910478Y-69382451D01*
X147868067Y-69359103D01*
X147819370Y-69358100D01*
X147772373Y-69381914D01*
X147765357Y-69388056D01*
X147741893Y-69414745D01*
X147738019Y-69438014D01*
X147755768Y-69460862D01*
X147797179Y-69486287D01*
X147864286Y-69517288D01*
X147868824Y-69519252D01*
X147943322Y-69553990D01*
X147994203Y-69584763D01*
X148025525Y-69615488D01*
X148041343Y-69650082D01*
X148045714Y-69692462D01*
X148039986Y-69739446D01*
X148011062Y-69799585D01*
X147960178Y-69842788D01*
X147923374Y-69855759D01*
X147871434Y-69862856D01*
X147820999Y-69861340D01*
X147784983Y-69850632D01*
X147781158Y-69847966D01*
X147770998Y-69829337D01*
X147778048Y-69796505D01*
X147790297Y-69770735D01*
X147809939Y-69760006D01*
X147847191Y-69760539D01*
X147898908Y-69757462D01*
X147932701Y-69736212D01*
X147944114Y-69696877D01*
X147944104Y-69695747D01*
X147937187Y-69672913D01*
X147913659Y-69651963D01*
X147867914Y-69627815D01*
X147805704Y-69598741D01*
X147764499Y-69582925D01*
X147740712Y-69583944D01*
X147729597Y-69604837D01*
X147726408Y-69648641D01*
X147726400Y-69718393D01*
X147726044Y-69761452D01*
X147724413Y-69814626D01*
X147721761Y-69851022D01*
X147718422Y-69864514D01*
X147717530Y-69864423D01*
X147698237Y-69857110D01*
X147666284Y-69841678D01*
X147622124Y-69818842D01*
X147627371Y-69613078D01*
X147627736Y-69599432D01*
X147631904Y-69503651D01*
X147639268Y-69431462D01*
X147651330Y-69378058D01*
X147669593Y-69338633D01*
X147695560Y-69308380D01*
X147730733Y-69282493D01*
X147731384Y-69282087D01*
X147788256Y-69260968D01*
X147854033Y-69257400D01*
X147917483Y-69270569D01*
G37*
X150537815Y-69611524D02*
X150539252Y-69723000D01*
X150539651Y-69755339D01*
X150540929Y-69863455D01*
X150541185Y-69946186D01*
X150539634Y-70006426D01*
X150535490Y-70047073D01*
X150527964Y-70071023D01*
X150516271Y-70081171D01*
X150499624Y-70080414D01*
X150477236Y-70071648D01*
X150448321Y-70057769D01*
X150442142Y-70054808D01*
X150416413Y-70040311D01*
X150402976Y-70023065D01*
X150397834Y-69994308D01*
X150396990Y-69945283D01*
X150396952Y-69857257D01*
X150306276Y-69857257D01*
X150250498Y-69854815D01*
X150206640Y-69844908D01*
X150170218Y-69824886D01*
X150167503Y-69822929D01*
X150130546Y-69789869D01*
X150104826Y-69749931D01*
X150088606Y-69697657D01*
X150080148Y-69627588D01*
X150078083Y-69548430D01*
X150222857Y-69548430D01*
X150222882Y-69561697D01*
X150224261Y-69621584D01*
X150228687Y-69660732D01*
X150237461Y-69686153D01*
X150251886Y-69704857D01*
X150252784Y-69705750D01*
X150288237Y-69729952D01*
X150322596Y-69727567D01*
X150361403Y-69698260D01*
X150370895Y-69688244D01*
X150384876Y-69667708D01*
X150392760Y-69640997D01*
X150396245Y-69600499D01*
X150397029Y-69538603D01*
X150396350Y-69501130D01*
X150388983Y-69432980D01*
X150372168Y-69388330D01*
X150344234Y-69363926D01*
X150303509Y-69356514D01*
X150286350Y-69358094D01*
X150256660Y-69373766D01*
X150237031Y-69408691D01*
X150226188Y-69465901D01*
X150222857Y-69548430D01*
X150078083Y-69548430D01*
X150077714Y-69534267D01*
X150078253Y-69466169D01*
X150080707Y-69414587D01*
X150086158Y-69378816D01*
X150095686Y-69352015D01*
X150110371Y-69327338D01*
X150123852Y-69308480D01*
X150172799Y-69257568D01*
X150228256Y-69229918D01*
X150297928Y-69221165D01*
X150377664Y-69229890D01*
X150446595Y-69261185D01*
X150501113Y-69316381D01*
X150505223Y-69322224D01*
X150514808Y-69337753D01*
X150522151Y-69355498D01*
X150527612Y-69379290D01*
X150531550Y-69412958D01*
X150534323Y-69460333D01*
X150536292Y-69525245D01*
X150536528Y-69538603D01*
X150537815Y-69611524D01*
G36*
X150537815Y-69611524D02*
G01*
X150539252Y-69723000D01*
X150539651Y-69755339D01*
X150540929Y-69863455D01*
X150541185Y-69946186D01*
X150539634Y-70006426D01*
X150535490Y-70047073D01*
X150527964Y-70071023D01*
X150516271Y-70081171D01*
X150499624Y-70080414D01*
X150477236Y-70071648D01*
X150448321Y-70057769D01*
X150442142Y-70054808D01*
X150416413Y-70040311D01*
X150402976Y-70023065D01*
X150397834Y-69994308D01*
X150396990Y-69945283D01*
X150396952Y-69857257D01*
X150306276Y-69857257D01*
X150250498Y-69854815D01*
X150206640Y-69844908D01*
X150170218Y-69824886D01*
X150167503Y-69822929D01*
X150130546Y-69789869D01*
X150104826Y-69749931D01*
X150088606Y-69697657D01*
X150080148Y-69627588D01*
X150078083Y-69548430D01*
X150222857Y-69548430D01*
X150222882Y-69561697D01*
X150224261Y-69621584D01*
X150228687Y-69660732D01*
X150237461Y-69686153D01*
X150251886Y-69704857D01*
X150252784Y-69705750D01*
X150288237Y-69729952D01*
X150322596Y-69727567D01*
X150361403Y-69698260D01*
X150370895Y-69688244D01*
X150384876Y-69667708D01*
X150392760Y-69640997D01*
X150396245Y-69600499D01*
X150397029Y-69538603D01*
X150396350Y-69501130D01*
X150388983Y-69432980D01*
X150372168Y-69388330D01*
X150344234Y-69363926D01*
X150303509Y-69356514D01*
X150286350Y-69358094D01*
X150256660Y-69373766D01*
X150237031Y-69408691D01*
X150226188Y-69465901D01*
X150222857Y-69548430D01*
X150078083Y-69548430D01*
X150077714Y-69534267D01*
X150078253Y-69466169D01*
X150080707Y-69414587D01*
X150086158Y-69378816D01*
X150095686Y-69352015D01*
X150110371Y-69327338D01*
X150123852Y-69308480D01*
X150172799Y-69257568D01*
X150228256Y-69229918D01*
X150297928Y-69221165D01*
X150377664Y-69229890D01*
X150446595Y-69261185D01*
X150501113Y-69316381D01*
X150505223Y-69322224D01*
X150514808Y-69337753D01*
X150522151Y-69355498D01*
X150527612Y-69379290D01*
X150531550Y-69412958D01*
X150534323Y-69460333D01*
X150536292Y-69525245D01*
X150536528Y-69538603D01*
X150537815Y-69611524D01*
G37*
X145795495Y-69256220D02*
X145826599Y-69264121D01*
X145855559Y-69283817D01*
X145892831Y-69320484D01*
X145916801Y-69346378D01*
X145941770Y-69379997D01*
X145953031Y-69411506D01*
X145955657Y-69451485D01*
X145955657Y-69516917D01*
X145911035Y-69493842D01*
X145875673Y-69465724D01*
X145851451Y-69427848D01*
X145847291Y-69417551D01*
X145815594Y-69377637D01*
X145771554Y-69357624D01*
X145723531Y-69359572D01*
X145679886Y-69385543D01*
X145661420Y-69406635D01*
X145650663Y-69433619D01*
X145662178Y-69457634D01*
X145697981Y-69481791D01*
X145760090Y-69509199D01*
X145769515Y-69512985D01*
X145826058Y-69537759D01*
X145874580Y-69562189D01*
X145905451Y-69581486D01*
X145936371Y-69615953D01*
X145956927Y-69670957D01*
X145954744Y-69729983D01*
X145930424Y-69785845D01*
X145884568Y-69831355D01*
X145847438Y-69850727D01*
X145775711Y-69864292D01*
X145735852Y-69862462D01*
X145698953Y-69852568D01*
X145684797Y-69831806D01*
X145690091Y-69797613D01*
X145691631Y-69793092D01*
X145703842Y-69769116D01*
X145724174Y-69760042D01*
X145762908Y-69760649D01*
X145790257Y-69761474D01*
X145822257Y-69754392D01*
X145844182Y-69733219D01*
X145856670Y-69707152D01*
X145858062Y-69679845D01*
X145857998Y-69679685D01*
X145841807Y-69664930D01*
X145807155Y-69643457D01*
X145762321Y-69619458D01*
X145715582Y-69597125D01*
X145675217Y-69580652D01*
X145649504Y-69574229D01*
X145645679Y-69580518D01*
X145640864Y-69610115D01*
X145637566Y-69658447D01*
X145636343Y-69719372D01*
X145636058Y-69761542D01*
X145634718Y-69814653D01*
X145632528Y-69851025D01*
X145629769Y-69864514D01*
X145615344Y-69859981D01*
X145586226Y-69847670D01*
X145549257Y-69830826D01*
X145549257Y-69614721D01*
X145549493Y-69559327D01*
X145551729Y-69475207D01*
X145557423Y-69412800D01*
X145567903Y-69367358D01*
X145584497Y-69334133D01*
X145608531Y-69308378D01*
X145641333Y-69285344D01*
X145683124Y-69266335D01*
X145760287Y-69254914D01*
X145795495Y-69256220D01*
G36*
X145795495Y-69256220D02*
G01*
X145826599Y-69264121D01*
X145855559Y-69283817D01*
X145892831Y-69320484D01*
X145916801Y-69346378D01*
X145941770Y-69379997D01*
X145953031Y-69411506D01*
X145955657Y-69451485D01*
X145955657Y-69516917D01*
X145911035Y-69493842D01*
X145875673Y-69465724D01*
X145851451Y-69427848D01*
X145847291Y-69417551D01*
X145815594Y-69377637D01*
X145771554Y-69357624D01*
X145723531Y-69359572D01*
X145679886Y-69385543D01*
X145661420Y-69406635D01*
X145650663Y-69433619D01*
X145662178Y-69457634D01*
X145697981Y-69481791D01*
X145760090Y-69509199D01*
X145769515Y-69512985D01*
X145826058Y-69537759D01*
X145874580Y-69562189D01*
X145905451Y-69581486D01*
X145936371Y-69615953D01*
X145956927Y-69670957D01*
X145954744Y-69729983D01*
X145930424Y-69785845D01*
X145884568Y-69831355D01*
X145847438Y-69850727D01*
X145775711Y-69864292D01*
X145735852Y-69862462D01*
X145698953Y-69852568D01*
X145684797Y-69831806D01*
X145690091Y-69797613D01*
X145691631Y-69793092D01*
X145703842Y-69769116D01*
X145724174Y-69760042D01*
X145762908Y-69760649D01*
X145790257Y-69761474D01*
X145822257Y-69754392D01*
X145844182Y-69733219D01*
X145856670Y-69707152D01*
X145858062Y-69679845D01*
X145857998Y-69679685D01*
X145841807Y-69664930D01*
X145807155Y-69643457D01*
X145762321Y-69619458D01*
X145715582Y-69597125D01*
X145675217Y-69580652D01*
X145649504Y-69574229D01*
X145645679Y-69580518D01*
X145640864Y-69610115D01*
X145637566Y-69658447D01*
X145636343Y-69719372D01*
X145636058Y-69761542D01*
X145634718Y-69814653D01*
X145632528Y-69851025D01*
X145629769Y-69864514D01*
X145615344Y-69859981D01*
X145586226Y-69847670D01*
X145549257Y-69830826D01*
X145549257Y-69614721D01*
X145549493Y-69559327D01*
X145551729Y-69475207D01*
X145557423Y-69412800D01*
X145567903Y-69367358D01*
X145584497Y-69334133D01*
X145608531Y-69308378D01*
X145641333Y-69285344D01*
X145683124Y-69266335D01*
X145760287Y-69254914D01*
X145795495Y-69256220D01*
G37*
X147941933Y-64552371D02*
X148017856Y-64552865D01*
X148072491Y-64554135D01*
X148109500Y-64556547D01*
X148132547Y-64560467D01*
X148145296Y-64566262D01*
X148151411Y-64574299D01*
X148154556Y-64584943D01*
X148154646Y-64585325D01*
X148159814Y-64610347D01*
X148169209Y-64658681D01*
X148181867Y-64725260D01*
X148196825Y-64805014D01*
X148213119Y-64892875D01*
X148214448Y-64900064D01*
X148230691Y-64985340D01*
X148245805Y-65060242D01*
X148258808Y-65120219D01*
X148268715Y-65160717D01*
X148274544Y-65177184D01*
X148274575Y-65177210D01*
X148292943Y-65186320D01*
X148330640Y-65201457D01*
X148379543Y-65219358D01*
X148382297Y-65220330D01*
X148444817Y-65243959D01*
X148517543Y-65273595D01*
X148585294Y-65303062D01*
X148696703Y-65353626D01*
X148943399Y-65185160D01*
X148960775Y-65173311D01*
X149035202Y-65122947D01*
X149101614Y-65078612D01*
X149156039Y-65042916D01*
X149194506Y-65018471D01*
X149213042Y-65007889D01*
X149225743Y-65010315D01*
X149254579Y-65029110D01*
X149299143Y-65066330D01*
X149360670Y-65123020D01*
X149440398Y-65200227D01*
X149447532Y-65207255D01*
X149510796Y-65270222D01*
X149566990Y-65327268D01*
X149612677Y-65374817D01*
X149644414Y-65409297D01*
X149658764Y-65427131D01*
X149658810Y-65427217D01*
X149660633Y-65440795D01*
X149653910Y-65462820D01*
X149636946Y-65496304D01*
X149608044Y-65544261D01*
X149565508Y-65609704D01*
X149507644Y-65695645D01*
X149497783Y-65710151D01*
X149447913Y-65783635D01*
X149403905Y-65848687D01*
X149368380Y-65901417D01*
X149343959Y-65937936D01*
X149333264Y-65954356D01*
X149332458Y-65957834D01*
X149337518Y-65983785D01*
X149352677Y-66026159D01*
X149375463Y-66077728D01*
X149406429Y-66145170D01*
X149441004Y-66225195D01*
X149470366Y-66297629D01*
X149477645Y-66316377D01*
X149496710Y-66364246D01*
X149510715Y-66397596D01*
X149517041Y-66410114D01*
X149524025Y-66411050D01*
X149555413Y-66416461D01*
X149606787Y-66425806D01*
X149672802Y-66438069D01*
X149748113Y-66452232D01*
X149827375Y-66467280D01*
X149905243Y-66482195D01*
X149976370Y-66495961D01*
X150035412Y-66507562D01*
X150077022Y-66515980D01*
X150095857Y-66520199D01*
X150098980Y-66521389D01*
X150106591Y-66527805D01*
X150112254Y-66541465D01*
X150116251Y-66565999D01*
X150118866Y-66605038D01*
X150120384Y-66662213D01*
X150121086Y-66741154D01*
X150121257Y-66845492D01*
X150121257Y-67162799D01*
X150045057Y-67177839D01*
X150035840Y-67179642D01*
X149986891Y-67188980D01*
X149919205Y-67201669D01*
X149840478Y-67216273D01*
X149758400Y-67231355D01*
X149726078Y-67237422D01*
X149653855Y-67252181D01*
X149593666Y-67266137D01*
X149551040Y-67277952D01*
X149531510Y-67286287D01*
X149522660Y-67299905D01*
X149506548Y-67335938D01*
X149490065Y-67382572D01*
X149484263Y-67400034D01*
X149462906Y-67457358D01*
X149435359Y-67525201D01*
X149406107Y-67592355D01*
X149390463Y-67627430D01*
X149368174Y-67679822D01*
X149352857Y-67719058D01*
X149347162Y-67738563D01*
X149347478Y-67740036D01*
X149358281Y-67760729D01*
X149382638Y-67800665D01*
X149418081Y-67855972D01*
X149462136Y-67922781D01*
X149512332Y-67997220D01*
X149677501Y-68239623D01*
X149460503Y-68456983D01*
X149439516Y-68477899D01*
X149375342Y-68540505D01*
X149317990Y-68594495D01*
X149270820Y-68636826D01*
X149237192Y-68664457D01*
X149220467Y-68674343D01*
X149202303Y-68666821D01*
X149164265Y-68645227D01*
X149110726Y-68612151D01*
X149045884Y-68570191D01*
X148973940Y-68521943D01*
X148903275Y-68474291D01*
X148839526Y-68432328D01*
X148787513Y-68399165D01*
X148751279Y-68377378D01*
X148734867Y-68369543D01*
X148733905Y-68369614D01*
X148712103Y-68377338D01*
X148673440Y-68395323D01*
X148625612Y-68420013D01*
X148625110Y-68420284D01*
X148561587Y-68452099D01*
X148518060Y-68467642D01*
X148491052Y-68467685D01*
X148477090Y-68453000D01*
X148471180Y-68438544D01*
X148455229Y-68399831D01*
X148430660Y-68340316D01*
X148398779Y-68263165D01*
X148360893Y-68171541D01*
X148318310Y-68068607D01*
X148272337Y-67957526D01*
X148230667Y-67856472D01*
X148188268Y-67752780D01*
X148150756Y-67660119D01*
X148119388Y-67581642D01*
X148095425Y-67520500D01*
X148080123Y-67479843D01*
X148074743Y-67462825D01*
X148085018Y-67447219D01*
X148113563Y-67421162D01*
X148153971Y-67390887D01*
X148250979Y-67311684D01*
X148337793Y-67210475D01*
X148401322Y-67099116D01*
X148441177Y-66980893D01*
X148456965Y-66859095D01*
X148448296Y-66737010D01*
X148414778Y-66617925D01*
X148356021Y-66505129D01*
X148271632Y-66401911D01*
X148227631Y-66361713D01*
X148122211Y-66290638D01*
X148009410Y-66244301D01*
X147892525Y-66221599D01*
X147774853Y-66221428D01*
X147659690Y-66242687D01*
X147550335Y-66284270D01*
X147450083Y-66345076D01*
X147362233Y-66424001D01*
X147290080Y-66519941D01*
X147236922Y-66631795D01*
X147206057Y-66758457D01*
X147200392Y-66819507D01*
X147208185Y-66951776D01*
X147243284Y-67077266D01*
X147304649Y-67193759D01*
X147391243Y-67299039D01*
X147502029Y-67390887D01*
X147540931Y-67419930D01*
X147570104Y-67446272D01*
X147581257Y-67462800D01*
X147576810Y-67477209D01*
X147562378Y-67515815D01*
X147539173Y-67575201D01*
X147508452Y-67652215D01*
X147471474Y-67743703D01*
X147429496Y-67846516D01*
X147383778Y-67957502D01*
X147342178Y-68058072D01*
X147299222Y-68161947D01*
X147260829Y-68254819D01*
X147228305Y-68333525D01*
X147202958Y-68394899D01*
X147186095Y-68435779D01*
X147179025Y-68453000D01*
X147178943Y-68453204D01*
X147164798Y-68467745D01*
X147137659Y-68467579D01*
X147094023Y-68451927D01*
X147030388Y-68420013D01*
X147025379Y-68417326D01*
X146978125Y-68393150D01*
X146940811Y-68376037D01*
X146921133Y-68369543D01*
X146905005Y-68377218D01*
X146868959Y-68398871D01*
X146817092Y-68431928D01*
X146753445Y-68473810D01*
X146682060Y-68521943D01*
X146611724Y-68569131D01*
X146546670Y-68611267D01*
X146492820Y-68644578D01*
X146454374Y-68666469D01*
X146435534Y-68674343D01*
X146432325Y-68673343D01*
X146409954Y-68657584D01*
X146371733Y-68625033D01*
X146321021Y-68578733D01*
X146261181Y-68521726D01*
X146195571Y-68457058D01*
X145978648Y-68239772D01*
X146147601Y-67991253D01*
X146316553Y-67742733D01*
X146265183Y-67631595D01*
X146265031Y-67631266D01*
X146234183Y-67560418D01*
X146202661Y-67481523D01*
X146177266Y-67411600D01*
X146173423Y-67400322D01*
X146154047Y-67347967D01*
X146136574Y-67307283D01*
X146124388Y-67286287D01*
X146119426Y-67283322D01*
X146089634Y-67273375D01*
X146039047Y-67260505D01*
X145973194Y-67246053D01*
X145897600Y-67231355D01*
X145874957Y-67227210D01*
X145793038Y-67212116D01*
X145716600Y-67197899D01*
X145653337Y-67185995D01*
X145610943Y-67177839D01*
X145534743Y-67162799D01*
X145534743Y-66845492D01*
X145534760Y-66806476D01*
X145535082Y-66711292D01*
X145536033Y-66640255D01*
X145537896Y-66589734D01*
X145540955Y-66556098D01*
X145545494Y-66535718D01*
X145551795Y-66524962D01*
X145560143Y-66520199D01*
X145568224Y-66518270D01*
X145601172Y-66511445D01*
X145653736Y-66501022D01*
X145720569Y-66488018D01*
X145796328Y-66473449D01*
X145875665Y-66458333D01*
X145953237Y-66443685D01*
X146023698Y-66430523D01*
X146081702Y-66419863D01*
X146121904Y-66412721D01*
X146138959Y-66410114D01*
X146140112Y-66408541D01*
X146149385Y-66388119D01*
X146165432Y-66349045D01*
X146185635Y-66297629D01*
X146213672Y-66228353D01*
X146248186Y-66148290D01*
X146280538Y-66077728D01*
X146287952Y-66061889D01*
X146308755Y-66012293D01*
X146321219Y-65974038D01*
X146322863Y-65954356D01*
X146322015Y-65952962D01*
X146308548Y-65932420D01*
X146281850Y-65892516D01*
X146244539Y-65837140D01*
X146199234Y-65770177D01*
X146148552Y-65695517D01*
X146091445Y-65610692D01*
X146048607Y-65544800D01*
X146019460Y-65496478D01*
X146002317Y-65462733D01*
X145995495Y-65440572D01*
X145997306Y-65427002D01*
X145997915Y-65425984D01*
X146014297Y-65406210D01*
X146047695Y-65370175D01*
X146094671Y-65321451D01*
X146151786Y-65263612D01*
X146215603Y-65200227D01*
X146281802Y-65135905D01*
X146346648Y-65075447D01*
X146394299Y-65034655D01*
X146425990Y-65012484D01*
X146442958Y-65007889D01*
X146445175Y-65008921D01*
X146468524Y-65022837D01*
X146510912Y-65050030D01*
X146568369Y-65087889D01*
X146636923Y-65133803D01*
X146712601Y-65185160D01*
X146959298Y-65353626D01*
X147070706Y-65303062D01*
X147073943Y-65301597D01*
X147142343Y-65271965D01*
X147214907Y-65242493D01*
X147276457Y-65219358D01*
X147276729Y-65219262D01*
X147325595Y-65201367D01*
X147363212Y-65186253D01*
X147381457Y-65177184D01*
X147381752Y-65176855D01*
X147387946Y-65158282D01*
X147398139Y-65116045D01*
X147411348Y-65054696D01*
X147426590Y-64978789D01*
X147442881Y-64892875D01*
X147443449Y-64889796D01*
X147459713Y-64802128D01*
X147474608Y-64722741D01*
X147487171Y-64656701D01*
X147496438Y-64609079D01*
X147501444Y-64584943D01*
X147501764Y-64583605D01*
X147505060Y-64573273D01*
X147511738Y-64565506D01*
X147525462Y-64559940D01*
X147549895Y-64556207D01*
X147588702Y-64553942D01*
X147645546Y-64552778D01*
X147724090Y-64552348D01*
X147828000Y-64552286D01*
X147841056Y-64552286D01*
X147941933Y-64552371D01*
G36*
X147941933Y-64552371D02*
G01*
X148017856Y-64552865D01*
X148072491Y-64554135D01*
X148109500Y-64556547D01*
X148132547Y-64560467D01*
X148145296Y-64566262D01*
X148151411Y-64574299D01*
X148154556Y-64584943D01*
X148154646Y-64585325D01*
X148159814Y-64610347D01*
X148169209Y-64658681D01*
X148181867Y-64725260D01*
X148196825Y-64805014D01*
X148213119Y-64892875D01*
X148214448Y-64900064D01*
X148230691Y-64985340D01*
X148245805Y-65060242D01*
X148258808Y-65120219D01*
X148268715Y-65160717D01*
X148274544Y-65177184D01*
X148274575Y-65177210D01*
X148292943Y-65186320D01*
X148330640Y-65201457D01*
X148379543Y-65219358D01*
X148382297Y-65220330D01*
X148444817Y-65243959D01*
X148517543Y-65273595D01*
X148585294Y-65303062D01*
X148696703Y-65353626D01*
X148943399Y-65185160D01*
X148960775Y-65173311D01*
X149035202Y-65122947D01*
X149101614Y-65078612D01*
X149156039Y-65042916D01*
X149194506Y-65018471D01*
X149213042Y-65007889D01*
X149225743Y-65010315D01*
X149254579Y-65029110D01*
X149299143Y-65066330D01*
X149360670Y-65123020D01*
X149440398Y-65200227D01*
X149447532Y-65207255D01*
X149510796Y-65270222D01*
X149566990Y-65327268D01*
X149612677Y-65374817D01*
X149644414Y-65409297D01*
X149658764Y-65427131D01*
X149658810Y-65427217D01*
X149660633Y-65440795D01*
X149653910Y-65462820D01*
X149636946Y-65496304D01*
X149608044Y-65544261D01*
X149565508Y-65609704D01*
X149507644Y-65695645D01*
X149497783Y-65710151D01*
X149447913Y-65783635D01*
X149403905Y-65848687D01*
X149368380Y-65901417D01*
X149343959Y-65937936D01*
X149333264Y-65954356D01*
X149332458Y-65957834D01*
X149337518Y-65983785D01*
X149352677Y-66026159D01*
X149375463Y-66077728D01*
X149406429Y-66145170D01*
X149441004Y-66225195D01*
X149470366Y-66297629D01*
X149477645Y-66316377D01*
X149496710Y-66364246D01*
X149510715Y-66397596D01*
X149517041Y-66410114D01*
X149524025Y-66411050D01*
X149555413Y-66416461D01*
X149606787Y-66425806D01*
X149672802Y-66438069D01*
X149748113Y-66452232D01*
X149827375Y-66467280D01*
X149905243Y-66482195D01*
X149976370Y-66495961D01*
X150035412Y-66507562D01*
X150077022Y-66515980D01*
X150095857Y-66520199D01*
X150098980Y-66521389D01*
X150106591Y-66527805D01*
X150112254Y-66541465D01*
X150116251Y-66565999D01*
X150118866Y-66605038D01*
X150120384Y-66662213D01*
X150121086Y-66741154D01*
X150121257Y-66845492D01*
X150121257Y-67162799D01*
X150045057Y-67177839D01*
X150035840Y-67179642D01*
X149986891Y-67188980D01*
X149919205Y-67201669D01*
X149840478Y-67216273D01*
X149758400Y-67231355D01*
X149726078Y-67237422D01*
X149653855Y-67252181D01*
X149593666Y-67266137D01*
X149551040Y-67277952D01*
X149531510Y-67286287D01*
X149522660Y-67299905D01*
X149506548Y-67335938D01*
X149490065Y-67382572D01*
X149484263Y-67400034D01*
X149462906Y-67457358D01*
X149435359Y-67525201D01*
X149406107Y-67592355D01*
X149390463Y-67627430D01*
X149368174Y-67679822D01*
X149352857Y-67719058D01*
X149347162Y-67738563D01*
X149347478Y-67740036D01*
X149358281Y-67760729D01*
X149382638Y-67800665D01*
X149418081Y-67855972D01*
X149462136Y-67922781D01*
X149512332Y-67997220D01*
X149677501Y-68239623D01*
X149460503Y-68456983D01*
X149439516Y-68477899D01*
X149375342Y-68540505D01*
X149317990Y-68594495D01*
X149270820Y-68636826D01*
X149237192Y-68664457D01*
X149220467Y-68674343D01*
X149202303Y-68666821D01*
X149164265Y-68645227D01*
X149110726Y-68612151D01*
X149045884Y-68570191D01*
X148973940Y-68521943D01*
X148903275Y-68474291D01*
X148839526Y-68432328D01*
X148787513Y-68399165D01*
X148751279Y-68377378D01*
X148734867Y-68369543D01*
X148733905Y-68369614D01*
X148712103Y-68377338D01*
X148673440Y-68395323D01*
X148625612Y-68420013D01*
X148625110Y-68420284D01*
X148561587Y-68452099D01*
X148518060Y-68467642D01*
X148491052Y-68467685D01*
X148477090Y-68453000D01*
X148471180Y-68438544D01*
X148455229Y-68399831D01*
X148430660Y-68340316D01*
X148398779Y-68263165D01*
X148360893Y-68171541D01*
X148318310Y-68068607D01*
X148272337Y-67957526D01*
X148230667Y-67856472D01*
X148188268Y-67752780D01*
X148150756Y-67660119D01*
X148119388Y-67581642D01*
X148095425Y-67520500D01*
X148080123Y-67479843D01*
X148074743Y-67462825D01*
X148085018Y-67447219D01*
X148113563Y-67421162D01*
X148153971Y-67390887D01*
X148250979Y-67311684D01*
X148337793Y-67210475D01*
X148401322Y-67099116D01*
X148441177Y-66980893D01*
X148456965Y-66859095D01*
X148448296Y-66737010D01*
X148414778Y-66617925D01*
X148356021Y-66505129D01*
X148271632Y-66401911D01*
X148227631Y-66361713D01*
X148122211Y-66290638D01*
X148009410Y-66244301D01*
X147892525Y-66221599D01*
X147774853Y-66221428D01*
X147659690Y-66242687D01*
X147550335Y-66284270D01*
X147450083Y-66345076D01*
X147362233Y-66424001D01*
X147290080Y-66519941D01*
X147236922Y-66631795D01*
X147206057Y-66758457D01*
X147200392Y-66819507D01*
X147208185Y-66951776D01*
X147243284Y-67077266D01*
X147304649Y-67193759D01*
X147391243Y-67299039D01*
X147502029Y-67390887D01*
X147540931Y-67419930D01*
X147570104Y-67446272D01*
X147581257Y-67462800D01*
X147576810Y-67477209D01*
X147562378Y-67515815D01*
X147539173Y-67575201D01*
X147508452Y-67652215D01*
X147471474Y-67743703D01*
X147429496Y-67846516D01*
X147383778Y-67957502D01*
X147342178Y-68058072D01*
X147299222Y-68161947D01*
X147260829Y-68254819D01*
X147228305Y-68333525D01*
X147202958Y-68394899D01*
X147186095Y-68435779D01*
X147179025Y-68453000D01*
X147178943Y-68453204D01*
X147164798Y-68467745D01*
X147137659Y-68467579D01*
X147094023Y-68451927D01*
X147030388Y-68420013D01*
X147025379Y-68417326D01*
X146978125Y-68393150D01*
X146940811Y-68376037D01*
X146921133Y-68369543D01*
X146905005Y-68377218D01*
X146868959Y-68398871D01*
X146817092Y-68431928D01*
X146753445Y-68473810D01*
X146682060Y-68521943D01*
X146611724Y-68569131D01*
X146546670Y-68611267D01*
X146492820Y-68644578D01*
X146454374Y-68666469D01*
X146435534Y-68674343D01*
X146432325Y-68673343D01*
X146409954Y-68657584D01*
X146371733Y-68625033D01*
X146321021Y-68578733D01*
X146261181Y-68521726D01*
X146195571Y-68457058D01*
X145978648Y-68239772D01*
X146147601Y-67991253D01*
X146316553Y-67742733D01*
X146265183Y-67631595D01*
X146265031Y-67631266D01*
X146234183Y-67560418D01*
X146202661Y-67481523D01*
X146177266Y-67411600D01*
X146173423Y-67400322D01*
X146154047Y-67347967D01*
X146136574Y-67307283D01*
X146124388Y-67286287D01*
X146119426Y-67283322D01*
X146089634Y-67273375D01*
X146039047Y-67260505D01*
X145973194Y-67246053D01*
X145897600Y-67231355D01*
X145874957Y-67227210D01*
X145793038Y-67212116D01*
X145716600Y-67197899D01*
X145653337Y-67185995D01*
X145610943Y-67177839D01*
X145534743Y-67162799D01*
X145534743Y-66845492D01*
X145534760Y-66806476D01*
X145535082Y-66711292D01*
X145536033Y-66640255D01*
X145537896Y-66589734D01*
X145540955Y-66556098D01*
X145545494Y-66535718D01*
X145551795Y-66524962D01*
X145560143Y-66520199D01*
X145568224Y-66518270D01*
X145601172Y-66511445D01*
X145653736Y-66501022D01*
X145720569Y-66488018D01*
X145796328Y-66473449D01*
X145875665Y-66458333D01*
X145953237Y-66443685D01*
X146023698Y-66430523D01*
X146081702Y-66419863D01*
X146121904Y-66412721D01*
X146138959Y-66410114D01*
X146140112Y-66408541D01*
X146149385Y-66388119D01*
X146165432Y-66349045D01*
X146185635Y-66297629D01*
X146213672Y-66228353D01*
X146248186Y-66148290D01*
X146280538Y-66077728D01*
X146287952Y-66061889D01*
X146308755Y-66012293D01*
X146321219Y-65974038D01*
X146322863Y-65954356D01*
X146322015Y-65952962D01*
X146308548Y-65932420D01*
X146281850Y-65892516D01*
X146244539Y-65837140D01*
X146199234Y-65770177D01*
X146148552Y-65695517D01*
X146091445Y-65610692D01*
X146048607Y-65544800D01*
X146019460Y-65496478D01*
X146002317Y-65462733D01*
X145995495Y-65440572D01*
X145997306Y-65427002D01*
X145997915Y-65425984D01*
X146014297Y-65406210D01*
X146047695Y-65370175D01*
X146094671Y-65321451D01*
X146151786Y-65263612D01*
X146215603Y-65200227D01*
X146281802Y-65135905D01*
X146346648Y-65075447D01*
X146394299Y-65034655D01*
X146425990Y-65012484D01*
X146442958Y-65007889D01*
X146445175Y-65008921D01*
X146468524Y-65022837D01*
X146510912Y-65050030D01*
X146568369Y-65087889D01*
X146636923Y-65133803D01*
X146712601Y-65185160D01*
X146959298Y-65353626D01*
X147070706Y-65303062D01*
X147073943Y-65301597D01*
X147142343Y-65271965D01*
X147214907Y-65242493D01*
X147276457Y-65219358D01*
X147276729Y-65219262D01*
X147325595Y-65201367D01*
X147363212Y-65186253D01*
X147381457Y-65177184D01*
X147381752Y-65176855D01*
X147387946Y-65158282D01*
X147398139Y-65116045D01*
X147411348Y-65054696D01*
X147426590Y-64978789D01*
X147442881Y-64892875D01*
X147443449Y-64889796D01*
X147459713Y-64802128D01*
X147474608Y-64722741D01*
X147487171Y-64656701D01*
X147496438Y-64609079D01*
X147501444Y-64584943D01*
X147501764Y-64583605D01*
X147505060Y-64573273D01*
X147511738Y-64565506D01*
X147525462Y-64559940D01*
X147549895Y-64556207D01*
X147588702Y-64553942D01*
X147645546Y-64552778D01*
X147724090Y-64552348D01*
X147828000Y-64552286D01*
X147841056Y-64552286D01*
X147941933Y-64552371D01*
G37*
X155875406Y-69076949D02*
X155901127Y-69092647D01*
X155927778Y-69114227D01*
X155927778Y-69761684D01*
X155901127Y-69783264D01*
X155869767Y-69800739D01*
X155833966Y-69801575D01*
X155802528Y-69781082D01*
X155798652Y-69776416D01*
X155793186Y-69766949D01*
X155788979Y-69753267D01*
X155785867Y-69732748D01*
X155783687Y-69702768D01*
X155782276Y-69660704D01*
X155781471Y-69603932D01*
X155781107Y-69529830D01*
X155781022Y-69435773D01*
X155781022Y-69114227D01*
X155807673Y-69092647D01*
X155831386Y-69077877D01*
X155854400Y-69071067D01*
X155875406Y-69076949D01*
G36*
X155875406Y-69076949D02*
G01*
X155901127Y-69092647D01*
X155927778Y-69114227D01*
X155927778Y-69761684D01*
X155901127Y-69783264D01*
X155869767Y-69800739D01*
X155833966Y-69801575D01*
X155802528Y-69781082D01*
X155798652Y-69776416D01*
X155793186Y-69766949D01*
X155788979Y-69753267D01*
X155785867Y-69732748D01*
X155783687Y-69702768D01*
X155782276Y-69660704D01*
X155781471Y-69603932D01*
X155781107Y-69529830D01*
X155781022Y-69435773D01*
X155781022Y-69114227D01*
X155807673Y-69092647D01*
X155831386Y-69077877D01*
X155854400Y-69071067D01*
X155875406Y-69076949D01*
G37*
X163006137Y-69075463D02*
X163040291Y-69098776D01*
X163068000Y-69126485D01*
X163068000Y-69439537D01*
X163067959Y-69523567D01*
X163067701Y-69597789D01*
X163067030Y-69654541D01*
X163065752Y-69696512D01*
X163063673Y-69726389D01*
X163060599Y-69746861D01*
X163056334Y-69760614D01*
X163050684Y-69770337D01*
X163043455Y-69778717D01*
X163011991Y-69800181D01*
X162976826Y-69801947D01*
X162943822Y-69782267D01*
X162938516Y-69776398D01*
X162933066Y-69767314D01*
X162928900Y-69753973D01*
X162925846Y-69733757D01*
X162923732Y-69704049D01*
X162922386Y-69662232D01*
X162921638Y-69605689D01*
X162921314Y-69531802D01*
X162921245Y-69437956D01*
X162921284Y-69362294D01*
X162921539Y-69284385D01*
X162922183Y-69224375D01*
X162923387Y-69179648D01*
X162925324Y-69147585D01*
X162928164Y-69125571D01*
X162932079Y-69110987D01*
X162937242Y-69101218D01*
X162943822Y-69093645D01*
X162973006Y-69074623D01*
X163006137Y-69075463D01*
G36*
X163006137Y-69075463D02*
G01*
X163040291Y-69098776D01*
X163068000Y-69126485D01*
X163068000Y-69439537D01*
X163067959Y-69523567D01*
X163067701Y-69597789D01*
X163067030Y-69654541D01*
X163065752Y-69696512D01*
X163063673Y-69726389D01*
X163060599Y-69746861D01*
X163056334Y-69760614D01*
X163050684Y-69770337D01*
X163043455Y-69778717D01*
X163011991Y-69800181D01*
X162976826Y-69801947D01*
X162943822Y-69782267D01*
X162938516Y-69776398D01*
X162933066Y-69767314D01*
X162928900Y-69753973D01*
X162925846Y-69733757D01*
X162923732Y-69704049D01*
X162922386Y-69662232D01*
X162921638Y-69605689D01*
X162921314Y-69531802D01*
X162921245Y-69437956D01*
X162921284Y-69362294D01*
X162921539Y-69284385D01*
X162922183Y-69224375D01*
X162923387Y-69179648D01*
X162925324Y-69147585D01*
X162928164Y-69125571D01*
X162932079Y-69110987D01*
X162937242Y-69101218D01*
X162943822Y-69093645D01*
X162973006Y-69074623D01*
X163006137Y-69075463D01*
G37*
X162474562Y-63834850D02*
X162557313Y-63862053D01*
X162632406Y-63907484D01*
X162704298Y-63973302D01*
X162742846Y-64017567D01*
X162782256Y-64075961D01*
X162807446Y-64136586D01*
X162820861Y-64205865D01*
X162824948Y-64290222D01*
X162824669Y-64336307D01*
X162822460Y-64377450D01*
X162816894Y-64409582D01*
X162806586Y-64440122D01*
X162790148Y-64476489D01*
X162776200Y-64503728D01*
X162717665Y-64589429D01*
X162645619Y-64658617D01*
X162561947Y-64709741D01*
X162468531Y-64741250D01*
X162435434Y-64748225D01*
X162394960Y-64755094D01*
X162361999Y-64756919D01*
X162327698Y-64753947D01*
X162283200Y-64746426D01*
X162231934Y-64734002D01*
X162141434Y-64696112D01*
X162062345Y-64641836D01*
X161996528Y-64573770D01*
X161945840Y-64494511D01*
X161912140Y-64406654D01*
X161897286Y-64312795D01*
X161903136Y-64215530D01*
X161929399Y-64119220D01*
X161974418Y-64030494D01*
X162035373Y-63955419D01*
X162110184Y-63895641D01*
X162196768Y-63852809D01*
X162293043Y-63828571D01*
X162396928Y-63824576D01*
X162474562Y-63834850D01*
G36*
X162474562Y-63834850D02*
G01*
X162557313Y-63862053D01*
X162632406Y-63907484D01*
X162704298Y-63973302D01*
X162742846Y-64017567D01*
X162782256Y-64075961D01*
X162807446Y-64136586D01*
X162820861Y-64205865D01*
X162824948Y-64290222D01*
X162824669Y-64336307D01*
X162822460Y-64377450D01*
X162816894Y-64409582D01*
X162806586Y-64440122D01*
X162790148Y-64476489D01*
X162776200Y-64503728D01*
X162717665Y-64589429D01*
X162645619Y-64658617D01*
X162561947Y-64709741D01*
X162468531Y-64741250D01*
X162435434Y-64748225D01*
X162394960Y-64755094D01*
X162361999Y-64756919D01*
X162327698Y-64753947D01*
X162283200Y-64746426D01*
X162231934Y-64734002D01*
X162141434Y-64696112D01*
X162062345Y-64641836D01*
X161996528Y-64573770D01*
X161945840Y-64494511D01*
X161912140Y-64406654D01*
X161897286Y-64312795D01*
X161903136Y-64215530D01*
X161929399Y-64119220D01*
X161974418Y-64030494D01*
X162035373Y-63955419D01*
X162110184Y-63895641D01*
X162196768Y-63852809D01*
X162293043Y-63828571D01*
X162396928Y-63824576D01*
X162474562Y-63834850D01*
G37*
X155175767Y-69071068D02*
X155269890Y-69071158D01*
X155344405Y-69071498D01*
X155401811Y-69072239D01*
X155444611Y-69073535D01*
X155475304Y-69075537D01*
X155496391Y-69078396D01*
X155510373Y-69082266D01*
X155519750Y-69087298D01*
X155527022Y-69093645D01*
X155545828Y-69126362D01*
X155547275Y-69163939D01*
X155530917Y-69197178D01*
X155529557Y-69198631D01*
X155518354Y-69206992D01*
X155501252Y-69212547D01*
X155474082Y-69215840D01*
X155432678Y-69217418D01*
X155372873Y-69217822D01*
X155233511Y-69217822D01*
X155233511Y-69481589D01*
X155233436Y-69557417D01*
X155233028Y-69624083D01*
X155232046Y-69673867D01*
X155230250Y-69709784D01*
X155227399Y-69734850D01*
X155223253Y-69752081D01*
X155217571Y-69764492D01*
X155210114Y-69775100D01*
X155207824Y-69777906D01*
X155176646Y-69800548D01*
X155142266Y-69802112D01*
X155109334Y-69782267D01*
X155102355Y-69774191D01*
X155096883Y-69763593D01*
X155092863Y-69747749D01*
X155090072Y-69723773D01*
X155088288Y-69688774D01*
X155087289Y-69639864D01*
X155086852Y-69574154D01*
X155086756Y-69488756D01*
X155086756Y-69217822D01*
X154940820Y-69217822D01*
X154929720Y-69217821D01*
X154873202Y-69217596D01*
X154834358Y-69216457D01*
X154808965Y-69213657D01*
X154792804Y-69208450D01*
X154781652Y-69200089D01*
X154771289Y-69187826D01*
X154755441Y-69157138D01*
X154758543Y-69123358D01*
X154784187Y-69090822D01*
X154789129Y-69087105D01*
X154799338Y-69082269D01*
X154814764Y-69078506D01*
X154837886Y-69075683D01*
X154871183Y-69073670D01*
X154917137Y-69072333D01*
X154978228Y-69071542D01*
X155056935Y-69071163D01*
X155155740Y-69071067D01*
X155175767Y-69071068D01*
G36*
X155175767Y-69071068D02*
G01*
X155269890Y-69071158D01*
X155344405Y-69071498D01*
X155401811Y-69072239D01*
X155444611Y-69073535D01*
X155475304Y-69075537D01*
X155496391Y-69078396D01*
X155510373Y-69082266D01*
X155519750Y-69087298D01*
X155527022Y-69093645D01*
X155545828Y-69126362D01*
X155547275Y-69163939D01*
X155530917Y-69197178D01*
X155529557Y-69198631D01*
X155518354Y-69206992D01*
X155501252Y-69212547D01*
X155474082Y-69215840D01*
X155432678Y-69217418D01*
X155372873Y-69217822D01*
X155233511Y-69217822D01*
X155233511Y-69481589D01*
X155233436Y-69557417D01*
X155233028Y-69624083D01*
X155232046Y-69673867D01*
X155230250Y-69709784D01*
X155227399Y-69734850D01*
X155223253Y-69752081D01*
X155217571Y-69764492D01*
X155210114Y-69775100D01*
X155207824Y-69777906D01*
X155176646Y-69800548D01*
X155142266Y-69802112D01*
X155109334Y-69782267D01*
X155102355Y-69774191D01*
X155096883Y-69763593D01*
X155092863Y-69747749D01*
X155090072Y-69723773D01*
X155088288Y-69688774D01*
X155087289Y-69639864D01*
X155086852Y-69574154D01*
X155086756Y-69488756D01*
X155086756Y-69217822D01*
X154940820Y-69217822D01*
X154929720Y-69217821D01*
X154873202Y-69217596D01*
X154834358Y-69216457D01*
X154808965Y-69213657D01*
X154792804Y-69208450D01*
X154781652Y-69200089D01*
X154771289Y-69187826D01*
X154755441Y-69157138D01*
X154758543Y-69123358D01*
X154784187Y-69090822D01*
X154789129Y-69087105D01*
X154799338Y-69082269D01*
X154814764Y-69078506D01*
X154837886Y-69075683D01*
X154871183Y-69073670D01*
X154917137Y-69072333D01*
X154978228Y-69071542D01*
X155056935Y-69071163D01*
X155155740Y-69071067D01*
X155175767Y-69071068D01*
G37*
X154499734Y-69093645D02*
X154505366Y-69099835D01*
X154510456Y-69108041D01*
X154514543Y-69119817D01*
X154517721Y-69137276D01*
X154520087Y-69162530D01*
X154521738Y-69197690D01*
X154522769Y-69244869D01*
X154523277Y-69306177D01*
X154523359Y-69383727D01*
X154523109Y-69479631D01*
X154522625Y-69596000D01*
X154522557Y-69610175D01*
X154521971Y-69671937D01*
X154520648Y-69715620D01*
X154518103Y-69745001D01*
X154513848Y-69763855D01*
X154507396Y-69775959D01*
X154498262Y-69785089D01*
X154464804Y-69802506D01*
X154429856Y-69799604D01*
X154398953Y-69775100D01*
X154389944Y-69761897D01*
X154382492Y-69743361D01*
X154378124Y-69717333D01*
X154376069Y-69678787D01*
X154375556Y-69622700D01*
X154375556Y-69500045D01*
X153878845Y-69500045D01*
X153878845Y-69634871D01*
X153878772Y-69670662D01*
X153878009Y-69716992D01*
X153875833Y-69747526D01*
X153871536Y-69766557D01*
X153864412Y-69778374D01*
X153853755Y-69787271D01*
X153821504Y-69802341D01*
X153786217Y-69799673D01*
X153755486Y-69775100D01*
X153750831Y-69768845D01*
X153744895Y-69758321D01*
X153740364Y-69744391D01*
X153737048Y-69724317D01*
X153734759Y-69695360D01*
X153733308Y-69654780D01*
X153732505Y-69599840D01*
X153732162Y-69527799D01*
X153732089Y-69435920D01*
X153732089Y-69126485D01*
X153759798Y-69098776D01*
X153791177Y-69076533D01*
X153824406Y-69073844D01*
X153856267Y-69093645D01*
X153864553Y-69103415D01*
X153871965Y-69119307D01*
X153876302Y-69143275D01*
X153878338Y-69180148D01*
X153878845Y-69234756D01*
X153878845Y-69353289D01*
X154375556Y-69353289D01*
X154375556Y-69237776D01*
X154375994Y-69186078D01*
X154377958Y-69151554D01*
X154382474Y-69128978D01*
X154390567Y-69113126D01*
X154403265Y-69098776D01*
X154434643Y-69076533D01*
X154467872Y-69073844D01*
X154499734Y-69093645D01*
G36*
X154499734Y-69093645D02*
G01*
X154505366Y-69099835D01*
X154510456Y-69108041D01*
X154514543Y-69119817D01*
X154517721Y-69137276D01*
X154520087Y-69162530D01*
X154521738Y-69197690D01*
X154522769Y-69244869D01*
X154523277Y-69306177D01*
X154523359Y-69383727D01*
X154523109Y-69479631D01*
X154522625Y-69596000D01*
X154522557Y-69610175D01*
X154521971Y-69671937D01*
X154520648Y-69715620D01*
X154518103Y-69745001D01*
X154513848Y-69763855D01*
X154507396Y-69775959D01*
X154498262Y-69785089D01*
X154464804Y-69802506D01*
X154429856Y-69799604D01*
X154398953Y-69775100D01*
X154389944Y-69761897D01*
X154382492Y-69743361D01*
X154378124Y-69717333D01*
X154376069Y-69678787D01*
X154375556Y-69622700D01*
X154375556Y-69500045D01*
X153878845Y-69500045D01*
X153878845Y-69634871D01*
X153878772Y-69670662D01*
X153878009Y-69716992D01*
X153875833Y-69747526D01*
X153871536Y-69766557D01*
X153864412Y-69778374D01*
X153853755Y-69787271D01*
X153821504Y-69802341D01*
X153786217Y-69799673D01*
X153755486Y-69775100D01*
X153750831Y-69768845D01*
X153744895Y-69758321D01*
X153740364Y-69744391D01*
X153737048Y-69724317D01*
X153734759Y-69695360D01*
X153733308Y-69654780D01*
X153732505Y-69599840D01*
X153732162Y-69527799D01*
X153732089Y-69435920D01*
X153732089Y-69126485D01*
X153759798Y-69098776D01*
X153791177Y-69076533D01*
X153824406Y-69073844D01*
X153856267Y-69093645D01*
X153864553Y-69103415D01*
X153871965Y-69119307D01*
X153876302Y-69143275D01*
X153878338Y-69180148D01*
X153878845Y-69234756D01*
X153878845Y-69353289D01*
X154375556Y-69353289D01*
X154375556Y-69237776D01*
X154375994Y-69186078D01*
X154377958Y-69151554D01*
X154382474Y-69128978D01*
X154390567Y-69113126D01*
X154403265Y-69098776D01*
X154434643Y-69076533D01*
X154467872Y-69073844D01*
X154499734Y-69093645D01*
G37*
X159205133Y-69682396D02*
X159203163Y-69715175D01*
X159200235Y-69738095D01*
X159196158Y-69753897D01*
X159190743Y-69765319D01*
X159183803Y-69775100D01*
X159160406Y-69804845D01*
X158994714Y-69804251D01*
X158959918Y-69803953D01*
X158861435Y-69800522D01*
X158780473Y-69792839D01*
X158713379Y-69780282D01*
X158656496Y-69762227D01*
X158606169Y-69738052D01*
X158602810Y-69736135D01*
X158544998Y-69699417D01*
X158502644Y-69662451D01*
X158469828Y-69618966D01*
X158440628Y-69562689D01*
X158436346Y-69553073D01*
X158413769Y-69489887D01*
X158408034Y-69444333D01*
X158557279Y-69444333D01*
X158562892Y-69469061D01*
X158568618Y-69484939D01*
X158601548Y-69544847D01*
X158648886Y-69590600D01*
X158712652Y-69623736D01*
X158794861Y-69645790D01*
X158797655Y-69646292D01*
X158843940Y-69652255D01*
X158900336Y-69656483D01*
X158955274Y-69658089D01*
X159049156Y-69658089D01*
X159049156Y-69217822D01*
X158961667Y-69218270D01*
X158894747Y-69220746D01*
X158802349Y-69231998D01*
X158723034Y-69251537D01*
X158661060Y-69278511D01*
X158630120Y-69299240D01*
X158602000Y-69329006D01*
X158578660Y-69371434D01*
X158571533Y-69387400D01*
X158559709Y-69419902D01*
X158557279Y-69444333D01*
X158408034Y-69444333D01*
X158406797Y-69434509D01*
X158415399Y-69379483D01*
X158439541Y-69317351D01*
X158440337Y-69315658D01*
X158480788Y-69246236D01*
X158531473Y-69189638D01*
X158594198Y-69145070D01*
X158670774Y-69111741D01*
X158763009Y-69088861D01*
X158872712Y-69075636D01*
X159001691Y-69071275D01*
X159005263Y-69071270D01*
X159065283Y-69071410D01*
X159107214Y-69072446D01*
X159135328Y-69075040D01*
X159153897Y-69079853D01*
X159167194Y-69087544D01*
X159179491Y-69098776D01*
X159207200Y-69126485D01*
X159207200Y-69435920D01*
X159207175Y-69497526D01*
X159206950Y-69576311D01*
X159206332Y-69637021D01*
X159205775Y-69658089D01*
X159205133Y-69682396D01*
G36*
X159205133Y-69682396D02*
G01*
X159203163Y-69715175D01*
X159200235Y-69738095D01*
X159196158Y-69753897D01*
X159190743Y-69765319D01*
X159183803Y-69775100D01*
X159160406Y-69804845D01*
X158994714Y-69804251D01*
X158959918Y-69803953D01*
X158861435Y-69800522D01*
X158780473Y-69792839D01*
X158713379Y-69780282D01*
X158656496Y-69762227D01*
X158606169Y-69738052D01*
X158602810Y-69736135D01*
X158544998Y-69699417D01*
X158502644Y-69662451D01*
X158469828Y-69618966D01*
X158440628Y-69562689D01*
X158436346Y-69553073D01*
X158413769Y-69489887D01*
X158408034Y-69444333D01*
X158557279Y-69444333D01*
X158562892Y-69469061D01*
X158568618Y-69484939D01*
X158601548Y-69544847D01*
X158648886Y-69590600D01*
X158712652Y-69623736D01*
X158794861Y-69645790D01*
X158797655Y-69646292D01*
X158843940Y-69652255D01*
X158900336Y-69656483D01*
X158955274Y-69658089D01*
X159049156Y-69658089D01*
X159049156Y-69217822D01*
X158961667Y-69218270D01*
X158894747Y-69220746D01*
X158802349Y-69231998D01*
X158723034Y-69251537D01*
X158661060Y-69278511D01*
X158630120Y-69299240D01*
X158602000Y-69329006D01*
X158578660Y-69371434D01*
X158571533Y-69387400D01*
X158559709Y-69419902D01*
X158557279Y-69444333D01*
X158408034Y-69444333D01*
X158406797Y-69434509D01*
X158415399Y-69379483D01*
X158439541Y-69317351D01*
X158440337Y-69315658D01*
X158480788Y-69246236D01*
X158531473Y-69189638D01*
X158594198Y-69145070D01*
X158670774Y-69111741D01*
X158763009Y-69088861D01*
X158872712Y-69075636D01*
X159001691Y-69071275D01*
X159005263Y-69071270D01*
X159065283Y-69071410D01*
X159107214Y-69072446D01*
X159135328Y-69075040D01*
X159153897Y-69079853D01*
X159167194Y-69087544D01*
X159179491Y-69098776D01*
X159207200Y-69126485D01*
X159207200Y-69435920D01*
X159207175Y-69497526D01*
X159206950Y-69576311D01*
X159206332Y-69637021D01*
X159205775Y-69658089D01*
X159205133Y-69682396D01*
G37*
X166296817Y-69256427D02*
X166296870Y-69337041D01*
X166296622Y-69437956D01*
X166296583Y-69513617D01*
X166296328Y-69591526D01*
X166295684Y-69651536D01*
X166294480Y-69696264D01*
X166292543Y-69728326D01*
X166289703Y-69750340D01*
X166285788Y-69764924D01*
X166280626Y-69774694D01*
X166274045Y-69782267D01*
X166267077Y-69788501D01*
X166254079Y-69795801D01*
X166234931Y-69800554D01*
X166205528Y-69803292D01*
X166161762Y-69804545D01*
X166099528Y-69804845D01*
X166050582Y-69804469D01*
X165943722Y-69800041D01*
X165854494Y-69789953D01*
X165779696Y-69773365D01*
X165716125Y-69749435D01*
X165660579Y-69717321D01*
X165609854Y-69676182D01*
X165603866Y-69670330D01*
X165566999Y-69621821D01*
X165535899Y-69561013D01*
X165514417Y-69496769D01*
X165509136Y-69458026D01*
X165656353Y-69458026D01*
X165674635Y-69508961D01*
X165704305Y-69554878D01*
X165751002Y-69597287D01*
X165812392Y-69627090D01*
X165891538Y-69646226D01*
X165893028Y-69646464D01*
X165941999Y-69652256D01*
X166000693Y-69656396D01*
X166056734Y-69658004D01*
X166149867Y-69658089D01*
X166149867Y-69217822D01*
X166073667Y-69217808D01*
X166070639Y-69217817D01*
X166019519Y-69219782D01*
X165959416Y-69224507D01*
X165902708Y-69231035D01*
X165852750Y-69240331D01*
X165777998Y-69266600D01*
X165720489Y-69305899D01*
X165678988Y-69358933D01*
X165657771Y-69410200D01*
X165656353Y-69458026D01*
X165509136Y-69458026D01*
X165506400Y-69437956D01*
X165507679Y-69416739D01*
X165519991Y-69359323D01*
X165542520Y-69299413D01*
X165571750Y-69245363D01*
X165604167Y-69205532D01*
X165623708Y-69188510D01*
X165678420Y-69149322D01*
X165738723Y-69119193D01*
X165807919Y-69097232D01*
X165889311Y-69082550D01*
X165986200Y-69074259D01*
X166101889Y-69071467D01*
X166141371Y-69071066D01*
X166187082Y-69070653D01*
X166222883Y-69072457D01*
X166249974Y-69078739D01*
X166269556Y-69091759D01*
X166282830Y-69113778D01*
X166290998Y-69147055D01*
X166295260Y-69193851D01*
X166295857Y-69217822D01*
X166296817Y-69256427D01*
G36*
X166296817Y-69256427D02*
G01*
X166296870Y-69337041D01*
X166296622Y-69437956D01*
X166296583Y-69513617D01*
X166296328Y-69591526D01*
X166295684Y-69651536D01*
X166294480Y-69696264D01*
X166292543Y-69728326D01*
X166289703Y-69750340D01*
X166285788Y-69764924D01*
X166280626Y-69774694D01*
X166274045Y-69782267D01*
X166267077Y-69788501D01*
X166254079Y-69795801D01*
X166234931Y-69800554D01*
X166205528Y-69803292D01*
X166161762Y-69804545D01*
X166099528Y-69804845D01*
X166050582Y-69804469D01*
X165943722Y-69800041D01*
X165854494Y-69789953D01*
X165779696Y-69773365D01*
X165716125Y-69749435D01*
X165660579Y-69717321D01*
X165609854Y-69676182D01*
X165603866Y-69670330D01*
X165566999Y-69621821D01*
X165535899Y-69561013D01*
X165514417Y-69496769D01*
X165509136Y-69458026D01*
X165656353Y-69458026D01*
X165674635Y-69508961D01*
X165704305Y-69554878D01*
X165751002Y-69597287D01*
X165812392Y-69627090D01*
X165891538Y-69646226D01*
X165893028Y-69646464D01*
X165941999Y-69652256D01*
X166000693Y-69656396D01*
X166056734Y-69658004D01*
X166149867Y-69658089D01*
X166149867Y-69217822D01*
X166073667Y-69217808D01*
X166070639Y-69217817D01*
X166019519Y-69219782D01*
X165959416Y-69224507D01*
X165902708Y-69231035D01*
X165852750Y-69240331D01*
X165777998Y-69266600D01*
X165720489Y-69305899D01*
X165678988Y-69358933D01*
X165657771Y-69410200D01*
X165656353Y-69458026D01*
X165509136Y-69458026D01*
X165506400Y-69437956D01*
X165507679Y-69416739D01*
X165519991Y-69359323D01*
X165542520Y-69299413D01*
X165571750Y-69245363D01*
X165604167Y-69205532D01*
X165623708Y-69188510D01*
X165678420Y-69149322D01*
X165738723Y-69119193D01*
X165807919Y-69097232D01*
X165889311Y-69082550D01*
X165986200Y-69074259D01*
X166101889Y-69071467D01*
X166141371Y-69071066D01*
X166187082Y-69070653D01*
X166222883Y-69072457D01*
X166249974Y-69078739D01*
X166269556Y-69091759D01*
X166282830Y-69113778D01*
X166290998Y-69147055D01*
X166295260Y-69193851D01*
X166295857Y-69217822D01*
X166296817Y-69256427D01*
G37*
X161351893Y-69069892D02*
X161363301Y-69076029D01*
X161373850Y-69086691D01*
X161385136Y-69100811D01*
X161389589Y-69106772D01*
X161395588Y-69117268D01*
X161400167Y-69131093D01*
X161403519Y-69150998D01*
X161405833Y-69179732D01*
X161407301Y-69220045D01*
X161408113Y-69274687D01*
X161408460Y-69346407D01*
X161408534Y-69437956D01*
X161408511Y-69496486D01*
X161408292Y-69575573D01*
X161407683Y-69636516D01*
X161406492Y-69682062D01*
X161404529Y-69714963D01*
X161401603Y-69737968D01*
X161397523Y-69753826D01*
X161392097Y-69765286D01*
X161385136Y-69775100D01*
X161354708Y-69799493D01*
X161319765Y-69802372D01*
X161282784Y-69783282D01*
X161278600Y-69779807D01*
X161270424Y-69771279D01*
X161264364Y-69759728D01*
X161259981Y-69741896D01*
X161256839Y-69714524D01*
X161254502Y-69674354D01*
X161252531Y-69618128D01*
X161250489Y-69542589D01*
X161244845Y-69323458D01*
X160979556Y-69564099D01*
X160905722Y-69630875D01*
X160840542Y-69688991D01*
X160788348Y-69733949D01*
X160747273Y-69766871D01*
X160715455Y-69788879D01*
X160691026Y-69801094D01*
X160672124Y-69804639D01*
X160656883Y-69800636D01*
X160643439Y-69790207D01*
X160629927Y-69774474D01*
X160623682Y-69765991D01*
X160618050Y-69755413D01*
X160613839Y-69741255D01*
X160610887Y-69720803D01*
X160609032Y-69691342D01*
X160608113Y-69650161D01*
X160607968Y-69594544D01*
X160608435Y-69521779D01*
X160609352Y-69429151D01*
X160612667Y-69114199D01*
X160639318Y-69092633D01*
X160665383Y-69076441D01*
X160698241Y-69073670D01*
X160732772Y-69092623D01*
X160737084Y-69096208D01*
X160745216Y-69104737D01*
X160751245Y-69116329D01*
X160755606Y-69134235D01*
X160758734Y-69161706D01*
X160761063Y-69201994D01*
X160763029Y-69258351D01*
X160765067Y-69334029D01*
X160770711Y-69553878D01*
X160951334Y-69390084D01*
X161038072Y-69311451D01*
X161113843Y-69243058D01*
X161175980Y-69187708D01*
X161226078Y-69144338D01*
X161265735Y-69111881D01*
X161296548Y-69089273D01*
X161320114Y-69075448D01*
X161338030Y-69069343D01*
X161351893Y-69069892D01*
G36*
X161351893Y-69069892D02*
G01*
X161363301Y-69076029D01*
X161373850Y-69086691D01*
X161385136Y-69100811D01*
X161389589Y-69106772D01*
X161395588Y-69117268D01*
X161400167Y-69131093D01*
X161403519Y-69150998D01*
X161405833Y-69179732D01*
X161407301Y-69220045D01*
X161408113Y-69274687D01*
X161408460Y-69346407D01*
X161408534Y-69437956D01*
X161408511Y-69496486D01*
X161408292Y-69575573D01*
X161407683Y-69636516D01*
X161406492Y-69682062D01*
X161404529Y-69714963D01*
X161401603Y-69737968D01*
X161397523Y-69753826D01*
X161392097Y-69765286D01*
X161385136Y-69775100D01*
X161354708Y-69799493D01*
X161319765Y-69802372D01*
X161282784Y-69783282D01*
X161278600Y-69779807D01*
X161270424Y-69771279D01*
X161264364Y-69759728D01*
X161259981Y-69741896D01*
X161256839Y-69714524D01*
X161254502Y-69674354D01*
X161252531Y-69618128D01*
X161250489Y-69542589D01*
X161244845Y-69323458D01*
X160979556Y-69564099D01*
X160905722Y-69630875D01*
X160840542Y-69688991D01*
X160788348Y-69733949D01*
X160747273Y-69766871D01*
X160715455Y-69788879D01*
X160691026Y-69801094D01*
X160672124Y-69804639D01*
X160656883Y-69800636D01*
X160643439Y-69790207D01*
X160629927Y-69774474D01*
X160623682Y-69765991D01*
X160618050Y-69755413D01*
X160613839Y-69741255D01*
X160610887Y-69720803D01*
X160609032Y-69691342D01*
X160608113Y-69650161D01*
X160607968Y-69594544D01*
X160608435Y-69521779D01*
X160609352Y-69429151D01*
X160612667Y-69114199D01*
X160639318Y-69092633D01*
X160665383Y-69076441D01*
X160698241Y-69073670D01*
X160732772Y-69092623D01*
X160737084Y-69096208D01*
X160745216Y-69104737D01*
X160751245Y-69116329D01*
X160755606Y-69134235D01*
X160758734Y-69161706D01*
X160761063Y-69201994D01*
X160763029Y-69258351D01*
X160765067Y-69334029D01*
X160770711Y-69553878D01*
X160951334Y-69390084D01*
X161038072Y-69311451D01*
X161113843Y-69243058D01*
X161175980Y-69187708D01*
X161226078Y-69144338D01*
X161265735Y-69111881D01*
X161296548Y-69089273D01*
X161320114Y-69075448D01*
X161338030Y-69069343D01*
X161351893Y-69069892D01*
G37*
X162149150Y-69076179D02*
X162255157Y-69092494D01*
X162348969Y-69120545D01*
X162427765Y-69159452D01*
X162488719Y-69208334D01*
X162514789Y-69241195D01*
X162544297Y-69290394D01*
X162569568Y-69344252D01*
X162587218Y-69395419D01*
X162593858Y-69436544D01*
X162592298Y-69456259D01*
X162579357Y-69507592D01*
X162556194Y-69564118D01*
X162526302Y-69618035D01*
X162493173Y-69661539D01*
X162482977Y-69671887D01*
X162415892Y-69723662D01*
X162335766Y-69763554D01*
X162249556Y-69787956D01*
X162194592Y-69796068D01*
X162101139Y-69802673D01*
X162011358Y-69800586D01*
X161928869Y-69790340D01*
X161857286Y-69772470D01*
X161800228Y-69747508D01*
X161761311Y-69715988D01*
X161759936Y-69714012D01*
X161752848Y-69688786D01*
X161748609Y-69641535D01*
X161747200Y-69572071D01*
X161748060Y-69509838D01*
X161752780Y-69462456D01*
X161764470Y-69430353D01*
X161786239Y-69410800D01*
X161821198Y-69401070D01*
X161872456Y-69398433D01*
X161943123Y-69400161D01*
X161991743Y-69403173D01*
X162041939Y-69411366D01*
X162074433Y-69425419D01*
X162091892Y-69446654D01*
X162096983Y-69476394D01*
X162096877Y-69480936D01*
X162088175Y-69515730D01*
X162064165Y-69539147D01*
X162022900Y-69552347D01*
X161962431Y-69556489D01*
X161893956Y-69556489D01*
X161893956Y-69594841D01*
X161894006Y-69603976D01*
X161896227Y-69621227D01*
X161905494Y-69631521D01*
X161926875Y-69638459D01*
X161965436Y-69645641D01*
X161970910Y-69646575D01*
X162067860Y-69656478D01*
X162157852Y-69653559D01*
X162238760Y-69638829D01*
X162308459Y-69613299D01*
X162364824Y-69577978D01*
X162405729Y-69533879D01*
X162429051Y-69482012D01*
X162432663Y-69423388D01*
X162427145Y-69394494D01*
X162400461Y-69338604D01*
X162354273Y-69292945D01*
X162289291Y-69258108D01*
X162206229Y-69234690D01*
X162181555Y-69230241D01*
X162092226Y-69219742D01*
X162012419Y-69220971D01*
X161934326Y-69233906D01*
X161899183Y-69240696D01*
X161853745Y-69241713D01*
X161822430Y-69229182D01*
X161802277Y-69202395D01*
X161795893Y-69174148D01*
X161805379Y-69142924D01*
X161814708Y-69129499D01*
X161848943Y-69105967D01*
X161901565Y-69088095D01*
X161970081Y-69076599D01*
X162052000Y-69072192D01*
X162149150Y-69076179D01*
G36*
X162149150Y-69076179D02*
G01*
X162255157Y-69092494D01*
X162348969Y-69120545D01*
X162427765Y-69159452D01*
X162488719Y-69208334D01*
X162514789Y-69241195D01*
X162544297Y-69290394D01*
X162569568Y-69344252D01*
X162587218Y-69395419D01*
X162593858Y-69436544D01*
X162592298Y-69456259D01*
X162579357Y-69507592D01*
X162556194Y-69564118D01*
X162526302Y-69618035D01*
X162493173Y-69661539D01*
X162482977Y-69671887D01*
X162415892Y-69723662D01*
X162335766Y-69763554D01*
X162249556Y-69787956D01*
X162194592Y-69796068D01*
X162101139Y-69802673D01*
X162011358Y-69800586D01*
X161928869Y-69790340D01*
X161857286Y-69772470D01*
X161800228Y-69747508D01*
X161761311Y-69715988D01*
X161759936Y-69714012D01*
X161752848Y-69688786D01*
X161748609Y-69641535D01*
X161747200Y-69572071D01*
X161748060Y-69509838D01*
X161752780Y-69462456D01*
X161764470Y-69430353D01*
X161786239Y-69410800D01*
X161821198Y-69401070D01*
X161872456Y-69398433D01*
X161943123Y-69400161D01*
X161991743Y-69403173D01*
X162041939Y-69411366D01*
X162074433Y-69425419D01*
X162091892Y-69446654D01*
X162096983Y-69476394D01*
X162096877Y-69480936D01*
X162088175Y-69515730D01*
X162064165Y-69539147D01*
X162022900Y-69552347D01*
X161962431Y-69556489D01*
X161893956Y-69556489D01*
X161893956Y-69594841D01*
X161894006Y-69603976D01*
X161896227Y-69621227D01*
X161905494Y-69631521D01*
X161926875Y-69638459D01*
X161965436Y-69645641D01*
X161970910Y-69646575D01*
X162067860Y-69656478D01*
X162157852Y-69653559D01*
X162238760Y-69638829D01*
X162308459Y-69613299D01*
X162364824Y-69577978D01*
X162405729Y-69533879D01*
X162429051Y-69482012D01*
X162432663Y-69423388D01*
X162427145Y-69394494D01*
X162400461Y-69338604D01*
X162354273Y-69292945D01*
X162289291Y-69258108D01*
X162206229Y-69234690D01*
X162181555Y-69230241D01*
X162092226Y-69219742D01*
X162012419Y-69220971D01*
X161934326Y-69233906D01*
X161899183Y-69240696D01*
X161853745Y-69241713D01*
X161822430Y-69229182D01*
X161802277Y-69202395D01*
X161795893Y-69174148D01*
X161805379Y-69142924D01*
X161814708Y-69129499D01*
X161848943Y-69105967D01*
X161901565Y-69088095D01*
X161970081Y-69076599D01*
X162052000Y-69072192D01*
X162149150Y-69076179D01*
G37*
X160199803Y-69100811D02*
X160204752Y-69107495D01*
X160210596Y-69118066D01*
X160215057Y-69132153D01*
X160218321Y-69152478D01*
X160220574Y-69181765D01*
X160222002Y-69222737D01*
X160222792Y-69278117D01*
X160223129Y-69350628D01*
X160223200Y-69442994D01*
X160223171Y-69508911D01*
X160222939Y-69587228D01*
X160222319Y-69647496D01*
X160221126Y-69692393D01*
X160219179Y-69724602D01*
X160216294Y-69746800D01*
X160212288Y-69761669D01*
X160206979Y-69771889D01*
X160200183Y-69780138D01*
X160195668Y-69784795D01*
X160187438Y-69791282D01*
X160176078Y-69796194D01*
X160158810Y-69799749D01*
X160132855Y-69802167D01*
X160095436Y-69803667D01*
X160043773Y-69804467D01*
X159975089Y-69804787D01*
X159886606Y-69804845D01*
X159866931Y-69804838D01*
X159779906Y-69804572D01*
X159712254Y-69803806D01*
X159661299Y-69802392D01*
X159624367Y-69800180D01*
X159598783Y-69797022D01*
X159581871Y-69792769D01*
X159570957Y-69787271D01*
X159560464Y-69777285D01*
X159547203Y-69746168D01*
X159548386Y-69710280D01*
X159564550Y-69678733D01*
X159566739Y-69676457D01*
X159575427Y-69670189D01*
X159588769Y-69665523D01*
X159609752Y-69662227D01*
X159641363Y-69660068D01*
X159686590Y-69658814D01*
X159748420Y-69658231D01*
X159829839Y-69658089D01*
X160076445Y-69658089D01*
X160076445Y-69500045D01*
X159914006Y-69500045D01*
X159878338Y-69499964D01*
X159822568Y-69499167D01*
X159783430Y-69497162D01*
X159756976Y-69493521D01*
X159739259Y-69487812D01*
X159726329Y-69479607D01*
X159722686Y-69476423D01*
X159704278Y-69445448D01*
X159703644Y-69409112D01*
X159721183Y-69375493D01*
X159721245Y-69375424D01*
X159730916Y-69366798D01*
X159744209Y-69360742D01*
X159764917Y-69356811D01*
X159796828Y-69354556D01*
X159843734Y-69353531D01*
X159909424Y-69353289D01*
X160077571Y-69353289D01*
X160074186Y-69288378D01*
X160070800Y-69223467D01*
X159828723Y-69220414D01*
X159803707Y-69220086D01*
X159722087Y-69218606D01*
X159659768Y-69216222D01*
X159614154Y-69212227D01*
X159582652Y-69205913D01*
X159562667Y-69196574D01*
X159551604Y-69183503D01*
X159546869Y-69165992D01*
X159545867Y-69143335D01*
X159545873Y-69140970D01*
X159547027Y-69120939D01*
X159551824Y-69105146D01*
X159562632Y-69093090D01*
X159581817Y-69084267D01*
X159611745Y-69078175D01*
X159654783Y-69074311D01*
X159713299Y-69072174D01*
X159789657Y-69071260D01*
X159886226Y-69071067D01*
X160176406Y-69071067D01*
X160199803Y-69100811D01*
G36*
X160199803Y-69100811D02*
G01*
X160204752Y-69107495D01*
X160210596Y-69118066D01*
X160215057Y-69132153D01*
X160218321Y-69152478D01*
X160220574Y-69181765D01*
X160222002Y-69222737D01*
X160222792Y-69278117D01*
X160223129Y-69350628D01*
X160223200Y-69442994D01*
X160223171Y-69508911D01*
X160222939Y-69587228D01*
X160222319Y-69647496D01*
X160221126Y-69692393D01*
X160219179Y-69724602D01*
X160216294Y-69746800D01*
X160212288Y-69761669D01*
X160206979Y-69771889D01*
X160200183Y-69780138D01*
X160195668Y-69784795D01*
X160187438Y-69791282D01*
X160176078Y-69796194D01*
X160158810Y-69799749D01*
X160132855Y-69802167D01*
X160095436Y-69803667D01*
X160043773Y-69804467D01*
X159975089Y-69804787D01*
X159886606Y-69804845D01*
X159866931Y-69804838D01*
X159779906Y-69804572D01*
X159712254Y-69803806D01*
X159661299Y-69802392D01*
X159624367Y-69800180D01*
X159598783Y-69797022D01*
X159581871Y-69792769D01*
X159570957Y-69787271D01*
X159560464Y-69777285D01*
X159547203Y-69746168D01*
X159548386Y-69710280D01*
X159564550Y-69678733D01*
X159566739Y-69676457D01*
X159575427Y-69670189D01*
X159588769Y-69665523D01*
X159609752Y-69662227D01*
X159641363Y-69660068D01*
X159686590Y-69658814D01*
X159748420Y-69658231D01*
X159829839Y-69658089D01*
X160076445Y-69658089D01*
X160076445Y-69500045D01*
X159914006Y-69500045D01*
X159878338Y-69499964D01*
X159822568Y-69499167D01*
X159783430Y-69497162D01*
X159756976Y-69493521D01*
X159739259Y-69487812D01*
X159726329Y-69479607D01*
X159722686Y-69476423D01*
X159704278Y-69445448D01*
X159703644Y-69409112D01*
X159721183Y-69375493D01*
X159721245Y-69375424D01*
X159730916Y-69366798D01*
X159744209Y-69360742D01*
X159764917Y-69356811D01*
X159796828Y-69354556D01*
X159843734Y-69353531D01*
X159909424Y-69353289D01*
X160077571Y-69353289D01*
X160074186Y-69288378D01*
X160070800Y-69223467D01*
X159828723Y-69220414D01*
X159803707Y-69220086D01*
X159722087Y-69218606D01*
X159659768Y-69216222D01*
X159614154Y-69212227D01*
X159582652Y-69205913D01*
X159562667Y-69196574D01*
X159551604Y-69183503D01*
X159546869Y-69165992D01*
X159545867Y-69143335D01*
X159545873Y-69140970D01*
X159547027Y-69120939D01*
X159551824Y-69105146D01*
X159562632Y-69093090D01*
X159581817Y-69084267D01*
X159611745Y-69078175D01*
X159654783Y-69074311D01*
X159713299Y-69072174D01*
X159789657Y-69071260D01*
X159886226Y-69071067D01*
X160176406Y-69071067D01*
X160199803Y-69100811D01*
G37*
X164876734Y-69071083D02*
X164953831Y-69071275D01*
X165012777Y-69071860D01*
X165056364Y-69073051D01*
X165087383Y-69075064D01*
X165108625Y-69078112D01*
X165122882Y-69082409D01*
X165132945Y-69088172D01*
X165141606Y-69095612D01*
X165143391Y-69097293D01*
X165150635Y-69104832D01*
X165156277Y-69113850D01*
X165160517Y-69126984D01*
X165163556Y-69146872D01*
X165165594Y-69176151D01*
X165166830Y-69217458D01*
X165167465Y-69273431D01*
X165167700Y-69346707D01*
X165167734Y-69439923D01*
X165167697Y-69512713D01*
X165167448Y-69590889D01*
X165166812Y-69651103D01*
X165165615Y-69695982D01*
X165163684Y-69728152D01*
X165160846Y-69750239D01*
X165156927Y-69764870D01*
X165151755Y-69774670D01*
X165145156Y-69782267D01*
X165141822Y-69785444D01*
X165133300Y-69791554D01*
X165121298Y-69796229D01*
X165103087Y-69799659D01*
X165075940Y-69802036D01*
X165037129Y-69803552D01*
X164983924Y-69804398D01*
X164913598Y-69804765D01*
X164823422Y-69804845D01*
X164781314Y-69804833D01*
X164700167Y-69804651D01*
X164637675Y-69804098D01*
X164591109Y-69802982D01*
X164557741Y-69801113D01*
X164534844Y-69798298D01*
X164519688Y-69794346D01*
X164509546Y-69789066D01*
X164501689Y-69782267D01*
X164486963Y-69760667D01*
X164479111Y-69731467D01*
X164484610Y-69707560D01*
X164501689Y-69680667D01*
X164506668Y-69676059D01*
X164516443Y-69669772D01*
X164530559Y-69665146D01*
X164552054Y-69661930D01*
X164583968Y-69659870D01*
X164629342Y-69658712D01*
X164691213Y-69658202D01*
X164772622Y-69658089D01*
X165020978Y-69658089D01*
X165020978Y-69500045D01*
X164859801Y-69500045D01*
X164823983Y-69499899D01*
X164758359Y-69498176D01*
X164711118Y-69493741D01*
X164679383Y-69485637D01*
X164660277Y-69472906D01*
X164650923Y-69454592D01*
X164648445Y-69429738D01*
X164649242Y-69409482D01*
X164654494Y-69387656D01*
X164667288Y-69372304D01*
X164690628Y-69362309D01*
X164727517Y-69356553D01*
X164780959Y-69353919D01*
X164853958Y-69353289D01*
X165022105Y-69353289D01*
X165018719Y-69288378D01*
X165015334Y-69223467D01*
X164767617Y-69220418D01*
X164705026Y-69219539D01*
X164636565Y-69218095D01*
X164585661Y-69216164D01*
X164549408Y-69213514D01*
X164524901Y-69209910D01*
X164509235Y-69205121D01*
X164499506Y-69198913D01*
X164493491Y-69192510D01*
X164480482Y-69160828D01*
X164484043Y-69125142D01*
X164503818Y-69094084D01*
X164507069Y-69091161D01*
X164516049Y-69084810D01*
X164528153Y-69079957D01*
X164546159Y-69076403D01*
X164572847Y-69073946D01*
X164610997Y-69072385D01*
X164663386Y-69071518D01*
X164732794Y-69071146D01*
X164822001Y-69071067D01*
X164876734Y-69071083D01*
G36*
X164876734Y-69071083D02*
G01*
X164953831Y-69071275D01*
X165012777Y-69071860D01*
X165056364Y-69073051D01*
X165087383Y-69075064D01*
X165108625Y-69078112D01*
X165122882Y-69082409D01*
X165132945Y-69088172D01*
X165141606Y-69095612D01*
X165143391Y-69097293D01*
X165150635Y-69104832D01*
X165156277Y-69113850D01*
X165160517Y-69126984D01*
X165163556Y-69146872D01*
X165165594Y-69176151D01*
X165166830Y-69217458D01*
X165167465Y-69273431D01*
X165167700Y-69346707D01*
X165167734Y-69439923D01*
X165167697Y-69512713D01*
X165167448Y-69590889D01*
X165166812Y-69651103D01*
X165165615Y-69695982D01*
X165163684Y-69728152D01*
X165160846Y-69750239D01*
X165156927Y-69764870D01*
X165151755Y-69774670D01*
X165145156Y-69782267D01*
X165141822Y-69785444D01*
X165133300Y-69791554D01*
X165121298Y-69796229D01*
X165103087Y-69799659D01*
X165075940Y-69802036D01*
X165037129Y-69803552D01*
X164983924Y-69804398D01*
X164913598Y-69804765D01*
X164823422Y-69804845D01*
X164781314Y-69804833D01*
X164700167Y-69804651D01*
X164637675Y-69804098D01*
X164591109Y-69802982D01*
X164557741Y-69801113D01*
X164534844Y-69798298D01*
X164519688Y-69794346D01*
X164509546Y-69789066D01*
X164501689Y-69782267D01*
X164486963Y-69760667D01*
X164479111Y-69731467D01*
X164484610Y-69707560D01*
X164501689Y-69680667D01*
X164506668Y-69676059D01*
X164516443Y-69669772D01*
X164530559Y-69665146D01*
X164552054Y-69661930D01*
X164583968Y-69659870D01*
X164629342Y-69658712D01*
X164691213Y-69658202D01*
X164772622Y-69658089D01*
X165020978Y-69658089D01*
X165020978Y-69500045D01*
X164859801Y-69500045D01*
X164823983Y-69499899D01*
X164758359Y-69498176D01*
X164711118Y-69493741D01*
X164679383Y-69485637D01*
X164660277Y-69472906D01*
X164650923Y-69454592D01*
X164648445Y-69429738D01*
X164649242Y-69409482D01*
X164654494Y-69387656D01*
X164667288Y-69372304D01*
X164690628Y-69362309D01*
X164727517Y-69356553D01*
X164780959Y-69353919D01*
X164853958Y-69353289D01*
X165022105Y-69353289D01*
X165018719Y-69288378D01*
X165015334Y-69223467D01*
X164767617Y-69220418D01*
X164705026Y-69219539D01*
X164636565Y-69218095D01*
X164585661Y-69216164D01*
X164549408Y-69213514D01*
X164524901Y-69209910D01*
X164509235Y-69205121D01*
X164499506Y-69198913D01*
X164493491Y-69192510D01*
X164480482Y-69160828D01*
X164484043Y-69125142D01*
X164503818Y-69094084D01*
X164507069Y-69091161D01*
X164516049Y-69084810D01*
X164528153Y-69079957D01*
X164546159Y-69076403D01*
X164572847Y-69073946D01*
X164610997Y-69072385D01*
X164663386Y-69071518D01*
X164732794Y-69071146D01*
X164822001Y-69071067D01*
X164876734Y-69071083D01*
G37*
X156309702Y-69080478D02*
X156327663Y-69098989D01*
X156348263Y-69130071D01*
X156373095Y-69175756D01*
X156403750Y-69238078D01*
X156441820Y-69319071D01*
X156456454Y-69350454D01*
X156486203Y-69413638D01*
X156512297Y-69468244D01*
X156533292Y-69511290D01*
X156547739Y-69539793D01*
X156554191Y-69550770D01*
X156555550Y-69550189D01*
X156565542Y-69536242D01*
X156582833Y-69506704D01*
X156605430Y-69465087D01*
X156631338Y-69414903D01*
X156647311Y-69383414D01*
X156676261Y-69328061D01*
X156698749Y-69289044D01*
X156716965Y-69263566D01*
X156733096Y-69248831D01*
X156749330Y-69242042D01*
X156767857Y-69240400D01*
X156778360Y-69240875D01*
X156794476Y-69245082D01*
X156809790Y-69255946D01*
X156826388Y-69276219D01*
X156846357Y-69308654D01*
X156871783Y-69356004D01*
X156904752Y-69421022D01*
X156914485Y-69440277D01*
X156938943Y-69486946D01*
X156959178Y-69523109D01*
X156973311Y-69545497D01*
X156979460Y-69550845D01*
X156980827Y-69547573D01*
X156990202Y-69526664D01*
X157007062Y-69489725D01*
X157029979Y-69439874D01*
X157057520Y-69380226D01*
X157088255Y-69313898D01*
X157114970Y-69256677D01*
X157144593Y-69194688D01*
X157167664Y-69148949D01*
X157185643Y-69116908D01*
X157199990Y-69096014D01*
X157212166Y-69083718D01*
X157223632Y-69077466D01*
X157233042Y-69074574D01*
X157258147Y-69074425D01*
X157285290Y-69089768D01*
X157286590Y-69090753D01*
X157308674Y-69113388D01*
X157319723Y-69135613D01*
X157319769Y-69136253D01*
X157315228Y-69153915D01*
X157302364Y-69188481D01*
X157282605Y-69236826D01*
X157257381Y-69295825D01*
X157228119Y-69362355D01*
X157196250Y-69433291D01*
X157163201Y-69505507D01*
X157130401Y-69575880D01*
X157099280Y-69641285D01*
X157071265Y-69698597D01*
X157047786Y-69744692D01*
X157030272Y-69776446D01*
X157020151Y-69790733D01*
X156985743Y-69804102D01*
X156944046Y-69797741D01*
X156938681Y-69793044D01*
X156922852Y-69770893D01*
X156900650Y-69734132D01*
X156874233Y-69686415D01*
X156845760Y-69631393D01*
X156765986Y-69472150D01*
X156692799Y-69618742D01*
X156683103Y-69638032D01*
X156656125Y-69690380D01*
X156632096Y-69735170D01*
X156613332Y-69768154D01*
X156602146Y-69785089D01*
X156601000Y-69786332D01*
X156572879Y-69801619D01*
X156537817Y-69803302D01*
X156506776Y-69790733D01*
X156504350Y-69787884D01*
X156492090Y-69767259D01*
X156472352Y-69729708D01*
X156446448Y-69677880D01*
X156415685Y-69614423D01*
X156381375Y-69541985D01*
X156344825Y-69463216D01*
X156324585Y-69419093D01*
X156287812Y-69338365D01*
X156259355Y-69274687D01*
X156238331Y-69225752D01*
X156223854Y-69189257D01*
X156215039Y-69162895D01*
X156211004Y-69144361D01*
X156210862Y-69131352D01*
X156213730Y-69121561D01*
X156228387Y-69100678D01*
X156254990Y-69080377D01*
X156255745Y-69080035D01*
X156275335Y-69073034D01*
X156292790Y-69072504D01*
X156309702Y-69080478D01*
G36*
X156309702Y-69080478D02*
G01*
X156327663Y-69098989D01*
X156348263Y-69130071D01*
X156373095Y-69175756D01*
X156403750Y-69238078D01*
X156441820Y-69319071D01*
X156456454Y-69350454D01*
X156486203Y-69413638D01*
X156512297Y-69468244D01*
X156533292Y-69511290D01*
X156547739Y-69539793D01*
X156554191Y-69550770D01*
X156555550Y-69550189D01*
X156565542Y-69536242D01*
X156582833Y-69506704D01*
X156605430Y-69465087D01*
X156631338Y-69414903D01*
X156647311Y-69383414D01*
X156676261Y-69328061D01*
X156698749Y-69289044D01*
X156716965Y-69263566D01*
X156733096Y-69248831D01*
X156749330Y-69242042D01*
X156767857Y-69240400D01*
X156778360Y-69240875D01*
X156794476Y-69245082D01*
X156809790Y-69255946D01*
X156826388Y-69276219D01*
X156846357Y-69308654D01*
X156871783Y-69356004D01*
X156904752Y-69421022D01*
X156914485Y-69440277D01*
X156938943Y-69486946D01*
X156959178Y-69523109D01*
X156973311Y-69545497D01*
X156979460Y-69550845D01*
X156980827Y-69547573D01*
X156990202Y-69526664D01*
X157007062Y-69489725D01*
X157029979Y-69439874D01*
X157057520Y-69380226D01*
X157088255Y-69313898D01*
X157114970Y-69256677D01*
X157144593Y-69194688D01*
X157167664Y-69148949D01*
X157185643Y-69116908D01*
X157199990Y-69096014D01*
X157212166Y-69083718D01*
X157223632Y-69077466D01*
X157233042Y-69074574D01*
X157258147Y-69074425D01*
X157285290Y-69089768D01*
X157286590Y-69090753D01*
X157308674Y-69113388D01*
X157319723Y-69135613D01*
X157319769Y-69136253D01*
X157315228Y-69153915D01*
X157302364Y-69188481D01*
X157282605Y-69236826D01*
X157257381Y-69295825D01*
X157228119Y-69362355D01*
X157196250Y-69433291D01*
X157163201Y-69505507D01*
X157130401Y-69575880D01*
X157099280Y-69641285D01*
X157071265Y-69698597D01*
X157047786Y-69744692D01*
X157030272Y-69776446D01*
X157020151Y-69790733D01*
X156985743Y-69804102D01*
X156944046Y-69797741D01*
X156938681Y-69793044D01*
X156922852Y-69770893D01*
X156900650Y-69734132D01*
X156874233Y-69686415D01*
X156845760Y-69631393D01*
X156765986Y-69472150D01*
X156692799Y-69618742D01*
X156683103Y-69638032D01*
X156656125Y-69690380D01*
X156632096Y-69735170D01*
X156613332Y-69768154D01*
X156602146Y-69785089D01*
X156601000Y-69786332D01*
X156572879Y-69801619D01*
X156537817Y-69803302D01*
X156506776Y-69790733D01*
X156504350Y-69787884D01*
X156492090Y-69767259D01*
X156472352Y-69729708D01*
X156446448Y-69677880D01*
X156415685Y-69614423D01*
X156381375Y-69541985D01*
X156344825Y-69463216D01*
X156324585Y-69419093D01*
X156287812Y-69338365D01*
X156259355Y-69274687D01*
X156238331Y-69225752D01*
X156223854Y-69189257D01*
X156215039Y-69162895D01*
X156211004Y-69144361D01*
X156210862Y-69131352D01*
X156213730Y-69121561D01*
X156228387Y-69100678D01*
X156254990Y-69080377D01*
X156255745Y-69080035D01*
X156275335Y-69073034D01*
X156292790Y-69072504D01*
X156309702Y-69080478D01*
G37*
X163860853Y-69071936D02*
X163927100Y-69077366D01*
X163982400Y-69086964D01*
X164033283Y-69101825D01*
X164104595Y-69134958D01*
X164155752Y-69177640D01*
X164186575Y-69229705D01*
X164196889Y-69290983D01*
X164195952Y-69322232D01*
X164190160Y-69347029D01*
X164175353Y-69368699D01*
X164147380Y-69396049D01*
X164139402Y-69403378D01*
X164115692Y-69424281D01*
X164093298Y-69441251D01*
X164069265Y-69455205D01*
X164040637Y-69467056D01*
X164004460Y-69477720D01*
X163957780Y-69488111D01*
X163897641Y-69499146D01*
X163821090Y-69511738D01*
X163725171Y-69526804D01*
X163706808Y-69529838D01*
X163644478Y-69543458D01*
X163599260Y-69559192D01*
X163572976Y-69576263D01*
X163567447Y-69593897D01*
X163570068Y-69598168D01*
X163588000Y-69613233D01*
X163616126Y-69629867D01*
X163628926Y-69635857D01*
X163650224Y-69643050D01*
X163676610Y-69647827D01*
X163712454Y-69650646D01*
X163762128Y-69651964D01*
X163830000Y-69652237D01*
X163847785Y-69652164D01*
X163915406Y-69651053D01*
X163980345Y-69648828D01*
X164035970Y-69645762D01*
X164075651Y-69642127D01*
X164111162Y-69638059D01*
X164140415Y-69637276D01*
X164159315Y-69641876D01*
X164174429Y-69652551D01*
X164178085Y-69656144D01*
X164194427Y-69687918D01*
X164193107Y-69723572D01*
X164174150Y-69754190D01*
X164153780Y-69765796D01*
X164117796Y-69778491D01*
X164075372Y-69788541D01*
X164071922Y-69789140D01*
X164029252Y-69794356D01*
X163971866Y-69798730D01*
X163906849Y-69801818D01*
X163841289Y-69803177D01*
X163825057Y-69803218D01*
X163726744Y-69800741D01*
X163646692Y-69792735D01*
X163581513Y-69778203D01*
X163527817Y-69756149D01*
X163482216Y-69725576D01*
X163441323Y-69685486D01*
X163421202Y-69659259D01*
X163409576Y-69629712D01*
X163406667Y-69589995D01*
X163406808Y-69578026D01*
X163410681Y-69545345D01*
X163423065Y-69518819D01*
X163448230Y-69487971D01*
X163469442Y-69465831D01*
X163495838Y-69443285D01*
X163525555Y-69424917D01*
X163561785Y-69409661D01*
X163607717Y-69396449D01*
X163666544Y-69384214D01*
X163741456Y-69371889D01*
X163835645Y-69358406D01*
X163880957Y-69351396D01*
X163948911Y-69336837D01*
X163998047Y-69320337D01*
X164027614Y-69302439D01*
X164036864Y-69283685D01*
X164025048Y-69264615D01*
X163991416Y-69245771D01*
X163988370Y-69244557D01*
X163942011Y-69232479D01*
X163879361Y-69224279D01*
X163805927Y-69220119D01*
X163727217Y-69220161D01*
X163648739Y-69224569D01*
X163576000Y-69233505D01*
X163572073Y-69234154D01*
X163523257Y-69241861D01*
X163491005Y-69245473D01*
X163470008Y-69244876D01*
X163454954Y-69239954D01*
X163440534Y-69230596D01*
X163439364Y-69229725D01*
X163414847Y-69199351D01*
X163410054Y-69163850D01*
X163425860Y-69129269D01*
X163430406Y-69124813D01*
X163460020Y-69109673D01*
X163507002Y-69096550D01*
X163567306Y-69085750D01*
X163636888Y-69077581D01*
X163711703Y-69072351D01*
X163787706Y-69070367D01*
X163860853Y-69071936D01*
G36*
X163860853Y-69071936D02*
G01*
X163927100Y-69077366D01*
X163982400Y-69086964D01*
X164033283Y-69101825D01*
X164104595Y-69134958D01*
X164155752Y-69177640D01*
X164186575Y-69229705D01*
X164196889Y-69290983D01*
X164195952Y-69322232D01*
X164190160Y-69347029D01*
X164175353Y-69368699D01*
X164147380Y-69396049D01*
X164139402Y-69403378D01*
X164115692Y-69424281D01*
X164093298Y-69441251D01*
X164069265Y-69455205D01*
X164040637Y-69467056D01*
X164004460Y-69477720D01*
X163957780Y-69488111D01*
X163897641Y-69499146D01*
X163821090Y-69511738D01*
X163725171Y-69526804D01*
X163706808Y-69529838D01*
X163644478Y-69543458D01*
X163599260Y-69559192D01*
X163572976Y-69576263D01*
X163567447Y-69593897D01*
X163570068Y-69598168D01*
X163588000Y-69613233D01*
X163616126Y-69629867D01*
X163628926Y-69635857D01*
X163650224Y-69643050D01*
X163676610Y-69647827D01*
X163712454Y-69650646D01*
X163762128Y-69651964D01*
X163830000Y-69652237D01*
X163847785Y-69652164D01*
X163915406Y-69651053D01*
X163980345Y-69648828D01*
X164035970Y-69645762D01*
X164075651Y-69642127D01*
X164111162Y-69638059D01*
X164140415Y-69637276D01*
X164159315Y-69641876D01*
X164174429Y-69652551D01*
X164178085Y-69656144D01*
X164194427Y-69687918D01*
X164193107Y-69723572D01*
X164174150Y-69754190D01*
X164153780Y-69765796D01*
X164117796Y-69778491D01*
X164075372Y-69788541D01*
X164071922Y-69789140D01*
X164029252Y-69794356D01*
X163971866Y-69798730D01*
X163906849Y-69801818D01*
X163841289Y-69803177D01*
X163825057Y-69803218D01*
X163726744Y-69800741D01*
X163646692Y-69792735D01*
X163581513Y-69778203D01*
X163527817Y-69756149D01*
X163482216Y-69725576D01*
X163441323Y-69685486D01*
X163421202Y-69659259D01*
X163409576Y-69629712D01*
X163406667Y-69589995D01*
X163406808Y-69578026D01*
X163410681Y-69545345D01*
X163423065Y-69518819D01*
X163448230Y-69487971D01*
X163469442Y-69465831D01*
X163495838Y-69443285D01*
X163525555Y-69424917D01*
X163561785Y-69409661D01*
X163607717Y-69396449D01*
X163666544Y-69384214D01*
X163741456Y-69371889D01*
X163835645Y-69358406D01*
X163880957Y-69351396D01*
X163948911Y-69336837D01*
X163998047Y-69320337D01*
X164027614Y-69302439D01*
X164036864Y-69283685D01*
X164025048Y-69264615D01*
X163991416Y-69245771D01*
X163988370Y-69244557D01*
X163942011Y-69232479D01*
X163879361Y-69224279D01*
X163805927Y-69220119D01*
X163727217Y-69220161D01*
X163648739Y-69224569D01*
X163576000Y-69233505D01*
X163572073Y-69234154D01*
X163523257Y-69241861D01*
X163491005Y-69245473D01*
X163470008Y-69244876D01*
X163454954Y-69239954D01*
X163440534Y-69230596D01*
X163439364Y-69229725D01*
X163414847Y-69199351D01*
X163410054Y-69163850D01*
X163425860Y-69129269D01*
X163430406Y-69124813D01*
X163460020Y-69109673D01*
X163507002Y-69096550D01*
X163567306Y-69085750D01*
X163636888Y-69077581D01*
X163711703Y-69072351D01*
X163787706Y-69070367D01*
X163860853Y-69071936D01*
G37*
X160008711Y-64764033D02*
X160104268Y-64781523D01*
X160268558Y-64826564D01*
X160422589Y-64889656D01*
X160568509Y-64971915D01*
X160708466Y-65074457D01*
X160844608Y-65198399D01*
X160888473Y-65243661D01*
X161000758Y-65375865D01*
X161093972Y-65513832D01*
X161170719Y-65661750D01*
X161233603Y-65823803D01*
X161237420Y-65835391D01*
X161287507Y-66021392D01*
X161320899Y-66217521D01*
X161337584Y-66419568D01*
X161337551Y-66623325D01*
X161320791Y-66824581D01*
X161287292Y-67019128D01*
X161237044Y-67202756D01*
X161193190Y-67320053D01*
X161115348Y-67482951D01*
X161021828Y-67636866D01*
X160914822Y-67778671D01*
X160796519Y-67905239D01*
X160669111Y-68013441D01*
X160591606Y-68066120D01*
X160464725Y-68135750D01*
X160327243Y-68194468D01*
X160185716Y-68239587D01*
X160046702Y-68268422D01*
X160032597Y-68270106D01*
X159989153Y-68273434D01*
X159931723Y-68276275D01*
X159866122Y-68278373D01*
X159798167Y-68279468D01*
X159671378Y-68277140D01*
X159523673Y-68264136D01*
X159385779Y-68239133D01*
X159252014Y-68201318D01*
X159228562Y-68192889D01*
X159180612Y-68173408D01*
X159124140Y-68148473D01*
X159062379Y-68119722D01*
X158998563Y-68088790D01*
X158935926Y-68057315D01*
X158877703Y-68026934D01*
X158827127Y-67999283D01*
X158787433Y-67975999D01*
X158761854Y-67958718D01*
X158753625Y-67949079D01*
X158755076Y-67945984D01*
X158766250Y-67926079D01*
X158787134Y-67890420D01*
X158816265Y-67841459D01*
X158852181Y-67781646D01*
X158893420Y-67713433D01*
X158938517Y-67639271D01*
X159119785Y-67342008D01*
X159166315Y-67386539D01*
X159257723Y-67464865D01*
X159371334Y-67539439D01*
X159489122Y-67593474D01*
X159609559Y-67626290D01*
X159731117Y-67637211D01*
X159772585Y-67635868D01*
X159890080Y-67617612D01*
X160000089Y-67578617D01*
X160101430Y-67519670D01*
X160192921Y-67441557D01*
X160273380Y-67345064D01*
X160341627Y-67230978D01*
X160357908Y-67196724D01*
X160403982Y-67073240D01*
X160439106Y-66934918D01*
X160463197Y-66785561D01*
X160476173Y-66628973D01*
X160477949Y-66468956D01*
X160468443Y-66309314D01*
X160447572Y-66153850D01*
X160415252Y-66006366D01*
X160371399Y-65870667D01*
X160333982Y-65784076D01*
X160269185Y-65670688D01*
X160193772Y-65577070D01*
X160107418Y-65502959D01*
X160009795Y-65448094D01*
X159900577Y-65412212D01*
X159779439Y-65395051D01*
X159710038Y-65393880D01*
X159587168Y-65408141D01*
X159471664Y-65443241D01*
X159364953Y-65498682D01*
X159268464Y-65573964D01*
X159252720Y-65588440D01*
X159222150Y-65614962D01*
X159199809Y-65632138D01*
X159189691Y-65636787D01*
X159187706Y-65634597D01*
X159173241Y-65615721D01*
X159149400Y-65582397D01*
X159118029Y-65537380D01*
X159080974Y-65483425D01*
X159040083Y-65423285D01*
X158997202Y-65359718D01*
X158954178Y-65295476D01*
X158912857Y-65233315D01*
X158875086Y-65175991D01*
X158842712Y-65126257D01*
X158817582Y-65086868D01*
X158801542Y-65060580D01*
X158796439Y-65050147D01*
X158801050Y-65045941D01*
X158820267Y-65040933D01*
X158829838Y-65038386D01*
X158857809Y-65027249D01*
X158899448Y-65008802D01*
X158950995Y-64984725D01*
X159008690Y-64956699D01*
X159019957Y-64951154D01*
X159197687Y-64871889D01*
X159367490Y-64812385D01*
X159531430Y-64772245D01*
X159691571Y-64751071D01*
X159849977Y-64748466D01*
X160008711Y-64764033D01*
G36*
X160008711Y-64764033D02*
G01*
X160104268Y-64781523D01*
X160268558Y-64826564D01*
X160422589Y-64889656D01*
X160568509Y-64971915D01*
X160708466Y-65074457D01*
X160844608Y-65198399D01*
X160888473Y-65243661D01*
X161000758Y-65375865D01*
X161093972Y-65513832D01*
X161170719Y-65661750D01*
X161233603Y-65823803D01*
X161237420Y-65835391D01*
X161287507Y-66021392D01*
X161320899Y-66217521D01*
X161337584Y-66419568D01*
X161337551Y-66623325D01*
X161320791Y-66824581D01*
X161287292Y-67019128D01*
X161237044Y-67202756D01*
X161193190Y-67320053D01*
X161115348Y-67482951D01*
X161021828Y-67636866D01*
X160914822Y-67778671D01*
X160796519Y-67905239D01*
X160669111Y-68013441D01*
X160591606Y-68066120D01*
X160464725Y-68135750D01*
X160327243Y-68194468D01*
X160185716Y-68239587D01*
X160046702Y-68268422D01*
X160032597Y-68270106D01*
X159989153Y-68273434D01*
X159931723Y-68276275D01*
X159866122Y-68278373D01*
X159798167Y-68279468D01*
X159671378Y-68277140D01*
X159523673Y-68264136D01*
X159385779Y-68239133D01*
X159252014Y-68201318D01*
X159228562Y-68192889D01*
X159180612Y-68173408D01*
X159124140Y-68148473D01*
X159062379Y-68119722D01*
X158998563Y-68088790D01*
X158935926Y-68057315D01*
X158877703Y-68026934D01*
X158827127Y-67999283D01*
X158787433Y-67975999D01*
X158761854Y-67958718D01*
X158753625Y-67949079D01*
X158755076Y-67945984D01*
X158766250Y-67926079D01*
X158787134Y-67890420D01*
X158816265Y-67841459D01*
X158852181Y-67781646D01*
X158893420Y-67713433D01*
X158938517Y-67639271D01*
X159119785Y-67342008D01*
X159166315Y-67386539D01*
X159257723Y-67464865D01*
X159371334Y-67539439D01*
X159489122Y-67593474D01*
X159609559Y-67626290D01*
X159731117Y-67637211D01*
X159772585Y-67635868D01*
X159890080Y-67617612D01*
X160000089Y-67578617D01*
X160101430Y-67519670D01*
X160192921Y-67441557D01*
X160273380Y-67345064D01*
X160341627Y-67230978D01*
X160357908Y-67196724D01*
X160403982Y-67073240D01*
X160439106Y-66934918D01*
X160463197Y-66785561D01*
X160476173Y-66628973D01*
X160477949Y-66468956D01*
X160468443Y-66309314D01*
X160447572Y-66153850D01*
X160415252Y-66006366D01*
X160371399Y-65870667D01*
X160333982Y-65784076D01*
X160269185Y-65670688D01*
X160193772Y-65577070D01*
X160107418Y-65502959D01*
X160009795Y-65448094D01*
X159900577Y-65412212D01*
X159779439Y-65395051D01*
X159710038Y-65393880D01*
X159587168Y-65408141D01*
X159471664Y-65443241D01*
X159364953Y-65498682D01*
X159268464Y-65573964D01*
X159252720Y-65588440D01*
X159222150Y-65614962D01*
X159199809Y-65632138D01*
X159189691Y-65636787D01*
X159187706Y-65634597D01*
X159173241Y-65615721D01*
X159149400Y-65582397D01*
X159118029Y-65537380D01*
X159080974Y-65483425D01*
X159040083Y-65423285D01*
X158997202Y-65359718D01*
X158954178Y-65295476D01*
X158912857Y-65233315D01*
X158875086Y-65175991D01*
X158842712Y-65126257D01*
X158817582Y-65086868D01*
X158801542Y-65060580D01*
X158796439Y-65050147D01*
X158801050Y-65045941D01*
X158820267Y-65040933D01*
X158829838Y-65038386D01*
X158857809Y-65027249D01*
X158899448Y-65008802D01*
X158950995Y-64984725D01*
X159008690Y-64956699D01*
X159019957Y-64951154D01*
X159197687Y-64871889D01*
X159367490Y-64812385D01*
X159531430Y-64772245D01*
X159691571Y-64751071D01*
X159849977Y-64748466D01*
X160008711Y-64764033D01*
G37*
X156205994Y-67044711D02*
X156205268Y-67122158D01*
X156196689Y-67273594D01*
X156177833Y-67410283D01*
X156147837Y-67536276D01*
X156105836Y-67655625D01*
X156050969Y-67772381D01*
X155984167Y-67883179D01*
X155893363Y-67996739D01*
X155789708Y-68092211D01*
X155673887Y-68169073D01*
X155546586Y-68226797D01*
X155408489Y-68264858D01*
X155370793Y-68270666D01*
X155291752Y-68276396D01*
X155203629Y-68276583D01*
X155114236Y-68271539D01*
X155031384Y-68261578D01*
X154962887Y-68247012D01*
X154932035Y-68237364D01*
X154854730Y-68207123D01*
X154777679Y-68169617D01*
X154708200Y-68128614D01*
X154653615Y-68087879D01*
X154630916Y-68068505D01*
X154608201Y-68050662D01*
X154596779Y-68043778D01*
X154595537Y-68045424D01*
X154592728Y-68063205D01*
X154590776Y-68096370D01*
X154590045Y-68139733D01*
X154590045Y-68235689D01*
X153731896Y-68235689D01*
X153766161Y-68174974D01*
X153771355Y-68165868D01*
X153779715Y-68151249D01*
X153787288Y-68137173D01*
X153794112Y-68122540D01*
X153800227Y-68106249D01*
X153805673Y-68087198D01*
X153810487Y-68064286D01*
X153814708Y-68036413D01*
X153818377Y-68002478D01*
X153821531Y-67961379D01*
X153824211Y-67912015D01*
X153826454Y-67853286D01*
X153828299Y-67784090D01*
X153829787Y-67703326D01*
X153830955Y-67609894D01*
X153831678Y-67522721D01*
X154635200Y-67522721D01*
X154705756Y-67569089D01*
X154746417Y-67592791D01*
X154800546Y-67618639D01*
X154849689Y-67636829D01*
X154913165Y-67652551D01*
X155009331Y-67663541D01*
X155093900Y-67655365D01*
X155167219Y-67627805D01*
X155229637Y-67580642D01*
X155281502Y-67513658D01*
X155323160Y-67426633D01*
X155354962Y-67319350D01*
X155357545Y-67307009D01*
X155366000Y-67245772D01*
X155371663Y-67168692D01*
X155374576Y-67081002D01*
X155374783Y-66987934D01*
X155372330Y-66894720D01*
X155367261Y-66806594D01*
X155359619Y-66728788D01*
X155349448Y-66666533D01*
X155348167Y-66660666D01*
X155319126Y-66550121D01*
X155284610Y-66459575D01*
X155243456Y-66386953D01*
X155194499Y-66330181D01*
X155136574Y-66287184D01*
X155104620Y-66271615D01*
X155031784Y-66252722D01*
X154950443Y-66249465D01*
X154865319Y-66261389D01*
X154781133Y-66288040D01*
X154702608Y-66328962D01*
X154635200Y-66372530D01*
X154635200Y-67522721D01*
X153831678Y-67522721D01*
X153831844Y-67502692D01*
X153832491Y-67380620D01*
X153832936Y-67242576D01*
X153833218Y-67087459D01*
X153833375Y-66914168D01*
X153833448Y-66721603D01*
X153833474Y-66508662D01*
X153833493Y-66274245D01*
X153833689Y-64589378D01*
X154739017Y-64589378D01*
X154714585Y-64626067D01*
X154708318Y-64635647D01*
X154682208Y-64681981D01*
X154664469Y-64729102D01*
X154652908Y-64784251D01*
X154645331Y-64854667D01*
X154644839Y-64861650D01*
X154643062Y-64899641D01*
X154641444Y-64953576D01*
X154639999Y-65020703D01*
X154638740Y-65098271D01*
X154637680Y-65183528D01*
X154636829Y-65273724D01*
X154636203Y-65366107D01*
X154635812Y-65457925D01*
X154635670Y-65546427D01*
X154635790Y-65628862D01*
X154636183Y-65702479D01*
X154636862Y-65764526D01*
X154637841Y-65812251D01*
X154639132Y-65842904D01*
X154640747Y-65853733D01*
X154648957Y-65849333D01*
X154670647Y-65834362D01*
X154700014Y-65812448D01*
X154748879Y-65778236D01*
X154837125Y-65731714D01*
X154935916Y-65698046D01*
X155048510Y-65676231D01*
X155178164Y-65665265D01*
X155270670Y-65664219D01*
X155392011Y-65674014D01*
X155502099Y-65698174D01*
X155605389Y-65737785D01*
X155706338Y-65793932D01*
X155751503Y-65824883D01*
X155856911Y-65916115D01*
X155948538Y-66025106D01*
X156026332Y-66151726D01*
X156090241Y-66295845D01*
X156140214Y-66457332D01*
X156176198Y-66636059D01*
X156198143Y-66831895D01*
X156203900Y-66987934D01*
X156205994Y-67044711D01*
G36*
X156205994Y-67044711D02*
G01*
X156205268Y-67122158D01*
X156196689Y-67273594D01*
X156177833Y-67410283D01*
X156147837Y-67536276D01*
X156105836Y-67655625D01*
X156050969Y-67772381D01*
X155984167Y-67883179D01*
X155893363Y-67996739D01*
X155789708Y-68092211D01*
X155673887Y-68169073D01*
X155546586Y-68226797D01*
X155408489Y-68264858D01*
X155370793Y-68270666D01*
X155291752Y-68276396D01*
X155203629Y-68276583D01*
X155114236Y-68271539D01*
X155031384Y-68261578D01*
X154962887Y-68247012D01*
X154932035Y-68237364D01*
X154854730Y-68207123D01*
X154777679Y-68169617D01*
X154708200Y-68128614D01*
X154653615Y-68087879D01*
X154630916Y-68068505D01*
X154608201Y-68050662D01*
X154596779Y-68043778D01*
X154595537Y-68045424D01*
X154592728Y-68063205D01*
X154590776Y-68096370D01*
X154590045Y-68139733D01*
X154590045Y-68235689D01*
X153731896Y-68235689D01*
X153766161Y-68174974D01*
X153771355Y-68165868D01*
X153779715Y-68151249D01*
X153787288Y-68137173D01*
X153794112Y-68122540D01*
X153800227Y-68106249D01*
X153805673Y-68087198D01*
X153810487Y-68064286D01*
X153814708Y-68036413D01*
X153818377Y-68002478D01*
X153821531Y-67961379D01*
X153824211Y-67912015D01*
X153826454Y-67853286D01*
X153828299Y-67784090D01*
X153829787Y-67703326D01*
X153830955Y-67609894D01*
X153831678Y-67522721D01*
X154635200Y-67522721D01*
X154705756Y-67569089D01*
X154746417Y-67592791D01*
X154800546Y-67618639D01*
X154849689Y-67636829D01*
X154913165Y-67652551D01*
X155009331Y-67663541D01*
X155093900Y-67655365D01*
X155167219Y-67627805D01*
X155229637Y-67580642D01*
X155281502Y-67513658D01*
X155323160Y-67426633D01*
X155354962Y-67319350D01*
X155357545Y-67307009D01*
X155366000Y-67245772D01*
X155371663Y-67168692D01*
X155374576Y-67081002D01*
X155374783Y-66987934D01*
X155372330Y-66894720D01*
X155367261Y-66806594D01*
X155359619Y-66728788D01*
X155349448Y-66666533D01*
X155348167Y-66660666D01*
X155319126Y-66550121D01*
X155284610Y-66459575D01*
X155243456Y-66386953D01*
X155194499Y-66330181D01*
X155136574Y-66287184D01*
X155104620Y-66271615D01*
X155031784Y-66252722D01*
X154950443Y-66249465D01*
X154865319Y-66261389D01*
X154781133Y-66288040D01*
X154702608Y-66328962D01*
X154635200Y-66372530D01*
X154635200Y-67522721D01*
X153831678Y-67522721D01*
X153831844Y-67502692D01*
X153832491Y-67380620D01*
X153832936Y-67242576D01*
X153833218Y-67087459D01*
X153833375Y-66914168D01*
X153833448Y-66721603D01*
X153833474Y-66508662D01*
X153833493Y-66274245D01*
X153833689Y-64589378D01*
X154739017Y-64589378D01*
X154714585Y-64626067D01*
X154708318Y-64635647D01*
X154682208Y-64681981D01*
X154664469Y-64729102D01*
X154652908Y-64784251D01*
X154645331Y-64854667D01*
X154644839Y-64861650D01*
X154643062Y-64899641D01*
X154641444Y-64953576D01*
X154639999Y-65020703D01*
X154638740Y-65098271D01*
X154637680Y-65183528D01*
X154636829Y-65273724D01*
X154636203Y-65366107D01*
X154635812Y-65457925D01*
X154635670Y-65546427D01*
X154635790Y-65628862D01*
X154636183Y-65702479D01*
X154636862Y-65764526D01*
X154637841Y-65812251D01*
X154639132Y-65842904D01*
X154640747Y-65853733D01*
X154648957Y-65849333D01*
X154670647Y-65834362D01*
X154700014Y-65812448D01*
X154748879Y-65778236D01*
X154837125Y-65731714D01*
X154935916Y-65698046D01*
X155048510Y-65676231D01*
X155178164Y-65665265D01*
X155270670Y-65664219D01*
X155392011Y-65674014D01*
X155502099Y-65698174D01*
X155605389Y-65737785D01*
X155706338Y-65793932D01*
X155751503Y-65824883D01*
X155856911Y-65916115D01*
X155948538Y-66025106D01*
X156026332Y-66151726D01*
X156090241Y-66295845D01*
X156140214Y-66457332D01*
X156176198Y-66636059D01*
X156198143Y-66831895D01*
X156203900Y-66987934D01*
X156205994Y-67044711D01*
G37*
X158747755Y-67445467D02*
X158747261Y-67479363D01*
X158743632Y-67554202D01*
X158736022Y-67616401D01*
X158723688Y-67672984D01*
X158679313Y-67799076D01*
X158616400Y-67913679D01*
X158536238Y-68014568D01*
X158439740Y-68100924D01*
X158327822Y-68171932D01*
X158201397Y-68226776D01*
X158061378Y-68264638D01*
X158025149Y-68270351D01*
X157946155Y-68276313D01*
X157857841Y-68276646D01*
X157768075Y-68271659D01*
X157684722Y-68261666D01*
X157615651Y-68246978D01*
X157529187Y-68216749D01*
X157419286Y-68162057D01*
X157321956Y-68094543D01*
X157259867Y-68043556D01*
X157256605Y-68139622D01*
X157253343Y-68235689D01*
X156830450Y-68235689D01*
X156819543Y-68235686D01*
X156725056Y-68235380D01*
X156638331Y-68234616D01*
X156561837Y-68233451D01*
X156498043Y-68231942D01*
X156449418Y-68230147D01*
X156418433Y-68228121D01*
X156407556Y-68225922D01*
X156407578Y-68225463D01*
X156414614Y-68209910D01*
X156430434Y-68187071D01*
X156434734Y-68181638D01*
X156445777Y-68167606D01*
X156455311Y-68154186D01*
X156463461Y-68139722D01*
X156470352Y-68122556D01*
X156476111Y-68101034D01*
X156480862Y-68073498D01*
X156484731Y-68038292D01*
X156487844Y-67993760D01*
X156490325Y-67938246D01*
X156492300Y-67870093D01*
X156493894Y-67787645D01*
X156495234Y-67689246D01*
X156496444Y-67573239D01*
X156496896Y-67522462D01*
X157299378Y-67522462D01*
X157344048Y-67578973D01*
X157356785Y-67594212D01*
X157403604Y-67636844D01*
X157464255Y-67672672D01*
X157474897Y-67677850D01*
X157513676Y-67694745D01*
X157548692Y-67704909D01*
X157588722Y-67710325D01*
X157642541Y-67712978D01*
X157660648Y-67713383D01*
X157736011Y-67710540D01*
X157796743Y-67698620D01*
X157848452Y-67676037D01*
X157896746Y-67641211D01*
X157901803Y-67636798D01*
X157950272Y-67581160D01*
X157978459Y-67517333D01*
X157987752Y-67442282D01*
X157980520Y-67370693D01*
X157955796Y-67307645D01*
X157911249Y-67249758D01*
X157856319Y-67202808D01*
X157783894Y-67162961D01*
X157697340Y-67135263D01*
X157594670Y-67119096D01*
X157473894Y-67113842D01*
X157465007Y-67113857D01*
X157409660Y-67114655D01*
X157362736Y-67116488D01*
X157328953Y-67119111D01*
X157313028Y-67122274D01*
X157308943Y-67128741D01*
X157304572Y-67150875D01*
X157301604Y-67189988D01*
X157299914Y-67247939D01*
X157299378Y-67326586D01*
X157299378Y-67522462D01*
X156496896Y-67522462D01*
X156497649Y-67437968D01*
X156498975Y-67281778D01*
X156500228Y-67139012D01*
X156501651Y-66993942D01*
X156503176Y-66868027D01*
X156504933Y-66759436D01*
X156507051Y-66666334D01*
X156509660Y-66586891D01*
X156512890Y-66519273D01*
X156516869Y-66461649D01*
X156521728Y-66412185D01*
X156527597Y-66369050D01*
X156534604Y-66330410D01*
X156542880Y-66294434D01*
X156552554Y-66259289D01*
X156563756Y-66223142D01*
X156576616Y-66184161D01*
X156592090Y-66141091D01*
X156634994Y-66048871D01*
X156688735Y-65969099D01*
X156757576Y-65894965D01*
X156835185Y-65831405D01*
X156939761Y-65769725D01*
X157059244Y-65722202D01*
X157194508Y-65688567D01*
X157346426Y-65668552D01*
X157515872Y-65661889D01*
X157573890Y-65662287D01*
X157639398Y-65664335D01*
X157700693Y-65668704D01*
X157762097Y-65676035D01*
X157827932Y-65686969D01*
X157902520Y-65702147D01*
X157990184Y-65722209D01*
X158095245Y-65747797D01*
X158123806Y-65754820D01*
X158199054Y-65772776D01*
X158269388Y-65788820D01*
X158330567Y-65802028D01*
X158378354Y-65811474D01*
X158408511Y-65816231D01*
X158436783Y-65819910D01*
X158463060Y-65825187D01*
X158473059Y-65829942D01*
X158469952Y-65838781D01*
X158459194Y-65866072D01*
X158441864Y-65908906D01*
X158419126Y-65964425D01*
X158392147Y-66029772D01*
X158362090Y-66102089D01*
X158355493Y-66117879D01*
X158316907Y-66208484D01*
X158285768Y-66278217D01*
X158261917Y-66327405D01*
X158245198Y-66356374D01*
X158235454Y-66365452D01*
X158227766Y-66363405D01*
X158201415Y-66353760D01*
X158162982Y-66338190D01*
X158117822Y-66318815D01*
X158023293Y-66280814D01*
X157886480Y-66239780D01*
X157745289Y-66214612D01*
X157707314Y-66210611D01*
X157604059Y-66208447D01*
X157516952Y-66221622D01*
X157445129Y-66250756D01*
X157387731Y-66296466D01*
X157343896Y-66359372D01*
X157312762Y-66440092D01*
X157293470Y-66539245D01*
X157286050Y-66598224D01*
X157447936Y-66591445D01*
X157574495Y-66589813D01*
X157725951Y-66596194D01*
X157874396Y-66610777D01*
X158010578Y-66632882D01*
X158075245Y-66647821D01*
X158207490Y-66690741D01*
X158329762Y-66747340D01*
X158439685Y-66816017D01*
X158534883Y-66895170D01*
X158612980Y-66983196D01*
X158671599Y-67078493D01*
X158695595Y-67130864D01*
X158721232Y-67201590D01*
X158737478Y-67272812D01*
X158745822Y-67351712D01*
X158747690Y-67442282D01*
X158747755Y-67445467D01*
G36*
X158747755Y-67445467D02*
G01*
X158747261Y-67479363D01*
X158743632Y-67554202D01*
X158736022Y-67616401D01*
X158723688Y-67672984D01*
X158679313Y-67799076D01*
X158616400Y-67913679D01*
X158536238Y-68014568D01*
X158439740Y-68100924D01*
X158327822Y-68171932D01*
X158201397Y-68226776D01*
X158061378Y-68264638D01*
X158025149Y-68270351D01*
X157946155Y-68276313D01*
X157857841Y-68276646D01*
X157768075Y-68271659D01*
X157684722Y-68261666D01*
X157615651Y-68246978D01*
X157529187Y-68216749D01*
X157419286Y-68162057D01*
X157321956Y-68094543D01*
X157259867Y-68043556D01*
X157256605Y-68139622D01*
X157253343Y-68235689D01*
X156830450Y-68235689D01*
X156819543Y-68235686D01*
X156725056Y-68235380D01*
X156638331Y-68234616D01*
X156561837Y-68233451D01*
X156498043Y-68231942D01*
X156449418Y-68230147D01*
X156418433Y-68228121D01*
X156407556Y-68225922D01*
X156407578Y-68225463D01*
X156414614Y-68209910D01*
X156430434Y-68187071D01*
X156434734Y-68181638D01*
X156445777Y-68167606D01*
X156455311Y-68154186D01*
X156463461Y-68139722D01*
X156470352Y-68122556D01*
X156476111Y-68101034D01*
X156480862Y-68073498D01*
X156484731Y-68038292D01*
X156487844Y-67993760D01*
X156490325Y-67938246D01*
X156492300Y-67870093D01*
X156493894Y-67787645D01*
X156495234Y-67689246D01*
X156496444Y-67573239D01*
X156496896Y-67522462D01*
X157299378Y-67522462D01*
X157344048Y-67578973D01*
X157356785Y-67594212D01*
X157403604Y-67636844D01*
X157464255Y-67672672D01*
X157474897Y-67677850D01*
X157513676Y-67694745D01*
X157548692Y-67704909D01*
X157588722Y-67710325D01*
X157642541Y-67712978D01*
X157660648Y-67713383D01*
X157736011Y-67710540D01*
X157796743Y-67698620D01*
X157848452Y-67676037D01*
X157896746Y-67641211D01*
X157901803Y-67636798D01*
X157950272Y-67581160D01*
X157978459Y-67517333D01*
X157987752Y-67442282D01*
X157980520Y-67370693D01*
X157955796Y-67307645D01*
X157911249Y-67249758D01*
X157856319Y-67202808D01*
X157783894Y-67162961D01*
X157697340Y-67135263D01*
X157594670Y-67119096D01*
X157473894Y-67113842D01*
X157465007Y-67113857D01*
X157409660Y-67114655D01*
X157362736Y-67116488D01*
X157328953Y-67119111D01*
X157313028Y-67122274D01*
X157308943Y-67128741D01*
X157304572Y-67150875D01*
X157301604Y-67189988D01*
X157299914Y-67247939D01*
X157299378Y-67326586D01*
X157299378Y-67522462D01*
X156496896Y-67522462D01*
X156497649Y-67437968D01*
X156498975Y-67281778D01*
X156500228Y-67139012D01*
X156501651Y-66993942D01*
X156503176Y-66868027D01*
X156504933Y-66759436D01*
X156507051Y-66666334D01*
X156509660Y-66586891D01*
X156512890Y-66519273D01*
X156516869Y-66461649D01*
X156521728Y-66412185D01*
X156527597Y-66369050D01*
X156534604Y-66330410D01*
X156542880Y-66294434D01*
X156552554Y-66259289D01*
X156563756Y-66223142D01*
X156576616Y-66184161D01*
X156592090Y-66141091D01*
X156634994Y-66048871D01*
X156688735Y-65969099D01*
X156757576Y-65894965D01*
X156835185Y-65831405D01*
X156939761Y-65769725D01*
X157059244Y-65722202D01*
X157194508Y-65688567D01*
X157346426Y-65668552D01*
X157515872Y-65661889D01*
X157573890Y-65662287D01*
X157639398Y-65664335D01*
X157700693Y-65668704D01*
X157762097Y-65676035D01*
X157827932Y-65686969D01*
X157902520Y-65702147D01*
X157990184Y-65722209D01*
X158095245Y-65747797D01*
X158123806Y-65754820D01*
X158199054Y-65772776D01*
X158269388Y-65788820D01*
X158330567Y-65802028D01*
X158378354Y-65811474D01*
X158408511Y-65816231D01*
X158436783Y-65819910D01*
X158463060Y-65825187D01*
X158473059Y-65829942D01*
X158469952Y-65838781D01*
X158459194Y-65866072D01*
X158441864Y-65908906D01*
X158419126Y-65964425D01*
X158392147Y-66029772D01*
X158362090Y-66102089D01*
X158355493Y-66117879D01*
X158316907Y-66208484D01*
X158285768Y-66278217D01*
X158261917Y-66327405D01*
X158245198Y-66356374D01*
X158235454Y-66365452D01*
X158227766Y-66363405D01*
X158201415Y-66353760D01*
X158162982Y-66338190D01*
X158117822Y-66318815D01*
X158023293Y-66280814D01*
X157886480Y-66239780D01*
X157745289Y-66214612D01*
X157707314Y-66210611D01*
X157604059Y-66208447D01*
X157516952Y-66221622D01*
X157445129Y-66250756D01*
X157387731Y-66296466D01*
X157343896Y-66359372D01*
X157312762Y-66440092D01*
X157293470Y-66539245D01*
X157286050Y-66598224D01*
X157447936Y-66591445D01*
X157574495Y-66589813D01*
X157725951Y-66596194D01*
X157874396Y-66610777D01*
X158010578Y-66632882D01*
X158075245Y-66647821D01*
X158207490Y-66690741D01*
X158329762Y-66747340D01*
X158439685Y-66816017D01*
X158534883Y-66895170D01*
X158612980Y-66983196D01*
X158671599Y-67078493D01*
X158695595Y-67130864D01*
X158721232Y-67201590D01*
X158737478Y-67272812D01*
X158745822Y-67351712D01*
X158747690Y-67442282D01*
X158747755Y-67445467D01*
G37*
X166295614Y-64913792D02*
X166296059Y-65045011D01*
X166296362Y-65192216D01*
X166296548Y-65356349D01*
X166296642Y-65538352D01*
X166296671Y-65739165D01*
X166296661Y-65959732D01*
X166296636Y-66200992D01*
X166296622Y-66463889D01*
X166296622Y-66506040D01*
X166296646Y-66766668D01*
X166296685Y-67005796D01*
X166296708Y-67224360D01*
X166296687Y-67423295D01*
X166296593Y-67603535D01*
X166296395Y-67766015D01*
X166296063Y-67911670D01*
X166295569Y-68041434D01*
X166294883Y-68156243D01*
X166293976Y-68257030D01*
X166292817Y-68344730D01*
X166291378Y-68420279D01*
X166289629Y-68484611D01*
X166287540Y-68538661D01*
X166285083Y-68583363D01*
X166282227Y-68619652D01*
X166278943Y-68648463D01*
X166275202Y-68670731D01*
X166270974Y-68687390D01*
X166266229Y-68699375D01*
X166260939Y-68707621D01*
X166255073Y-68713062D01*
X166248602Y-68716634D01*
X166241497Y-68719270D01*
X166233728Y-68721906D01*
X166225266Y-68725477D01*
X166220908Y-68727145D01*
X166212395Y-68729111D01*
X166199694Y-68730911D01*
X166181885Y-68732555D01*
X166158049Y-68734047D01*
X166127266Y-68735397D01*
X166088617Y-68736611D01*
X166041182Y-68737697D01*
X165984043Y-68738661D01*
X165916279Y-68739511D01*
X165836971Y-68740253D01*
X165745199Y-68740897D01*
X165640044Y-68741447D01*
X165520587Y-68741913D01*
X165385908Y-68742300D01*
X165235088Y-68742616D01*
X165067206Y-68742869D01*
X164881345Y-68743066D01*
X164676583Y-68743213D01*
X164452002Y-68743318D01*
X164206682Y-68743389D01*
X163939704Y-68743432D01*
X163901321Y-68743437D01*
X163635922Y-68743480D01*
X163392050Y-68743525D01*
X163168783Y-68743548D01*
X162965196Y-68743524D01*
X162780367Y-68743430D01*
X162613373Y-68743243D01*
X162463290Y-68742939D01*
X162329196Y-68742494D01*
X162210166Y-68741885D01*
X162105279Y-68741089D01*
X162013610Y-68740080D01*
X161934237Y-68738837D01*
X161866237Y-68737335D01*
X161808686Y-68735551D01*
X161760662Y-68733461D01*
X161721240Y-68731042D01*
X161689499Y-68728270D01*
X161664514Y-68725121D01*
X161645364Y-68721572D01*
X161631123Y-68717598D01*
X161620871Y-68713178D01*
X161613682Y-68708286D01*
X161608635Y-68702900D01*
X161604805Y-68696996D01*
X161601271Y-68690549D01*
X161597108Y-68683537D01*
X161596025Y-68681687D01*
X161593813Y-68676180D01*
X161591786Y-68667868D01*
X161589938Y-68655809D01*
X161588261Y-68639063D01*
X161586745Y-68616687D01*
X161585383Y-68587740D01*
X161584167Y-68551280D01*
X161583089Y-68506367D01*
X161582140Y-68452057D01*
X161581312Y-68387410D01*
X161580597Y-68311484D01*
X161579987Y-68223338D01*
X161579942Y-68214493D01*
X161871378Y-68214493D01*
X161875260Y-68215765D01*
X161898520Y-68217791D01*
X161940874Y-68219626D01*
X162000132Y-68221227D01*
X162074107Y-68222549D01*
X162160610Y-68223548D01*
X162257452Y-68224180D01*
X162362445Y-68224400D01*
X163060651Y-68224400D01*
X164215090Y-68224400D01*
X164214456Y-68148200D01*
X164215574Y-68106160D01*
X164221304Y-68070334D01*
X164233890Y-68032772D01*
X164255568Y-67984577D01*
X164258789Y-67977897D01*
X164284188Y-67928359D01*
X164310996Y-67880369D01*
X164333917Y-67843466D01*
X164338485Y-67836834D01*
X164360516Y-67805593D01*
X164392693Y-67760654D01*
X164433457Y-67704147D01*
X164481245Y-67638204D01*
X164534498Y-67564957D01*
X164591655Y-67486536D01*
X164651155Y-67405072D01*
X164711437Y-67322698D01*
X164770940Y-67241544D01*
X164828105Y-67163742D01*
X164881370Y-67091423D01*
X164929174Y-67026718D01*
X164969957Y-66971759D01*
X165002158Y-66928676D01*
X165024216Y-66899602D01*
X165034571Y-66886667D01*
X165039044Y-66882351D01*
X165043236Y-66880312D01*
X165046643Y-66882926D01*
X165049325Y-66891986D01*
X165051341Y-66909285D01*
X165052748Y-66936614D01*
X165053605Y-66975765D01*
X165053970Y-67028533D01*
X165053903Y-67096707D01*
X165053460Y-67182082D01*
X165052702Y-67286449D01*
X165051685Y-67411600D01*
X165051308Y-67456300D01*
X165050169Y-67577395D01*
X165048972Y-67678688D01*
X165047636Y-67762262D01*
X165046077Y-67830204D01*
X165044215Y-67884599D01*
X165041966Y-67927532D01*
X165039248Y-67961089D01*
X165035979Y-67987355D01*
X165032078Y-68008416D01*
X165027461Y-68026357D01*
X165019192Y-68052770D01*
X164995583Y-68114772D01*
X164969685Y-68167573D01*
X164944535Y-68204645D01*
X164943339Y-68206075D01*
X164941168Y-68210424D01*
X164943328Y-68214026D01*
X164951644Y-68216951D01*
X164967940Y-68219269D01*
X164994041Y-68221051D01*
X165031771Y-68222367D01*
X165082956Y-68223286D01*
X165149420Y-68223878D01*
X165232987Y-68224215D01*
X165335483Y-68224365D01*
X165458732Y-68224400D01*
X165990296Y-68224400D01*
X165951523Y-68166783D01*
X165945432Y-68157893D01*
X165934976Y-68143069D01*
X165925579Y-68129422D01*
X165917183Y-68115765D01*
X165909733Y-68100911D01*
X165903173Y-68083670D01*
X165897446Y-68062855D01*
X165892495Y-68037280D01*
X165888266Y-68005755D01*
X165884701Y-67967093D01*
X165881744Y-67920107D01*
X165879340Y-67863608D01*
X165877431Y-67796409D01*
X165875962Y-67717322D01*
X165874876Y-67625160D01*
X165874118Y-67518734D01*
X165873630Y-67396857D01*
X165873358Y-67258341D01*
X165873243Y-67101999D01*
X165873231Y-66926642D01*
X165873265Y-66731082D01*
X165873289Y-66514133D01*
X165873280Y-66391513D01*
X165873243Y-66186447D01*
X165873227Y-66002116D01*
X165873288Y-65837334D01*
X165873484Y-65690916D01*
X165873870Y-65561674D01*
X165874505Y-65448422D01*
X165875444Y-65349975D01*
X165876745Y-65265144D01*
X165878464Y-65192744D01*
X165880659Y-65131589D01*
X165883385Y-65080492D01*
X165886701Y-65038267D01*
X165890662Y-65003727D01*
X165895325Y-64975686D01*
X165900747Y-64952958D01*
X165906986Y-64934356D01*
X165914097Y-64918693D01*
X165922138Y-64904784D01*
X165931166Y-64891441D01*
X165941236Y-64877479D01*
X165952407Y-64861711D01*
X165992197Y-64803867D01*
X164932314Y-64803867D01*
X164970311Y-64866966D01*
X164984993Y-64892005D01*
X164999531Y-64919586D01*
X165011627Y-64947700D01*
X165021532Y-64978551D01*
X165029494Y-65014344D01*
X165035761Y-65057283D01*
X165040582Y-65109574D01*
X165044206Y-65173419D01*
X165046881Y-65251025D01*
X165048857Y-65344594D01*
X165050382Y-65456333D01*
X165051704Y-65588445D01*
X165052613Y-65708434D01*
X165053020Y-65825063D01*
X165052767Y-65920531D01*
X165051857Y-65994556D01*
X165050293Y-66046855D01*
X165048079Y-66077149D01*
X165045220Y-66085156D01*
X165042161Y-66081858D01*
X165024006Y-66060408D01*
X164994275Y-66023889D01*
X164954639Y-65974442D01*
X164906771Y-65914207D01*
X164852343Y-65845327D01*
X164793027Y-65769943D01*
X164730495Y-65690196D01*
X164666421Y-65608228D01*
X164602475Y-65526180D01*
X164540331Y-65446194D01*
X164481661Y-65370411D01*
X164428137Y-65300973D01*
X164381430Y-65240021D01*
X164343214Y-65189696D01*
X164315161Y-65152140D01*
X164298943Y-65129495D01*
X164253635Y-65057212D01*
X164213661Y-64977463D01*
X164192130Y-64909188D01*
X164188827Y-64851844D01*
X164194116Y-64803867D01*
X163062356Y-64804117D01*
X163101867Y-64834722D01*
X163111248Y-64842089D01*
X163174183Y-64896438D01*
X163242997Y-64964259D01*
X163319596Y-65047516D01*
X163405888Y-65148178D01*
X163423052Y-65168847D01*
X163463833Y-65218409D01*
X163513588Y-65279326D01*
X163570955Y-65349898D01*
X163634569Y-65428424D01*
X163703069Y-65513204D01*
X163775090Y-65602537D01*
X163849270Y-65694722D01*
X163864517Y-65713702D01*
X163924246Y-65788060D01*
X163998653Y-65880848D01*
X164071131Y-65971388D01*
X164140314Y-66057978D01*
X164204841Y-66138918D01*
X164263347Y-66212506D01*
X164314470Y-66277044D01*
X164356847Y-66330829D01*
X164389115Y-66372162D01*
X164409910Y-66399342D01*
X164417869Y-66410668D01*
X164416111Y-66414771D01*
X164403230Y-66435334D01*
X164378885Y-66471561D01*
X164344247Y-66521824D01*
X164300486Y-66584492D01*
X164248775Y-66657936D01*
X164190284Y-66740527D01*
X164126184Y-66830636D01*
X164057646Y-66926631D01*
X163985843Y-67026885D01*
X163911944Y-67129768D01*
X163837121Y-67233650D01*
X163762545Y-67336901D01*
X163689387Y-67437892D01*
X163618819Y-67534994D01*
X163552011Y-67626577D01*
X163490135Y-67711011D01*
X163434361Y-67786667D01*
X163385862Y-67851916D01*
X163345807Y-67905128D01*
X163315369Y-67944673D01*
X163294944Y-67970026D01*
X163248899Y-68024295D01*
X163198612Y-68080775D01*
X163151815Y-68130669D01*
X163060651Y-68224400D01*
X162362445Y-68224400D01*
X162431356Y-68224349D01*
X162529607Y-68224091D01*
X162619030Y-68223637D01*
X162697333Y-68223010D01*
X162762223Y-68222235D01*
X162811411Y-68221335D01*
X162842604Y-68220334D01*
X162853511Y-68219257D01*
X162852322Y-68216037D01*
X162842176Y-68198452D01*
X162825040Y-68172158D01*
X162816540Y-68159691D01*
X162807329Y-68145622D01*
X162799233Y-68131351D01*
X162792185Y-68115479D01*
X162786117Y-68096609D01*
X162780961Y-68073341D01*
X162776651Y-68044278D01*
X162773119Y-68008021D01*
X162770297Y-67963170D01*
X162768118Y-67908328D01*
X162766514Y-67842097D01*
X162765419Y-67763077D01*
X162764765Y-67669871D01*
X162764484Y-67561079D01*
X162764509Y-67435303D01*
X162764772Y-67291145D01*
X162765206Y-67127207D01*
X162765745Y-66942089D01*
X162766279Y-66763232D01*
X162766805Y-66604374D01*
X162767350Y-66465316D01*
X162767945Y-66344665D01*
X162768619Y-66241028D01*
X162769403Y-66153011D01*
X162770326Y-66079223D01*
X162771419Y-66018269D01*
X162772712Y-65968757D01*
X162774235Y-65929293D01*
X162776019Y-65898484D01*
X162778092Y-65874938D01*
X162780486Y-65857260D01*
X162783230Y-65844059D01*
X162786356Y-65833940D01*
X162789892Y-65825511D01*
X162793791Y-65817375D01*
X162813438Y-65780544D01*
X162832225Y-65750391D01*
X162833272Y-65748908D01*
X162847602Y-65726659D01*
X162853511Y-65713702D01*
X162852504Y-65713249D01*
X162835305Y-65711803D01*
X162798656Y-65710480D01*
X162744962Y-65709316D01*
X162676630Y-65708347D01*
X162596064Y-65707611D01*
X162505670Y-65707142D01*
X162407853Y-65706978D01*
X161962195Y-65706978D01*
X161959120Y-66883845D01*
X161956045Y-68060711D01*
X161929407Y-68119622D01*
X161917485Y-68144183D01*
X161900246Y-68174434D01*
X161887074Y-68191560D01*
X161879076Y-68199591D01*
X161871378Y-68214493D01*
X161579942Y-68214493D01*
X161579474Y-68122029D01*
X161579050Y-68006617D01*
X161578706Y-67876160D01*
X161578434Y-67729716D01*
X161578227Y-67566344D01*
X161578076Y-67385101D01*
X161577972Y-67185048D01*
X161577908Y-66965241D01*
X161577876Y-66724739D01*
X161577867Y-66462602D01*
X161577867Y-64271031D01*
X161616249Y-64232649D01*
X161643355Y-64208911D01*
X161670253Y-64197111D01*
X161706560Y-64194267D01*
X161758489Y-64194267D01*
X161758489Y-64282206D01*
X161760427Y-64332102D01*
X161779199Y-64442523D01*
X161816217Y-64543987D01*
X161869369Y-64635152D01*
X161936546Y-64714673D01*
X162015638Y-64781205D01*
X162104534Y-64833406D01*
X162201125Y-64869930D01*
X162303300Y-64889434D01*
X162408950Y-64890573D01*
X162515964Y-64872005D01*
X162622232Y-64832384D01*
X162719219Y-64774516D01*
X162804293Y-64699684D01*
X162873015Y-64611615D01*
X162923918Y-64512616D01*
X162955535Y-64404993D01*
X162966400Y-64291054D01*
X162966400Y-64194267D01*
X164586753Y-64194267D01*
X164797897Y-64194280D01*
X165002020Y-64194330D01*
X165185686Y-64194430D01*
X165349991Y-64194592D01*
X165496029Y-64194829D01*
X165624894Y-64195153D01*
X165737683Y-64195575D01*
X165835488Y-64196109D01*
X165919404Y-64196767D01*
X165990527Y-64197561D01*
X166049950Y-64198504D01*
X166098768Y-64199608D01*
X166138077Y-64200884D01*
X166168969Y-64202347D01*
X166192541Y-64204007D01*
X166209886Y-64205878D01*
X166222099Y-64207972D01*
X166230275Y-64210300D01*
X166235508Y-64212876D01*
X166241504Y-64216445D01*
X166248279Y-64219978D01*
X166254478Y-64223488D01*
X166260126Y-64227918D01*
X166265247Y-64234208D01*
X166269869Y-64243301D01*
X166274015Y-64256139D01*
X166277713Y-64273662D01*
X166280987Y-64296813D01*
X166283863Y-64326534D01*
X166286367Y-64363765D01*
X166288524Y-64409449D01*
X166290360Y-64464527D01*
X166291900Y-64529941D01*
X166293170Y-64606633D01*
X166294195Y-64695544D01*
X166295001Y-64797617D01*
X166295034Y-64803867D01*
X166295614Y-64913792D01*
G36*
X166295614Y-64913792D02*
G01*
X166296059Y-65045011D01*
X166296362Y-65192216D01*
X166296548Y-65356349D01*
X166296642Y-65538352D01*
X166296671Y-65739165D01*
X166296661Y-65959732D01*
X166296636Y-66200992D01*
X166296622Y-66463889D01*
X166296622Y-66506040D01*
X166296646Y-66766668D01*
X166296685Y-67005796D01*
X166296708Y-67224360D01*
X166296687Y-67423295D01*
X166296593Y-67603535D01*
X166296395Y-67766015D01*
X166296063Y-67911670D01*
X166295569Y-68041434D01*
X166294883Y-68156243D01*
X166293976Y-68257030D01*
X166292817Y-68344730D01*
X166291378Y-68420279D01*
X166289629Y-68484611D01*
X166287540Y-68538661D01*
X166285083Y-68583363D01*
X166282227Y-68619652D01*
X166278943Y-68648463D01*
X166275202Y-68670731D01*
X166270974Y-68687390D01*
X166266229Y-68699375D01*
X166260939Y-68707621D01*
X166255073Y-68713062D01*
X166248602Y-68716634D01*
X166241497Y-68719270D01*
X166233728Y-68721906D01*
X166225266Y-68725477D01*
X166220908Y-68727145D01*
X166212395Y-68729111D01*
X166199694Y-68730911D01*
X166181885Y-68732555D01*
X166158049Y-68734047D01*
X166127266Y-68735397D01*
X166088617Y-68736611D01*
X166041182Y-68737697D01*
X165984043Y-68738661D01*
X165916279Y-68739511D01*
X165836971Y-68740253D01*
X165745199Y-68740897D01*
X165640044Y-68741447D01*
X165520587Y-68741913D01*
X165385908Y-68742300D01*
X165235088Y-68742616D01*
X165067206Y-68742869D01*
X164881345Y-68743066D01*
X164676583Y-68743213D01*
X164452002Y-68743318D01*
X164206682Y-68743389D01*
X163939704Y-68743432D01*
X163901321Y-68743437D01*
X163635922Y-68743480D01*
X163392050Y-68743525D01*
X163168783Y-68743548D01*
X162965196Y-68743524D01*
X162780367Y-68743430D01*
X162613373Y-68743243D01*
X162463290Y-68742939D01*
X162329196Y-68742494D01*
X162210166Y-68741885D01*
X162105279Y-68741089D01*
X162013610Y-68740080D01*
X161934237Y-68738837D01*
X161866237Y-68737335D01*
X161808686Y-68735551D01*
X161760662Y-68733461D01*
X161721240Y-68731042D01*
X161689499Y-68728270D01*
X161664514Y-68725121D01*
X161645364Y-68721572D01*
X161631123Y-68717598D01*
X161620871Y-68713178D01*
X161613682Y-68708286D01*
X161608635Y-68702900D01*
X161604805Y-68696996D01*
X161601271Y-68690549D01*
X161597108Y-68683537D01*
X161596025Y-68681687D01*
X161593813Y-68676180D01*
X161591786Y-68667868D01*
X161589938Y-68655809D01*
X161588261Y-68639063D01*
X161586745Y-68616687D01*
X161585383Y-68587740D01*
X161584167Y-68551280D01*
X161583089Y-68506367D01*
X161582140Y-68452057D01*
X161581312Y-68387410D01*
X161580597Y-68311484D01*
X161579987Y-68223338D01*
X161579942Y-68214493D01*
X161871378Y-68214493D01*
X161875260Y-68215765D01*
X161898520Y-68217791D01*
X161940874Y-68219626D01*
X162000132Y-68221227D01*
X162074107Y-68222549D01*
X162160610Y-68223548D01*
X162257452Y-68224180D01*
X162362445Y-68224400D01*
X163060651Y-68224400D01*
X164215090Y-68224400D01*
X164214456Y-68148200D01*
X164215574Y-68106160D01*
X164221304Y-68070334D01*
X164233890Y-68032772D01*
X164255568Y-67984577D01*
X164258789Y-67977897D01*
X164284188Y-67928359D01*
X164310996Y-67880369D01*
X164333917Y-67843466D01*
X164338485Y-67836834D01*
X164360516Y-67805593D01*
X164392693Y-67760654D01*
X164433457Y-67704147D01*
X164481245Y-67638204D01*
X164534498Y-67564957D01*
X164591655Y-67486536D01*
X164651155Y-67405072D01*
X164711437Y-67322698D01*
X164770940Y-67241544D01*
X164828105Y-67163742D01*
X164881370Y-67091423D01*
X164929174Y-67026718D01*
X164969957Y-66971759D01*
X165002158Y-66928676D01*
X165024216Y-66899602D01*
X165034571Y-66886667D01*
X165039044Y-66882351D01*
X165043236Y-66880312D01*
X165046643Y-66882926D01*
X165049325Y-66891986D01*
X165051341Y-66909285D01*
X165052748Y-66936614D01*
X165053605Y-66975765D01*
X165053970Y-67028533D01*
X165053903Y-67096707D01*
X165053460Y-67182082D01*
X165052702Y-67286449D01*
X165051685Y-67411600D01*
X165051308Y-67456300D01*
X165050169Y-67577395D01*
X165048972Y-67678688D01*
X165047636Y-67762262D01*
X165046077Y-67830204D01*
X165044215Y-67884599D01*
X165041966Y-67927532D01*
X165039248Y-67961089D01*
X165035979Y-67987355D01*
X165032078Y-68008416D01*
X165027461Y-68026357D01*
X165019192Y-68052770D01*
X164995583Y-68114772D01*
X164969685Y-68167573D01*
X164944535Y-68204645D01*
X164943339Y-68206075D01*
X164941168Y-68210424D01*
X164943328Y-68214026D01*
X164951644Y-68216951D01*
X164967940Y-68219269D01*
X164994041Y-68221051D01*
X165031771Y-68222367D01*
X165082956Y-68223286D01*
X165149420Y-68223878D01*
X165232987Y-68224215D01*
X165335483Y-68224365D01*
X165458732Y-68224400D01*
X165990296Y-68224400D01*
X165951523Y-68166783D01*
X165945432Y-68157893D01*
X165934976Y-68143069D01*
X165925579Y-68129422D01*
X165917183Y-68115765D01*
X165909733Y-68100911D01*
X165903173Y-68083670D01*
X165897446Y-68062855D01*
X165892495Y-68037280D01*
X165888266Y-68005755D01*
X165884701Y-67967093D01*
X165881744Y-67920107D01*
X165879340Y-67863608D01*
X165877431Y-67796409D01*
X165875962Y-67717322D01*
X165874876Y-67625160D01*
X165874118Y-67518734D01*
X165873630Y-67396857D01*
X165873358Y-67258341D01*
X165873243Y-67101999D01*
X165873231Y-66926642D01*
X165873265Y-66731082D01*
X165873289Y-66514133D01*
X165873280Y-66391513D01*
X165873243Y-66186447D01*
X165873227Y-66002116D01*
X165873288Y-65837334D01*
X165873484Y-65690916D01*
X165873870Y-65561674D01*
X165874505Y-65448422D01*
X165875444Y-65349975D01*
X165876745Y-65265144D01*
X165878464Y-65192744D01*
X165880659Y-65131589D01*
X165883385Y-65080492D01*
X165886701Y-65038267D01*
X165890662Y-65003727D01*
X165895325Y-64975686D01*
X165900747Y-64952958D01*
X165906986Y-64934356D01*
X165914097Y-64918693D01*
X165922138Y-64904784D01*
X165931166Y-64891441D01*
X165941236Y-64877479D01*
X165952407Y-64861711D01*
X165992197Y-64803867D01*
X164932314Y-64803867D01*
X164970311Y-64866966D01*
X164984993Y-64892005D01*
X164999531Y-64919586D01*
X165011627Y-64947700D01*
X165021532Y-64978551D01*
X165029494Y-65014344D01*
X165035761Y-65057283D01*
X165040582Y-65109574D01*
X165044206Y-65173419D01*
X165046881Y-65251025D01*
X165048857Y-65344594D01*
X165050382Y-65456333D01*
X165051704Y-65588445D01*
X165052613Y-65708434D01*
X165053020Y-65825063D01*
X165052767Y-65920531D01*
X165051857Y-65994556D01*
X165050293Y-66046855D01*
X165048079Y-66077149D01*
X165045220Y-66085156D01*
X165042161Y-66081858D01*
X165024006Y-66060408D01*
X164994275Y-66023889D01*
X164954639Y-65974442D01*
X164906771Y-65914207D01*
X164852343Y-65845327D01*
X164793027Y-65769943D01*
X164730495Y-65690196D01*
X164666421Y-65608228D01*
X164602475Y-65526180D01*
X164540331Y-65446194D01*
X164481661Y-65370411D01*
X164428137Y-65300973D01*
X164381430Y-65240021D01*
X164343214Y-65189696D01*
X164315161Y-65152140D01*
X164298943Y-65129495D01*
X164253635Y-65057212D01*
X164213661Y-64977463D01*
X164192130Y-64909188D01*
X164188827Y-64851844D01*
X164194116Y-64803867D01*
X163062356Y-64804117D01*
X163101867Y-64834722D01*
X163111248Y-64842089D01*
X163174183Y-64896438D01*
X163242997Y-64964259D01*
X163319596Y-65047516D01*
X163405888Y-65148178D01*
X163423052Y-65168847D01*
X163463833Y-65218409D01*
X163513588Y-65279326D01*
X163570955Y-65349898D01*
X163634569Y-65428424D01*
X163703069Y-65513204D01*
X163775090Y-65602537D01*
X163849270Y-65694722D01*
X163864517Y-65713702D01*
X163924246Y-65788060D01*
X163998653Y-65880848D01*
X164071131Y-65971388D01*
X164140314Y-66057978D01*
X164204841Y-66138918D01*
X164263347Y-66212506D01*
X164314470Y-66277044D01*
X164356847Y-66330829D01*
X164389115Y-66372162D01*
X164409910Y-66399342D01*
X164417869Y-66410668D01*
X164416111Y-66414771D01*
X164403230Y-66435334D01*
X164378885Y-66471561D01*
X164344247Y-66521824D01*
X164300486Y-66584492D01*
X164248775Y-66657936D01*
X164190284Y-66740527D01*
X164126184Y-66830636D01*
X164057646Y-66926631D01*
X163985843Y-67026885D01*
X163911944Y-67129768D01*
X163837121Y-67233650D01*
X163762545Y-67336901D01*
X163689387Y-67437892D01*
X163618819Y-67534994D01*
X163552011Y-67626577D01*
X163490135Y-67711011D01*
X163434361Y-67786667D01*
X163385862Y-67851916D01*
X163345807Y-67905128D01*
X163315369Y-67944673D01*
X163294944Y-67970026D01*
X163248899Y-68024295D01*
X163198612Y-68080775D01*
X163151815Y-68130669D01*
X163060651Y-68224400D01*
X162362445Y-68224400D01*
X162431356Y-68224349D01*
X162529607Y-68224091D01*
X162619030Y-68223637D01*
X162697333Y-68223010D01*
X162762223Y-68222235D01*
X162811411Y-68221335D01*
X162842604Y-68220334D01*
X162853511Y-68219257D01*
X162852322Y-68216037D01*
X162842176Y-68198452D01*
X162825040Y-68172158D01*
X162816540Y-68159691D01*
X162807329Y-68145622D01*
X162799233Y-68131351D01*
X162792185Y-68115479D01*
X162786117Y-68096609D01*
X162780961Y-68073341D01*
X162776651Y-68044278D01*
X162773119Y-68008021D01*
X162770297Y-67963170D01*
X162768118Y-67908328D01*
X162766514Y-67842097D01*
X162765419Y-67763077D01*
X162764765Y-67669871D01*
X162764484Y-67561079D01*
X162764509Y-67435303D01*
X162764772Y-67291145D01*
X162765206Y-67127207D01*
X162765745Y-66942089D01*
X162766279Y-66763232D01*
X162766805Y-66604374D01*
X162767350Y-66465316D01*
X162767945Y-66344665D01*
X162768619Y-66241028D01*
X162769403Y-66153011D01*
X162770326Y-66079223D01*
X162771419Y-66018269D01*
X162772712Y-65968757D01*
X162774235Y-65929293D01*
X162776019Y-65898484D01*
X162778092Y-65874938D01*
X162780486Y-65857260D01*
X162783230Y-65844059D01*
X162786356Y-65833940D01*
X162789892Y-65825511D01*
X162793791Y-65817375D01*
X162813438Y-65780544D01*
X162832225Y-65750391D01*
X162833272Y-65748908D01*
X162847602Y-65726659D01*
X162853511Y-65713702D01*
X162852504Y-65713249D01*
X162835305Y-65711803D01*
X162798656Y-65710480D01*
X162744962Y-65709316D01*
X162676630Y-65708347D01*
X162596064Y-65707611D01*
X162505670Y-65707142D01*
X162407853Y-65706978D01*
X161962195Y-65706978D01*
X161959120Y-66883845D01*
X161956045Y-68060711D01*
X161929407Y-68119622D01*
X161917485Y-68144183D01*
X161900246Y-68174434D01*
X161887074Y-68191560D01*
X161879076Y-68199591D01*
X161871378Y-68214493D01*
X161579942Y-68214493D01*
X161579474Y-68122029D01*
X161579050Y-68006617D01*
X161578706Y-67876160D01*
X161578434Y-67729716D01*
X161578227Y-67566344D01*
X161578076Y-67385101D01*
X161577972Y-67185048D01*
X161577908Y-66965241D01*
X161577876Y-66724739D01*
X161577867Y-66462602D01*
X161577867Y-64271031D01*
X161616249Y-64232649D01*
X161643355Y-64208911D01*
X161670253Y-64197111D01*
X161706560Y-64194267D01*
X161758489Y-64194267D01*
X161758489Y-64282206D01*
X161760427Y-64332102D01*
X161779199Y-64442523D01*
X161816217Y-64543987D01*
X161869369Y-64635152D01*
X161936546Y-64714673D01*
X162015638Y-64781205D01*
X162104534Y-64833406D01*
X162201125Y-64869930D01*
X162303300Y-64889434D01*
X162408950Y-64890573D01*
X162515964Y-64872005D01*
X162622232Y-64832384D01*
X162719219Y-64774516D01*
X162804293Y-64699684D01*
X162873015Y-64611615D01*
X162923918Y-64512616D01*
X162955535Y-64404993D01*
X162966400Y-64291054D01*
X162966400Y-64194267D01*
X164586753Y-64194267D01*
X164797897Y-64194280D01*
X165002020Y-64194330D01*
X165185686Y-64194430D01*
X165349991Y-64194592D01*
X165496029Y-64194829D01*
X165624894Y-64195153D01*
X165737683Y-64195575D01*
X165835488Y-64196109D01*
X165919404Y-64196767D01*
X165990527Y-64197561D01*
X166049950Y-64198504D01*
X166098768Y-64199608D01*
X166138077Y-64200884D01*
X166168969Y-64202347D01*
X166192541Y-64204007D01*
X166209886Y-64205878D01*
X166222099Y-64207972D01*
X166230275Y-64210300D01*
X166235508Y-64212876D01*
X166241504Y-64216445D01*
X166248279Y-64219978D01*
X166254478Y-64223488D01*
X166260126Y-64227918D01*
X166265247Y-64234208D01*
X166269869Y-64243301D01*
X166274015Y-64256139D01*
X166277713Y-64273662D01*
X166280987Y-64296813D01*
X166283863Y-64326534D01*
X166286367Y-64363765D01*
X166288524Y-64409449D01*
X166290360Y-64464527D01*
X166291900Y-64529941D01*
X166293170Y-64606633D01*
X166294195Y-64695544D01*
X166295001Y-64797617D01*
X166295034Y-64803867D01*
X166295614Y-64913792D01*
G37*
%TD*%
M02*
