M48
; DRILL file {KiCad 7.0.11+dfsg-1build4} date Sun 15 Mar 2026 10:14:58 PM MDT
; FORMAT={-:-/ absolute / inch / decimal}
; #@! TF.CreationDate,2026-03-15T22:14:58-06:00
; #@! TF.GenerationSoftware,Kicad,Pcbnew,7.0.11+dfsg-1build4
; #@! TF.FileFunction,Plated,1,2,PTH
FMAT,2
INCH
; #@! TA.AperFunction,Plated,PTH,ComponentDrill
T1C0.0295
; #@! TA.AperFunction,Plated,PTH,ComponentDrill
T2C0.0315
; #@! TA.AperFunction,Plated,PTH,ComponentDrill
T3C0.0394
; #@! TA.AperFunction,Plated,PTH,ComponentDrill
T4C0.0433
; #@! TA.AperFunction,Plated,PTH,ComponentDrill
T5C0.0512
%
G90
G05
T1
X7.3342Y-3.53
X7.3342Y-3.58
X7.3342Y-3.63
T2
X4.78Y-2.15
X4.78Y-2.55
X4.78Y-2.76
X4.78Y-3.16
X6.74Y-3.66
X6.94Y-3.34
X7.14Y-3.66
X7.34Y-3.34
T3
X4.02Y-2.1
X4.02Y-2.2
X4.02Y-2.3
X4.02Y-2.4
X4.02Y-2.5
X4.2502Y-3.62
X4.3502Y-3.62
X4.62Y-2.1
X4.62Y-2.2
X4.62Y-2.3
X4.62Y-3.3
X4.62Y-3.4
X5.44Y-2.07
X5.44Y-3.17
X5.54Y-2.07
X5.54Y-2.17
X5.54Y-3.07
X5.54Y-3.17
X5.64Y-2.07
X5.64Y-2.17
X5.64Y-3.07
X5.64Y-3.17
X5.74Y-2.07
X5.74Y-2.17
X5.74Y-3.07
X5.74Y-3.17
X5.84Y-2.07
X5.84Y-2.17
X5.84Y-3.07
X5.84Y-3.17
X5.94Y-2.07
X5.94Y-2.17
X5.94Y-3.07
X5.94Y-3.17
X6.04Y-2.07
X6.04Y-2.17
X6.04Y-3.07
X6.04Y-3.17
X6.14Y-2.07
X6.14Y-2.17
X6.14Y-3.07
X6.14Y-3.17
X6.18Y-3.46
X6.18Y-3.66
X6.24Y-2.07
X6.24Y-2.17
X6.24Y-3.07
X6.24Y-3.17
X6.28Y-3.46
X6.28Y-3.66
X6.34Y-2.07
X6.34Y-2.17
X6.34Y-3.07
X6.34Y-3.17
X6.38Y-3.46
X6.38Y-3.66
X6.44Y-2.07
X6.44Y-2.17
X6.44Y-3.07
X6.44Y-3.17
X6.54Y-2.07
X6.54Y-2.17
X6.54Y-3.07
X6.54Y-3.17
X6.58Y-3.46
X6.58Y-3.66
X6.64Y-2.07
X6.64Y-2.17
X6.64Y-3.07
X6.64Y-3.17
X6.74Y-2.07
X6.74Y-3.17
X6.84Y-2.07
X6.84Y-3.17
T4
X6.74Y-3.49
X7.14Y-3.49
T5
X4.9Y-3.49
X5.1Y-3.49
X5.41Y-3.49
X5.61Y-3.49
X5.81Y-3.49
M30
