<?xml version="1.0" standalone="no"?>
<!DOCTYPE svg PUBLIC "-//W3C//DTD SVG 1.1//EN" "http://www.w3.org/Graphics/SVG/1.1/DTD/svg11.dtd">
<svg width="1290mm" height="116mm" viewBox="-207 -58 1290 116" xmlns="http://www.w3.org/2000/svg" version="1.1">
<title>OpenSCAD Model</title>
<path d="
M 794.685,57.4915 L 794.928,57.4537 L 795.165,57.3863 L 795.391,57.2903 L 795.605,57.1672 L 795.801,57.0188
 L 795.978,56.8474 L 796.132,56.6555 L 796.262,56.4462 L 796.365,56.2225 L 796.44,55.9878 L 796.485,55.7458
 L 796.5,55.5 L 796.5,-55.5 L 796.485,-55.7458 L 796.44,-55.9878 L 796.365,-56.2225 L 796.262,-56.4462
 L 796.132,-56.6555 L 795.978,-56.8474 L 795.801,-57.0188 L 795.605,-57.1672 L 795.391,-57.2903 L 795.165,-57.3863
 L 794.928,-57.4537 L 794.685,-57.4915 L 794.438,-57.499 L 680.438,-57.499 L 680.193,-57.4763 L 679.953,-57.4236
 L 679.72,-57.3418 L 679.5,-57.232 L 679.295,-57.096 L 679.108,-56.9358 L 678.942,-56.7538 L 678.8,-56.5529
 L 678.683,-56.3359 L 678.594,-56.1063 L 678.534,-55.8675 L 678.504,-55.6231 L 678.504,55.6231 L 678.534,55.8675
 L 678.594,56.1063 L 678.683,56.3359 L 678.8,56.5529 L 678.942,56.7538 L 679.108,56.9358 L 679.295,57.096
 L 679.5,57.232 L 679.72,57.3418 L 679.953,57.4236 L 680.193,57.4763 L 680.438,57.499 L 794.438,57.499
 z
M 791.178,-50.5087 L 790.938,-50.5613 L 790.705,-50.6432 L 790.485,-50.7529 L 790.28,-50.889 L 790.093,-51.0492
 L 789.927,-51.2311 L 789.785,-51.4321 L 789.668,-51.6491 L 789.579,-51.8787 L 789.519,-52.1175 L 789.489,-52.3619
 L 789.489,-52.6081 L 789.519,-52.8525 L 789.579,-53.0913 L 789.668,-53.3209 L 789.785,-53.5379 L 789.927,-53.7388
 L 790.093,-53.9208 L 790.28,-54.081 L 790.485,-54.217 L 790.705,-54.3268 L 790.938,-54.4086 L 791.178,-54.4613
 L 791.423,-54.484 L 791.67,-54.4765 L 791.913,-54.4387 L 792.15,-54.3713 L 792.376,-54.2753 L 792.59,-54.1522
 L 792.786,-54.0038 L 792.963,-53.8324 L 793.117,-53.6405 L 793.247,-53.4312 L 793.35,-53.2075 L 793.425,-52.9728
 L 793.47,-52.7308 L 793.485,-52.485 L 793.47,-52.2392 L 793.425,-51.9972 L 793.35,-51.7625 L 793.247,-51.5388
 L 793.117,-51.3294 L 792.963,-51.1376 L 792.786,-50.9662 L 792.59,-50.8178 L 792.376,-50.6947 L 792.15,-50.5987
 L 791.913,-50.5313 L 791.67,-50.4935 L 791.423,-50.4859 z
M 683.208,-50.5087 L 682.968,-50.5613 L 682.735,-50.6432 L 682.515,-50.7529 L 682.31,-50.889 L 682.123,-51.0492
 L 681.957,-51.2311 L 681.815,-51.4321 L 681.698,-51.6491 L 681.609,-51.8787 L 681.549,-52.1175 L 681.519,-52.3619
 L 681.519,-52.6081 L 681.549,-52.8525 L 681.609,-53.0913 L 681.698,-53.3209 L 681.815,-53.5379 L 681.957,-53.7388
 L 682.123,-53.9208 L 682.31,-54.081 L 682.515,-54.217 L 682.735,-54.3268 L 682.968,-54.4086 L 683.208,-54.4613
 L 683.453,-54.484 L 683.7,-54.4765 L 683.943,-54.4387 L 684.18,-54.3713 L 684.406,-54.2753 L 684.62,-54.1522
 L 684.816,-54.0038 L 684.993,-53.8324 L 685.147,-53.6405 L 685.277,-53.4312 L 685.38,-53.2075 L 685.455,-52.9728
 L 685.5,-52.7308 L 685.515,-52.485 L 685.5,-52.2392 L 685.455,-51.9972 L 685.38,-51.7625 L 685.277,-51.5388
 L 685.147,-51.3294 L 684.993,-51.1376 L 684.816,-50.9662 L 684.62,-50.8178 L 684.406,-50.6947 L 684.18,-50.5987
 L 683.943,-50.5313 L 683.7,-50.4935 L 683.453,-50.4859 z
M 784.23,-16.6975 L 787.3,-22.4715 L 790.045,-21.0119 L 786.975,-15.2379 z
M 684.955,-21.0119 L 687.7,-22.4715 L 690.77,-16.6975 L 688.025,-15.2379 z
M 747.395,52.5799 L 750.465,46.8059 L 753.21,48.2655 L 750.14,54.0395 z
M 721.79,48.2655 L 724.535,46.8059 L 727.605,52.5799 L 724.86,54.0395 z
M 791.178,54.4613 L 790.938,54.4086 L 790.705,54.3268 L 790.485,54.217 L 790.28,54.081 L 790.093,53.9208
 L 789.927,53.7388 L 789.785,53.5379 L 789.668,53.3209 L 789.579,53.0913 L 789.519,52.8525 L 789.489,52.6081
 L 789.489,52.3619 L 789.519,52.1175 L 789.579,51.8787 L 789.668,51.6491 L 789.785,51.4321 L 789.927,51.2311
 L 790.093,51.0492 L 790.28,50.889 L 790.485,50.7529 L 790.705,50.6432 L 790.938,50.5613 L 791.178,50.5087
 L 791.423,50.4859 L 791.67,50.4935 L 791.913,50.5313 L 792.15,50.5987 L 792.376,50.6947 L 792.59,50.8178
 L 792.786,50.9662 L 792.963,51.1376 L 793.117,51.3294 L 793.247,51.5388 L 793.35,51.7625 L 793.425,51.9972
 L 793.47,52.2392 L 793.485,52.485 L 793.47,52.7308 L 793.425,52.9728 L 793.35,53.2075 L 793.247,53.4312
 L 793.117,53.6405 L 792.963,53.8324 L 792.786,54.0038 L 792.59,54.1522 L 792.376,54.2753 L 792.15,54.3713
 L 791.913,54.4387 L 791.67,54.4765 L 791.423,54.484 z
M 683.208,54.4613 L 682.968,54.4086 L 682.735,54.3268 L 682.515,54.217 L 682.31,54.081 L 682.123,53.9208
 L 681.957,53.7388 L 681.815,53.5379 L 681.698,53.3209 L 681.609,53.0913 L 681.549,52.8525 L 681.519,52.6081
 L 681.519,52.3619 L 681.549,52.1175 L 681.609,51.8787 L 681.698,51.6491 L 681.815,51.4321 L 681.957,51.2311
 L 682.123,51.0492 L 682.31,50.889 L 682.515,50.7529 L 682.735,50.6432 L 682.968,50.5613 L 683.208,50.5087
 L 683.453,50.4859 L 683.7,50.4935 L 683.943,50.5313 L 684.18,50.5987 L 684.406,50.6947 L 684.62,50.8178
 L 684.816,50.9662 L 684.993,51.1376 L 685.147,51.3294 L 685.277,51.5388 L 685.38,51.7625 L 685.455,51.9972
 L 685.5,52.2392 L 685.515,52.485 L 685.5,52.7308 L 685.455,52.9728 L 685.38,53.2075 L 685.277,53.4312
 L 685.147,53.6405 L 684.993,53.8324 L 684.816,54.0038 L 684.62,54.1522 L 684.406,54.2753 L 684.18,54.3713
 L 683.943,54.4387 L 683.7,54.4765 L 683.453,54.484 z
M 647.185,57.4915 L 647.428,57.4537 L 647.665,57.3863 L 647.891,57.2903 L 648.105,57.1672 L 648.301,57.0188
 L 648.478,56.8474 L 648.632,56.6555 L 648.762,56.4462 L 648.865,56.2225 L 648.94,55.9878 L 648.985,55.7458
 L 649,55.5 L 649,-55.5 L 648.985,-55.7458 L 648.94,-55.9878 L 648.865,-56.2225 L 648.762,-56.4462
 L 648.632,-56.6555 L 648.478,-56.8474 L 648.301,-57.0188 L 648.105,-57.1672 L 647.891,-57.2903 L 647.665,-57.3863
 L 647.428,-57.4537 L 647.185,-57.4915 L 646.938,-57.499 L 532.938,-57.499 L 532.693,-57.4763 L 532.453,-57.4236
 L 532.22,-57.3418 L 532,-57.232 L 531.795,-57.096 L 531.608,-56.9358 L 531.442,-56.7538 L 531.3,-56.5529
 L 531.183,-56.3359 L 531.094,-56.1063 L 531.034,-55.8675 L 531.004,-55.6231 L 531.004,55.6231 L 531.034,55.8675
 L 531.094,56.1063 L 531.183,56.3359 L 531.3,56.5529 L 531.442,56.7538 L 531.608,56.9358 L 531.795,57.096
 L 532,57.232 L 532.22,57.3418 L 532.453,57.4236 L 532.693,57.4763 L 532.938,57.499 L 646.938,57.499
 z
M 643.678,-50.5087 L 643.438,-50.5613 L 643.205,-50.6432 L 642.985,-50.7529 L 642.78,-50.889 L 642.593,-51.0492
 L 642.427,-51.2311 L 642.285,-51.4321 L 642.168,-51.6491 L 642.079,-51.8787 L 642.019,-52.1175 L 641.989,-52.3619
 L 641.989,-52.6081 L 642.019,-52.8525 L 642.079,-53.0913 L 642.168,-53.3209 L 642.285,-53.5379 L 642.427,-53.7388
 L 642.593,-53.9208 L 642.78,-54.081 L 642.985,-54.217 L 643.205,-54.3268 L 643.438,-54.4086 L 643.678,-54.4613
 L 643.923,-54.484 L 644.17,-54.4765 L 644.413,-54.4387 L 644.65,-54.3713 L 644.876,-54.2753 L 645.09,-54.1522
 L 645.286,-54.0038 L 645.463,-53.8324 L 645.617,-53.6405 L 645.747,-53.4312 L 645.85,-53.2075 L 645.925,-52.9728
 L 645.97,-52.7308 L 645.985,-52.485 L 645.97,-52.2392 L 645.925,-51.9972 L 645.85,-51.7625 L 645.747,-51.5388
 L 645.617,-51.3294 L 645.463,-51.1376 L 645.286,-50.9662 L 645.09,-50.8178 L 644.876,-50.6947 L 644.65,-50.5987
 L 644.413,-50.5313 L 644.17,-50.4935 L 643.923,-50.4859 z
M 535.708,-50.5087 L 535.468,-50.5613 L 535.235,-50.6432 L 535.015,-50.7529 L 534.81,-50.889 L 534.623,-51.0492
 L 534.457,-51.2311 L 534.315,-51.4321 L 534.198,-51.6491 L 534.109,-51.8787 L 534.049,-52.1175 L 534.019,-52.3619
 L 534.019,-52.6081 L 534.049,-52.8525 L 534.109,-53.0913 L 534.198,-53.3209 L 534.315,-53.5379 L 534.457,-53.7388
 L 534.623,-53.9208 L 534.81,-54.081 L 535.015,-54.217 L 535.235,-54.3268 L 535.468,-54.4086 L 535.708,-54.4613
 L 535.953,-54.484 L 536.2,-54.4765 L 536.443,-54.4387 L 536.68,-54.3713 L 536.906,-54.2753 L 537.12,-54.1522
 L 537.316,-54.0038 L 537.493,-53.8324 L 537.647,-53.6405 L 537.777,-53.4312 L 537.88,-53.2075 L 537.955,-52.9728
 L 538,-52.7308 L 538.015,-52.485 L 538,-52.2392 L 537.955,-51.9972 L 537.88,-51.7625 L 537.777,-51.5388
 L 537.647,-51.3294 L 537.493,-51.1376 L 537.316,-50.9662 L 537.12,-50.8178 L 536.906,-50.6947 L 536.68,-50.5987
 L 536.443,-50.5313 L 536.2,-50.4935 L 535.953,-50.4859 z
M 569.7,-17.65 L 569.345,-17.715 L 569.132,-17.827 L 568.952,-17.9869 L 568.815,-18.1853 L 568.729,-18.4107
 L 568.7,-18.65 L 568.7,-50.15 L 568.765,-50.5046 L 568.877,-50.7181 L 569.037,-50.8985 L 569.235,-51.0354
 L 569.461,-51.1209 L 569.7,-51.15 L 633.5,-51.15 L 633.855,-51.085 L 634.068,-50.973 L 634.249,-50.8131
 L 634.385,-50.6147 L 634.471,-50.3893 L 634.5,-50.15 L 634.5,-18.65 L 634.435,-18.2954 L 634.323,-18.0819
 L 634.163,-17.9015 L 633.965,-17.7645 L 633.739,-17.679 L 633.5,-17.65 z
M 568.438,51.149 L 568.346,51.1448 L 568.101,51.122 L 567.979,51.1032 L 567.739,51.0505 L 567.62,51.0168
 L 567.388,50.9349 L 567.275,50.887 L 567.054,50.7772 L 566.948,50.7156 L 566.742,50.5796 L 566.644,50.5054
 L 566.457,50.3452 L 566.369,50.2595 L 566.203,50.0775 L 566.126,49.9816 L 565.983,49.7806 L 565.919,49.6759
 L 565.802,49.459 L 565.751,49.3472 L 565.662,49.1176 L 565.624,49.0002 L 565.564,48.7614 L 565.542,48.6404
 L 565.511,48.396 L 565.504,48.2731 L 565.504,17.0269 L 565.511,16.904 L 565.542,16.6596 L 565.564,16.5386
 L 565.624,16.2998 L 565.662,16.1824 L 565.751,15.9528 L 565.802,15.841 L 565.919,15.624 L 565.983,15.5194
 L 566.126,15.3184 L 566.203,15.2225 L 566.369,15.0405 L 566.457,14.9548 L 566.644,14.7946 L 566.742,14.7204
 L 566.948,14.5844 L 567.054,14.5228 L 567.275,14.413 L 567.388,14.3651 L 567.62,14.2832 L 567.739,14.2495
 L 567.979,14.1968 L 568.101,14.1779 L 568.346,14.1552 L 568.438,14.151 L 585,14.151 L 585,-3.84999
 L 595,-3.84999 L 595,14.151 L 611.438,14.151 L 611.469,14.1514 L 611.715,14.159 L 611.838,14.1704
 L 612.081,14.2081 L 612.201,14.2345 L 612.438,14.3018 L 612.555,14.3428 L 612.781,14.4388 L 612.891,14.4937
 L 613.105,14.6168 L 613.207,14.6848 L 613.404,14.8332 L 613.497,14.9133 L 613.674,15.0847 L 613.757,15.1757
 L 613.911,15.3676 L 613.983,15.468 L 614.112,15.6773 L 614.17,15.7859 L 614.273,16.0096 L 614.318,16.1244
 L 614.393,16.359 L 614.423,16.4784 L 614.468,16.7205 L 614.483,16.8426 L 614.498,17.0884 L 614.5,17.15
 L 614.5,48.15 L 614.498,48.2116 L 614.483,48.4574 L 614.468,48.5795 L 614.423,48.8215 L 614.393,48.941
 L 614.318,49.1756 L 614.273,49.2904 L 614.17,49.5141 L 614.112,49.6227 L 613.983,49.832 L 613.911,49.9324
 L 613.757,50.1243 L 613.674,50.2153 L 613.497,50.3867 L 613.404,50.4668 L 613.207,50.6152 L 613.105,50.6832
 L 612.891,50.8063 L 612.781,50.8612 L 612.555,50.9572 L 612.438,50.9981 L 612.201,51.0655 L 612.081,51.0919
 L 611.838,51.1296 L 611.715,51.141 L 611.469,51.1486 L 611.438,51.149 z
M 535.708,54.4613 L 535.468,54.4086 L 535.235,54.3268 L 535.015,54.217 L 534.81,54.081 L 534.623,53.9208
 L 534.457,53.7388 L 534.315,53.5379 L 534.198,53.3209 L 534.109,53.0913 L 534.049,52.8525 L 534.019,52.6081
 L 534.019,52.3619 L 534.049,52.1175 L 534.109,51.8787 L 534.198,51.6491 L 534.315,51.4321 L 534.457,51.2311
 L 534.623,51.0492 L 534.81,50.889 L 535.015,50.7529 L 535.235,50.6432 L 535.468,50.5613 L 535.708,50.5087
 L 535.953,50.4859 L 536.2,50.4935 L 536.443,50.5313 L 536.68,50.5987 L 536.906,50.6947 L 537.12,50.8178
 L 537.316,50.9662 L 537.493,51.1376 L 537.647,51.3294 L 537.777,51.5388 L 537.88,51.7625 L 537.955,51.9972
 L 538,52.2392 L 538.015,52.485 L 538,52.7308 L 537.955,52.9728 L 537.88,53.2075 L 537.777,53.4312
 L 537.647,53.6405 L 537.493,53.8324 L 537.316,54.0038 L 537.12,54.1522 L 536.906,54.2753 L 536.68,54.3713
 L 536.443,54.4387 L 536.2,54.4765 L 535.953,54.484 z
M 643.678,54.4613 L 643.438,54.4086 L 643.205,54.3268 L 642.985,54.217 L 642.78,54.081 L 642.593,53.9208
 L 642.427,53.7388 L 642.285,53.5379 L 642.168,53.3209 L 642.079,53.0913 L 642.019,52.8525 L 641.989,52.6081
 L 641.989,52.3619 L 642.019,52.1175 L 642.079,51.8787 L 642.168,51.6491 L 642.285,51.4321 L 642.427,51.2311
 L 642.593,51.0492 L 642.78,50.889 L 642.985,50.7529 L 643.205,50.6432 L 643.438,50.5613 L 643.678,50.5087
 L 643.923,50.4859 L 644.17,50.4935 L 644.413,50.5313 L 644.65,50.5987 L 644.876,50.6947 L 645.09,50.8178
 L 645.286,50.9662 L 645.463,51.1376 L 645.617,51.3294 L 645.747,51.5388 L 645.85,51.7625 L 645.925,51.9972
 L 645.97,52.2392 L 645.985,52.485 L 645.97,52.7308 L 645.925,52.9728 L 645.85,53.2075 L 645.747,53.4312
 L 645.617,53.6405 L 645.463,53.8324 L 645.286,54.0038 L 645.09,54.1522 L 644.876,54.2753 L 644.65,54.3713
 L 644.413,54.4387 L 644.17,54.4765 L 643.923,54.484 z
M -90.3155,57.4915 L -90.0721,57.4537 L -89.8353,57.3863 L -89.6085,57.2903 L -89.3953,57.1672 L -89.1988,57.0188
 L -89.022,56.8474 L -88.8676,56.6555 L -88.738,56.4462 L -88.6351,56.2225 L -88.5604,55.9878 L -88.5152,55.7458
 L -88.5,55.5 L -88.5,-55.5 L -88.5152,-55.7458 L -88.5604,-55.9878 L -88.6351,-56.2225 L -88.738,-56.4462
 L -88.8676,-56.6555 L -89.022,-56.8474 L -89.1988,-57.0188 L -89.3953,-57.1672 L -89.6085,-57.2903 L -89.8353,-57.3863
 L -90.0721,-57.4537 L -90.3155,-57.4915 L -90.5616,-57.499 L -204.562,-57.499 L -204.807,-57.4763 L -205.047,-57.4236
 L -205.28,-57.3418 L -205.5,-57.232 L -205.705,-57.096 L -205.892,-56.9358 L -206.058,-56.7538 L -206.2,-56.5529
 L -206.317,-56.3359 L -206.406,-56.1063 L -206.466,-55.8675 L -206.496,-55.6231 L -206.496,55.6231 L -206.466,55.8675
 L -206.406,56.1063 L -206.317,56.3359 L -206.2,56.5529 L -206.058,56.7538 L -205.892,56.9358 L -205.705,57.096
 L -205.5,57.232 L -205.28,57.3418 L -205.047,57.4236 L -204.807,57.4763 L -204.562,57.499 L -90.5616,57.499
 z
M -201.899,-47.7531 L -202.31,-47.8072 L -202.714,-47.8969 L -203.11,-48.0215 L -203.492,-48.18 L -203.86,-48.3714
 L -204.209,-48.594 L -204.538,-48.8463 L -204.844,-49.1262 L -205.124,-49.4317 L -205.376,-49.7605 L -205.599,-50.11
 L -205.79,-50.4776 L -205.949,-50.8604 L -206.073,-51.2556 L -206.163,-51.6602 L -206.217,-52.071 L -206.235,-52.485
 L -206.217,-52.899 L -206.163,-53.3098 L -206.073,-53.7144 L -205.949,-54.1096 L -205.79,-54.4924 L -205.599,-54.86
 L -205.376,-55.2095 L -205.124,-55.5382 L -204.844,-55.8438 L -204.538,-56.1237 L -204.209,-56.376 L -203.86,-56.5986
 L -203.492,-56.7899 L -203.11,-56.9485 L -202.714,-57.0731 L -202.31,-57.1628 L -201.899,-57.2169 L -201.485,-57.235
 L -201.071,-57.2169 L -200.66,-57.1628 L -200.256,-57.0731 L -199.86,-56.9485 L -199.478,-56.7899 L -199.11,-56.5986
 L -198.76,-56.376 L -198.432,-56.1237 L -198.126,-55.8438 L -197.846,-55.5382 L -197.594,-55.2095 L -197.371,-54.86
 L -197.18,-54.4924 L -197.021,-54.1096 L -196.897,-53.7144 L -196.807,-53.3098 L -196.753,-52.899 L -196.735,-52.485
 L -196.753,-52.071 L -196.807,-51.6602 L -196.897,-51.2556 L -197.021,-50.8604 L -197.18,-50.4776 L -197.371,-50.11
 L -197.594,-49.7605 L -197.846,-49.4317 L -198.126,-49.1262 L -198.432,-48.8463 L -198.76,-48.594 L -199.11,-48.3714
 L -199.478,-48.18 L -199.86,-48.0215 L -200.256,-47.8969 L -200.66,-47.8072 L -201.071,-47.7531 L -201.485,-47.735
 z
M -93.929,-47.7531 L -94.3398,-47.8072 L -94.7444,-47.8969 L -95.1396,-48.0215 L -95.5224,-48.18 L -95.89,-48.3714
 L -96.2395,-48.594 L -96.5683,-48.8463 L -96.8738,-49.1262 L -97.1537,-49.4317 L -97.406,-49.7605 L -97.6286,-50.11
 L -97.82,-50.4776 L -97.9785,-50.8604 L -98.1031,-51.2556 L -98.1928,-51.6602 L -98.2469,-52.071 L -98.265,-52.485
 L -98.2469,-52.899 L -98.1928,-53.3098 L -98.1031,-53.7144 L -97.9785,-54.1096 L -97.82,-54.4924 L -97.6286,-54.86
 L -97.406,-55.2095 L -97.1537,-55.5382 L -96.8738,-55.8438 L -96.5683,-56.1237 L -96.2395,-56.376 L -95.89,-56.5986
 L -95.5224,-56.7899 L -95.1396,-56.9485 L -94.7444,-57.0731 L -94.3398,-57.1628 L -93.929,-57.2169 L -93.515,-57.235
 L -93.101,-57.2169 L -92.6902,-57.1628 L -92.2856,-57.0731 L -91.8904,-56.9485 L -91.5076,-56.7899 L -91.14,-56.5986
 L -90.7905,-56.376 L -90.4618,-56.1237 L -90.1562,-55.8438 L -89.8763,-55.5382 L -89.624,-55.2095 L -89.4014,-54.86
 L -89.2101,-54.4924 L -89.0515,-54.1096 L -88.9269,-53.7144 L -88.8372,-53.3098 L -88.7831,-52.899 L -88.765,-52.485
 L -88.7831,-52.071 L -88.8372,-51.6602 L -88.9269,-51.2556 L -89.0515,-50.8604 L -89.2101,-50.4776 L -89.4014,-50.11
 L -89.624,-49.7605 L -89.8763,-49.4317 L -90.1562,-49.1262 L -90.4618,-48.8463 L -90.7905,-48.594 L -91.14,-48.3714
 L -91.5076,-48.18 L -91.8904,-48.0215 L -92.2856,-47.8969 L -92.6902,-47.8072 L -93.101,-47.7531 L -93.515,-47.735
 z
M -191.146,-40.7188 L -191.388,-40.76 L -191.625,-40.8282 L -191.852,-40.9224 L -192.068,-41.0414 L -192.269,-41.1839
 L -192.452,-41.3479 L -192.616,-41.5314 L -192.759,-41.7322 L -192.878,-41.9476 L -192.972,-42.175 L -193.04,-42.4116
 L -193.081,-42.6542 L -193.095,-42.9 L -193.081,-43.1458 L -193.04,-43.3884 L -192.972,-43.625 L -192.878,-43.8524
 L -192.759,-44.0678 L -192.616,-44.2686 L -192.452,-44.4521 L -192.269,-44.6161 L -192.068,-44.7585 L -191.852,-44.8776
 L -191.625,-44.9718 L -191.388,-45.04 L -191.146,-45.0812 L -190.9,-45.095 L -190.654,-45.0812 L -190.412,-45.04
 L -190.175,-44.9718 L -189.948,-44.8776 L -189.732,-44.7585 L -189.531,-44.6161 L -189.348,-44.4521 L -189.184,-44.2686
 L -189.041,-44.0678 L -188.922,-43.8524 L -188.828,-43.625 L -188.76,-43.3884 L -188.719,-43.1458 L -188.705,-42.9
 L -188.719,-42.6542 L -188.76,-42.4116 L -188.828,-42.175 L -188.922,-41.9476 L -189.041,-41.7322 L -189.184,-41.5314
 L -189.348,-41.3479 L -189.531,-41.1839 L -189.732,-41.0414 L -189.948,-40.9224 L -190.175,-40.8282 L -190.412,-40.76
 L -190.654,-40.7188 L -190.9,-40.705 z
M -171.719,-39.7937 L -171.964,-39.8097 L -172.204,-39.8576 L -172.436,-39.9364 L -172.656,-40.0449 L -172.86,-40.1812
 L -173.045,-40.3429 L -173.206,-40.5273 L -173.343,-40.7312 L -173.451,-40.9512 L -173.53,-41.1834 L -173.578,-41.424
 L -173.594,-41.6687 L -173.578,-41.9134 L -173.53,-42.154 L -173.451,-42.3862 L -173.343,-42.6062 L -173.206,-42.8101
 L -173.045,-42.9945 L -172.86,-43.1562 L -172.656,-43.2925 L -172.436,-43.401 L -172.204,-43.4798 L -171.964,-43.5276
 L -171.719,-43.5437 L -170.093,-43.5437 L -169.849,-43.5276 L -169.608,-43.4798 L -169.376,-43.401 L -169.156,-43.2925
 L -168.952,-43.1562 L -168.767,-42.9945 L -168.606,-42.8101 L -168.47,-42.6062 L -168.361,-42.3862 L -168.282,-42.154
 L -168.234,-41.9134 L -168.218,-41.6687 L -168.234,-41.424 L -168.282,-41.1834 L -168.361,-40.9512 L -168.47,-40.7312
 L -168.606,-40.5273 L -168.767,-40.3429 L -168.952,-40.1812 L -169.156,-40.0449 L -169.376,-39.9364 L -169.608,-39.8576
 L -169.849,-39.8097 L -170.093,-39.7937 z
M -124.907,-39.7937 L -125.151,-39.8097 L -125.392,-39.8576 L -125.624,-39.9364 L -125.844,-40.0449 L -126.048,-40.1812
 L -126.233,-40.3429 L -126.394,-40.5273 L -126.53,-40.7312 L -126.639,-40.9512 L -126.718,-41.1834 L -126.766,-41.424
 L -126.782,-41.6687 L -126.766,-41.9134 L -126.718,-42.154 L -126.639,-42.3862 L -126.53,-42.6062 L -126.394,-42.8101
 L -126.233,-42.9945 L -126.048,-43.1562 L -125.844,-43.2925 L -125.624,-43.401 L -125.392,-43.4798 L -125.151,-43.5276
 L -124.907,-43.5437 L -123.281,-43.5437 L -123.036,-43.5276 L -122.796,-43.4798 L -122.564,-43.401 L -122.344,-43.2925
 L -122.14,-43.1562 L -121.955,-42.9945 L -121.794,-42.8101 L -121.657,-42.6062 L -121.549,-42.3862 L -121.47,-42.154
 L -121.422,-41.9134 L -121.406,-41.6687 L -121.422,-41.424 L -121.47,-41.1834 L -121.549,-40.9512 L -121.657,-40.7312
 L -121.794,-40.5273 L -121.955,-40.3429 L -122.14,-40.1812 L -122.344,-40.0449 L -122.564,-39.9364 L -122.796,-39.8576
 L -123.036,-39.8097 L -123.281,-39.7937 z
M -186.496,37.499 L -186.496,-37.499 L -108.5,-37.499 L -108.5,37.499 z
M -124.907,43.5437 L -125.151,43.5276 L -125.392,43.4798 L -125.624,43.401 L -125.844,43.2925 L -126.048,43.1562
 L -126.233,42.9945 L -126.394,42.8101 L -126.53,42.6062 L -126.639,42.3862 L -126.718,42.154 L -126.766,41.9134
 L -126.782,41.6687 L -126.766,41.424 L -126.718,41.1834 L -126.639,40.9512 L -126.53,40.7312 L -126.394,40.5273
 L -126.233,40.3429 L -126.048,40.1812 L -125.844,40.0449 L -125.624,39.9364 L -125.392,39.8576 L -125.151,39.8097
 L -124.907,39.7937 L -123.281,39.7937 L -123.036,39.8097 L -122.796,39.8576 L -122.564,39.9364 L -122.344,40.0449
 L -122.14,40.1812 L -121.955,40.3429 L -121.794,40.5273 L -121.657,40.7312 L -121.549,40.9512 L -121.47,41.1834
 L -121.422,41.424 L -121.406,41.6687 L -121.422,41.9134 L -121.47,42.154 L -121.549,42.3862 L -121.657,42.6062
 L -121.794,42.8101 L -121.955,42.9945 L -122.14,43.1562 L -122.344,43.2925 L -122.564,43.401 L -122.796,43.4798
 L -123.036,43.5276 L -123.281,43.5437 z
M -171.719,43.5437 L -171.964,43.5276 L -172.204,43.4798 L -172.436,43.401 L -172.656,43.2925 L -172.86,43.1562
 L -173.045,42.9945 L -173.206,42.8101 L -173.343,42.6062 L -173.451,42.3862 L -173.53,42.154 L -173.578,41.9134
 L -173.594,41.6687 L -173.578,41.424 L -173.53,41.1834 L -173.451,40.9512 L -173.343,40.7312 L -173.206,40.5273
 L -173.045,40.3429 L -172.86,40.1812 L -172.656,40.0449 L -172.436,39.9364 L -172.204,39.8576 L -171.964,39.8097
 L -171.719,39.7937 L -170.093,39.7937 L -169.849,39.8097 L -169.608,39.8576 L -169.376,39.9364 L -169.156,40.0449
 L -168.952,40.1812 L -168.767,40.3429 L -168.606,40.5273 L -168.47,40.7312 L -168.361,40.9512 L -168.282,41.1834
 L -168.234,41.424 L -168.218,41.6687 L -168.234,41.9134 L -168.282,42.154 L -168.361,42.3862 L -168.47,42.6062
 L -168.606,42.8101 L -168.767,42.9945 L -168.952,43.1562 L -169.156,43.2925 L -169.376,43.401 L -169.608,43.4798
 L -169.849,43.5276 L -170.093,43.5437 z
M -104.946,45.0812 L -105.188,45.04 L -105.425,44.9718 L -105.652,44.8776 L -105.868,44.7585 L -106.069,44.6161
 L -106.252,44.4521 L -106.416,44.2686 L -106.559,44.0678 L -106.678,43.8524 L -106.772,43.625 L -106.84,43.3884
 L -106.881,43.1458 L -106.895,42.9 L -106.881,42.6542 L -106.84,42.4116 L -106.772,42.175 L -106.678,41.9476
 L -106.559,41.7322 L -106.416,41.5314 L -106.252,41.3479 L -106.069,41.1839 L -105.868,41.0414 L -105.652,40.9224
 L -105.425,40.8282 L -105.188,40.76 L -104.946,40.7188 L -104.7,40.705 L -104.454,40.7188 L -104.212,40.76
 L -103.975,40.8282 L -103.748,40.9224 L -103.532,41.0414 L -103.331,41.1839 L -103.148,41.3479 L -102.984,41.5314
 L -102.841,41.7322 L -102.722,41.9476 L -102.628,42.175 L -102.56,42.4116 L -102.519,42.6542 L -102.505,42.9
 L -102.519,43.1458 L -102.56,43.3884 L -102.628,43.625 L -102.722,43.8524 L -102.841,44.0678 L -102.984,44.2686
 L -103.148,44.4521 L -103.331,44.6161 L -103.532,44.7585 L -103.748,44.8776 L -103.975,44.9718 L -104.212,45.04
 L -104.454,45.0812 L -104.7,45.095 z
M -93.929,57.2169 L -94.3398,57.1628 L -94.7444,57.0731 L -95.1396,56.9485 L -95.5224,56.7899 L -95.89,56.5986
 L -96.2395,56.376 L -96.5683,56.1237 L -96.8738,55.8438 L -97.1537,55.5382 L -97.406,55.2095 L -97.6286,54.86
 L -97.82,54.4924 L -97.9785,54.1096 L -98.1031,53.7144 L -98.1928,53.3098 L -98.2469,52.899 L -98.265,52.485
 L -98.2469,52.071 L -98.1928,51.6602 L -98.1031,51.2556 L -97.9785,50.8604 L -97.82,50.4776 L -97.6286,50.11
 L -97.406,49.7605 L -97.1537,49.4317 L -96.8738,49.1262 L -96.5683,48.8463 L -96.2395,48.594 L -95.89,48.3714
 L -95.5224,48.18 L -95.1396,48.0215 L -94.7444,47.8969 L -94.3398,47.8072 L -93.929,47.7531 L -93.515,47.735
 L -93.101,47.7531 L -92.6902,47.8072 L -92.2856,47.8969 L -91.8904,48.0215 L -91.5076,48.18 L -91.14,48.3714
 L -90.7905,48.594 L -90.4618,48.8463 L -90.1562,49.1262 L -89.8763,49.4317 L -89.624,49.7605 L -89.4014,50.11
 L -89.2101,50.4776 L -89.0515,50.8604 L -88.9269,51.2556 L -88.8372,51.6602 L -88.7831,52.071 L -88.765,52.485
 L -88.7831,52.899 L -88.8372,53.3098 L -88.9269,53.7144 L -89.0515,54.1096 L -89.2101,54.4924 L -89.4014,54.86
 L -89.624,55.2095 L -89.8763,55.5382 L -90.1562,55.8438 L -90.4618,56.1237 L -90.7905,56.376 L -91.14,56.5986
 L -91.5076,56.7899 L -91.8904,56.9485 L -92.2856,57.0731 L -92.6902,57.1628 L -93.101,57.2169 L -93.515,57.235
 z
M -201.899,57.2169 L -202.31,57.1628 L -202.714,57.0731 L -203.11,56.9485 L -203.492,56.7899 L -203.86,56.5986
 L -204.209,56.376 L -204.538,56.1237 L -204.844,55.8438 L -205.124,55.5382 L -205.376,55.2095 L -205.599,54.86
 L -205.79,54.4924 L -205.949,54.1096 L -206.073,53.7144 L -206.163,53.3098 L -206.217,52.899 L -206.235,52.485
 L -206.217,52.071 L -206.163,51.6602 L -206.073,51.2556 L -205.949,50.8604 L -205.79,50.4776 L -205.599,50.11
 L -205.376,49.7605 L -205.124,49.4317 L -204.844,49.1262 L -204.538,48.8463 L -204.209,48.594 L -203.86,48.3714
 L -203.492,48.18 L -203.11,48.0215 L -202.714,47.8969 L -202.31,47.8072 L -201.899,47.7531 L -201.485,47.735
 L -201.071,47.7531 L -200.66,47.8072 L -200.256,47.8969 L -199.86,48.0215 L -199.478,48.18 L -199.11,48.3714
 L -198.76,48.594 L -198.432,48.8463 L -198.126,49.1262 L -197.846,49.4317 L -197.594,49.7605 L -197.371,50.11
 L -197.18,50.4776 L -197.021,50.8604 L -196.897,51.2556 L -196.807,51.6602 L -196.753,52.071 L -196.735,52.485
 L -196.753,52.899 L -196.807,53.3098 L -196.897,53.7144 L -197.021,54.1096 L -197.18,54.4924 L -197.371,54.86
 L -197.594,55.2095 L -197.846,55.5382 L -198.126,55.8438 L -198.432,56.1237 L -198.76,56.376 L -199.11,56.5986
 L -199.478,56.7899 L -199.86,56.9485 L -200.256,57.0731 L -200.66,57.1628 L -201.071,57.2169 L -201.485,57.235
 z
M 352.185,57.4915 L 352.428,57.4537 L 352.665,57.3863 L 352.891,57.2903 L 353.105,57.1672 L 353.301,57.0188
 L 353.478,56.8474 L 353.632,56.6555 L 353.762,56.4462 L 353.865,56.2225 L 353.94,55.9878 L 353.985,55.7458
 L 354,55.5 L 354,-55.5 L 353.985,-55.7458 L 353.94,-55.9878 L 353.865,-56.2225 L 353.762,-56.4462
 L 353.632,-56.6555 L 353.478,-56.8474 L 353.301,-57.0188 L 353.105,-57.1672 L 352.891,-57.2903 L 352.665,-57.3863
 L 352.428,-57.4537 L 352.185,-57.4915 L 351.938,-57.499 L 237.938,-57.499 L 237.693,-57.4763 L 237.453,-57.4236
 L 237.22,-57.3418 L 237,-57.232 L 236.795,-57.096 L 236.608,-56.9358 L 236.442,-56.7538 L 236.3,-56.5529
 L 236.183,-56.3359 L 236.094,-56.1063 L 236.034,-55.8675 L 236.004,-55.6231 L 236.004,55.6231 L 236.034,55.8675
 L 236.094,56.1063 L 236.183,56.3359 L 236.3,56.5529 L 236.442,56.7538 L 236.608,56.9358 L 236.795,57.096
 L 237,57.232 L 237.22,57.3418 L 237.453,57.4236 L 237.693,57.4763 L 237.938,57.499 L 351.938,57.499
 z
M 240.707,-50.0292 L 240.464,-50.0721 L 240.227,-50.1389 L 239.997,-50.229 L 239.778,-50.3416 L 239.57,-50.4754
 L 239.377,-50.6293 L 239.201,-50.8016 L 239.042,-50.9906 L 238.903,-51.1944 L 238.785,-51.4111 L 238.689,-51.6385
 L 238.617,-51.8743 L 238.568,-52.1161 L 238.543,-52.3616 L 238.543,-52.6084 L 238.568,-52.8539 L 238.617,-53.0957
 L 238.689,-53.3315 L 238.785,-53.5589 L 238.903,-53.7755 L 239.042,-53.9794 L 239.201,-54.1684 L 239.377,-54.3407
 L 239.57,-54.4945 L 239.778,-54.6284 L 239.997,-54.741 L 240.227,-54.8311 L 240.464,-54.8979 L 240.707,-54.9408
 L 240.953,-54.9592 L 241.2,-54.9531 L 241.445,-54.9224 L 241.685,-54.8675 L 241.919,-54.7889 L 242.144,-54.6874
 L 242.358,-54.5641 L 242.558,-54.42 L 242.743,-54.2568 L 242.911,-54.0759 L 243.06,-53.8792 L 243.189,-53.6687
 L 243.296,-53.4464 L 243.38,-53.2145 L 243.441,-52.9754 L 243.478,-52.7314 L 243.49,-52.485 L 243.478,-52.2386
 L 243.441,-51.9946 L 243.38,-51.7555 L 243.296,-51.5236 L 243.189,-51.3013 L 243.06,-51.0908 L 242.911,-50.8941
 L 242.743,-50.7132 L 242.558,-50.55 L 242.358,-50.4059 L 242.144,-50.2826 L 241.919,-50.1811 L 241.685,-50.1025
 L 241.445,-50.0476 L 241.2,-50.0169 L 240.953,-50.0108 z
M 348.677,-50.0292 L 348.434,-50.0721 L 348.197,-50.1389 L 347.967,-50.229 L 347.747,-50.3416 L 347.54,-50.4754
 L 347.347,-50.6293 L 347.171,-50.8016 L 347.012,-50.9906 L 346.873,-51.1944 L 346.755,-51.4111 L 346.659,-51.6385
 L 346.587,-51.8743 L 346.538,-52.1161 L 346.513,-52.3616 L 346.513,-52.6084 L 346.538,-52.8539 L 346.587,-53.0957
 L 346.659,-53.3315 L 346.755,-53.5589 L 346.873,-53.7755 L 347.012,-53.9794 L 347.171,-54.1684 L 347.347,-54.3407
 L 347.54,-54.4945 L 347.747,-54.6284 L 347.967,-54.741 L 348.197,-54.8311 L 348.434,-54.8979 L 348.677,-54.9408
 L 348.923,-54.9592 L 349.17,-54.9531 L 349.415,-54.9224 L 349.655,-54.8675 L 349.889,-54.7889 L 350.114,-54.6874
 L 350.328,-54.5641 L 350.528,-54.42 L 350.713,-54.2568 L 350.881,-54.0759 L 351.03,-53.8792 L 351.159,-53.6687
 L 351.266,-53.4464 L 351.35,-53.2145 L 351.411,-52.9754 L 351.448,-52.7314 L 351.46,-52.485 L 351.448,-52.2386
 L 351.411,-51.9946 L 351.35,-51.7555 L 351.266,-51.5236 L 351.159,-51.3013 L 351.03,-51.0908 L 350.881,-50.8941
 L 350.713,-50.7132 L 350.528,-50.55 L 350.328,-50.4059 L 350.114,-50.2826 L 349.889,-50.1811 L 349.655,-50.1025
 L 349.415,-50.0476 L 349.17,-50.0169 L 348.923,-50.0108 z
M 270,14.849 L 270,-4.14999 L 250,-4.14999 L 249.645,-4.21498 L 249.432,-4.32701 L 249.251,-4.48688
 L 249.115,-4.68527 L 249.029,-4.91068 L 249,-5.14999 L 249,-50.15 L 249.065,-50.5046 L 249.177,-50.7181
 L 249.337,-50.8985 L 249.535,-51.0354 L 249.761,-51.1209 L 250,-51.15 L 340,-51.15 L 340.355,-51.085
 L 340.568,-50.973 L 340.749,-50.8131 L 340.885,-50.6147 L 340.971,-50.3893 L 341,-50.15 L 341,-5.14999
 L 340.935,-4.79539 L 340.823,-4.58192 L 340.663,-4.40149 L 340.465,-4.26454 L 340.239,-4.17905 L 340,-4.14999
 L 300,-4.14999 L 300,14.849 z
M 240.707,54.9408 L 240.464,54.8979 L 240.227,54.8311 L 239.997,54.741 L 239.778,54.6284 L 239.57,54.4945
 L 239.377,54.3407 L 239.201,54.1684 L 239.042,53.9794 L 238.903,53.7755 L 238.785,53.5589 L 238.689,53.3315
 L 238.617,53.0957 L 238.568,52.8539 L 238.543,52.6084 L 238.543,52.3616 L 238.568,52.1161 L 238.617,51.8743
 L 238.689,51.6385 L 238.785,51.4111 L 238.903,51.1944 L 239.042,50.9906 L 239.201,50.8016 L 239.377,50.6293
 L 239.57,50.4754 L 239.778,50.3416 L 239.997,50.229 L 240.227,50.1389 L 240.464,50.0721 L 240.707,50.0292
 L 240.953,50.0108 L 241.2,50.0169 L 241.445,50.0476 L 241.685,50.1025 L 241.919,50.1811 L 242.144,50.2826
 L 242.358,50.4059 L 242.558,50.55 L 242.743,50.7132 L 242.911,50.8941 L 243.06,51.0908 L 243.189,51.3013
 L 243.296,51.5236 L 243.38,51.7555 L 243.441,51.9946 L 243.478,52.2386 L 243.49,52.485 L 243.478,52.7314
 L 243.441,52.9754 L 243.38,53.2145 L 243.296,53.4464 L 243.189,53.6687 L 243.06,53.8792 L 242.911,54.0759
 L 242.743,54.2568 L 242.558,54.42 L 242.358,54.5641 L 242.144,54.6874 L 241.919,54.7889 L 241.685,54.8675
 L 241.445,54.9224 L 241.2,54.9531 L 240.953,54.9592 z
M 348.677,54.9408 L 348.434,54.8979 L 348.197,54.8311 L 347.967,54.741 L 347.747,54.6284 L 347.54,54.4945
 L 347.347,54.3407 L 347.171,54.1684 L 347.012,53.9794 L 346.873,53.7755 L 346.755,53.5589 L 346.659,53.3315
 L 346.587,53.0957 L 346.538,52.8539 L 346.513,52.6084 L 346.513,52.3616 L 346.538,52.1161 L 346.587,51.8743
 L 346.659,51.6385 L 346.755,51.4111 L 346.873,51.1944 L 347.012,50.9906 L 347.171,50.8016 L 347.347,50.6293
 L 347.54,50.4754 L 347.747,50.3416 L 347.967,50.229 L 348.197,50.1389 L 348.434,50.0721 L 348.677,50.0292
 L 348.923,50.0108 L 349.17,50.0169 L 349.415,50.0476 L 349.655,50.1025 L 349.889,50.1811 L 350.114,50.2826
 L 350.328,50.4059 L 350.528,50.55 L 350.713,50.7132 L 350.881,50.8941 L 351.03,51.0908 L 351.159,51.3013
 L 351.266,51.5236 L 351.35,51.7555 L 351.411,51.9946 L 351.448,52.2386 L 351.46,52.485 L 351.448,52.7314
 L 351.411,52.9754 L 351.35,53.2145 L 351.266,53.4464 L 351.159,53.6687 L 351.03,53.8792 L 350.881,54.0759
 L 350.713,54.2568 L 350.528,54.42 L 350.328,54.5641 L 350.114,54.6874 L 349.889,54.7889 L 349.655,54.8675
 L 349.415,54.9224 L 349.17,54.9531 L 348.923,54.9592 z
M 499.685,57.4915 L 499.928,57.4537 L 500.165,57.3863 L 500.391,57.2903 L 500.605,57.1672 L 500.801,57.0188
 L 500.978,56.8474 L 501.132,56.6555 L 501.262,56.4462 L 501.365,56.2225 L 501.44,55.9878 L 501.485,55.7458
 L 501.5,55.5 L 501.5,-27.4 L 488.5,-27.4 L 488.5,-5.14999 L 488.435,-4.79539 L 488.323,-4.58192
 L 488.163,-4.40149 L 487.965,-4.26454 L 487.739,-4.17905 L 487.5,-4.14999 L 447.5,-4.14999 L 447.5,14.849
 L 417.5,14.849 L 417.5,-4.14999 L 397.5,-4.14999 L 397.145,-4.21498 L 396.932,-4.32701 L 396.751,-4.48688
 L 396.615,-4.68527 L 396.529,-4.91068 L 396.5,-5.14999 L 396.5,-50.15 L 396.565,-50.5046 L 396.677,-50.7181
 L 396.837,-50.8985 L 397.035,-51.0354 L 397.261,-51.1209 L 397.5,-51.15 L 487.5,-51.15 L 487.855,-51.085
 L 488.068,-50.973 L 488.249,-50.8131 L 488.385,-50.6147 L 488.471,-50.3893 L 488.5,-50.15 L 488.5,-41.4
 L 501.5,-41.4 L 501.5,-55.5 L 501.485,-55.7458 L 501.44,-55.9878 L 501.365,-56.2225 L 501.262,-56.4462
 L 501.132,-56.6555 L 500.978,-56.8474 L 500.801,-57.0188 L 500.605,-57.1672 L 500.391,-57.2903 L 500.165,-57.3863
 L 499.928,-57.4537 L 499.685,-57.4915 L 499.438,-57.499 L 385.438,-57.499 L 385.193,-57.4763 L 384.953,-57.4236
 L 384.72,-57.3418 L 384.5,-57.232 L 384.295,-57.096 L 384.108,-56.9358 L 383.942,-56.7538 L 383.8,-56.5529
 L 383.683,-56.3359 L 383.594,-56.1063 L 383.534,-55.8675 L 383.504,-55.6231 L 383.504,55.6231 L 383.534,55.8675
 L 383.594,56.1063 L 383.683,56.3359 L 383.8,56.5529 L 383.942,56.7538 L 384.108,56.9358 L 384.295,57.096
 L 384.5,57.232 L 384.72,57.3418 L 384.953,57.4236 L 385.193,57.4763 L 385.438,57.499 L 499.438,57.499
 z
M 496.177,-50.0292 L 495.934,-50.0721 L 495.697,-50.1389 L 495.467,-50.229 L 495.247,-50.3416 L 495.04,-50.4754
 L 494.847,-50.6293 L 494.671,-50.8016 L 494.512,-50.9906 L 494.373,-51.1944 L 494.255,-51.4111 L 494.159,-51.6385
 L 494.087,-51.8743 L 494.038,-52.1161 L 494.013,-52.3616 L 494.013,-52.6084 L 494.038,-52.8539 L 494.087,-53.0957
 L 494.159,-53.3315 L 494.255,-53.5589 L 494.373,-53.7755 L 494.512,-53.9794 L 494.671,-54.1684 L 494.847,-54.3407
 L 495.04,-54.4945 L 495.247,-54.6284 L 495.467,-54.741 L 495.697,-54.8311 L 495.934,-54.8979 L 496.177,-54.9408
 L 496.423,-54.9592 L 496.67,-54.9531 L 496.915,-54.9224 L 497.155,-54.8675 L 497.389,-54.7889 L 497.614,-54.6874
 L 497.828,-54.5641 L 498.028,-54.42 L 498.213,-54.2568 L 498.381,-54.0759 L 498.53,-53.8792 L 498.659,-53.6687
 L 498.766,-53.4464 L 498.85,-53.2145 L 498.911,-52.9754 L 498.948,-52.7314 L 498.96,-52.485 L 498.948,-52.2386
 L 498.911,-51.9946 L 498.85,-51.7555 L 498.766,-51.5236 L 498.659,-51.3013 L 498.53,-51.0908 L 498.381,-50.8941
 L 498.213,-50.7132 L 498.028,-50.55 L 497.828,-50.4059 L 497.614,-50.2826 L 497.389,-50.1811 L 497.155,-50.1025
 L 496.915,-50.0476 L 496.67,-50.0169 L 496.423,-50.0108 z
M 388.207,-50.0292 L 387.964,-50.0721 L 387.727,-50.1389 L 387.497,-50.229 L 387.278,-50.3416 L 387.07,-50.4754
 L 386.877,-50.6293 L 386.701,-50.8016 L 386.542,-50.9906 L 386.403,-51.1944 L 386.285,-51.4111 L 386.189,-51.6385
 L 386.117,-51.8743 L 386.068,-52.1161 L 386.043,-52.3616 L 386.043,-52.6084 L 386.068,-52.8539 L 386.117,-53.0957
 L 386.189,-53.3315 L 386.285,-53.5589 L 386.403,-53.7755 L 386.542,-53.9794 L 386.701,-54.1684 L 386.877,-54.3407
 L 387.07,-54.4945 L 387.278,-54.6284 L 387.497,-54.741 L 387.727,-54.8311 L 387.964,-54.8979 L 388.207,-54.9408
 L 388.453,-54.9592 L 388.7,-54.9531 L 388.945,-54.9224 L 389.185,-54.8675 L 389.419,-54.7889 L 389.644,-54.6874
 L 389.858,-54.5641 L 390.058,-54.42 L 390.243,-54.2568 L 390.411,-54.0759 L 390.56,-53.8792 L 390.689,-53.6687
 L 390.796,-53.4464 L 390.88,-53.2145 L 390.941,-52.9754 L 390.978,-52.7314 L 390.99,-52.485 L 390.978,-52.2386
 L 390.941,-51.9946 L 390.88,-51.7555 L 390.796,-51.5236 L 390.689,-51.3013 L 390.56,-51.0908 L 390.411,-50.8941
 L 390.243,-50.7132 L 390.058,-50.55 L 389.858,-50.4059 L 389.644,-50.2826 L 389.419,-50.1811 L 389.185,-50.1025
 L 388.945,-50.0476 L 388.7,-50.0169 L 388.453,-50.0108 z
M 496.177,54.9408 L 495.934,54.8979 L 495.697,54.8311 L 495.467,54.741 L 495.247,54.6284 L 495.04,54.4945
 L 494.847,54.3407 L 494.671,54.1684 L 494.512,53.9794 L 494.373,53.7755 L 494.255,53.5589 L 494.159,53.3315
 L 494.087,53.0957 L 494.038,52.8539 L 494.013,52.6084 L 494.013,52.3616 L 494.038,52.1161 L 494.087,51.8743
 L 494.159,51.6385 L 494.255,51.4111 L 494.373,51.1944 L 494.512,50.9906 L 494.671,50.8016 L 494.847,50.6293
 L 495.04,50.4754 L 495.247,50.3416 L 495.467,50.229 L 495.697,50.1389 L 495.934,50.0721 L 496.177,50.0292
 L 496.423,50.0108 L 496.67,50.0169 L 496.915,50.0476 L 497.155,50.1025 L 497.389,50.1811 L 497.614,50.2826
 L 497.828,50.4059 L 498.028,50.55 L 498.213,50.7132 L 498.381,50.8941 L 498.53,51.0908 L 498.659,51.3013
 L 498.766,51.5236 L 498.85,51.7555 L 498.911,51.9946 L 498.948,52.2386 L 498.96,52.485 L 498.948,52.7314
 L 498.911,52.9754 L 498.85,53.2145 L 498.766,53.4464 L 498.659,53.6687 L 498.53,53.8792 L 498.381,54.0759
 L 498.213,54.2568 L 498.028,54.42 L 497.828,54.5641 L 497.614,54.6874 L 497.389,54.7889 L 497.155,54.8675
 L 496.915,54.9224 L 496.67,54.9531 L 496.423,54.9592 z
M 388.207,54.9408 L 387.964,54.8979 L 387.727,54.8311 L 387.497,54.741 L 387.278,54.6284 L 387.07,54.4945
 L 386.877,54.3407 L 386.701,54.1684 L 386.542,53.9794 L 386.403,53.7755 L 386.285,53.5589 L 386.189,53.3315
 L 386.117,53.0957 L 386.068,52.8539 L 386.043,52.6084 L 386.043,52.3616 L 386.068,52.1161 L 386.117,51.8743
 L 386.189,51.6385 L 386.285,51.4111 L 386.403,51.1944 L 386.542,50.9906 L 386.701,50.8016 L 386.877,50.6293
 L 387.07,50.4754 L 387.278,50.3416 L 387.497,50.229 L 387.727,50.1389 L 387.964,50.0721 L 388.207,50.0292
 L 388.453,50.0108 L 388.7,50.0169 L 388.945,50.0476 L 389.185,50.1025 L 389.419,50.1811 L 389.644,50.2826
 L 389.858,50.4059 L 390.058,50.55 L 390.243,50.7132 L 390.411,50.8941 L 390.56,51.0908 L 390.689,51.3013
 L 390.796,51.5236 L 390.88,51.7555 L 390.941,51.9946 L 390.978,52.2386 L 390.99,52.485 L 390.978,52.7314
 L 390.941,52.9754 L 390.88,53.2145 L 390.796,53.4464 L 390.689,53.6687 L 390.56,53.8792 L 390.411,54.0759
 L 390.243,54.2568 L 390.058,54.42 L 389.858,54.5641 L 389.644,54.6874 L 389.419,54.7889 L 389.185,54.8675
 L 388.945,54.9224 L 388.7,54.9531 L 388.453,54.9592 z
M 57.1845,57.4915 L 57.4279,57.4537 L 57.6647,57.3863 L 57.8915,57.2903 L 58.1047,57.1672 L 58.3012,57.0188
 L 58.478,56.8474 L 58.6324,56.6555 L 58.762,56.4462 L 58.8649,56.2225 L 58.9396,55.9878 L 58.9848,55.7458
 L 59,55.5 L 59,-55.5 L 58.9848,-55.7458 L 58.9396,-55.9878 L 58.8649,-56.2225 L 58.762,-56.4462
 L 58.6324,-56.6555 L 58.478,-56.8474 L 58.3012,-57.0188 L 58.1047,-57.1672 L 57.8915,-57.2903 L 57.6647,-57.3863
 L 57.4279,-57.4537 L 57.1845,-57.4915 L 56.9384,-57.499 L -57.0616,-57.499 L -57.3068,-57.4763 L -57.5473,-57.4236
 L -57.7796,-57.3418 L -58,-57.232 L -58.2053,-57.096 L -58.3923,-56.9358 L -58.5582,-56.7538 L -58.7004,-56.5529
 L -58.8169,-56.3359 L -58.9059,-56.1063 L -58.9659,-55.8675 L -58.9962,-55.6231 L -58.9962,55.6231 L -58.9659,55.8675
 L -58.9059,56.1063 L -58.8169,56.3359 L -58.7004,56.5529 L -58.5582,56.7538 L -58.3923,56.9358 L -58.2053,57.096
 L -58,57.232 L -57.7796,57.3418 L -57.5473,57.4236 L -57.3068,57.4763 L -57.0616,57.499 L 56.9384,57.499
 z
M 53.6772,-50.0292 L 53.4342,-50.0721 L 53.1967,-50.1389 L 52.9671,-50.229 L 52.7475,-50.3416 L 52.5402,-50.4754
 L 52.3473,-50.6293 L 52.1707,-50.8016 L 52.0121,-50.9906 L 51.8731,-51.1944 L 51.7551,-51.4111 L 51.6593,-51.6385
 L 51.5865,-51.8743 L 51.5376,-52.1161 L 51.5131,-52.3616 L 51.5131,-52.6084 L 51.5376,-52.8539 L 51.5865,-53.0957
 L 51.6593,-53.3315 L 51.7551,-53.5589 L 51.8731,-53.7755 L 52.0121,-53.9794 L 52.1707,-54.1684 L 52.3473,-54.3407
 L 52.5402,-54.4945 L 52.7475,-54.6284 L 52.9671,-54.741 L 53.1967,-54.8311 L 53.4342,-54.8979 L 53.6772,-54.9408
 L 53.9233,-54.9592 L 54.17,-54.9531 L 54.4148,-54.9224 L 54.6553,-54.8675 L 54.8892,-54.7889 L 55.1141,-54.6874
 L 55.3278,-54.5641 L 55.5281,-54.42 L 55.7131,-54.2568 L 55.881,-54.0759 L 56.0299,-53.8792 L 56.1586,-53.6687
 L 56.2656,-53.4464 L 56.35,-53.2145 L 56.4109,-52.9754 L 56.4477,-52.7314 L 56.46,-52.485 L 56.4477,-52.2386
 L 56.4109,-51.9946 L 56.35,-51.7555 L 56.2656,-51.5236 L 56.1586,-51.3013 L 56.0299,-51.0908 L 55.881,-50.8941
 L 55.7131,-50.7132 L 55.5281,-50.55 L 55.3278,-50.4059 L 55.1141,-50.2826 L 54.8892,-50.1811 L 54.6553,-50.1025
 L 54.4148,-50.0476 L 54.17,-50.0169 L 53.9233,-50.0108 z
M -54.2927,-50.0292 L -54.5357,-50.0721 L -54.7733,-50.1389 L -55.0029,-50.229 L -55.2225,-50.3416 L -55.4298,-50.4754
 L -55.6227,-50.6293 L -55.7993,-50.8016 L -55.9579,-50.9906 L -56.0969,-51.1944 L -56.2149,-51.4111 L -56.3107,-51.6385
 L -56.3835,-51.8743 L -56.4323,-52.1161 L -56.4569,-52.3616 L -56.4569,-52.6084 L -56.4323,-52.8539 L -56.3835,-53.0957
 L -56.3107,-53.3315 L -56.2149,-53.5589 L -56.0969,-53.7755 L -55.9579,-53.9794 L -55.7993,-54.1684 L -55.6227,-54.3407
 L -55.4298,-54.4945 L -55.2225,-54.6284 L -55.0029,-54.741 L -54.7733,-54.8311 L -54.5357,-54.8979 L -54.2927,-54.9408
 L -54.0467,-54.9592 L -53.8,-54.9531 L -53.5552,-54.9224 L -53.3147,-54.8675 L -53.0808,-54.7889 L -52.8559,-54.6874
 L -52.6422,-54.5641 L -52.4418,-54.42 L -52.2569,-54.2568 L -52.089,-54.0759 L -51.94,-53.8792 L -51.8114,-53.6687
 L -51.7043,-53.4464 L -51.6199,-53.2145 L -51.5591,-52.9754 L -51.5223,-52.7314 L -51.51,-52.485 L -51.5223,-52.2386
 L -51.5591,-51.9946 L -51.6199,-51.7555 L -51.7043,-51.5236 L -51.8114,-51.3013 L -51.94,-51.0908 L -52.089,-50.8941
 L -52.2569,-50.7132 L -52.4418,-50.55 L -52.6422,-50.4059 L -52.8559,-50.2826 L -53.0808,-50.1811 L -53.3147,-50.1025
 L -53.5552,-50.0476 L -53.8,-50.0169 L -54.0467,-50.0108 z
M -43.6458,-40.7188 L -43.8884,-40.76 L -44.125,-40.8282 L -44.3524,-40.9224 L -44.5678,-41.0414 L -44.7686,-41.1839
 L -44.9521,-41.3479 L -45.1161,-41.5314 L -45.2585,-41.7322 L -45.3776,-41.9476 L -45.4718,-42.175 L -45.54,-42.4116
 L -45.5812,-42.6542 L -45.595,-42.9 L -45.5812,-43.1458 L -45.54,-43.3884 L -45.4718,-43.625 L -45.3776,-43.8524
 L -45.2585,-44.0678 L -45.1161,-44.2686 L -44.9521,-44.4521 L -44.7686,-44.6161 L -44.5678,-44.7585 L -44.3524,-44.8776
 L -44.125,-44.9718 L -43.8884,-45.04 L -43.6458,-45.0812 L -43.4,-45.095 L -43.1542,-45.0812 L -42.9116,-45.04
 L -42.675,-44.9718 L -42.4476,-44.8776 L -42.2322,-44.7585 L -42.0314,-44.6161 L -41.8479,-44.4521 L -41.6839,-44.2686
 L -41.5414,-44.0678 L -41.4224,-43.8524 L -41.3282,-43.625 L -41.26,-43.3884 L -41.2188,-43.1458 L -41.205,-42.9
 L -41.2188,-42.6542 L -41.26,-42.4116 L -41.3282,-42.175 L -41.4224,-41.9476 L -41.5414,-41.7322 L -41.6839,-41.5314
 L -41.8479,-41.3479 L -42.0314,-41.1839 L -42.2322,-41.0414 L -42.4476,-40.9224 L -42.675,-40.8282 L -42.9116,-40.76
 L -43.1542,-40.7188 L -43.4,-40.705 z
M -24.2189,-39.7937 L -24.4636,-39.8097 L -24.7042,-39.8576 L -24.9364,-39.9364 L -25.1564,-40.0449 L -25.3603,-40.1812
 L -25.5447,-40.3429 L -25.7064,-40.5273 L -25.8427,-40.7312 L -25.9512,-40.9512 L -26.03,-41.1834 L -26.0779,-41.424
 L -26.0939,-41.6687 L -26.0779,-41.9134 L -26.03,-42.154 L -25.9512,-42.3862 L -25.8427,-42.6062 L -25.7064,-42.8101
 L -25.5447,-42.9945 L -25.3603,-43.1562 L -25.1564,-43.2925 L -24.9364,-43.401 L -24.7042,-43.4798 L -24.4636,-43.5276
 L -24.2189,-43.5437 L -22.5933,-43.5437 L -22.3486,-43.5276 L -22.108,-43.4798 L -21.8758,-43.401 L -21.6558,-43.2925
 L -21.4519,-43.1562 L -21.2675,-42.9945 L -21.1058,-42.8101 L -20.9695,-42.6062 L -20.861,-42.3862 L -20.7822,-42.154
 L -20.7343,-41.9134 L -20.7183,-41.6687 L -20.7343,-41.424 L -20.7822,-41.1834 L -20.861,-40.9512 L -20.9695,-40.7312
 L -21.1058,-40.5273 L -21.2675,-40.3429 L -21.4519,-40.1812 L -21.6558,-40.0449 L -21.8758,-39.9364 L -22.108,-39.8576
 L -22.3486,-39.8097 L -22.5933,-39.7937 z
M 22.5933,-39.7937 L 22.3486,-39.8097 L 22.108,-39.8576 L 21.8758,-39.9364 L 21.6558,-40.0449 L 21.4519,-40.1812
 L 21.2675,-40.3429 L 21.1058,-40.5273 L 20.9695,-40.7312 L 20.861,-40.9512 L 20.7822,-41.1834 L 20.7343,-41.424
 L 20.7183,-41.6687 L 20.7343,-41.9134 L 20.7822,-42.154 L 20.861,-42.3862 L 20.9695,-42.6062 L 21.1058,-42.8101
 L 21.2675,-42.9945 L 21.4519,-43.1562 L 21.6558,-43.2925 L 21.8758,-43.401 L 22.108,-43.4798 L 22.3486,-43.5276
 L 22.5933,-43.5437 L 24.2189,-43.5437 L 24.4636,-43.5276 L 24.7042,-43.4798 L 24.9364,-43.401 L 25.1564,-43.2925
 L 25.3603,-43.1562 L 25.5447,-42.9945 L 25.7064,-42.8101 L 25.8427,-42.6062 L 25.9512,-42.3862 L 26.03,-42.154
 L 26.0779,-41.9134 L 26.0939,-41.6687 L 26.0779,-41.424 L 26.03,-41.1834 L 25.9512,-40.9512 L 25.8427,-40.7312
 L 25.7064,-40.5273 L 25.5447,-40.3429 L 25.3603,-40.1812 L 25.1564,-40.0449 L 24.9364,-39.9364 L 24.7042,-39.8576
 L 24.4636,-39.8097 L 24.2189,-39.7937 z
M -25,14.849 L -25,-5.151 L 5,-5.151 L 5,14.849 z
M -24.2189,43.5437 L -24.4636,43.5276 L -24.7042,43.4798 L -24.9364,43.401 L -25.1564,43.2925 L -25.3603,43.1562
 L -25.5447,42.9945 L -25.7064,42.8101 L -25.8427,42.6062 L -25.9512,42.3862 L -26.03,42.154 L -26.0779,41.9134
 L -26.0939,41.6687 L -26.0779,41.424 L -26.03,41.1834 L -25.9512,40.9512 L -25.8427,40.7312 L -25.7064,40.5273
 L -25.5447,40.3429 L -25.3603,40.1812 L -25.1564,40.0449 L -24.9364,39.9364 L -24.7042,39.8576 L -24.4636,39.8097
 L -24.2189,39.7937 L -22.5933,39.7937 L -22.3486,39.8097 L -22.108,39.8576 L -21.8758,39.9364 L -21.6558,40.0449
 L -21.4519,40.1812 L -21.2675,40.3429 L -21.1058,40.5273 L -20.9695,40.7312 L -20.861,40.9512 L -20.7822,41.1834
 L -20.7343,41.424 L -20.7183,41.6687 L -20.7343,41.9134 L -20.7822,42.154 L -20.861,42.3862 L -20.9695,42.6062
 L -21.1058,42.8101 L -21.2675,42.9945 L -21.4519,43.1562 L -21.6558,43.2925 L -21.8758,43.401 L -22.108,43.4798
 L -22.3486,43.5276 L -22.5933,43.5437 z
M 22.5933,43.5437 L 22.3486,43.5276 L 22.108,43.4798 L 21.8758,43.401 L 21.6558,43.2925 L 21.4519,43.1562
 L 21.2675,42.9945 L 21.1058,42.8101 L 20.9695,42.6062 L 20.861,42.3862 L 20.7822,42.154 L 20.7343,41.9134
 L 20.7183,41.6687 L 20.7343,41.424 L 20.7822,41.1834 L 20.861,40.9512 L 20.9695,40.7312 L 21.1058,40.5273
 L 21.2675,40.3429 L 21.4519,40.1812 L 21.6558,40.0449 L 21.8758,39.9364 L 22.108,39.8576 L 22.3486,39.8097
 L 22.5933,39.7937 L 24.2189,39.7937 L 24.4636,39.8097 L 24.7042,39.8576 L 24.9364,39.9364 L 25.1564,40.0449
 L 25.3603,40.1812 L 25.5447,40.3429 L 25.7064,40.5273 L 25.8427,40.7312 L 25.9512,40.9512 L 26.03,41.1834
 L 26.0779,41.424 L 26.0939,41.6687 L 26.0779,41.9134 L 26.03,42.154 L 25.9512,42.3862 L 25.8427,42.6062
 L 25.7064,42.8101 L 25.5447,42.9945 L 25.3603,43.1562 L 25.1564,43.2925 L 24.9364,43.401 L 24.7042,43.4798
 L 24.4636,43.5276 L 24.2189,43.5437 z
M 42.5542,45.0812 L 42.3116,45.04 L 42.075,44.9718 L 41.8476,44.8776 L 41.6322,44.7585 L 41.4314,44.6161
 L 41.2479,44.4521 L 41.0839,44.2686 L 40.9414,44.0678 L 40.8224,43.8524 L 40.7282,43.625 L 40.66,43.3884
 L 40.6188,43.1458 L 40.605,42.9 L 40.6188,42.6542 L 40.66,42.4116 L 40.7282,42.175 L 40.8224,41.9476
 L 40.9414,41.7322 L 41.0839,41.5314 L 41.2479,41.3479 L 41.4314,41.1839 L 41.6322,41.0414 L 41.8476,40.9224
 L 42.075,40.8282 L 42.3116,40.76 L 42.5542,40.7188 L 42.8,40.705 L 43.0458,40.7188 L 43.2884,40.76
 L 43.5249,40.8282 L 43.7524,40.9224 L 43.9678,41.0414 L 44.1685,41.1839 L 44.3521,41.3479 L 44.5161,41.5314
 L 44.6586,41.7322 L 44.7776,41.9476 L 44.8718,42.175 L 44.94,42.4116 L 44.9812,42.6542 L 44.995,42.9
 L 44.9812,43.1458 L 44.94,43.3884 L 44.8718,43.625 L 44.7776,43.8524 L 44.6586,44.0678 L 44.5161,44.2686
 L 44.3521,44.4521 L 44.1685,44.6161 L 43.9678,44.7585 L 43.7524,44.8776 L 43.5249,44.9718 L 43.2884,45.04
 L 43.0458,45.0812 L 42.8,45.095 z
M 53.6772,54.9408 L 53.4342,54.8979 L 53.1967,54.8311 L 52.9671,54.741 L 52.7475,54.6284 L 52.5402,54.4945
 L 52.3473,54.3407 L 52.1707,54.1684 L 52.0121,53.9794 L 51.8731,53.7755 L 51.7551,53.5589 L 51.6593,53.3315
 L 51.5865,53.0957 L 51.5376,52.8539 L 51.5131,52.6084 L 51.5131,52.3616 L 51.5376,52.1161 L 51.5865,51.8743
 L 51.6593,51.6385 L 51.7551,51.4111 L 51.8731,51.1944 L 52.0121,50.9906 L 52.1707,50.8016 L 52.3473,50.6293
 L 52.5402,50.4754 L 52.7475,50.3416 L 52.9671,50.229 L 53.1967,50.1389 L 53.4342,50.0721 L 53.6772,50.0292
 L 53.9233,50.0108 L 54.17,50.0169 L 54.4148,50.0476 L 54.6553,50.1025 L 54.8892,50.1811 L 55.1141,50.2826
 L 55.3278,50.4059 L 55.5281,50.55 L 55.7131,50.7132 L 55.881,50.8941 L 56.0299,51.0908 L 56.1586,51.3013
 L 56.2656,51.5236 L 56.35,51.7555 L 56.4109,51.9946 L 56.4477,52.2386 L 56.46,52.485 L 56.4477,52.7314
 L 56.4109,52.9754 L 56.35,53.2145 L 56.2656,53.4464 L 56.1586,53.6687 L 56.0299,53.8792 L 55.881,54.0759
 L 55.7131,54.2568 L 55.5281,54.42 L 55.3278,54.5641 L 55.1141,54.6874 L 54.8892,54.7889 L 54.6553,54.8675
 L 54.4148,54.9224 L 54.17,54.9531 L 53.9233,54.9592 z
M -54.2927,54.9408 L -54.5357,54.8979 L -54.7733,54.8311 L -55.0029,54.741 L -55.2225,54.6284 L -55.4298,54.4945
 L -55.6227,54.3407 L -55.7993,54.1684 L -55.9579,53.9794 L -56.0969,53.7755 L -56.2149,53.5589 L -56.3107,53.3315
 L -56.3835,53.0957 L -56.4323,52.8539 L -56.4569,52.6084 L -56.4569,52.3616 L -56.4323,52.1161 L -56.3835,51.8743
 L -56.3107,51.6385 L -56.2149,51.4111 L -56.0969,51.1944 L -55.9579,50.9906 L -55.7993,50.8016 L -55.6227,50.6293
 L -55.4298,50.4754 L -55.2225,50.3416 L -55.0029,50.229 L -54.7733,50.1389 L -54.5357,50.0721 L -54.2927,50.0292
 L -54.0467,50.0108 L -53.8,50.0169 L -53.5552,50.0476 L -53.3147,50.1025 L -53.0808,50.1811 L -52.8559,50.2826
 L -52.6422,50.4059 L -52.4418,50.55 L -52.2569,50.7132 L -52.089,50.8941 L -51.94,51.0908 L -51.8114,51.3013
 L -51.7043,51.5236 L -51.6199,51.7555 L -51.5591,51.9946 L -51.5223,52.2386 L -51.51,52.485 L -51.5223,52.7314
 L -51.5591,52.9754 L -51.6199,53.2145 L -51.7043,53.4464 L -51.8114,53.6687 L -51.94,53.8792 L -52.089,54.0759
 L -52.2569,54.2568 L -52.4418,54.42 L -52.6422,54.5641 L -52.8559,54.6874 L -53.0808,54.7889 L -53.3147,54.8675
 L -53.5552,54.9224 L -53.8,54.9531 L -54.0467,54.9592 z
M 204.685,57.4915 L 204.928,57.4537 L 205.165,57.3863 L 205.391,57.2903 L 205.605,57.1672 L 205.801,57.0188
 L 205.978,56.8474 L 206.132,56.6555 L 206.262,56.4462 L 206.365,56.2225 L 206.44,55.9878 L 206.485,55.7458
 L 206.5,55.5 L 206.5,-55.5 L 206.485,-55.7458 L 206.44,-55.9878 L 206.365,-56.2225 L 206.262,-56.4462
 L 206.132,-56.6555 L 205.978,-56.8474 L 205.801,-57.0188 L 205.605,-57.1672 L 205.391,-57.2903 L 205.165,-57.3863
 L 204.928,-57.4537 L 204.685,-57.4915 L 204.438,-57.499 L 90.4384,-57.499 L 90.1932,-57.4763 L 89.9527,-57.4236
 L 89.7204,-57.3418 L 89.5,-57.232 L 89.2947,-57.096 L 89.1077,-56.9358 L 88.9418,-56.7538 L 88.7996,-56.5529
 L 88.6831,-56.3359 L 88.5941,-56.1063 L 88.5341,-55.8675 L 88.5038,-55.6231 L 88.5038,55.6231 L 88.5341,55.8675
 L 88.5941,56.1063 L 88.6831,56.3359 L 88.7996,56.5529 L 88.9418,56.7538 L 89.1077,56.9358 L 89.2947,57.096
 L 89.5,57.232 L 89.7204,57.3418 L 89.9527,57.4236 L 90.1932,57.4763 L 90.4384,57.499 L 204.438,57.499
 z
M 201.177,-50.0292 L 200.934,-50.0721 L 200.697,-50.1389 L 200.467,-50.229 L 200.247,-50.3416 L 200.04,-50.4754
 L 199.847,-50.6293 L 199.671,-50.8016 L 199.512,-50.9906 L 199.373,-51.1944 L 199.255,-51.4111 L 199.159,-51.6385
 L 199.087,-51.8743 L 199.038,-52.1161 L 199.013,-52.3616 L 199.013,-52.6084 L 199.038,-52.8539 L 199.087,-53.0957
 L 199.159,-53.3315 L 199.255,-53.5589 L 199.373,-53.7755 L 199.512,-53.9794 L 199.671,-54.1684 L 199.847,-54.3407
 L 200.04,-54.4945 L 200.247,-54.6284 L 200.467,-54.741 L 200.697,-54.8311 L 200.934,-54.8979 L 201.177,-54.9408
 L 201.423,-54.9592 L 201.67,-54.9531 L 201.915,-54.9224 L 202.155,-54.8675 L 202.389,-54.7889 L 202.614,-54.6874
 L 202.828,-54.5641 L 203.028,-54.42 L 203.213,-54.2568 L 203.381,-54.0759 L 203.53,-53.8792 L 203.659,-53.6687
 L 203.766,-53.4464 L 203.85,-53.2145 L 203.911,-52.9754 L 203.948,-52.7314 L 203.96,-52.485 L 203.948,-52.2386
 L 203.911,-51.9946 L 203.85,-51.7555 L 203.766,-51.5236 L 203.659,-51.3013 L 203.53,-51.0908 L 203.381,-50.8941
 L 203.213,-50.7132 L 203.028,-50.55 L 202.828,-50.4059 L 202.614,-50.2826 L 202.389,-50.1811 L 202.155,-50.1025
 L 201.915,-50.0476 L 201.67,-50.0169 L 201.423,-50.0108 z
M 93.2073,-50.0292 L 92.9643,-50.0721 L 92.7267,-50.1389 L 92.4971,-50.229 L 92.2775,-50.3416 L 92.0702,-50.4754
 L 91.8773,-50.6293 L 91.7007,-50.8016 L 91.5421,-50.9906 L 91.4031,-51.1944 L 91.2851,-51.4111 L 91.1893,-51.6385
 L 91.1165,-51.8743 L 91.0677,-52.1161 L 91.0431,-52.3616 L 91.0431,-52.6084 L 91.0677,-52.8539 L 91.1165,-53.0957
 L 91.1893,-53.3315 L 91.2851,-53.5589 L 91.4031,-53.7755 L 91.5421,-53.9794 L 91.7007,-54.1684 L 91.8773,-54.3407
 L 92.0702,-54.4945 L 92.2775,-54.6284 L 92.4971,-54.741 L 92.7267,-54.8311 L 92.9643,-54.8979 L 93.2073,-54.9408
 L 93.4533,-54.9592 L 93.7,-54.9531 L 93.9448,-54.9224 L 94.1853,-54.8675 L 94.4192,-54.7889 L 94.6441,-54.6874
 L 94.8578,-54.5641 L 95.0582,-54.42 L 95.2431,-54.2568 L 95.411,-54.0759 L 95.56,-53.8792 L 95.6886,-53.6687
 L 95.7957,-53.4464 L 95.8801,-53.2145 L 95.9409,-52.9754 L 95.9777,-52.7314 L 95.99,-52.485 L 95.9777,-52.2386
 L 95.9409,-51.9946 L 95.8801,-51.7555 L 95.7957,-51.5236 L 95.6886,-51.3013 L 95.56,-51.0908 L 95.411,-50.8941
 L 95.2431,-50.7132 L 95.0582,-50.55 L 94.8578,-50.4059 L 94.6441,-50.2826 L 94.4192,-50.1811 L 94.1853,-50.1025
 L 93.9448,-50.0476 L 93.7,-50.0169 L 93.4533,-50.0108 z
M 103.664,-37.919 L 103.232,-37.976 L 102.806,-38.0704 L 102.39,-38.2015 L 101.987,-38.3685 L 101.6,-38.5699
 L 101.232,-38.8042 L 100.886,-39.0698 L 100.564,-39.3645 L 100.27,-39.6861 L 100.004,-40.0321 L 99.7699,-40.4
 L 99.5685,-40.7869 L 99.4016,-41.1899 L 99.2704,-41.6059 L 99.176,-42.0318 L 99.119,-42.4642 L 99.1,-42.9
 L 99.119,-43.3358 L 99.176,-43.7682 L 99.2704,-44.1941 L 99.4016,-44.6101 L 99.5685,-45.0131 L 99.7699,-45.4
 L 100.004,-45.7679 L 100.27,-46.1139 L 100.564,-46.4355 L 100.886,-46.7302 L 101.232,-46.9958 L 101.6,-47.2301
 L 101.987,-47.4315 L 102.39,-47.5984 L 102.806,-47.7296 L 103.232,-47.824 L 103.664,-47.881 L 104.1,-47.9
 L 104.536,-47.881 L 104.968,-47.824 L 105.394,-47.7296 L 105.81,-47.5984 L 106.213,-47.4315 L 106.6,-47.2301
 L 106.968,-46.9958 L 107.314,-46.7302 L 107.636,-46.4355 L 107.93,-46.1139 L 108.196,-45.7679 L 108.43,-45.4
 L 108.632,-45.0131 L 108.798,-44.6101 L 108.93,-44.1941 L 109.024,-43.7682 L 109.081,-43.3358 L 109.1,-42.9
 L 109.081,-42.4642 L 109.024,-42.0318 L 108.93,-41.6059 L 108.798,-41.1899 L 108.632,-40.7869 L 108.43,-40.4
 L 108.196,-40.0321 L 107.93,-39.6861 L 107.636,-39.3645 L 107.314,-39.0698 L 106.968,-38.8042 L 106.6,-38.5699
 L 106.213,-38.3685 L 105.81,-38.2015 L 105.394,-38.0704 L 104.968,-37.976 L 104.536,-37.919 L 104.1,-37.9
 z
M 170.093,-37.1687 L 169.701,-37.1858 L 169.312,-37.2371 L 168.929,-37.322 L 168.554,-37.4401 L 168.192,-37.5903
 L 167.843,-37.7716 L 167.512,-37.9825 L 167.201,-38.2215 L 166.911,-38.4867 L 166.646,-38.7762 L 166.407,-39.0876
 L 166.196,-39.4187 L 166.015,-39.7669 L 165.865,-40.1296 L 165.747,-40.504 L 165.662,-40.8873 L 165.61,-41.2765
 L 165.593,-41.6687 L 165.61,-42.0609 L 165.662,-42.4501 L 165.747,-42.8334 L 165.865,-43.2078 L 166.015,-43.5705
 L 166.196,-43.9187 L 166.407,-44.2498 L 166.646,-44.5612 L 166.911,-44.8507 L 167.201,-45.1159 L 167.512,-45.3549
 L 167.843,-45.5658 L 168.192,-45.7471 L 168.554,-45.8973 L 168.929,-46.0154 L 169.312,-46.1003 L 169.701,-46.1516
 L 170.093,-46.1687 L 171.719,-46.1687 L 172.111,-46.1516 L 172.5,-46.1003 L 172.884,-46.0154 L 173.258,-45.8973
 L 173.621,-45.7471 L 173.969,-45.5658 L 174.3,-45.3549 L 174.611,-45.1159 L 174.901,-44.8507 L 175.166,-44.5612
 L 175.405,-44.2498 L 175.616,-43.9187 L 175.797,-43.5705 L 175.948,-43.2078 L 176.066,-42.8334 L 176.151,-42.4501
 L 176.202,-42.0609 L 176.219,-41.6687 L 176.202,-41.2765 L 176.151,-40.8873 L 176.066,-40.504 L 175.948,-40.1296
 L 175.797,-39.7669 L 175.616,-39.4187 L 175.405,-39.0876 L 175.166,-38.7762 L 174.901,-38.4867 L 174.611,-38.2215
 L 174.3,-37.9825 L 173.969,-37.7716 L 173.621,-37.5903 L 173.258,-37.4401 L 172.884,-37.322 L 172.5,-37.2371
 L 172.111,-37.1858 L 171.719,-37.1687 z
M 123.281,-37.1687 L 122.889,-37.1858 L 122.5,-37.2371 L 122.116,-37.322 L 121.742,-37.4401 L 121.379,-37.5903
 L 121.031,-37.7716 L 120.7,-37.9825 L 120.389,-38.2215 L 120.099,-38.4867 L 119.834,-38.7762 L 119.595,-39.0876
 L 119.384,-39.4187 L 119.203,-39.7669 L 119.052,-40.1296 L 118.934,-40.504 L 118.849,-40.8873 L 118.798,-41.2765
 L 118.781,-41.6687 L 118.798,-42.0609 L 118.849,-42.4501 L 118.934,-42.8334 L 119.052,-43.2078 L 119.203,-43.5705
 L 119.384,-43.9187 L 119.595,-44.2498 L 119.834,-44.5612 L 120.099,-44.8507 L 120.389,-45.1159 L 120.7,-45.3549
 L 121.031,-45.5658 L 121.379,-45.7471 L 121.742,-45.8973 L 122.116,-46.0154 L 122.5,-46.1003 L 122.889,-46.1516
 L 123.281,-46.1687 L 124.907,-46.1687 L 125.299,-46.1516 L 125.688,-46.1003 L 126.071,-46.0154 L 126.446,-45.8973
 L 126.808,-45.7471 L 127.157,-45.5658 L 127.488,-45.3549 L 127.799,-45.1159 L 128.089,-44.8507 L 128.354,-44.5612
 L 128.593,-44.2498 L 128.804,-43.9187 L 128.985,-43.5705 L 129.135,-43.2078 L 129.253,-42.8334 L 129.338,-42.4501
 L 129.39,-42.0609 L 129.407,-41.6687 L 129.39,-41.2765 L 129.338,-40.8873 L 129.253,-40.504 L 129.135,-40.1296
 L 128.985,-39.7669 L 128.804,-39.4187 L 128.593,-39.0876 L 128.354,-38.7762 L 128.089,-38.4867 L 127.799,-38.2215
 L 127.488,-37.9825 L 127.157,-37.7716 L 126.808,-37.5903 L 126.446,-37.4401 L 126.071,-37.322 L 125.688,-37.2371
 L 125.299,-37.1858 L 124.907,-37.1687 z
M 122.5,14.849 L 122.5,-5.151 L 152.5,-5.151 L 152.5,14.849 z
M 170.093,46.1687 L 169.701,46.1516 L 169.312,46.1003 L 168.929,46.0154 L 168.554,45.8973 L 168.192,45.7471
 L 167.843,45.5658 L 167.512,45.3549 L 167.201,45.1159 L 166.911,44.8507 L 166.646,44.5612 L 166.407,44.2498
 L 166.196,43.9187 L 166.015,43.5705 L 165.865,43.2078 L 165.747,42.8334 L 165.662,42.4501 L 165.61,42.0609
 L 165.593,41.6687 L 165.61,41.2765 L 165.662,40.8873 L 165.747,40.504 L 165.865,40.1296 L 166.015,39.7669
 L 166.196,39.4187 L 166.407,39.0876 L 166.646,38.7762 L 166.911,38.4867 L 167.201,38.2215 L 167.512,37.9825
 L 167.843,37.7716 L 168.192,37.5903 L 168.554,37.4401 L 168.929,37.322 L 169.312,37.2371 L 169.701,37.1858
 L 170.093,37.1687 L 171.719,37.1687 L 172.111,37.1858 L 172.5,37.2371 L 172.884,37.322 L 173.258,37.4401
 L 173.621,37.5903 L 173.969,37.7716 L 174.3,37.9825 L 174.611,38.2215 L 174.901,38.4867 L 175.166,38.7762
 L 175.405,39.0876 L 175.616,39.4187 L 175.797,39.7669 L 175.948,40.1296 L 176.066,40.504 L 176.151,40.8873
 L 176.202,41.2765 L 176.219,41.6687 L 176.202,42.0609 L 176.151,42.4501 L 176.066,42.8334 L 175.948,43.2078
 L 175.797,43.5705 L 175.616,43.9187 L 175.405,44.2498 L 175.166,44.5612 L 174.901,44.8507 L 174.611,45.1159
 L 174.3,45.3549 L 173.969,45.5658 L 173.621,45.7471 L 173.258,45.8973 L 172.884,46.0154 L 172.5,46.1003
 L 172.111,46.1516 L 171.719,46.1687 z
M 123.281,46.1687 L 122.889,46.1516 L 122.5,46.1003 L 122.116,46.0154 L 121.742,45.8973 L 121.379,45.7471
 L 121.031,45.5658 L 120.7,45.3549 L 120.389,45.1159 L 120.099,44.8507 L 119.834,44.5612 L 119.595,44.2498
 L 119.384,43.9187 L 119.203,43.5705 L 119.052,43.2078 L 118.934,42.8334 L 118.849,42.4501 L 118.798,42.0609
 L 118.781,41.6687 L 118.798,41.2765 L 118.849,40.8873 L 118.934,40.504 L 119.052,40.1296 L 119.203,39.7669
 L 119.384,39.4187 L 119.595,39.0876 L 119.834,38.7762 L 120.099,38.4867 L 120.389,38.2215 L 120.7,37.9825
 L 121.031,37.7716 L 121.379,37.5903 L 121.742,37.4401 L 122.116,37.322 L 122.5,37.2371 L 122.889,37.1858
 L 123.281,37.1687 L 124.907,37.1687 L 125.299,37.1858 L 125.688,37.2371 L 126.071,37.322 L 126.446,37.4401
 L 126.808,37.5903 L 127.157,37.7716 L 127.488,37.9825 L 127.799,38.2215 L 128.089,38.4867 L 128.354,38.7762
 L 128.593,39.0876 L 128.804,39.4187 L 128.985,39.7669 L 129.135,40.1296 L 129.253,40.504 L 129.338,40.8873
 L 129.39,41.2765 L 129.407,41.6687 L 129.39,42.0609 L 129.338,42.4501 L 129.253,42.8334 L 129.135,43.2078
 L 128.985,43.5705 L 128.804,43.9187 L 128.593,44.2498 L 128.354,44.5612 L 128.089,44.8507 L 127.799,45.1159
 L 127.488,45.3549 L 127.157,45.5658 L 126.808,45.7471 L 126.446,45.8973 L 126.071,46.0154 L 125.688,46.1003
 L 125.299,46.1516 L 124.907,46.1687 z
M 189.864,47.881 L 189.432,47.824 L 189.006,47.7296 L 188.59,47.5984 L 188.187,47.4315 L 187.8,47.2301
 L 187.432,46.9958 L 187.086,46.7302 L 186.764,46.4355 L 186.47,46.1139 L 186.204,45.7679 L 185.97,45.4
 L 185.768,45.0131 L 185.602,44.6101 L 185.47,44.1941 L 185.376,43.7682 L 185.319,43.3358 L 185.3,42.9
 L 185.319,42.4642 L 185.376,42.0318 L 185.47,41.6059 L 185.602,41.1899 L 185.768,40.7869 L 185.97,40.4
 L 186.204,40.0321 L 186.47,39.6861 L 186.764,39.3645 L 187.086,39.0698 L 187.432,38.8042 L 187.8,38.5699
 L 188.187,38.3685 L 188.59,38.2015 L 189.006,38.0704 L 189.432,37.976 L 189.864,37.919 L 190.3,37.9
 L 190.736,37.919 L 191.168,37.976 L 191.594,38.0704 L 192.01,38.2015 L 192.413,38.3685 L 192.8,38.5699
 L 193.168,38.8042 L 193.514,39.0698 L 193.836,39.3645 L 194.13,39.6861 L 194.396,40.0321 L 194.63,40.4
 L 194.832,40.7869 L 194.998,41.1899 L 195.13,41.6059 L 195.224,42.0318 L 195.281,42.4642 L 195.3,42.9
 L 195.281,43.3358 L 195.224,43.7682 L 195.13,44.1941 L 194.998,44.6101 L 194.832,45.0131 L 194.63,45.4
 L 194.396,45.7679 L 194.13,46.1139 L 193.836,46.4355 L 193.514,46.7302 L 193.168,46.9958 L 192.8,47.2301
 L 192.413,47.4315 L 192.01,47.5984 L 191.594,47.7296 L 191.168,47.824 L 190.736,47.881 L 190.3,47.9
 z
M 201.177,54.9408 L 200.934,54.8979 L 200.697,54.8311 L 200.467,54.741 L 200.247,54.6284 L 200.04,54.4945
 L 199.847,54.3407 L 199.671,54.1684 L 199.512,53.9794 L 199.373,53.7755 L 199.255,53.5589 L 199.159,53.3315
 L 199.087,53.0957 L 199.038,52.8539 L 199.013,52.6084 L 199.013,52.3616 L 199.038,52.1161 L 199.087,51.8743
 L 199.159,51.6385 L 199.255,51.4111 L 199.373,51.1944 L 199.512,50.9906 L 199.671,50.8016 L 199.847,50.6293
 L 200.04,50.4754 L 200.247,50.3416 L 200.467,50.229 L 200.697,50.1389 L 200.934,50.0721 L 201.177,50.0292
 L 201.423,50.0108 L 201.67,50.0169 L 201.915,50.0476 L 202.155,50.1025 L 202.389,50.1811 L 202.614,50.2826
 L 202.828,50.4059 L 203.028,50.55 L 203.213,50.7132 L 203.381,50.8941 L 203.53,51.0908 L 203.659,51.3013
 L 203.766,51.5236 L 203.85,51.7555 L 203.911,51.9946 L 203.948,52.2386 L 203.96,52.485 L 203.948,52.7314
 L 203.911,52.9754 L 203.85,53.2145 L 203.766,53.4464 L 203.659,53.6687 L 203.53,53.8792 L 203.381,54.0759
 L 203.213,54.2568 L 203.028,54.42 L 202.828,54.5641 L 202.614,54.6874 L 202.389,54.7889 L 202.155,54.8675
 L 201.915,54.9224 L 201.67,54.9531 L 201.423,54.9592 z
M 93.2073,54.9408 L 92.9643,54.8979 L 92.7267,54.8311 L 92.4971,54.741 L 92.2775,54.6284 L 92.0702,54.4945
 L 91.8773,54.3407 L 91.7007,54.1684 L 91.5421,53.9794 L 91.4031,53.7755 L 91.2851,53.5589 L 91.1893,53.3315
 L 91.1165,53.0957 L 91.0677,52.8539 L 91.0431,52.6084 L 91.0431,52.3616 L 91.0677,52.1161 L 91.1165,51.8743
 L 91.1893,51.6385 L 91.2851,51.4111 L 91.4031,51.1944 L 91.5421,50.9906 L 91.7007,50.8016 L 91.8773,50.6293
 L 92.0702,50.4754 L 92.2775,50.3416 L 92.4971,50.229 L 92.7267,50.1389 L 92.9643,50.0721 L 93.2073,50.0292
 L 93.4533,50.0108 L 93.7,50.0169 L 93.9448,50.0476 L 94.1853,50.1025 L 94.4192,50.1811 L 94.6441,50.2826
 L 94.8578,50.4059 L 95.0582,50.55 L 95.2431,50.7132 L 95.411,50.8941 L 95.56,51.0908 L 95.6886,51.3013
 L 95.7957,51.5236 L 95.8801,51.7555 L 95.9409,51.9946 L 95.9777,52.2386 L 95.99,52.485 L 95.9777,52.7314
 L 95.9409,52.9754 L 95.8801,53.2145 L 95.7957,53.4464 L 95.6886,53.6687 L 95.56,53.8792 L 95.411,54.0759
 L 95.2431,54.2568 L 95.0582,54.42 L 94.8578,54.5641 L 94.6441,54.6874 L 94.4192,54.7889 L 94.1853,54.8675
 L 93.9448,54.9224 L 93.7,54.9531 L 93.4533,54.9592 z
M 1029.5,32.4502 L 1029.5,11.5487 L 1010.09,-24.9572 L 1010.09,-24.9574 L 1054.91,-24.9576 L 1054.91,-24.9574
 L 1035.5,11.5477 L 1035.5,32.4502 L 1038.63,35.5797 L 1042.4,35.5797 L 1045.47,29.8061 L 1048.21,31.2652
 L 1051.28,25.493 L 1048.53,24.0339 L 1051.6,18.2599 L 1054.35,19.719 L 1057.42,13.9468 L 1054.67,12.4877
 L 1057.74,6.71367 L 1060.49,8.17278 L 1063.56,2.40054 L 1060.81,0.941437 L 1063.88,-4.83257 L 1066.63,-3.37346
 L 1069.7,-9.14569 L 1066.95,-10.6048 L 1070.02,-16.3788 L 1072.77,-14.9197 L 1075.84,-20.6919 L 1073.09,-22.151
 L 1076.16,-27.925 L 1078.91,-26.4659 L 1081.97,-32.2382 L 1079.23,-33.6973 L 1082.3,-39.4708 L 1082.3,-39.4713
 L 982.7,-39.4708 L 982.699,-39.4703 L 985.769,-33.6968 L 983.025,-32.2381 L 986.095,-26.4659 L 988.838,-27.9245
 L 991.908,-22.1506 L 989.165,-20.6919 L 992.234,-14.9197 L 994.977,-16.3783 L 998.047,-10.6043 L 995.304,-9.14569
 L 998.373,-3.37344 L 1001.12,-4.83209 L 1004.19,0.94191 L 1001.44,2.40054 L 1004.51,8.17278 L 1007.26,6.71414
 L 1010.33,12.4881 L 1007.58,13.9468 L 1010.65,19.719 L 1013.39,18.2604 L 1016.46,24.0344 L 1013.72,25.493
 L 1016.79,31.2653 L 1019.53,29.8066 L 1022.6,35.5797 L 1026.37,35.5797 z
M 862.039,-3.10698 L 868.576,-3.10698 L 868.576,-0 L 875.116,-0 L 875.116,-3.10698 L 881.653,-3.10698
 L 881.653,-0 L 888.193,-0 L 888.193,-3.10698 L 894.73,-3.10698 L 894.73,-0 L 901.27,-0
 L 901.27,-3.10698 L 907.807,-3.10698 L 907.807,-0 L 914.347,-0 L 914.347,-3.10698 L 920.884,-3.10698
 L 920.884,-0 L 927.424,-0 L 927.424,-3.10698 L 933.961,-3.10698 L 933.961,-0 L 940.5,-0
 L 940.5,-16 L 933.962,-16 L 933.962,-12.892 L 930.5,-12.892 L 930.5,-11.892 L 865.5,-11.892
 L 865.5,-12.892 L 862.038,-12.892 L 862.038,-16 L 855.5,-16 L 855.5,-0 L 862.039,-0
 z
M 873.5,6.21599 L 855.5,6.21599 L 855.5,16 L 873.5,16 z
" style="vector-effect:non-scaling-stroke;fill:none;fill-opacity:1;stroke:#000000;stroke-width:0.264583;stroke-miterlimit:4;stroke-dasharray:none;stroke-dashoffset:0;stroke-opacity:1;-inkscape-stroke:hairline"/>
</svg>
