<?xml version="1.0" standalone="no"?>
<!DOCTYPE svg PUBLIC "-//W3C//DTD SVG 1.1//EN" "http://www.w3.org/Graphics/SVG/1.1/DTD/svg11.dtd">
<svg width="1142mm" height="116mm" viewBox="-59 -58 1142 116" xmlns="http://www.w3.org/2000/svg" version="1.1">
<title>OpenSCAD Model</title>
<path d="
M 499.685,57.4915 L 499.928,57.4537 L 500.165,57.3863 L 500.391,57.2903 L 500.605,57.1672 L 500.801,57.0188
 L 500.978,56.8474 L 501.132,56.6555 L 501.262,56.4462 L 501.365,56.2225 L 501.44,55.9878 L 501.485,55.7458
 L 501.5,55.5 L 501.5,-27.4 L 488.5,-27.4 L 488.5,-5.14999 L 488.435,-4.79539 L 488.323,-4.58192
 L 488.163,-4.40149 L 487.965,-4.26454 L 487.739,-4.17905 L 487.5,-4.14999 L 447.5,-4.14999 L 447.5,14.849
 L 417.5,14.849 L 417.5,-4.14999 L 397.5,-4.14999 L 397.145,-4.21498 L 396.932,-4.32701 L 396.751,-4.48688
 L 396.615,-4.68527 L 396.529,-4.91068 L 396.5,-5.14999 L 396.5,-50.15 L 396.565,-50.5046 L 396.677,-50.7181
 L 396.837,-50.8985 L 397.035,-51.0354 L 397.261,-51.1209 L 397.5,-51.15 L 487.5,-51.15 L 487.855,-51.085
 L 488.068,-50.973 L 488.249,-50.8131 L 488.385,-50.6147 L 488.471,-50.3893 L 488.5,-50.15 L 488.5,-41.4
 L 501.5,-41.4 L 501.5,-55.5 L 501.485,-55.7458 L 501.44,-55.9878 L 501.365,-56.2225 L 501.262,-56.4462
 L 501.132,-56.6555 L 500.978,-56.8474 L 500.801,-57.0188 L 500.605,-57.1672 L 500.391,-57.2903 L 500.165,-57.3863
 L 499.928,-57.4537 L 499.685,-57.4915 L 499.438,-57.499 L 385.438,-57.499 L 385.193,-57.4763 L 384.953,-57.4236
 L 384.72,-57.3418 L 384.5,-57.232 L 384.295,-57.096 L 384.108,-56.9358 L 383.942,-56.7538 L 383.8,-56.5529
 L 383.683,-56.3359 L 383.594,-56.1063 L 383.534,-55.8675 L 383.504,-55.6231 L 383.504,55.6231 L 383.534,55.8675
 L 383.594,56.1063 L 383.683,56.3359 L 383.8,56.5529 L 383.942,56.7538 L 384.108,56.9358 L 384.295,57.096
 L 384.5,57.232 L 384.72,57.3418 L 384.953,57.4236 L 385.193,57.4763 L 385.438,57.499 L 499.438,57.499
 z
M 388.229,-49.9794 L 387.984,-50.0227 L 387.744,-50.0902 L 387.512,-50.1812 L 387.29,-50.2949 L 387.081,-50.4301
 L 386.886,-50.5855 L 386.707,-50.7596 L 386.547,-50.9505 L 386.407,-51.1564 L 386.288,-51.3753 L 386.191,-51.6049
 L 386.117,-51.8431 L 386.068,-52.0874 L 386.043,-52.3354 L 386.043,-52.5846 L 386.068,-52.8326 L 386.117,-53.0769
 L 386.191,-53.315 L 386.288,-53.5447 L 386.407,-53.7636 L 386.547,-53.9695 L 386.707,-54.1604 L 386.886,-54.3344
 L 387.081,-54.4898 L 387.29,-54.6251 L 387.512,-54.7388 L 387.744,-54.8298 L 387.984,-54.8973 L 388.229,-54.9406
 L 388.478,-54.9592 L 388.727,-54.953 L 388.974,-54.922 L 389.217,-54.8665 L 389.453,-54.7872 L 389.681,-54.6847
 L 389.896,-54.5601 L 390.099,-54.4146 L 390.286,-54.2497 L 390.455,-54.067 L 390.606,-53.8683 L 390.736,-53.6556
 L 390.844,-53.4311 L 390.929,-53.1969 L 390.99,-52.9554 L 391.028,-52.7089 L 391.04,-52.46 L 391.028,-52.2111
 L 390.99,-51.9646 L 390.929,-51.7231 L 390.844,-51.4889 L 390.736,-51.2644 L 390.606,-51.0517 L 390.455,-50.853
 L 390.286,-50.6703 L 390.099,-50.5054 L 389.896,-50.3599 L 389.681,-50.2353 L 389.453,-50.1328 L 389.217,-50.0534
 L 388.974,-49.998 L 388.727,-49.967 L 388.478,-49.9608 z
M 496.149,-49.9794 L 495.904,-50.0227 L 495.664,-50.0902 L 495.432,-50.1812 L 495.21,-50.2949 L 495.001,-50.4301
 L 494.806,-50.5855 L 494.627,-50.7596 L 494.467,-50.9505 L 494.327,-51.1564 L 494.208,-51.3753 L 494.111,-51.6049
 L 494.037,-51.8431 L 493.988,-52.0874 L 493.963,-52.3354 L 493.963,-52.5846 L 493.988,-52.8326 L 494.037,-53.0769
 L 494.111,-53.315 L 494.208,-53.5447 L 494.327,-53.7636 L 494.467,-53.9695 L 494.627,-54.1604 L 494.806,-54.3344
 L 495.001,-54.4898 L 495.21,-54.6251 L 495.432,-54.7388 L 495.664,-54.8298 L 495.904,-54.8973 L 496.149,-54.9406
 L 496.398,-54.9592 L 496.647,-54.953 L 496.894,-54.922 L 497.137,-54.8665 L 497.373,-54.7872 L 497.601,-54.6847
 L 497.816,-54.5601 L 498.019,-54.4146 L 498.206,-54.2497 L 498.375,-54.067 L 498.526,-53.8683 L 498.656,-53.6556
 L 498.764,-53.4311 L 498.849,-53.1969 L 498.91,-52.9554 L 498.948,-52.7089 L 498.96,-52.46 L 498.948,-52.2111
 L 498.91,-51.9646 L 498.849,-51.7231 L 498.764,-51.4889 L 498.656,-51.2644 L 498.526,-51.0517 L 498.375,-50.853
 L 498.206,-50.6703 L 498.019,-50.5054 L 497.816,-50.3599 L 497.601,-50.2353 L 497.373,-50.1328 L 497.137,-50.0534
 L 496.894,-49.998 L 496.647,-49.967 L 496.398,-49.9608 z
M 496.149,54.9406 L 495.904,54.8973 L 495.664,54.8298 L 495.432,54.7388 L 495.21,54.6251 L 495.001,54.4898
 L 494.806,54.3344 L 494.627,54.1604 L 494.467,53.9695 L 494.327,53.7636 L 494.208,53.5447 L 494.111,53.315
 L 494.037,53.0769 L 493.988,52.8326 L 493.963,52.5846 L 493.963,52.3354 L 493.988,52.0874 L 494.037,51.8431
 L 494.111,51.6049 L 494.208,51.3753 L 494.327,51.1564 L 494.467,50.9505 L 494.627,50.7596 L 494.806,50.5855
 L 495.001,50.4301 L 495.21,50.2949 L 495.432,50.1812 L 495.664,50.0902 L 495.904,50.0227 L 496.149,49.9794
 L 496.398,49.9608 L 496.647,49.967 L 496.894,49.998 L 497.137,50.0534 L 497.373,50.1328 L 497.601,50.2353
 L 497.816,50.3599 L 498.019,50.5054 L 498.206,50.6703 L 498.375,50.853 L 498.526,51.0517 L 498.656,51.2644
 L 498.764,51.4889 L 498.849,51.7231 L 498.91,51.9646 L 498.948,52.2111 L 498.96,52.46 L 498.948,52.7089
 L 498.91,52.9554 L 498.849,53.1969 L 498.764,53.4311 L 498.656,53.6556 L 498.526,53.8683 L 498.375,54.067
 L 498.206,54.2497 L 498.019,54.4146 L 497.816,54.5601 L 497.601,54.6847 L 497.373,54.7872 L 497.137,54.8665
 L 496.894,54.922 L 496.647,54.953 L 496.398,54.9592 z
M 388.229,54.9406 L 387.984,54.8973 L 387.744,54.8298 L 387.512,54.7388 L 387.29,54.6251 L 387.081,54.4898
 L 386.886,54.3344 L 386.707,54.1604 L 386.547,53.9695 L 386.407,53.7636 L 386.288,53.5447 L 386.191,53.315
 L 386.117,53.0769 L 386.068,52.8326 L 386.043,52.5846 L 386.043,52.3354 L 386.068,52.0874 L 386.117,51.8431
 L 386.191,51.6049 L 386.288,51.3753 L 386.407,51.1564 L 386.547,50.9505 L 386.707,50.7596 L 386.886,50.5855
 L 387.081,50.4301 L 387.29,50.2949 L 387.512,50.1812 L 387.744,50.0902 L 387.984,50.0227 L 388.229,49.9794
 L 388.478,49.9608 L 388.727,49.967 L 388.974,49.998 L 389.217,50.0534 L 389.453,50.1328 L 389.681,50.2353
 L 389.896,50.3599 L 390.099,50.5054 L 390.286,50.6703 L 390.455,50.853 L 390.606,51.0517 L 390.736,51.2644
 L 390.844,51.4889 L 390.929,51.7231 L 390.99,51.9646 L 391.028,52.2111 L 391.04,52.46 L 391.028,52.7089
 L 390.99,52.9554 L 390.929,53.1969 L 390.844,53.4311 L 390.736,53.6556 L 390.606,53.8683 L 390.455,54.067
 L 390.286,54.2497 L 390.099,54.4146 L 389.896,54.5601 L 389.681,54.6847 L 389.453,54.7872 L 389.217,54.8665
 L 388.974,54.922 L 388.727,54.953 L 388.478,54.9592 z
M 794.685,57.4915 L 794.928,57.4537 L 795.165,57.3863 L 795.391,57.2903 L 795.605,57.1672 L 795.801,57.0188
 L 795.978,56.8474 L 796.132,56.6555 L 796.262,56.4462 L 796.365,56.2225 L 796.44,55.9878 L 796.485,55.7458
 L 796.5,55.5 L 796.5,-55.5 L 796.485,-55.7458 L 796.44,-55.9878 L 796.365,-56.2225 L 796.262,-56.4462
 L 796.132,-56.6555 L 795.978,-56.8474 L 795.801,-57.0188 L 795.605,-57.1672 L 795.391,-57.2903 L 795.165,-57.3863
 L 794.928,-57.4537 L 794.685,-57.4915 L 794.438,-57.499 L 680.438,-57.499 L 680.193,-57.4763 L 679.953,-57.4236
 L 679.72,-57.3418 L 679.5,-57.232 L 679.295,-57.096 L 679.108,-56.9358 L 678.942,-56.7538 L 678.8,-56.5529
 L 678.683,-56.3359 L 678.594,-56.1063 L 678.534,-55.8675 L 678.504,-55.6231 L 678.504,55.6231 L 678.534,55.8675
 L 678.594,56.1063 L 678.683,56.3359 L 678.8,56.5529 L 678.942,56.7538 L 679.108,56.9358 L 679.295,57.096
 L 679.5,57.232 L 679.72,57.3418 L 679.953,57.4236 L 680.193,57.4763 L 680.438,57.499 L 794.438,57.499
 z
M 683.233,-50.4837 L 682.993,-50.5363 L 682.76,-50.6182 L 682.54,-50.7279 L 682.335,-50.864 L 682.148,-51.0242
 L 681.982,-51.2061 L 681.84,-51.4071 L 681.723,-51.6241 L 681.634,-51.8537 L 681.574,-52.0925 L 681.544,-52.3369
 L 681.544,-52.5831 L 681.574,-52.8275 L 681.634,-53.0663 L 681.723,-53.2959 L 681.84,-53.5129 L 681.982,-53.7138
 L 682.148,-53.8958 L 682.335,-54.056 L 682.54,-54.192 L 682.76,-54.3018 L 682.993,-54.3836 L 683.233,-54.4363
 L 683.478,-54.459 L 683.725,-54.4515 L 683.968,-54.4137 L 684.205,-54.3463 L 684.431,-54.2503 L 684.645,-54.1272
 L 684.841,-53.9788 L 685.018,-53.8074 L 685.172,-53.6155 L 685.302,-53.4062 L 685.405,-53.1825 L 685.48,-52.9478
 L 685.525,-52.7058 L 685.54,-52.46 L 685.525,-52.2142 L 685.48,-51.9722 L 685.405,-51.7375 L 685.302,-51.5138
 L 685.172,-51.3044 L 685.018,-51.1126 L 684.841,-50.9412 L 684.645,-50.7928 L 684.431,-50.6697 L 684.205,-50.5737
 L 683.968,-50.5063 L 683.725,-50.4685 L 683.478,-50.4609 z
M 791.153,-50.4837 L 790.913,-50.5363 L 790.68,-50.6182 L 790.46,-50.7279 L 790.255,-50.864 L 790.068,-51.0242
 L 789.902,-51.2061 L 789.76,-51.4071 L 789.643,-51.6241 L 789.554,-51.8537 L 789.494,-52.0925 L 789.464,-52.3369
 L 789.464,-52.5831 L 789.494,-52.8275 L 789.554,-53.0663 L 789.643,-53.2959 L 789.76,-53.5129 L 789.902,-53.7138
 L 790.068,-53.8958 L 790.255,-54.056 L 790.46,-54.192 L 790.68,-54.3018 L 790.913,-54.3836 L 791.153,-54.4363
 L 791.398,-54.459 L 791.645,-54.4515 L 791.888,-54.4137 L 792.125,-54.3463 L 792.351,-54.2503 L 792.565,-54.1272
 L 792.761,-53.9788 L 792.938,-53.8074 L 793.092,-53.6155 L 793.222,-53.4062 L 793.325,-53.1825 L 793.4,-52.9478
 L 793.445,-52.7058 L 793.46,-52.46 L 793.445,-52.2142 L 793.4,-51.9722 L 793.325,-51.7375 L 793.222,-51.5138
 L 793.092,-51.3044 L 792.938,-51.1126 L 792.761,-50.9412 L 792.565,-50.7928 L 792.351,-50.6697 L 792.125,-50.5737
 L 791.888,-50.5063 L 791.645,-50.4685 L 791.398,-50.4609 z
M 684.955,-21.0119 L 687.7,-22.4715 L 690.77,-16.6975 L 688.025,-15.2379 z
M 784.23,-16.6975 L 787.3,-22.4715 L 790.045,-21.0119 L 786.975,-15.2379 z
M 747.395,52.5799 L 750.465,46.8059 L 753.21,48.2655 L 750.14,54.0395 z
M 721.79,48.2655 L 724.535,46.8059 L 727.605,52.5799 L 724.86,54.0395 z
M 791.153,54.4363 L 790.913,54.3836 L 790.68,54.3018 L 790.46,54.192 L 790.255,54.056 L 790.068,53.8958
 L 789.902,53.7138 L 789.76,53.5129 L 789.643,53.2959 L 789.554,53.0663 L 789.494,52.8275 L 789.464,52.5831
 L 789.464,52.3369 L 789.494,52.0925 L 789.554,51.8537 L 789.643,51.6241 L 789.76,51.4071 L 789.902,51.2061
 L 790.068,51.0242 L 790.255,50.864 L 790.46,50.7279 L 790.68,50.6182 L 790.913,50.5363 L 791.153,50.4837
 L 791.398,50.4609 L 791.645,50.4685 L 791.888,50.5063 L 792.125,50.5737 L 792.351,50.6697 L 792.565,50.7928
 L 792.761,50.9412 L 792.938,51.1126 L 793.092,51.3044 L 793.222,51.5138 L 793.325,51.7375 L 793.4,51.9722
 L 793.445,52.2142 L 793.46,52.46 L 793.445,52.7058 L 793.4,52.9478 L 793.325,53.1825 L 793.222,53.4062
 L 793.092,53.6155 L 792.938,53.8074 L 792.761,53.9788 L 792.565,54.1272 L 792.351,54.2503 L 792.125,54.3463
 L 791.888,54.4137 L 791.645,54.4515 L 791.398,54.459 z
M 683.233,54.4363 L 682.993,54.3836 L 682.76,54.3018 L 682.54,54.192 L 682.335,54.056 L 682.148,53.8958
 L 681.982,53.7138 L 681.84,53.5129 L 681.723,53.2959 L 681.634,53.0663 L 681.574,52.8275 L 681.544,52.5831
 L 681.544,52.3369 L 681.574,52.0925 L 681.634,51.8537 L 681.723,51.6241 L 681.84,51.4071 L 681.982,51.2061
 L 682.148,51.0242 L 682.335,50.864 L 682.54,50.7279 L 682.76,50.6182 L 682.993,50.5363 L 683.233,50.4837
 L 683.478,50.4609 L 683.725,50.4685 L 683.968,50.5063 L 684.205,50.5737 L 684.431,50.6697 L 684.645,50.7928
 L 684.841,50.9412 L 685.018,51.1126 L 685.172,51.3044 L 685.302,51.5138 L 685.405,51.7375 L 685.48,51.9722
 L 685.525,52.2142 L 685.54,52.46 L 685.525,52.7058 L 685.48,52.9478 L 685.405,53.1825 L 685.302,53.4062
 L 685.172,53.6155 L 685.018,53.8074 L 684.841,53.9788 L 684.645,54.1272 L 684.431,54.2503 L 684.205,54.3463
 L 683.968,54.4137 L 683.725,54.4515 L 683.478,54.459 z
M 57.1845,57.4915 L 57.4279,57.4537 L 57.6647,57.3863 L 57.8915,57.2903 L 58.1047,57.1672 L 58.3012,57.0188
 L 58.478,56.8474 L 58.6324,56.6555 L 58.762,56.4462 L 58.8649,56.2225 L 58.9396,55.9878 L 58.9848,55.7458
 L 59,55.5 L 59,-55.5 L 58.9848,-55.7458 L 58.9396,-55.9878 L 58.8649,-56.2225 L 58.762,-56.4462
 L 58.6324,-56.6555 L 58.478,-56.8474 L 58.3012,-57.0188 L 58.1047,-57.1672 L 57.8915,-57.2903 L 57.6647,-57.3863
 L 57.4279,-57.4537 L 57.1845,-57.4915 L 56.9384,-57.499 L -57.0616,-57.499 L -57.3068,-57.4763 L -57.5473,-57.4236
 L -57.7796,-57.3418 L -58,-57.232 L -58.2053,-57.096 L -58.3923,-56.9358 L -58.5582,-56.7538 L -58.7004,-56.5529
 L -58.8169,-56.3359 L -58.9059,-56.1063 L -58.9659,-55.8675 L -58.9962,-55.6231 L -58.9962,55.6231 L -58.9659,55.8675
 L -58.9059,56.1063 L -58.8169,56.3359 L -58.7004,56.5529 L -58.5582,56.7538 L -58.3923,56.9358 L -58.2053,57.096
 L -58,57.232 L -57.7796,57.3418 L -57.5473,57.4236 L -57.3068,57.4763 L -57.0616,57.499 L 56.9384,57.499
 z
M 53.6491,-49.9794 L 53.4037,-50.0227 L 53.1638,-50.0902 L 52.9318,-50.1812 L 52.71,-50.2949 L 52.5006,-50.4301
 L 52.3058,-50.5855 L 52.1274,-50.7596 L 51.9672,-50.9505 L 51.8268,-51.1564 L 51.7076,-51.3753 L 51.6108,-51.6049
 L 51.5373,-51.8431 L 51.4879,-52.0874 L 51.4631,-52.3354 L 51.4631,-52.5846 L 51.4879,-52.8326 L 51.5373,-53.0769
 L 51.6108,-53.315 L 51.7076,-53.5447 L 51.8268,-53.7636 L 51.9672,-53.9695 L 52.1274,-54.1604 L 52.3058,-54.3344
 L 52.5006,-54.4898 L 52.71,-54.6251 L 52.9318,-54.7388 L 53.1638,-54.8298 L 53.4037,-54.8973 L 53.6491,-54.9406
 L 53.8977,-54.9592 L 54.1468,-54.953 L 54.3941,-54.922 L 54.6371,-54.8665 L 54.8734,-54.7872 L 55.1005,-54.6847
 L 55.3164,-54.5601 L 55.5187,-54.4146 L 55.7056,-54.2497 L 55.8751,-54.067 L 56.0256,-53.8683 L 56.1555,-53.6556
 L 56.2637,-53.4311 L 56.3489,-53.1969 L 56.4104,-52.9554 L 56.4476,-52.7089 L 56.46,-52.46 L 56.4476,-52.2111
 L 56.4104,-51.9646 L 56.3489,-51.7231 L 56.2637,-51.4889 L 56.1555,-51.2644 L 56.0256,-51.0517 L 55.8751,-50.853
 L 55.7056,-50.6703 L 55.5187,-50.5054 L 55.3164,-50.3599 L 55.1005,-50.2353 L 54.8734,-50.1328 L 54.6371,-50.0534
 L 54.3941,-49.998 L 54.1468,-49.967 L 53.8977,-49.9608 z
M -54.2709,-49.9794 L -54.5163,-50.0227 L -54.7562,-50.0902 L -54.9882,-50.1812 L -55.21,-50.2949 L -55.4194,-50.4301
 L -55.6142,-50.5855 L -55.7926,-50.7596 L -55.9528,-50.9505 L -56.0932,-51.1564 L -56.2124,-51.3753 L -56.3092,-51.6049
 L -56.3827,-51.8431 L -56.4321,-52.0874 L -56.4569,-52.3354 L -56.4569,-52.5846 L -56.4321,-52.8326 L -56.3827,-53.0769
 L -56.3092,-53.315 L -56.2124,-53.5447 L -56.0932,-53.7636 L -55.9528,-53.9695 L -55.7926,-54.1604 L -55.6142,-54.3344
 L -55.4194,-54.4898 L -55.21,-54.6251 L -54.9882,-54.7388 L -54.7562,-54.8298 L -54.5163,-54.8973 L -54.2709,-54.9406
 L -54.0223,-54.9592 L -53.7732,-54.953 L -53.5259,-54.922 L -53.2829,-54.8665 L -53.0466,-54.7872 L -52.8195,-54.6847
 L -52.6036,-54.5601 L -52.4013,-54.4146 L -52.2144,-54.2497 L -52.0449,-54.067 L -51.8944,-53.8683 L -51.7644,-53.6556
 L -51.6563,-53.4311 L -51.5711,-53.1969 L -51.5096,-52.9554 L -51.4724,-52.7089 L -51.46,-52.46 L -51.4724,-52.2111
 L -51.5096,-51.9646 L -51.5711,-51.7231 L -51.6563,-51.4889 L -51.7644,-51.2644 L -51.8944,-51.0517 L -52.0449,-50.853
 L -52.2144,-50.6703 L -52.4013,-50.5054 L -52.6036,-50.3599 L -52.8195,-50.2353 L -53.0466,-50.1328 L -53.2829,-50.0534
 L -53.5259,-49.998 L -53.7732,-49.967 L -54.0223,-49.9608 z
M -43.6458,-40.7188 L -43.8884,-40.76 L -44.125,-40.8282 L -44.3524,-40.9224 L -44.5678,-41.0414 L -44.7686,-41.1839
 L -44.9521,-41.3479 L -45.1161,-41.5314 L -45.2585,-41.7322 L -45.3776,-41.9476 L -45.4718,-42.175 L -45.54,-42.4116
 L -45.5812,-42.6542 L -45.595,-42.9 L -45.5812,-43.1458 L -45.54,-43.3884 L -45.4718,-43.625 L -45.3776,-43.8524
 L -45.2585,-44.0678 L -45.1161,-44.2686 L -44.9521,-44.4521 L -44.7686,-44.6161 L -44.5678,-44.7585 L -44.3524,-44.8776
 L -44.125,-44.9718 L -43.8884,-45.04 L -43.6458,-45.0812 L -43.4,-45.095 L -43.1542,-45.0812 L -42.9116,-45.04
 L -42.675,-44.9718 L -42.4476,-44.8776 L -42.2322,-44.7585 L -42.0314,-44.6161 L -41.8479,-44.4521 L -41.6839,-44.2686
 L -41.5414,-44.0678 L -41.4224,-43.8524 L -41.3282,-43.625 L -41.26,-43.3884 L -41.2188,-43.1458 L -41.205,-42.9
 L -41.2188,-42.6542 L -41.26,-42.4116 L -41.3282,-42.175 L -41.4224,-41.9476 L -41.5414,-41.7322 L -41.6839,-41.5314
 L -41.8479,-41.3479 L -42.0314,-41.1839 L -42.2322,-41.0414 L -42.4476,-40.9224 L -42.675,-40.8282 L -42.9116,-40.76
 L -43.1542,-40.7188 L -43.4,-40.705 z
M 22.5933,-39.7937 L 22.3486,-39.8097 L 22.108,-39.8576 L 21.8758,-39.9364 L 21.6558,-40.0449 L 21.4519,-40.1812
 L 21.2675,-40.3429 L 21.1058,-40.5273 L 20.9695,-40.7312 L 20.861,-40.9512 L 20.7822,-41.1834 L 20.7343,-41.424
 L 20.7183,-41.6687 L 20.7343,-41.9134 L 20.7822,-42.154 L 20.861,-42.3862 L 20.9695,-42.6062 L 21.1058,-42.8101
 L 21.2675,-42.9945 L 21.4519,-43.1562 L 21.6558,-43.2925 L 21.8758,-43.401 L 22.108,-43.4798 L 22.3486,-43.5276
 L 22.5933,-43.5437 L 24.2189,-43.5437 L 24.4636,-43.5276 L 24.7042,-43.4798 L 24.9364,-43.401 L 25.1564,-43.2925
 L 25.3603,-43.1562 L 25.5447,-42.9945 L 25.7064,-42.8101 L 25.8427,-42.6062 L 25.9512,-42.3862 L 26.03,-42.154
 L 26.0779,-41.9134 L 26.0939,-41.6687 L 26.0779,-41.424 L 26.03,-41.1834 L 25.9512,-40.9512 L 25.8427,-40.7312
 L 25.7064,-40.5273 L 25.5447,-40.3429 L 25.3603,-40.1812 L 25.1564,-40.0449 L 24.9364,-39.9364 L 24.7042,-39.8576
 L 24.4636,-39.8097 L 24.2189,-39.7937 z
M -24.2189,-39.7937 L -24.4636,-39.8097 L -24.7042,-39.8576 L -24.9364,-39.9364 L -25.1564,-40.0449 L -25.3603,-40.1812
 L -25.5447,-40.3429 L -25.7064,-40.5273 L -25.8427,-40.7312 L -25.9512,-40.9512 L -26.03,-41.1834 L -26.0779,-41.424
 L -26.0939,-41.6687 L -26.0779,-41.9134 L -26.03,-42.154 L -25.9512,-42.3862 L -25.8427,-42.6062 L -25.7064,-42.8101
 L -25.5447,-42.9945 L -25.3603,-43.1562 L -25.1564,-43.2925 L -24.9364,-43.401 L -24.7042,-43.4798 L -24.4636,-43.5276
 L -24.2189,-43.5437 L -22.5933,-43.5437 L -22.3486,-43.5276 L -22.108,-43.4798 L -21.8758,-43.401 L -21.6558,-43.2925
 L -21.4519,-43.1562 L -21.2675,-42.9945 L -21.1058,-42.8101 L -20.9695,-42.6062 L -20.861,-42.3862 L -20.7822,-42.154
 L -20.7343,-41.9134 L -20.7183,-41.6687 L -20.7343,-41.424 L -20.7822,-41.1834 L -20.861,-40.9512 L -20.9695,-40.7312
 L -21.1058,-40.5273 L -21.2675,-40.3429 L -21.4519,-40.1812 L -21.6558,-40.0449 L -21.8758,-39.9364 L -22.108,-39.8576
 L -22.3486,-39.8097 L -22.5933,-39.7937 z
M -25,14.849 L -25,-5.151 L 5,-5.151 L 5,14.849 z
M 22.5933,43.5437 L 22.3486,43.5276 L 22.108,43.4798 L 21.8758,43.401 L 21.6558,43.2925 L 21.4519,43.1562
 L 21.2675,42.9945 L 21.1058,42.8101 L 20.9695,42.6062 L 20.861,42.3862 L 20.7822,42.154 L 20.7343,41.9134
 L 20.7183,41.6687 L 20.7343,41.424 L 20.7822,41.1834 L 20.861,40.9512 L 20.9695,40.7312 L 21.1058,40.5273
 L 21.2675,40.3429 L 21.4519,40.1812 L 21.6558,40.0449 L 21.8758,39.9364 L 22.108,39.8576 L 22.3486,39.8097
 L 22.5933,39.7937 L 24.2189,39.7937 L 24.4636,39.8097 L 24.7042,39.8576 L 24.9364,39.9364 L 25.1564,40.0449
 L 25.3603,40.1812 L 25.5447,40.3429 L 25.7064,40.5273 L 25.8427,40.7312 L 25.9512,40.9512 L 26.03,41.1834
 L 26.0779,41.424 L 26.0939,41.6687 L 26.0779,41.9134 L 26.03,42.154 L 25.9512,42.3862 L 25.8427,42.6062
 L 25.7064,42.8101 L 25.5447,42.9945 L 25.3603,43.1562 L 25.1564,43.2925 L 24.9364,43.401 L 24.7042,43.4798
 L 24.4636,43.5276 L 24.2189,43.5437 z
M -24.2189,43.5437 L -24.4636,43.5276 L -24.7042,43.4798 L -24.9364,43.401 L -25.1564,43.2925 L -25.3603,43.1562
 L -25.5447,42.9945 L -25.7064,42.8101 L -25.8427,42.6062 L -25.9512,42.3862 L -26.03,42.154 L -26.0779,41.9134
 L -26.0939,41.6687 L -26.0779,41.424 L -26.03,41.1834 L -25.9512,40.9512 L -25.8427,40.7312 L -25.7064,40.5273
 L -25.5447,40.3429 L -25.3603,40.1812 L -25.1564,40.0449 L -24.9364,39.9364 L -24.7042,39.8576 L -24.4636,39.8097
 L -24.2189,39.7937 L -22.5933,39.7937 L -22.3486,39.8097 L -22.108,39.8576 L -21.8758,39.9364 L -21.6558,40.0449
 L -21.4519,40.1812 L -21.2675,40.3429 L -21.1058,40.5273 L -20.9695,40.7312 L -20.861,40.9512 L -20.7822,41.1834
 L -20.7343,41.424 L -20.7183,41.6687 L -20.7343,41.9134 L -20.7822,42.154 L -20.861,42.3862 L -20.9695,42.6062
 L -21.1058,42.8101 L -21.2675,42.9945 L -21.4519,43.1562 L -21.6558,43.2925 L -21.8758,43.401 L -22.108,43.4798
 L -22.3486,43.5276 L -22.5933,43.5437 z
M 42.5542,45.0812 L 42.3116,45.04 L 42.075,44.9718 L 41.8476,44.8776 L 41.6322,44.7585 L 41.4314,44.6161
 L 41.2479,44.4521 L 41.0839,44.2686 L 40.9414,44.0678 L 40.8224,43.8524 L 40.7282,43.625 L 40.66,43.3884
 L 40.6188,43.1458 L 40.605,42.9 L 40.6188,42.6542 L 40.66,42.4116 L 40.7282,42.175 L 40.8224,41.9476
 L 40.9414,41.7322 L 41.0839,41.5314 L 41.2479,41.3479 L 41.4314,41.1839 L 41.6322,41.0414 L 41.8476,40.9224
 L 42.075,40.8282 L 42.3116,40.76 L 42.5542,40.7188 L 42.8,40.705 L 43.0458,40.7188 L 43.2884,40.76
 L 43.5249,40.8282 L 43.7524,40.9224 L 43.9678,41.0414 L 44.1685,41.1839 L 44.3521,41.3479 L 44.5161,41.5314
 L 44.6586,41.7322 L 44.7776,41.9476 L 44.8718,42.175 L 44.94,42.4116 L 44.9812,42.6542 L 44.995,42.9
 L 44.9812,43.1458 L 44.94,43.3884 L 44.8718,43.625 L 44.7776,43.8524 L 44.6586,44.0678 L 44.5161,44.2686
 L 44.3521,44.4521 L 44.1685,44.6161 L 43.9678,44.7585 L 43.7524,44.8776 L 43.5249,44.9718 L 43.2884,45.04
 L 43.0458,45.0812 L 42.8,45.095 z
M -54.2709,54.9406 L -54.5163,54.8973 L -54.7562,54.8298 L -54.9882,54.7388 L -55.21,54.6251 L -55.4194,54.4898
 L -55.6142,54.3344 L -55.7926,54.1604 L -55.9528,53.9695 L -56.0932,53.7636 L -56.2124,53.5447 L -56.3092,53.315
 L -56.3827,53.0769 L -56.4321,52.8326 L -56.4569,52.5846 L -56.4569,52.3354 L -56.4321,52.0874 L -56.3827,51.8431
 L -56.3092,51.6049 L -56.2124,51.3753 L -56.0932,51.1564 L -55.9528,50.9505 L -55.7926,50.7596 L -55.6142,50.5855
 L -55.4194,50.4301 L -55.21,50.2949 L -54.9882,50.1812 L -54.7562,50.0902 L -54.5163,50.0227 L -54.2709,49.9794
 L -54.0223,49.9608 L -53.7732,49.967 L -53.5259,49.998 L -53.2829,50.0534 L -53.0466,50.1328 L -52.8195,50.2353
 L -52.6036,50.3599 L -52.4013,50.5054 L -52.2144,50.6703 L -52.0449,50.853 L -51.8944,51.0517 L -51.7644,51.2644
 L -51.6563,51.4889 L -51.5711,51.7231 L -51.5096,51.9646 L -51.4724,52.2111 L -51.46,52.46 L -51.4724,52.7089
 L -51.5096,52.9554 L -51.5711,53.1969 L -51.6563,53.4311 L -51.7644,53.6556 L -51.8944,53.8683 L -52.0449,54.067
 L -52.2144,54.2497 L -52.4013,54.4146 L -52.6036,54.5601 L -52.8195,54.6847 L -53.0466,54.7872 L -53.2829,54.8665
 L -53.5259,54.922 L -53.7732,54.953 L -54.0223,54.9592 z
M 53.6491,54.9406 L 53.4037,54.8973 L 53.1638,54.8298 L 52.9318,54.7388 L 52.71,54.6251 L 52.5006,54.4898
 L 52.3058,54.3344 L 52.1274,54.1604 L 51.9672,53.9695 L 51.8268,53.7636 L 51.7076,53.5447 L 51.6108,53.315
 L 51.5373,53.0769 L 51.4879,52.8326 L 51.4631,52.5846 L 51.4631,52.3354 L 51.4879,52.0874 L 51.5373,51.8431
 L 51.6108,51.6049 L 51.7076,51.3753 L 51.8268,51.1564 L 51.9672,50.9505 L 52.1274,50.7596 L 52.3058,50.5855
 L 52.5006,50.4301 L 52.71,50.2949 L 52.9318,50.1812 L 53.1638,50.0902 L 53.4037,50.0227 L 53.6491,49.9794
 L 53.8977,49.9608 L 54.1468,49.967 L 54.3941,49.998 L 54.6371,50.0534 L 54.8734,50.1328 L 55.1005,50.2353
 L 55.3164,50.3599 L 55.5187,50.5054 L 55.7056,50.6703 L 55.8751,50.853 L 56.0256,51.0517 L 56.1555,51.2644
 L 56.2637,51.4889 L 56.3489,51.7231 L 56.4104,51.9646 L 56.4476,52.2111 L 56.46,52.46 L 56.4476,52.7089
 L 56.4104,52.9554 L 56.3489,53.1969 L 56.2637,53.4311 L 56.1555,53.6556 L 56.0256,53.8683 L 55.8751,54.067
 L 55.7056,54.2497 L 55.5187,54.4146 L 55.3164,54.5601 L 55.1005,54.6847 L 54.8734,54.7872 L 54.6371,54.8665
 L 54.3941,54.922 L 54.1468,54.953 L 53.8977,54.9592 z
M 647.185,57.4915 L 647.428,57.4537 L 647.665,57.3863 L 647.891,57.2903 L 648.105,57.1672 L 648.301,57.0188
 L 648.478,56.8474 L 648.632,56.6555 L 648.762,56.4462 L 648.865,56.2225 L 648.94,55.9878 L 648.985,55.7458
 L 649,55.5 L 649,-55.5 L 648.985,-55.7458 L 648.94,-55.9878 L 648.865,-56.2225 L 648.762,-56.4462
 L 648.632,-56.6555 L 648.478,-56.8474 L 648.301,-57.0188 L 648.105,-57.1672 L 647.891,-57.2903 L 647.665,-57.3863
 L 647.428,-57.4537 L 647.185,-57.4915 L 646.938,-57.499 L 532.938,-57.499 L 532.693,-57.4763 L 532.453,-57.4236
 L 532.22,-57.3418 L 532,-57.232 L 531.795,-57.096 L 531.608,-56.9358 L 531.442,-56.7538 L 531.3,-56.5529
 L 531.183,-56.3359 L 531.094,-56.1063 L 531.034,-55.8675 L 531.004,-55.6231 L 531.004,55.6231 L 531.034,55.8675
 L 531.094,56.1063 L 531.183,56.3359 L 531.3,56.5529 L 531.442,56.7538 L 531.608,56.9358 L 531.795,57.096
 L 532,57.232 L 532.22,57.3418 L 532.453,57.4236 L 532.693,57.4763 L 532.938,57.499 L 646.938,57.499
 z
M 535.733,-50.4837 L 535.493,-50.5363 L 535.26,-50.6182 L 535.04,-50.7279 L 534.835,-50.864 L 534.648,-51.0242
 L 534.482,-51.2061 L 534.34,-51.4071 L 534.223,-51.6241 L 534.134,-51.8537 L 534.074,-52.0925 L 534.044,-52.3369
 L 534.044,-52.5831 L 534.074,-52.8275 L 534.134,-53.0663 L 534.223,-53.2959 L 534.34,-53.5129 L 534.482,-53.7138
 L 534.648,-53.8958 L 534.835,-54.056 L 535.04,-54.192 L 535.26,-54.3018 L 535.493,-54.3836 L 535.733,-54.4363
 L 535.978,-54.459 L 536.225,-54.4515 L 536.468,-54.4137 L 536.705,-54.3463 L 536.931,-54.2503 L 537.145,-54.1272
 L 537.341,-53.9788 L 537.518,-53.8074 L 537.672,-53.6155 L 537.802,-53.4062 L 537.905,-53.1825 L 537.98,-52.9478
 L 538.025,-52.7058 L 538.04,-52.46 L 538.025,-52.2142 L 537.98,-51.9722 L 537.905,-51.7375 L 537.802,-51.5138
 L 537.672,-51.3044 L 537.518,-51.1126 L 537.341,-50.9412 L 537.145,-50.7928 L 536.931,-50.6697 L 536.705,-50.5737
 L 536.468,-50.5063 L 536.225,-50.4685 L 535.978,-50.4609 z
M 643.653,-50.4837 L 643.413,-50.5363 L 643.18,-50.6182 L 642.96,-50.7279 L 642.755,-50.864 L 642.568,-51.0242
 L 642.402,-51.2061 L 642.26,-51.4071 L 642.143,-51.6241 L 642.054,-51.8537 L 641.994,-52.0925 L 641.964,-52.3369
 L 641.964,-52.5831 L 641.994,-52.8275 L 642.054,-53.0663 L 642.143,-53.2959 L 642.26,-53.5129 L 642.402,-53.7138
 L 642.568,-53.8958 L 642.755,-54.056 L 642.96,-54.192 L 643.18,-54.3018 L 643.413,-54.3836 L 643.653,-54.4363
 L 643.898,-54.459 L 644.145,-54.4515 L 644.388,-54.4137 L 644.625,-54.3463 L 644.851,-54.2503 L 645.065,-54.1272
 L 645.261,-53.9788 L 645.438,-53.8074 L 645.592,-53.6155 L 645.722,-53.4062 L 645.825,-53.1825 L 645.9,-52.9478
 L 645.945,-52.7058 L 645.96,-52.46 L 645.945,-52.2142 L 645.9,-51.9722 L 645.825,-51.7375 L 645.722,-51.5138
 L 645.592,-51.3044 L 645.438,-51.1126 L 645.261,-50.9412 L 645.065,-50.7928 L 644.851,-50.6697 L 644.625,-50.5737
 L 644.388,-50.5063 L 644.145,-50.4685 L 643.898,-50.4609 z
M 569.7,-17.65 L 569.345,-17.715 L 569.132,-17.827 L 568.952,-17.9869 L 568.815,-18.1853 L 568.729,-18.4107
 L 568.7,-18.65 L 568.7,-50.15 L 568.765,-50.5046 L 568.877,-50.7181 L 569.037,-50.8985 L 569.235,-51.0354
 L 569.461,-51.1209 L 569.7,-51.15 L 633.5,-51.15 L 633.855,-51.085 L 634.068,-50.973 L 634.249,-50.8131
 L 634.385,-50.6147 L 634.471,-50.3893 L 634.5,-50.15 L 634.5,-18.65 L 634.435,-18.2954 L 634.323,-18.0819
 L 634.163,-17.9015 L 633.965,-17.7645 L 633.739,-17.679 L 633.5,-17.65 z
M 568.438,51.149 L 568.346,51.1448 L 568.101,51.122 L 567.979,51.1032 L 567.739,51.0505 L 567.62,51.0168
 L 567.388,50.9349 L 567.275,50.887 L 567.054,50.7772 L 566.948,50.7156 L 566.742,50.5796 L 566.644,50.5054
 L 566.457,50.3452 L 566.369,50.2595 L 566.203,50.0775 L 566.126,49.9816 L 565.983,49.7806 L 565.919,49.6759
 L 565.802,49.459 L 565.751,49.3472 L 565.662,49.1176 L 565.624,49.0002 L 565.564,48.7614 L 565.542,48.6404
 L 565.511,48.396 L 565.504,48.2731 L 565.504,17.0269 L 565.511,16.904 L 565.542,16.6596 L 565.564,16.5386
 L 565.624,16.2998 L 565.662,16.1824 L 565.751,15.9528 L 565.802,15.841 L 565.919,15.624 L 565.983,15.5194
 L 566.126,15.3184 L 566.203,15.2225 L 566.369,15.0405 L 566.457,14.9548 L 566.644,14.7946 L 566.742,14.7204
 L 566.948,14.5844 L 567.054,14.5228 L 567.275,14.413 L 567.388,14.3651 L 567.62,14.2832 L 567.739,14.2495
 L 567.979,14.1968 L 568.101,14.1779 L 568.346,14.1552 L 568.438,14.151 L 585,14.151 L 585,-3.84999
 L 595,-3.84999 L 595,14.151 L 611.438,14.151 L 611.469,14.1514 L 611.715,14.159 L 611.838,14.1704
 L 612.081,14.2081 L 612.201,14.2345 L 612.438,14.3018 L 612.555,14.3428 L 612.781,14.4388 L 612.891,14.4937
 L 613.105,14.6168 L 613.207,14.6848 L 613.404,14.8332 L 613.497,14.9133 L 613.674,15.0847 L 613.757,15.1757
 L 613.911,15.3676 L 613.983,15.468 L 614.112,15.6773 L 614.17,15.7859 L 614.273,16.0096 L 614.318,16.1244
 L 614.393,16.359 L 614.423,16.4784 L 614.468,16.7205 L 614.483,16.8426 L 614.498,17.0884 L 614.5,17.15
 L 614.5,48.15 L 614.498,48.2116 L 614.483,48.4574 L 614.468,48.5795 L 614.423,48.8215 L 614.393,48.941
 L 614.318,49.1756 L 614.273,49.2904 L 614.17,49.5141 L 614.112,49.6227 L 613.983,49.832 L 613.911,49.9324
 L 613.757,50.1243 L 613.674,50.2153 L 613.497,50.3867 L 613.404,50.4668 L 613.207,50.6152 L 613.105,50.6832
 L 612.891,50.8063 L 612.781,50.8612 L 612.555,50.9572 L 612.438,50.9981 L 612.201,51.0655 L 612.081,51.0919
 L 611.838,51.1296 L 611.715,51.141 L 611.469,51.1486 L 611.438,51.149 z
M 535.733,54.4363 L 535.493,54.3836 L 535.26,54.3018 L 535.04,54.192 L 534.835,54.056 L 534.648,53.8958
 L 534.482,53.7138 L 534.34,53.5129 L 534.223,53.2959 L 534.134,53.0663 L 534.074,52.8275 L 534.044,52.5831
 L 534.044,52.3369 L 534.074,52.0925 L 534.134,51.8537 L 534.223,51.6241 L 534.34,51.4071 L 534.482,51.2061
 L 534.648,51.0242 L 534.835,50.864 L 535.04,50.7279 L 535.26,50.6182 L 535.493,50.5363 L 535.733,50.4837
 L 535.978,50.4609 L 536.225,50.4685 L 536.468,50.5063 L 536.705,50.5737 L 536.931,50.6697 L 537.145,50.7928
 L 537.341,50.9412 L 537.518,51.1126 L 537.672,51.3044 L 537.802,51.5138 L 537.905,51.7375 L 537.98,51.9722
 L 538.025,52.2142 L 538.04,52.46 L 538.025,52.7058 L 537.98,52.9478 L 537.905,53.1825 L 537.802,53.4062
 L 537.672,53.6155 L 537.518,53.8074 L 537.341,53.9788 L 537.145,54.1272 L 536.931,54.2503 L 536.705,54.3463
 L 536.468,54.4137 L 536.225,54.4515 L 535.978,54.459 z
M 643.653,54.4363 L 643.413,54.3836 L 643.18,54.3018 L 642.96,54.192 L 642.755,54.056 L 642.568,53.8958
 L 642.402,53.7138 L 642.26,53.5129 L 642.143,53.2959 L 642.054,53.0663 L 641.994,52.8275 L 641.964,52.5831
 L 641.964,52.3369 L 641.994,52.0925 L 642.054,51.8537 L 642.143,51.6241 L 642.26,51.4071 L 642.402,51.2061
 L 642.568,51.0242 L 642.755,50.864 L 642.96,50.7279 L 643.18,50.6182 L 643.413,50.5363 L 643.653,50.4837
 L 643.898,50.4609 L 644.145,50.4685 L 644.388,50.5063 L 644.625,50.5737 L 644.851,50.6697 L 645.065,50.7928
 L 645.261,50.9412 L 645.438,51.1126 L 645.592,51.3044 L 645.722,51.5138 L 645.825,51.7375 L 645.9,51.9722
 L 645.945,52.2142 L 645.96,52.46 L 645.945,52.7058 L 645.9,52.9478 L 645.825,53.1825 L 645.722,53.4062
 L 645.592,53.6155 L 645.438,53.8074 L 645.261,53.9788 L 645.065,54.1272 L 644.851,54.2503 L 644.625,54.3463
 L 644.388,54.4137 L 644.145,54.4515 L 643.898,54.459 z
M 204.685,57.4915 L 204.928,57.4537 L 205.165,57.3863 L 205.391,57.2903 L 205.605,57.1672 L 205.801,57.0188
 L 205.978,56.8474 L 206.132,56.6555 L 206.262,56.4462 L 206.365,56.2225 L 206.44,55.9878 L 206.485,55.7458
 L 206.5,55.5 L 206.5,-55.5 L 206.485,-55.7458 L 206.44,-55.9878 L 206.365,-56.2225 L 206.262,-56.4462
 L 206.132,-56.6555 L 205.978,-56.8474 L 205.801,-57.0188 L 205.605,-57.1672 L 205.391,-57.2903 L 205.165,-57.3863
 L 204.928,-57.4537 L 204.685,-57.4915 L 204.438,-57.499 L 90.4384,-57.499 L 90.1932,-57.4763 L 89.9527,-57.4236
 L 89.7204,-57.3418 L 89.5,-57.232 L 89.2947,-57.096 L 89.1077,-56.9358 L 88.9418,-56.7538 L 88.7996,-56.5529
 L 88.6831,-56.3359 L 88.5941,-56.1063 L 88.5341,-55.8675 L 88.5038,-55.6231 L 88.5038,55.6231 L 88.5341,55.8675
 L 88.5941,56.1063 L 88.6831,56.3359 L 88.7996,56.5529 L 88.9418,56.7538 L 89.1077,56.9358 L 89.2947,57.096
 L 89.5,57.232 L 89.7204,57.3418 L 89.9527,57.4236 L 90.1932,57.4763 L 90.4384,57.499 L 204.438,57.499
 z
M 201.149,-49.9794 L 200.904,-50.0227 L 200.664,-50.0902 L 200.432,-50.1812 L 200.21,-50.2949 L 200.001,-50.4301
 L 199.806,-50.5855 L 199.627,-50.7596 L 199.467,-50.9505 L 199.327,-51.1564 L 199.208,-51.3753 L 199.111,-51.6049
 L 199.037,-51.8431 L 198.988,-52.0874 L 198.963,-52.3354 L 198.963,-52.5846 L 198.988,-52.8326 L 199.037,-53.0769
 L 199.111,-53.315 L 199.208,-53.5447 L 199.327,-53.7636 L 199.467,-53.9695 L 199.627,-54.1604 L 199.806,-54.3344
 L 200.001,-54.4898 L 200.21,-54.6251 L 200.432,-54.7388 L 200.664,-54.8298 L 200.904,-54.8973 L 201.149,-54.9406
 L 201.398,-54.9592 L 201.647,-54.953 L 201.894,-54.922 L 202.137,-54.8665 L 202.373,-54.7872 L 202.601,-54.6847
 L 202.816,-54.5601 L 203.019,-54.4146 L 203.206,-54.2497 L 203.375,-54.067 L 203.526,-53.8683 L 203.656,-53.6556
 L 203.764,-53.4311 L 203.849,-53.1969 L 203.91,-52.9554 L 203.948,-52.7089 L 203.96,-52.46 L 203.948,-52.2111
 L 203.91,-51.9646 L 203.849,-51.7231 L 203.764,-51.4889 L 203.656,-51.2644 L 203.526,-51.0517 L 203.375,-50.853
 L 203.206,-50.6703 L 203.019,-50.5054 L 202.816,-50.3599 L 202.601,-50.2353 L 202.373,-50.1328 L 202.137,-50.0534
 L 201.894,-49.998 L 201.647,-49.967 L 201.398,-49.9608 z
M 93.2291,-49.9794 L 92.9837,-50.0227 L 92.7438,-50.0902 L 92.5118,-50.1812 L 92.29,-50.2949 L 92.0806,-50.4301
 L 91.8858,-50.5855 L 91.7074,-50.7596 L 91.5472,-50.9505 L 91.4068,-51.1564 L 91.2876,-51.3753 L 91.1908,-51.6049
 L 91.1173,-51.8431 L 91.0679,-52.0874 L 91.0431,-52.3354 L 91.0431,-52.5846 L 91.0679,-52.8326 L 91.1173,-53.0769
 L 91.1908,-53.315 L 91.2876,-53.5447 L 91.4068,-53.7636 L 91.5472,-53.9695 L 91.7074,-54.1604 L 91.8858,-54.3344
 L 92.0806,-54.4898 L 92.29,-54.6251 L 92.5118,-54.7388 L 92.7438,-54.8298 L 92.9837,-54.8973 L 93.2291,-54.9406
 L 93.4777,-54.9592 L 93.7268,-54.953 L 93.9741,-54.922 L 94.2171,-54.8665 L 94.4534,-54.7872 L 94.6805,-54.6847
 L 94.8964,-54.5601 L 95.0987,-54.4146 L 95.2856,-54.2497 L 95.4551,-54.067 L 95.6056,-53.8683 L 95.7356,-53.6556
 L 95.8437,-53.4311 L 95.9289,-53.1969 L 95.9904,-52.9554 L 96.0276,-52.7089 L 96.04,-52.46 L 96.0276,-52.2111
 L 95.9904,-51.9646 L 95.9289,-51.7231 L 95.8437,-51.4889 L 95.7356,-51.2644 L 95.6056,-51.0517 L 95.4551,-50.853
 L 95.2856,-50.6703 L 95.0987,-50.5054 L 94.8964,-50.3599 L 94.6805,-50.2353 L 94.4534,-50.1328 L 94.2171,-50.0534
 L 93.9741,-49.998 L 93.7268,-49.967 L 93.4777,-49.9608 z
M 103.664,-37.919 L 103.232,-37.976 L 102.806,-38.0704 L 102.39,-38.2015 L 101.987,-38.3685 L 101.6,-38.5699
 L 101.232,-38.8042 L 100.886,-39.0698 L 100.564,-39.3645 L 100.27,-39.6861 L 100.004,-40.0321 L 99.7699,-40.4
 L 99.5685,-40.7869 L 99.4016,-41.1899 L 99.2704,-41.6059 L 99.176,-42.0318 L 99.119,-42.4642 L 99.1,-42.9
 L 99.119,-43.3358 L 99.176,-43.7682 L 99.2704,-44.1941 L 99.4016,-44.6101 L 99.5685,-45.0131 L 99.7699,-45.4
 L 100.004,-45.7679 L 100.27,-46.1139 L 100.564,-46.4355 L 100.886,-46.7302 L 101.232,-46.9958 L 101.6,-47.2301
 L 101.987,-47.4315 L 102.39,-47.5984 L 102.806,-47.7296 L 103.232,-47.824 L 103.664,-47.881 L 104.1,-47.9
 L 104.536,-47.881 L 104.968,-47.824 L 105.394,-47.7296 L 105.81,-47.5984 L 106.213,-47.4315 L 106.6,-47.2301
 L 106.968,-46.9958 L 107.314,-46.7302 L 107.636,-46.4355 L 107.93,-46.1139 L 108.196,-45.7679 L 108.43,-45.4
 L 108.632,-45.0131 L 108.798,-44.6101 L 108.93,-44.1941 L 109.024,-43.7682 L 109.081,-43.3358 L 109.1,-42.9
 L 109.081,-42.4642 L 109.024,-42.0318 L 108.93,-41.6059 L 108.798,-41.1899 L 108.632,-40.7869 L 108.43,-40.4
 L 108.196,-40.0321 L 107.93,-39.6861 L 107.636,-39.3645 L 107.314,-39.0698 L 106.968,-38.8042 L 106.6,-38.5699
 L 106.213,-38.3685 L 105.81,-38.2015 L 105.394,-38.0704 L 104.968,-37.976 L 104.536,-37.919 L 104.1,-37.9
 z
M 170.093,-37.1687 L 169.701,-37.1858 L 169.312,-37.2371 L 168.929,-37.322 L 168.554,-37.4401 L 168.192,-37.5903
 L 167.843,-37.7716 L 167.512,-37.9825 L 167.201,-38.2215 L 166.911,-38.4867 L 166.646,-38.7762 L 166.407,-39.0876
 L 166.196,-39.4187 L 166.015,-39.7669 L 165.865,-40.1296 L 165.747,-40.504 L 165.662,-40.8873 L 165.61,-41.2765
 L 165.593,-41.6687 L 165.61,-42.0609 L 165.662,-42.4501 L 165.747,-42.8334 L 165.865,-43.2078 L 166.015,-43.5705
 L 166.196,-43.9187 L 166.407,-44.2498 L 166.646,-44.5612 L 166.911,-44.8507 L 167.201,-45.1159 L 167.512,-45.3549
 L 167.843,-45.5658 L 168.192,-45.7471 L 168.554,-45.8973 L 168.929,-46.0154 L 169.312,-46.1003 L 169.701,-46.1516
 L 170.093,-46.1687 L 171.719,-46.1687 L 172.111,-46.1516 L 172.5,-46.1003 L 172.884,-46.0154 L 173.258,-45.8973
 L 173.621,-45.7471 L 173.969,-45.5658 L 174.3,-45.3549 L 174.611,-45.1159 L 174.901,-44.8507 L 175.166,-44.5612
 L 175.405,-44.2498 L 175.616,-43.9187 L 175.797,-43.5705 L 175.948,-43.2078 L 176.066,-42.8334 L 176.151,-42.4501
 L 176.202,-42.0609 L 176.219,-41.6687 L 176.202,-41.2765 L 176.151,-40.8873 L 176.066,-40.504 L 175.948,-40.1296
 L 175.797,-39.7669 L 175.616,-39.4187 L 175.405,-39.0876 L 175.166,-38.7762 L 174.901,-38.4867 L 174.611,-38.2215
 L 174.3,-37.9825 L 173.969,-37.7716 L 173.621,-37.5903 L 173.258,-37.4401 L 172.884,-37.322 L 172.5,-37.2371
 L 172.111,-37.1858 L 171.719,-37.1687 z
M 123.281,-37.1687 L 122.889,-37.1858 L 122.5,-37.2371 L 122.116,-37.322 L 121.742,-37.4401 L 121.379,-37.5903
 L 121.031,-37.7716 L 120.7,-37.9825 L 120.389,-38.2215 L 120.099,-38.4867 L 119.834,-38.7762 L 119.595,-39.0876
 L 119.384,-39.4187 L 119.203,-39.7669 L 119.052,-40.1296 L 118.934,-40.504 L 118.849,-40.8873 L 118.798,-41.2765
 L 118.781,-41.6687 L 118.798,-42.0609 L 118.849,-42.4501 L 118.934,-42.8334 L 119.052,-43.2078 L 119.203,-43.5705
 L 119.384,-43.9187 L 119.595,-44.2498 L 119.834,-44.5612 L 120.099,-44.8507 L 120.389,-45.1159 L 120.7,-45.3549
 L 121.031,-45.5658 L 121.379,-45.7471 L 121.742,-45.8973 L 122.116,-46.0154 L 122.5,-46.1003 L 122.889,-46.1516
 L 123.281,-46.1687 L 124.907,-46.1687 L 125.299,-46.1516 L 125.688,-46.1003 L 126.071,-46.0154 L 126.446,-45.8973
 L 126.808,-45.7471 L 127.157,-45.5658 L 127.488,-45.3549 L 127.799,-45.1159 L 128.089,-44.8507 L 128.354,-44.5612
 L 128.593,-44.2498 L 128.804,-43.9187 L 128.985,-43.5705 L 129.135,-43.2078 L 129.253,-42.8334 L 129.338,-42.4501
 L 129.39,-42.0609 L 129.407,-41.6687 L 129.39,-41.2765 L 129.338,-40.8873 L 129.253,-40.504 L 129.135,-40.1296
 L 128.985,-39.7669 L 128.804,-39.4187 L 128.593,-39.0876 L 128.354,-38.7762 L 128.089,-38.4867 L 127.799,-38.2215
 L 127.488,-37.9825 L 127.157,-37.7716 L 126.808,-37.5903 L 126.446,-37.4401 L 126.071,-37.322 L 125.688,-37.2371
 L 125.299,-37.1858 L 124.907,-37.1687 z
M 122.5,14.849 L 122.5,-5.151 L 152.5,-5.151 L 152.5,14.849 z
M 123.281,46.1687 L 122.889,46.1516 L 122.5,46.1003 L 122.116,46.0154 L 121.742,45.8973 L 121.379,45.7471
 L 121.031,45.5658 L 120.7,45.3549 L 120.389,45.1159 L 120.099,44.8507 L 119.834,44.5612 L 119.595,44.2498
 L 119.384,43.9187 L 119.203,43.5705 L 119.052,43.2078 L 118.934,42.8334 L 118.849,42.4501 L 118.798,42.0609
 L 118.781,41.6687 L 118.798,41.2765 L 118.849,40.8873 L 118.934,40.504 L 119.052,40.1296 L 119.203,39.7669
 L 119.384,39.4187 L 119.595,39.0876 L 119.834,38.7762 L 120.099,38.4867 L 120.389,38.2215 L 120.7,37.9825
 L 121.031,37.7716 L 121.379,37.5903 L 121.742,37.4401 L 122.116,37.322 L 122.5,37.2371 L 122.889,37.1858
 L 123.281,37.1687 L 124.907,37.1687 L 125.299,37.1858 L 125.688,37.2371 L 126.071,37.322 L 126.446,37.4401
 L 126.808,37.5903 L 127.157,37.7716 L 127.488,37.9825 L 127.799,38.2215 L 128.089,38.4867 L 128.354,38.7762
 L 128.593,39.0876 L 128.804,39.4187 L 128.985,39.7669 L 129.135,40.1296 L 129.253,40.504 L 129.338,40.8873
 L 129.39,41.2765 L 129.407,41.6687 L 129.39,42.0609 L 129.338,42.4501 L 129.253,42.8334 L 129.135,43.2078
 L 128.985,43.5705 L 128.804,43.9187 L 128.593,44.2498 L 128.354,44.5612 L 128.089,44.8507 L 127.799,45.1159
 L 127.488,45.3549 L 127.157,45.5658 L 126.808,45.7471 L 126.446,45.8973 L 126.071,46.0154 L 125.688,46.1003
 L 125.299,46.1516 L 124.907,46.1687 z
M 170.093,46.1687 L 169.701,46.1516 L 169.312,46.1003 L 168.929,46.0154 L 168.554,45.8973 L 168.192,45.7471
 L 167.843,45.5658 L 167.512,45.3549 L 167.201,45.1159 L 166.911,44.8507 L 166.646,44.5612 L 166.407,44.2498
 L 166.196,43.9187 L 166.015,43.5705 L 165.865,43.2078 L 165.747,42.8334 L 165.662,42.4501 L 165.61,42.0609
 L 165.593,41.6687 L 165.61,41.2765 L 165.662,40.8873 L 165.747,40.504 L 165.865,40.1296 L 166.015,39.7669
 L 166.196,39.4187 L 166.407,39.0876 L 166.646,38.7762 L 166.911,38.4867 L 167.201,38.2215 L 167.512,37.9825
 L 167.843,37.7716 L 168.192,37.5903 L 168.554,37.4401 L 168.929,37.322 L 169.312,37.2371 L 169.701,37.1858
 L 170.093,37.1687 L 171.719,37.1687 L 172.111,37.1858 L 172.5,37.2371 L 172.884,37.322 L 173.258,37.4401
 L 173.621,37.5903 L 173.969,37.7716 L 174.3,37.9825 L 174.611,38.2215 L 174.901,38.4867 L 175.166,38.7762
 L 175.405,39.0876 L 175.616,39.4187 L 175.797,39.7669 L 175.948,40.1296 L 176.066,40.504 L 176.151,40.8873
 L 176.202,41.2765 L 176.219,41.6687 L 176.202,42.0609 L 176.151,42.4501 L 176.066,42.8334 L 175.948,43.2078
 L 175.797,43.5705 L 175.616,43.9187 L 175.405,44.2498 L 175.166,44.5612 L 174.901,44.8507 L 174.611,45.1159
 L 174.3,45.3549 L 173.969,45.5658 L 173.621,45.7471 L 173.258,45.8973 L 172.884,46.0154 L 172.5,46.1003
 L 172.111,46.1516 L 171.719,46.1687 z
M 189.864,47.881 L 189.432,47.824 L 189.006,47.7296 L 188.59,47.5984 L 188.187,47.4315 L 187.8,47.2301
 L 187.432,46.9958 L 187.086,46.7302 L 186.764,46.4355 L 186.47,46.1139 L 186.204,45.7679 L 185.97,45.4
 L 185.768,45.0131 L 185.602,44.6101 L 185.47,44.1941 L 185.376,43.7682 L 185.319,43.3358 L 185.3,42.9
 L 185.319,42.4642 L 185.376,42.0318 L 185.47,41.6059 L 185.602,41.1899 L 185.768,40.7869 L 185.97,40.4
 L 186.204,40.0321 L 186.47,39.6861 L 186.764,39.3645 L 187.086,39.0698 L 187.432,38.8042 L 187.8,38.5699
 L 188.187,38.3685 L 188.59,38.2015 L 189.006,38.0704 L 189.432,37.976 L 189.864,37.919 L 190.3,37.9
 L 190.736,37.919 L 191.168,37.976 L 191.594,38.0704 L 192.01,38.2015 L 192.413,38.3685 L 192.8,38.5699
 L 193.168,38.8042 L 193.514,39.0698 L 193.836,39.3645 L 194.13,39.6861 L 194.396,40.0321 L 194.63,40.4
 L 194.832,40.7869 L 194.998,41.1899 L 195.13,41.6059 L 195.224,42.0318 L 195.281,42.4642 L 195.3,42.9
 L 195.281,43.3358 L 195.224,43.7682 L 195.13,44.1941 L 194.998,44.6101 L 194.832,45.0131 L 194.63,45.4
 L 194.396,45.7679 L 194.13,46.1139 L 193.836,46.4355 L 193.514,46.7302 L 193.168,46.9958 L 192.8,47.2301
 L 192.413,47.4315 L 192.01,47.5984 L 191.594,47.7296 L 191.168,47.824 L 190.736,47.881 L 190.3,47.9
 z
M 201.149,54.9406 L 200.904,54.8973 L 200.664,54.8298 L 200.432,54.7388 L 200.21,54.6251 L 200.001,54.4898
 L 199.806,54.3344 L 199.627,54.1604 L 199.467,53.9695 L 199.327,53.7636 L 199.208,53.5447 L 199.111,53.315
 L 199.037,53.0769 L 198.988,52.8326 L 198.963,52.5846 L 198.963,52.3354 L 198.988,52.0874 L 199.037,51.8431
 L 199.111,51.6049 L 199.208,51.3753 L 199.327,51.1564 L 199.467,50.9505 L 199.627,50.7596 L 199.806,50.5855
 L 200.001,50.4301 L 200.21,50.2949 L 200.432,50.1812 L 200.664,50.0902 L 200.904,50.0227 L 201.149,49.9794
 L 201.398,49.9608 L 201.647,49.967 L 201.894,49.998 L 202.137,50.0534 L 202.373,50.1328 L 202.601,50.2353
 L 202.816,50.3599 L 203.019,50.5054 L 203.206,50.6703 L 203.375,50.853 L 203.526,51.0517 L 203.656,51.2644
 L 203.764,51.4889 L 203.849,51.7231 L 203.91,51.9646 L 203.948,52.2111 L 203.96,52.46 L 203.948,52.7089
 L 203.91,52.9554 L 203.849,53.1969 L 203.764,53.4311 L 203.656,53.6556 L 203.526,53.8683 L 203.375,54.067
 L 203.206,54.2497 L 203.019,54.4146 L 202.816,54.5601 L 202.601,54.6847 L 202.373,54.7872 L 202.137,54.8665
 L 201.894,54.922 L 201.647,54.953 L 201.398,54.9592 z
M 93.2291,54.9406 L 92.9837,54.8973 L 92.7438,54.8298 L 92.5118,54.7388 L 92.29,54.6251 L 92.0806,54.4898
 L 91.8858,54.3344 L 91.7074,54.1604 L 91.5472,53.9695 L 91.4068,53.7636 L 91.2876,53.5447 L 91.1908,53.315
 L 91.1173,53.0769 L 91.0679,52.8326 L 91.0431,52.5846 L 91.0431,52.3354 L 91.0679,52.0874 L 91.1173,51.8431
 L 91.1908,51.6049 L 91.2876,51.3753 L 91.4068,51.1564 L 91.5472,50.9505 L 91.7074,50.7596 L 91.8858,50.5855
 L 92.0806,50.4301 L 92.29,50.2949 L 92.5118,50.1812 L 92.7438,50.0902 L 92.9837,50.0227 L 93.2291,49.9794
 L 93.4777,49.9608 L 93.7268,49.967 L 93.9741,49.998 L 94.2171,50.0534 L 94.4534,50.1328 L 94.6805,50.2353
 L 94.8964,50.3599 L 95.0987,50.5054 L 95.2856,50.6703 L 95.4551,50.853 L 95.6056,51.0517 L 95.7356,51.2644
 L 95.8437,51.4889 L 95.9289,51.7231 L 95.9904,51.9646 L 96.0276,52.2111 L 96.04,52.46 L 96.0276,52.7089
 L 95.9904,52.9554 L 95.9289,53.1969 L 95.8437,53.4311 L 95.7356,53.6556 L 95.6056,53.8683 L 95.4551,54.067
 L 95.2856,54.2497 L 95.0987,54.4146 L 94.8964,54.5601 L 94.6805,54.6847 L 94.4534,54.7872 L 94.2171,54.8665
 L 93.9741,54.922 L 93.7268,54.953 L 93.4777,54.9592 z
M 352.185,57.4915 L 352.428,57.4537 L 352.665,57.3863 L 352.891,57.2903 L 353.105,57.1672 L 353.301,57.0188
 L 353.478,56.8474 L 353.632,56.6555 L 353.762,56.4462 L 353.865,56.2225 L 353.94,55.9878 L 353.985,55.7458
 L 354,55.5 L 354,-55.5 L 353.985,-55.7458 L 353.94,-55.9878 L 353.865,-56.2225 L 353.762,-56.4462
 L 353.632,-56.6555 L 353.478,-56.8474 L 353.301,-57.0188 L 353.105,-57.1672 L 352.891,-57.2903 L 352.665,-57.3863
 L 352.428,-57.4537 L 352.185,-57.4915 L 351.938,-57.499 L 237.938,-57.499 L 237.693,-57.4763 L 237.453,-57.4236
 L 237.22,-57.3418 L 237,-57.232 L 236.795,-57.096 L 236.608,-56.9358 L 236.442,-56.7538 L 236.3,-56.5529
 L 236.183,-56.3359 L 236.094,-56.1063 L 236.034,-55.8675 L 236.004,-55.6231 L 236.004,55.6231 L 236.034,55.8675
 L 236.094,56.1063 L 236.183,56.3359 L 236.3,56.5529 L 236.442,56.7538 L 236.608,56.9358 L 236.795,57.096
 L 237,57.232 L 237.22,57.3418 L 237.453,57.4236 L 237.693,57.4763 L 237.938,57.499 L 351.938,57.499
 z
M 348.649,-49.9794 L 348.404,-50.0227 L 348.164,-50.0902 L 347.932,-50.1812 L 347.71,-50.2949 L 347.501,-50.4301
 L 347.306,-50.5855 L 347.127,-50.7596 L 346.967,-50.9505 L 346.827,-51.1564 L 346.708,-51.3753 L 346.611,-51.6049
 L 346.537,-51.8431 L 346.488,-52.0874 L 346.463,-52.3354 L 346.463,-52.5846 L 346.488,-52.8326 L 346.537,-53.0769
 L 346.611,-53.315 L 346.708,-53.5447 L 346.827,-53.7636 L 346.967,-53.9695 L 347.127,-54.1604 L 347.306,-54.3344
 L 347.501,-54.4898 L 347.71,-54.6251 L 347.932,-54.7388 L 348.164,-54.8298 L 348.404,-54.8973 L 348.649,-54.9406
 L 348.898,-54.9592 L 349.147,-54.953 L 349.394,-54.922 L 349.637,-54.8665 L 349.873,-54.7872 L 350.101,-54.6847
 L 350.316,-54.5601 L 350.519,-54.4146 L 350.706,-54.2497 L 350.875,-54.067 L 351.026,-53.8683 L 351.156,-53.6556
 L 351.264,-53.4311 L 351.349,-53.1969 L 351.41,-52.9554 L 351.448,-52.7089 L 351.46,-52.46 L 351.448,-52.2111
 L 351.41,-51.9646 L 351.349,-51.7231 L 351.264,-51.4889 L 351.156,-51.2644 L 351.026,-51.0517 L 350.875,-50.853
 L 350.706,-50.6703 L 350.519,-50.5054 L 350.316,-50.3599 L 350.101,-50.2353 L 349.873,-50.1328 L 349.637,-50.0534
 L 349.394,-49.998 L 349.147,-49.967 L 348.898,-49.9608 z
M 240.729,-49.9794 L 240.484,-50.0227 L 240.244,-50.0902 L 240.012,-50.1812 L 239.79,-50.2949 L 239.581,-50.4301
 L 239.386,-50.5855 L 239.207,-50.7596 L 239.047,-50.9505 L 238.907,-51.1564 L 238.788,-51.3753 L 238.691,-51.6049
 L 238.617,-51.8431 L 238.568,-52.0874 L 238.543,-52.3354 L 238.543,-52.5846 L 238.568,-52.8326 L 238.617,-53.0769
 L 238.691,-53.315 L 238.788,-53.5447 L 238.907,-53.7636 L 239.047,-53.9695 L 239.207,-54.1604 L 239.386,-54.3344
 L 239.581,-54.4898 L 239.79,-54.6251 L 240.012,-54.7388 L 240.244,-54.8298 L 240.484,-54.8973 L 240.729,-54.9406
 L 240.978,-54.9592 L 241.227,-54.953 L 241.474,-54.922 L 241.717,-54.8665 L 241.953,-54.7872 L 242.181,-54.6847
 L 242.396,-54.5601 L 242.599,-54.4146 L 242.786,-54.2497 L 242.955,-54.067 L 243.106,-53.8683 L 243.236,-53.6556
 L 243.344,-53.4311 L 243.429,-53.1969 L 243.49,-52.9554 L 243.528,-52.7089 L 243.54,-52.46 L 243.528,-52.2111
 L 243.49,-51.9646 L 243.429,-51.7231 L 243.344,-51.4889 L 243.236,-51.2644 L 243.106,-51.0517 L 242.955,-50.853
 L 242.786,-50.6703 L 242.599,-50.5054 L 242.396,-50.3599 L 242.181,-50.2353 L 241.953,-50.1328 L 241.717,-50.0534
 L 241.474,-49.998 L 241.227,-49.967 L 240.978,-49.9608 z
M 270,14.849 L 270,-4.14999 L 250,-4.14999 L 249.645,-4.21498 L 249.432,-4.32701 L 249.251,-4.48688
 L 249.115,-4.68527 L 249.029,-4.91068 L 249,-5.14999 L 249,-50.15 L 249.065,-50.5046 L 249.177,-50.7181
 L 249.337,-50.8985 L 249.535,-51.0354 L 249.761,-51.1209 L 250,-51.15 L 340,-51.15 L 340.355,-51.085
 L 340.568,-50.973 L 340.749,-50.8131 L 340.885,-50.6147 L 340.971,-50.3893 L 341,-50.15 L 341,-5.14999
 L 340.935,-4.79539 L 340.823,-4.58192 L 340.663,-4.40149 L 340.465,-4.26454 L 340.239,-4.17905 L 340,-4.14999
 L 300,-4.14999 L 300,14.849 z
M 348.649,54.9406 L 348.404,54.8973 L 348.164,54.8298 L 347.932,54.7388 L 347.71,54.6251 L 347.501,54.4898
 L 347.306,54.3344 L 347.127,54.1604 L 346.967,53.9695 L 346.827,53.7636 L 346.708,53.5447 L 346.611,53.315
 L 346.537,53.0769 L 346.488,52.8326 L 346.463,52.5846 L 346.463,52.3354 L 346.488,52.0874 L 346.537,51.8431
 L 346.611,51.6049 L 346.708,51.3753 L 346.827,51.1564 L 346.967,50.9505 L 347.127,50.7596 L 347.306,50.5855
 L 347.501,50.4301 L 347.71,50.2949 L 347.932,50.1812 L 348.164,50.0902 L 348.404,50.0227 L 348.649,49.9794
 L 348.898,49.9608 L 349.147,49.967 L 349.394,49.998 L 349.637,50.0534 L 349.873,50.1328 L 350.101,50.2353
 L 350.316,50.3599 L 350.519,50.5054 L 350.706,50.6703 L 350.875,50.853 L 351.026,51.0517 L 351.156,51.2644
 L 351.264,51.4889 L 351.349,51.7231 L 351.41,51.9646 L 351.448,52.2111 L 351.46,52.46 L 351.448,52.7089
 L 351.41,52.9554 L 351.349,53.1969 L 351.264,53.4311 L 351.156,53.6556 L 351.026,53.8683 L 350.875,54.067
 L 350.706,54.2497 L 350.519,54.4146 L 350.316,54.5601 L 350.101,54.6847 L 349.873,54.7872 L 349.637,54.8665
 L 349.394,54.922 L 349.147,54.953 L 348.898,54.9592 z
M 240.729,54.9406 L 240.484,54.8973 L 240.244,54.8298 L 240.012,54.7388 L 239.79,54.6251 L 239.581,54.4898
 L 239.386,54.3344 L 239.207,54.1604 L 239.047,53.9695 L 238.907,53.7636 L 238.788,53.5447 L 238.691,53.315
 L 238.617,53.0769 L 238.568,52.8326 L 238.543,52.5846 L 238.543,52.3354 L 238.568,52.0874 L 238.617,51.8431
 L 238.691,51.6049 L 238.788,51.3753 L 238.907,51.1564 L 239.047,50.9505 L 239.207,50.7596 L 239.386,50.5855
 L 239.581,50.4301 L 239.79,50.2949 L 240.012,50.1812 L 240.244,50.0902 L 240.484,50.0227 L 240.729,49.9794
 L 240.978,49.9608 L 241.227,49.967 L 241.474,49.998 L 241.717,50.0534 L 241.953,50.1328 L 242.181,50.2353
 L 242.396,50.3599 L 242.599,50.5054 L 242.786,50.6703 L 242.955,50.853 L 243.106,51.0517 L 243.236,51.2644
 L 243.344,51.4889 L 243.429,51.7231 L 243.49,51.9646 L 243.528,52.2111 L 243.54,52.46 L 243.528,52.7089
 L 243.49,52.9554 L 243.429,53.1969 L 243.344,53.4311 L 243.236,53.6556 L 243.106,53.8683 L 242.955,54.067
 L 242.786,54.2497 L 242.599,54.4146 L 242.396,54.5601 L 242.181,54.6847 L 241.953,54.7872 L 241.717,54.8665
 L 241.474,54.922 L 241.227,54.953 L 240.978,54.9592 z
M 1029.5,32.4502 L 1029.5,11.5487 L 1010.09,-24.9572 L 1010.09,-24.9574 L 1054.91,-24.9576 L 1054.91,-24.9574
 L 1035.5,11.5477 L 1035.5,32.4502 L 1038.63,35.5797 L 1042.4,35.5797 L 1045.47,29.8061 L 1048.21,31.2652
 L 1051.28,25.493 L 1048.53,24.0339 L 1051.6,18.2599 L 1054.35,19.719 L 1057.42,13.9468 L 1054.67,12.4877
 L 1057.74,6.71367 L 1060.49,8.17278 L 1063.56,2.40054 L 1060.81,0.941437 L 1063.88,-4.83257 L 1066.63,-3.37346
 L 1069.7,-9.14569 L 1066.95,-10.6048 L 1070.02,-16.3788 L 1072.77,-14.9197 L 1075.84,-20.6919 L 1073.09,-22.151
 L 1076.16,-27.925 L 1078.91,-26.4659 L 1081.97,-32.2382 L 1079.23,-33.6973 L 1082.3,-39.4708 L 1082.3,-39.4713
 L 982.7,-39.4708 L 982.699,-39.4703 L 985.769,-33.6968 L 983.025,-32.2381 L 986.095,-26.4659 L 988.838,-27.9245
 L 991.908,-22.1506 L 989.165,-20.6919 L 992.234,-14.9197 L 994.977,-16.3783 L 998.047,-10.6043 L 995.304,-9.14569
 L 998.373,-3.37344 L 1001.12,-4.83209 L 1004.19,0.94191 L 1001.44,2.40054 L 1004.51,8.17278 L 1007.26,6.71414
 L 1010.33,12.4881 L 1007.58,13.9468 L 1010.65,19.719 L 1013.39,18.2604 L 1016.46,24.0344 L 1013.72,25.493
 L 1016.79,31.2653 L 1019.53,29.8066 L 1022.6,35.5797 L 1026.37,35.5797 z
M 862.039,-3.10698 L 868.576,-3.10698 L 868.576,-0 L 875.116,-0 L 875.116,-3.10698 L 881.653,-3.10698
 L 881.653,-0 L 888.193,-0 L 888.193,-3.10698 L 894.73,-3.10698 L 894.73,-0 L 901.27,-0
 L 901.27,-3.10698 L 907.807,-3.10698 L 907.807,-0 L 914.347,-0 L 914.347,-3.10698 L 920.884,-3.10698
 L 920.884,-0 L 927.424,-0 L 927.424,-3.10698 L 933.961,-3.10698 L 933.961,-0 L 940.5,-0
 L 940.5,-16 L 933.962,-16 L 933.962,-12.892 L 930.5,-12.892 L 930.5,-11.892 L 865.5,-11.892
 L 865.5,-12.892 L 862.038,-12.892 L 862.038,-16 L 855.5,-16 L 855.5,-0 L 862.039,-0
 z
M 873.5,6.21599 L 855.5,6.21599 L 855.5,16 L 873.5,16 z
" style="vector-effect:non-scaling-stroke;fill:none;fill-opacity:1;stroke:#000000;stroke-width:0.264583;stroke-miterlimit:4;stroke-dasharray:none;stroke-dashoffset:0;stroke-opacity:1;-inkscape-stroke:hairline"/>
</svg>
